<?xml version="1.0" encoding="UTF-8" standalone="no"?>
<!-- Created with Inkscape (http://www.inkscape.org/) -->

<svg
   width="720.0px"
   height="576.0px"
   viewBox="0 0 720.0 576.0"
   version="1.1"
   id="SVGRoot"
   sodipodi:docname="radio.svg"
   inkscape:version="1.2.1 (9c6d41e410, 2022-07-14, custom)"
   xml:space="preserve"
   xmlns:inkscape="http://www.inkscape.org/namespaces/inkscape"
   xmlns:sodipodi="http://sodipodi.sourceforge.net/DTD/sodipodi-0.dtd"
   xmlns="http://www.w3.org/2000/svg"
   xmlns:svg="http://www.w3.org/2000/svg"><sodipodi:namedview
     id="namedview310"
     pagecolor="#ffffff"
     bordercolor="#111111"
     borderopacity="1"
     inkscape:showpageshadow="0"
     inkscape:pageopacity="0"
     inkscape:pagecheckerboard="1"
     inkscape:deskcolor="#d1d1d1"
     inkscape:document-units="px"
     showgrid="false"
     inkscape:zoom="0.5991802"
     inkscape:cx="215.29417"
     inkscape:cy="418.07123"
     inkscape:window-width="1103"
     inkscape:window-height="638"
     inkscape:window-x="0"
     inkscape:window-y="0"
     inkscape:window-maximized="0"
     inkscape:current-layer="layer1" /><defs
     id="defs305" /><g
     inkscape:label="Layer 1"
     inkscape:groupmode="layer"
     id="layer1"><g
       id="g447"
       transform="matrix(2.1937924,0,0,2.1937924,-240.72999,-126.58178)"><path
         style="fill:#f7d779;stroke-width:0.406393"
         d="m 323.50522,278.79386 h -21.02575 v -66.64844 -66.64845 h 30.40571 30.40571 l 2.20732,0.65492 2.20732,0.65491 1.87921,0.95158 1.8792,0.95158 1.90082,1.90082 1.90083,1.90083 1.1899,2.35718 1.18991,2.35719 0.40544,1.75537 0.40544,1.75536 0.14628,49.98633 0.14629,49.98634 -0.13936,-32.91643 -0.13937,-32.91644 -7.70236,-7.72286 -7.70236,-7.72286 -1.22499,-3.02864 -1.225,-3.02863 -1.50228,-2.18125 -1.50228,-2.18124 -2.46787,-2.2333 -2.46787,-2.23329 -2.8478,-1.38976 -2.84782,-1.38977 -2.42214,-0.6157 -2.42214,-0.6157 h -3.30395 -3.30395 l -3.17342,0.81163 -3.17342,0.81163 -2.68269,1.49344 -2.68268,1.49345 -2.67324,2.67324 -2.67325,2.67324 -1.49344,2.68269 -1.49345,2.68268 -0.81163,3.17342 -0.81162,3.17343 v 3.30394 3.30395 l 0.6157,2.42215 0.61569,2.42214 1.38977,2.84781 1.38977,2.84781 2.27093,2.50946 2.27093,2.50947 2.41297,1.61131 2.41297,1.61132 2.76693,1.0573 2.76693,1.05731 3.79876,3.81461 3.79875,3.81462 -3.28132,0.29047 -3.28132,0.29046 -3.18956,1.10444 -3.18956,1.10444 -2.28845,1.51899 -2.28844,1.51898 -2.43228,2.60011 -2.43227,2.60011 -1.44972,2.96513 -1.44971,2.96514 -0.66261,2.63898 -0.66259,2.63898 0.19115,4.06651 0.19116,4.0665 1.02573,2.91634 1.02572,2.91634 1.92775,2.89973 1.92774,2.89974 2.4263,2.01919 2.42631,2.01919 2.301,1.15113 2.301,1.15113 1.42695,0.46174 1.42696,0.46174 6.08623,6.09639 6.08623,6.0964 z m 48.5112,-4.06393 h -0.2032 l 1.37862,-1.42237 1.37862,-1.42238 h 0.2032 0.20319 l -1.37862,1.42238 -1.37862,1.42237 z m 3.41058,-3.65753 h -0.2032 v -0.2032 -0.2032 h 0.2032 0.2032 v 0.2032 0.2032 z m 0.81279,-1.21918 h -0.2032 v -0.2032 -0.2032 h 0.2032 0.20319 v 0.2032 0.2032 z m 0.40639,-0.81279 h -0.2032 v -0.2032 -0.20319 h 0.2032 0.2032 v 0.20319 0.2032 z m 0.40639,-0.81278 h -0.20319 v -0.2032 -0.2032 h 0.20319 0.2032 v 0.2032 0.2032 z m 0.4064,-1.21918 h -0.2032 v -0.2032 -0.2032 h 0.2032 0.20319 v 0.2032 0.2032 z m 0.40639,-1.21918 h -0.2032 v -0.2032 -0.2032 h 0.2032 0.20319 v 0.2032 0.2032 z m 0.47412,-1.76104 -0.27093,0.27093 v -0.54186 -0.54185 l 0.27093,0.27092 0.27093,0.27093 z m -40.07047,-0.73266 -1.85573,-0.0554 -1.01598,-0.17007 -1.01599,-0.17007 -2.03196,-0.63642 -2.03197,-0.63642 -2.1811,-1.22716 -2.18111,-1.22715 -2.11609,-2.15018 -2.1161,-2.15018 -1.27803,-2.39782 -1.27802,-2.39782 -0.62227,-2.38903 -0.62226,-2.38905 v -2.53616 -2.53617 l 0.4491,-2.15357 0.4491,-2.15356 1.24203,-2.64156 1.24203,-2.64155 2.68008,-2.68608 2.68009,-2.68609 2.04683,-1.03721 2.04683,-1.03721 2.33057,-0.67751 2.33057,-0.67752 h 3.22881 3.22881 l 2.34792,0.67773 2.34793,0.67772 2.34946,1.24652 2.34947,1.24652 2.32405,2.49288 2.32406,2.49289 1.10421,2.04607 1.1042,2.04607 0.62297,2.39171 0.62296,2.39172 v 3.092 3.092 l -0.64835,2.20733 -0.64835,2.20732 -1.28202,2.43389 -1.28201,2.43389 -2.37576,2.34471 -2.37576,2.34471 -2.90735,1.38813 -2.90735,1.38812 -2.4114,0.43716 -2.4114,0.43716 z m 0.17623,-57.29234 -3.25114,-0.0264 -1.95567,-0.5376 -1.95566,-0.5376 -2.31146,-1.15323 -2.31146,-1.15323 -2.64156,-2.64155 -2.64155,-2.64155 -1.11438,-2.30464 -1.11438,-2.30464 -0.61279,-2.35267 -0.61279,-2.35266 v -2.67399 -2.67398 l 0.62226,-2.38904 0.62227,-2.38904 1.3081,-2.46618 1.3081,-2.46618 2.24044,-2.24044 2.24044,-2.24044 2.46619,-1.30811 2.46617,-1.3081 2.38904,-0.62226 2.38904,-0.62227 h 2.67399 2.67398 l 2.35267,0.6128 2.35266,0.61279 2.18721,1.07096 2.1872,1.07097 2.24003,1.99651 2.24004,1.99651 1.42723,2.92362 1.42723,2.92361 0.6157,2.42215 0.6157,2.42214 v 3.53594 3.53595 l -0.76994,2.47381 -0.76994,2.47381 -1.30119,2.02774 -1.3012,2.02774 -2.217,2.02621 -2.21699,2.02621 -2.53026,1.20758 -2.53025,1.20758 -1.81747,0.41879 -1.81746,0.4188 -3.25115,-0.0264 z"
         id="path463" /><path
         style="fill:#b2b2b2;stroke-width:0.406393"
         d="m 168.1666,282.4514 h -0.2032 v -0.2032 -0.20319 h 0.2032 0.20319 v 0.20319 0.2032 z m 211.32433,0 h -0.2032 v -0.2032 -0.20319 h 0.2032 0.2032 v 0.20319 0.2032 z m 0.76482,-0.40639 h -0.2032 l 0.25117,-0.4064 0.25116,-0.40639 h 0.2032 0.20319 l -0.25116,0.40639 -0.25116,0.4064 z m -213.30833,-0.81279 h -0.2032 v -0.2032 -0.20319 h 0.2032 0.20319 v 0.20319 0.2032 z m 214.16908,-0.40639 h -0.20319 v -0.2032 -0.2032 h 0.20319 0.2032 v 0.2032 0.2032 z m -214.50774,-0.54186 -0.27093,0.27093 v -0.54186 -0.54185 l 0.27093,0.27092 0.27093,0.27093 z m 214.98008,-0.98212 -0.20498,0.50799 v -1.01598 -1.01598 l 0.20498,0.50799 0.20499,0.50799 z m -19.16641,-0.50799 h -0.2032 v -0.20319 -0.2032 h 0.2032 0.20319 v 0.2032 0.20319 z m 2.43835,-0.40639 h -0.20319 v -0.2032 -0.20319 h 0.20319 0.2032 v 0.20319 0.2032 z m -198.25202,-0.94825 -0.27093,0.27093 v -0.54186 -0.54186 l 0.27093,0.27093 0.27093,0.27093 z m 214.63245,-0.46337 -0.22749,0.2275 -0.27748,-0.72872 -0.27748,-0.72871 0.50497,0.50121 0.50498,0.50122 z M 166.89766,276.3555 h -0.15344 v -0.15343 -0.15344 l 0.71119,-0.55775 0.71119,-0.55775 -0.55776,0.71119 -0.55775,0.71118 z m 212.99966,-0.81278 h -0.20319 v -0.2032 -0.20319 h 0.20319 0.2032 v 0.20319 0.2032 z m -207.97159,-0.47143 -3.75913,-0.065 1.21918,-0.12659 1.21917,-0.12659 2.5407,-0.11317 2.5407,-0.11316 -7.3e-4,0.30479 -7.5e-4,0.3048 z m 203.50127,-0.0834 -4.06393,-0.002 2.14719,-0.14973 2.14718,-0.14974 1.91675,0.15166 1.91674,0.15165 -4.06393,-0.002 z m -201.95331,-2.28993 h -0.17921 l -0.28998,-0.46919 -0.28997,-0.46918 0.46919,0.28997 0.46918,0.28997 v 0.17922 0.17921 z m -1.24316,-1.62557 h -0.2032 v -0.2032 -0.2032 h 0.2032 0.20319 v 0.2032 0.2032 z m -0.81279,-1.21918 h -0.2032 v -0.2032 -0.2032 h 0.2032 0.2032 v 0.2032 0.2032 z m -0.40639,-0.81279 h -0.2032 v -0.2032 -0.20319 h 0.2032 0.20319 v 0.20319 0.2032 z m -0.81279,-2.03196 h -0.2032 v -0.2032 -0.2032 h 0.2032 0.2032 v 0.2032 0.2032 z m -0.33866,-1.35465 -0.27093,0.27093 v -0.54186 -0.54185 l 0.27093,0.27092 0.27093,0.27093 z m -0.40639,-2.03196 -0.27093,0.27093 v -0.54186 -0.54186 l 0.27093,0.27093 0.27093,0.27093 z m -7.17961,-79.98811 h -1.01598 l 0.50799,-0.20498 0.50799,-0.20498 0.50799,0.20498 0.50799,0.20498 z m 220.46817,-0.11618 -3.65753,0.0228 3.55396,-0.13968 3.55396,-0.13967 0.10654,-39.91289 0.10656,-39.91288 -0.003,40.0297 -0.003,40.02971 -3.65754,0.0228 z m -213.66832,-1.75002 -0.15556,1.72717 v -3.45434 -3.45434 l 0.15556,1.72717 0.15556,1.72717 z m 0.0875,-15.23974 -0.22455,5.9943 v -11.9886 -11.98859 l 0.22455,5.9943 0.22456,5.99429 z m 209.61831,-18.86754 -0.11242,13.88923 8e-5,-28.04112 8e-5,-28.04111 0.11233,14.15189 0.11234,14.15189 z M 169.7922,158.90793 h -0.2032 v -0.20319 -0.2032 h 0.2032 0.20319 v 0.2032 0.20319 z m 0.81278,-2.43836 h -0.20319 v -0.20319 -0.2032 h 0.20319 0.2032 v 0.2032 0.20319 z m 1.21918,-2.43835 h -0.20319 v -0.2032 -0.2032 h 0.20319 0.2032 v 0.2032 0.2032 z m 0.81279,-1.21918 h -0.2032 v -0.2032 -0.2032 h 0.2032 0.2032 v 0.2032 0.2032 z m 1.62557,-2.03197 h -0.2032 v -0.20319 -0.2032 h 0.2032 0.2032 v 0.2032 0.20319 z m 1.984,-1.62557 h -0.2032 l 0.25117,-0.40639 0.25116,-0.40639 h 0.2032 0.20319 l -0.25116,0.40639 -0.25117,0.40639 z m 1.26714,-0.81278 h -0.20319 v -0.2032 -0.2032 h 0.20319 0.2032 v 0.2032 0.2032 z m 3.25115,-1.62558 h -0.2032 v -0.20319 -0.2032 h 0.2032 0.20319 v 0.2032 0.20319 z m 1.21918,-0.40639 h -0.2032 v -0.2032 -0.20319 h 0.2032 0.20319 v 0.20319 0.2032 z m 1.82876,-0.40639 h -0.54185 l 0.27093,-0.27093 0.27092,-0.27093 0.27093,0.27093 0.27093,0.27093 z m 60.75575,-0.60411 -58.11419,-2e-5 29.1905,-0.10703 29.1905,-0.10703 28.92369,0.10705 28.92369,0.10705 z m 107.49094,-3.52399 h -1.01599 l 0.50799,-0.20498 0.508,-0.20498 0.50799,0.20498 0.50799,0.20498 z m -174.95217,-0.34222 h -0.2032 v -0.2032 -0.2032 h 0.2032 0.2032 v 0.2032 0.2032 z m 3.04795,0 h -0.54186 l 0.27093,-0.27093 0.27093,-0.27093 0.27093,0.27093 0.27093,0.27093 z m 114.79552,0 h -49.77265 v -1.82877 -1.82877 h -30.41684 -30.41684 l 0.039,-1.82867 0.039,-1.82866 80.3882,-1.1e-4 80.38818,-1e-4 -0.27917,0.4517 -0.27916,0.45171 0.0415,3.20583 0.0415,3.20584 z m 0.0105,-0.4064 h 49.37674 v -1.62557 -1.62557 H 294.9612 245.58445 v 1.62557 1.62557 z m 55.29342,0.4064 h -0.17921 l -0.28997,-0.46919 -0.28998,-0.46918 0.46919,0.28997 0.46918,0.28997 v 0.17921 0.17922 z m 3.38544,0 h -0.30964 l 1.09166,-1.13021 1.09167,-1.1302 0.17093,0.11582 0.17093,0.11583 -0.95296,1.01437 -0.95296,1.01439 z m -172.46889,-0.4064 h -0.2032 v -0.20319 -0.2032 h 0.2032 0.2032 v 0.2032 0.20319 z m -5.6895,-0.40639 h -0.2032 v -0.2032 -0.20319 h 0.2032 0.2032 v 0.20319 0.2032 z m 6.37631,0 h -0.20319 l 0.73556,-0.81279 0.73556,-0.81278 h 0.2032 0.20319 l -0.73556,0.81278 -0.73556,0.81279 z m 166.74709,-0.81279 h -0.2032 v -0.20319 -0.2032 h 0.2032 0.20319 v 0.2032 0.20319 z M 173.8561,138.99469 h -0.2032 v -0.2032 -0.2032 h 0.2032 0.20319 v 0.2032 0.2032 z m 174.41952,-0.50799 -0.18586,0.71118 v -1.42237 -1.42238 l 0.18586,0.71119 0.18585,0.71119 z m 7.71047,-0.2032 -0.20498,0.50799 v -1.01598 -1.01598 l 0.20498,0.50799 0.20498,0.50799 z m -182.87505,-1.04985 -0.27092,0.27093 v -0.54186 -0.54185 l 0.27092,0.27092 0.27093,0.27093 z m 175.49403,-1.08371 h -0.2032 v -0.2032 -0.2032 h 0.2032 0.20319 v 0.2032 0.2032 z m 6.93266,0 h -0.17921 l -0.28997,-0.46919 -0.28998,-0.46918 0.46919,0.28997 0.46918,0.28997 v 0.17922 0.17921 z m -6.57424,-0.81279 h -0.20319 l 0.25116,-0.40639 0.25116,-0.4064 h 0.2032 0.2032 l -0.25117,0.4064 -0.25116,0.40639 z m -175.92018,-0.81279 h -0.20319 v -0.20319 -0.2032 h 0.20319 0.2032 v 0.2032 0.20319 z m 177.18733,0 h -0.2032 v -0.20319 -0.2032 h 0.2032 0.20319 v 0.2032 0.20319 z m 3.65753,0 h -0.20319 v -0.20319 -0.2032 h 0.20319 0.2032 v 0.2032 0.20319 z m -1.82876,-0.50067 h -1.42238 l 0.71119,-0.18586 0.71119,-0.18585 0.71118,0.18585 0.71119,0.18586 z m -168.04349,-0.31211 h -0.2032 v -0.2032 -0.20319 h 0.2032 0.2032 v 0.20319 0.2032 z m -10.56622,-0.40639 h -0.20319 v -0.2032 -0.2032 h 0.20319 0.2032 v 0.2032 0.2032 z m 10.15983,-0.4064 h -0.2032 v -0.20319 -0.2032 h 0.2032 0.20319 v 0.2032 0.20319 z m -9.39501,-0.81278 h -0.20319 l 0.25116,-0.4064 0.25117,-0.40639 h 0.20319 0.2032 l -0.25117,0.40639 -0.25116,0.4064 z m 1.67354,-1.21918 h -0.20319 v -0.2032 -0.20319 h 0.20319 0.2032 v 0.20319 0.2032 z m 5.6895,0 h -0.20319 v -0.2032 -0.20319 h 0.20319 0.2032 v 0.20319 0.2032 z m -4.87671,-0.40639 h -0.2032 v -0.2032 -0.2032 h 0.2032 0.20319 v 0.2032 0.2032 z m 4.06393,0 h -0.2032 v -0.2032 -0.2032 h 0.2032 0.20319 v 0.2032 0.2032 z m -2.03197,-0.4064 h -0.20319 v -0.20319 -0.2032 h 0.20319 0.2032 v 0.2032 0.20319 z m -9.395,-25.60275 h -0.2032 l 0.25117,-0.4064 0.25116,-0.40639 h 0.2032 0.20319 l -0.25116,0.40639 -0.25117,0.4064 z m 104.69415,-1.01283 H 171.41774 l 51.30711,-0.10474 51.30711,-0.10474 51.30711,0.10474 51.30711,0.10474 z m -112.36765,-1.42553 h -0.2032 v -0.2032 -0.20319 h 0.2032 0.2032 v 0.20319 0.2032 z m 224.32891,-0.40639 h -0.2032 v -0.2032 -0.2032 h 0.2032 0.20319 v 0.2032 0.2032 z m -0.81279,-1.625576 h -0.20319 v -0.203196 -0.203197 h 0.20319 0.2032 v 0.203197 0.203196 z M 162.88349,99.574571 h -0.2032 v -0.203196 -0.203197 h 0.2032 0.20319 v 0.203197 0.203196 z M 384.4174,98.761785 h -0.15343 l -0.55775,-0.711187 -0.55775,-0.711188 0.71118,0.557752 0.71119,0.557752 v 0.153436 0.153435 z M 165.32185,97.136214 h -0.2032 v -0.203197 -0.203196 h 0.2032 0.20319 v 0.203196 0.203197 z m 217.01383,0 h -0.2032 v -0.203197 -0.203196 h 0.2032 0.2032 v 0.203196 0.203197 z M 166.13463,96.729821 h -0.20319 v -0.203197 -0.203196 h 0.20319 0.2032 v 0.203196 0.203197 z m 0.81279,-0.406393 h -0.2032 v -0.203197 -0.203196 h 0.2032 0.20319 v 0.203196 0.203197 z m 213.76269,0 h -0.2032 v -0.203197 -0.203196 h 0.2032 0.2032 v 0.203196 0.203197 z m -106.88135,-0.606514 -105.25577,6e-6 52.49358,-0.104664 52.49358,-0.104663 52.76219,0.104658 52.7622,0.104658 z"
         id="path461" /><path
         style="fill:#d6b969;stroke-width:0.406393"
         d="m 353.07031,278.78681 -8.53934,0.007 -6.09081,-6.11154 -6.09081,-6.11154 1.82877,0.32044 1.82876,0.32044 3.04795,-0.0267 3.04795,-0.0267 2.23516,-0.52563 2.23516,-0.52563 3.04795,-1.43648 3.04795,-1.43648 3.26598,-3.29424 3.26599,-3.29424 1.31591,-2.51397 1.31591,-2.51397 0.80281,-3.13894 0.80281,-3.13894 -0.006,-2.88134 -0.006,-2.88134 -0.62073,-2.64156 -0.62073,-2.64155 -1.49555,-3.04795 -1.49554,-3.04795 -3.06824,-3.08158 -3.06823,-3.08159 -3.03894,-1.48422 -3.03894,-1.48423 -2.42214,-0.6157 -2.42215,-0.6157 -2.65777,-0.061 -2.65777,-0.061 1.758,-0.24376 1.758,-0.24376 -4.0103,-3.93527 -4.01029,-3.93529 1.23631,0.27775 1.23632,0.27774 4.47032,-0.0353 4.47032,-0.0353 2.64156,-0.91482 2.64155,-0.91482 2.25999,-1.36942 2.26,-1.36943 1.88565,-1.65981 1.88565,-1.65982 1.89981,-2.85773 1.89982,-2.85772 1.03631,-2.91634 1.03631,-2.91634 0.0301,-4.47032 0.0301,-4.47032 -0.27686,-1.21918 -0.27686,-1.21918 7.89673,7.93764 7.89673,7.93764 v 33.93705 33.93705 l -0.60766,2.33294 -0.60765,2.33294 -0.86556,1.69665 -0.86557,1.69665 -2.28591,2.39841 -2.28592,2.3984 -1.9787,1.0038 -1.9787,1.00379 -2.69482,0.5712 -2.69482,0.57119 -8.53933,0.007 z m -177.93205,-4.46327 h -0.14021 l -0.77417,-0.91438 -0.77418,-0.91439 0.91439,0.77418 0.91438,0.77417 v 0.14021 0.14021 z m -3.31413,-4.06393 h -0.20319 v -0.2032 -0.20319 h 0.20319 0.2032 v 0.20319 0.2032 z m -1.21918,-2.43836 h -0.20319 v -0.20319 -0.2032 h 0.20319 0.2032 v 0.2032 0.20319 z m 161.33801,-1.21918 h -0.2032 v -0.20319 -0.2032 h 0.2032 0.20319 v 0.2032 0.20319 z m -1.21918,-0.40639 h -0.2032 v -0.2032 -0.20319 h 0.2032 0.20319 v 0.20319 0.2032 z m -1.21918,-0.40639 h -0.2032 v -0.2032 -0.2032 h 0.2032 0.20319 v 0.2032 0.2032 z m -0.81279,-0.4064 h -0.20319 v -0.20319 -0.2032 h 0.20319 0.2032 v 0.2032 0.20319 z m -0.81278,-0.40639 h -0.2032 v -0.20319 -0.2032 h 0.2032 0.20319 v 0.2032 0.20319 z m -0.81279,-0.40639 h -0.2032 v -0.2032 -0.20319 h 0.2032 0.2032 v 0.20319 0.2032 z m -0.81279,-0.40639 h -0.20319 v -0.2032 -0.2032 h 0.20319 0.2032 v 0.2032 0.2032 z m -0.7888,-0.4064 h -0.17921 l -0.28997,-0.46918 -0.28998,-0.46919 0.46919,0.28998 0.46918,0.28997 v 0.17921 0.17921 z m 10.10198,-0.43847 -0.77892,-0.0321 0.53339,-0.21344 0.53339,-0.21345 0.24553,0.24553 0.24552,0.24553 -0.77891,-0.0321 z m 6.09589,0 -0.77892,-0.0321 0.53339,-0.21344 0.53339,-0.21345 0.24553,0.24553 0.24553,0.24553 -0.77892,-0.0321 z m -172.27674,-0.37431 h -0.2032 v -0.2032 -0.2032 h 0.2032 0.20319 v 0.2032 0.2032 z m 154.85969,0 h -0.17921 l -0.28997,-0.46919 -0.28997,-0.46918 0.46918,0.28997 0.46919,0.28997 v 0.17922 0.17921 z m 9.11986,0 h -0.54186 l 0.27093,-0.27093 0.27093,-0.27093 0.27093,0.27093 0.27093,0.27093 z m 10.56622,0 h -0.54186 l 0.27093,-0.27093 0.27093,-0.27093 0.27093,0.27093 0.27092,0.27093 z m -11.7854,-0.4064 h -0.54185 l 0.27092,-0.27093 0.27093,-0.27092 0.27093,0.27092 0.27093,0.27093 z m 13.20777,0 h -0.20319 v -0.20319 -0.2032 h 0.20319 0.2032 v 0.2032 0.20319 z m -14.22375,-0.40639 h -0.2032 v -0.2032 -0.20319 h 0.2032 0.2032 v 0.20319 0.2032 z m 15.23973,0 h -0.54185 l 0.27092,-0.27093 0.27093,-0.27092 0.27093,0.27092 0.27093,0.27093 z m -16.45891,-0.40639 h -0.2032 v -0.2032 -0.20319 h 0.2032 0.2032 v 0.20319 0.2032 z m 17.4749,0 h -0.2032 v -0.2032 -0.20319 h 0.2032 0.20319 v 0.20319 0.2032 z m -25.11664,-0.40639 h -0.12348 l -1.4005,-1.52398 -1.4005,-1.52397 1.52398,1.4005 1.52397,1.40049 v 0.12348 0.12348 z m 6.82895,0 h -0.20319 v -0.2032 -0.2032 h 0.20319 0.2032 v 0.2032 0.2032 z m 19.10047,0 h -0.20319 v -0.2032 -0.2032 h 0.20319 0.2032 v 0.2032 0.2032 z m -19.88927,-0.4064 h -0.17921 l -0.28997,-0.46918 -0.28997,-0.46919 0.46918,0.28998 0.46919,0.28997 v 0.17921 0.17921 z m 20.70206,0 h -0.2032 v -0.20319 -0.2032 h 0.2032 0.2032 v 0.2032 0.20319 z m -21.94522,-0.81278 h -0.2032 v -0.2032 -0.2032 h 0.2032 0.2032 v 0.2032 0.2032 z m 23.1644,0 h -0.2032 v -0.2032 -0.2032 h 0.2032 0.20319 v 0.2032 0.2032 z M 325.89682,259.287 h -0.15343 l -0.55776,-0.71119 -0.55775,-0.71118 0.71119,0.55775 0.71119,0.55775 v 0.15343 0.15344 z m 25.50324,0 h -0.15344 v -0.15344 -0.15343 l 0.71119,-0.55775 0.71119,-0.55775 -0.55775,0.71118 -0.55776,0.71119 z m -32.43769,-1.62557 h -0.17922 l -0.28997,-0.46919 -0.28997,-0.46918 0.46918,0.28997 0.46919,0.28997 v 0.17922 0.17921 z m 4.0897,-1.21918 h -0.15343 l -0.55776,-0.71119 -0.55775,-0.71119 0.71119,0.55775 0.71119,0.55776 v 0.15343 0.15344 z m -5.33287,-0.40639 h -0.20319 v -0.2032 -0.2032 h 0.20319 0.2032 v 0.2032 0.2032 z m 36.93379,0 h -0.20319 l 0.25116,-0.4064 0.25116,-0.40639 h 0.2032 0.2032 l -0.25117,0.40639 -0.25116,0.4064 z m -37.34018,-0.81279 h -0.2032 v -0.2032 -0.20319 h 0.2032 0.2032 v 0.20319 0.2032 z m 4.06393,-0.81278 h -0.2032 v -0.2032 -0.2032 h 0.2032 0.20319 v 0.2032 0.2032 z m 34.49543,0 h -0.20319 l 0.25116,-0.4064 0.25116,-0.40639 h 0.2032 0.2032 l -0.25117,0.40639 -0.25116,0.4064 z m -39.37215,-0.4064 h -0.20319 v -0.20319 -0.2032 h 0.20319 0.2032 v 0.2032 0.20319 z m -0.33866,-0.94825 -0.27093,0.27093 v -0.54186 -0.54185 l 0.27093,0.27092 0.27093,0.27093 z m 4.40259,0.13547 h -0.20319 v -0.2032 -0.2032 h 0.20319 0.2032 v 0.2032 0.2032 z m 36.16898,0 h -0.2032 v -0.2032 -0.2032 h 0.2032 0.20319 v 0.2032 0.2032 z m -36.57537,-0.81279 h -0.2032 v -0.2032 -0.20319 h 0.2032 0.2032 v 0.20319 0.2032 z m 36.98176,0 h -0.2032 v -0.2032 -0.20319 h 0.2032 0.20319 v 0.20319 0.2032 z m -41.45208,-0.40639 h -0.2032 v -0.2032 -0.2032 h 0.2032 0.20319 v 0.2032 0.2032 z m 4.06393,-0.4064 h -0.2032 v -0.20319 -0.2032 h 0.2032 0.20319 v 0.2032 0.20319 z m 37.79454,0 h -0.2032 v -0.20319 -0.2032 h 0.2032 0.2032 v 0.2032 0.20319 z m -42.19713,-0.54185 -0.27093,0.27092 v -0.54185 -0.54186 l 0.27093,0.27093 0.27092,0.27093 z m 3.99619,-0.27093 h -0.20319 v -0.2032 -0.20319 h 0.20319 0.2032 v 0.20319 0.2032 z m 38.60733,0 h -0.20319 v -0.2032 -0.20319 h 0.20319 0.2032 v 0.20319 0.2032 z m -43.00992,-0.94825 -0.27093,0.27093 v -0.54186 -0.54186 l 0.27093,0.27093 0.27093,0.27093 z m 43.48405,0 -0.27093,0.27093 v -0.54186 -0.54186 l 0.27093,0.27093 0.27093,0.27093 z m -39.48785,-0.27093 h -0.2032 v -0.2032 -0.20319 h 0.2032 0.2032 v 0.20319 0.2032 z m 39.89424,-0.94825 -0.27093,0.27093 v -0.54186 -0.54185 l 0.27093,0.27092 0.27093,0.27093 z m -44.29683,-0.40639 -0.27093,0.27092 v -0.54185 -0.54186 l 0.27093,0.27093 0.27093,0.27093 z m 3.9962,0.13546 h -0.2032 v -0.2032 -0.20319 h 0.2032 0.20319 v 0.20319 0.2032 z m 40.70703,-1.35464 -0.27093,0.27093 v -0.54186 -0.54186 l 0.27093,0.27093 0.27092,0.27093 z m -41.04569,-0.40639 -0.27093,0.27092 v -0.54185 -0.54186 l 0.27093,0.27093 0.27092,0.27093 z m -4.06572,-0.57573 -0.20498,0.50799 v -1.01598 -1.01598 l 0.20498,0.50799 0.20499,0.50799 z m 45.53795,-2.23516 -0.1693,1.11758 v -2.23516 -2.23516 l 0.1693,1.11758 0.1693,1.11758 z m -41.87033,-0.40165 -0.18494,0.70645 0.008,-1.62558 0.008,-1.62557 0.17674,0.91912 0.17674,0.91913 -0.18494,0.70645 z m -3.66762,-3.45908 -0.20498,0.50799 v -1.01598 -1.01599 l 0.20498,0.50799 0.20499,0.508 z m 4.04032,-0.61806 -0.24553,0.24553 0.0321,-0.77892 0.0321,-0.77892 0.21344,0.53339 0.21345,0.53339 -0.24553,0.24553 z m 41.04569,-0.40639 -0.24553,0.24553 0.0321,-0.77892 0.0321,-0.77892 0.21344,0.53339 0.21345,0.53339 -0.24553,0.24553 z m -44.67783,-1.65097 -0.27093,0.27092 v -0.54185 -0.54186 l 0.27093,0.27093 0.27093,0.27093 z m 4.06393,0 -0.27093,0.27092 v -0.54185 -0.54186 l 0.27093,0.27093 0.27093,0.27093 z m 40.16517,-0.27093 h -0.2032 v -0.2032 -0.20319 h 0.2032 0.2032 v 0.20319 0.2032 z m -43.89044,-1.21918 h -0.2032 v -0.2032 -0.20319 h 0.2032 0.2032 v 0.20319 0.2032 z m 4.06393,0 h -0.2032 v -0.2032 -0.20319 h 0.2032 0.2032 v 0.20319 0.2032 z m 39.42012,0 h -0.2032 v -0.2032 -0.20319 h 0.2032 0.20319 v 0.20319 0.2032 z m -38.94599,-0.94825 -0.27093,0.27093 v -0.54186 -0.54186 l 0.27093,0.27093 0.27092,0.27093 z m -4.13167,-0.27093 h -0.20319 v -0.2032 -0.20319 h 0.20319 0.2032 v 0.20319 0.2032 z m 42.67126,0 h -0.20319 v -0.2032 -0.20319 h 0.20319 0.2032 v 0.20319 0.2032 z m -38.20093,-0.81279 h -0.2032 v -0.20319 -0.2032 h 0.2032 0.20319 v 0.2032 0.20319 z m 37.79454,0 h -0.2032 v -0.20319 -0.2032 h 0.2032 0.2032 v 0.2032 0.20319 z m -41.85847,-0.40639 h -0.2032 v -0.20319 -0.2032 h 0.2032 0.20319 v 0.2032 0.20319 z m 4.47032,-0.40639 h -0.2032 v -0.2032 -0.20319 h 0.2032 0.2032 v 0.20319 0.2032 z m 36.98176,0 h -0.2032 v -0.2032 -0.20319 h 0.2032 0.20319 v 0.20319 0.2032 z m -41.04569,-0.40639 h -0.2032 v -0.2032 -0.2032 h 0.2032 0.2032 v 0.2032 0.2032 z m 40.66328,-0.4064 h -0.17921 l -0.28997,-0.46918 -0.28998,-0.46919 0.46919,0.28998 0.46918,0.28997 v 0.17921 0.17921 z m -40.25689,-0.40639 h -0.20319 v -0.2032 -0.20319 h 0.20319 0.2032 v 0.20319 0.2032 z m 4.47033,0 h -0.2032 v -0.2032 -0.20319 h 0.2032 0.20319 v 0.20319 0.2032 z m -4.06393,-0.81279 h -0.2032 v -0.20319 -0.2032 h 0.2032 0.20319 v 0.2032 0.20319 z m 4.42235,0 h -0.20319 l 0.25116,-0.40639 0.25116,-0.40639 h 0.2032 0.20319 l -0.25116,0.40639 -0.25116,0.40639 z m 34.61535,0 h -0.17921 l -0.28997,-0.46918 -0.28997,-0.46919 0.46918,0.28998 0.46919,0.28997 v 0.17921 0.17921 z m -38.63131,-0.81278 h -0.2032 v -0.2032 -0.20319 h 0.2032 0.2032 v 0.20319 0.2032 z m 5.12367,-0.81279 h -0.2032 l 1.37862,-1.42237 1.37862,-1.42238 h 0.2032 0.20319 l -1.37862,1.42238 -1.37862,1.42237 z m 32.3442,0 h -0.12348 l -1.40049,-1.52397 -1.4005,-1.52397 1.52397,1.40049 1.52398,1.4005 v 0.12348 0.12347 z m -36.65509,-0.40639 h -0.20319 v -0.2032 -0.20319 h 0.20319 0.2032 v 0.20319 0.2032 z m 0.76303,-1.21918 h -0.15344 v -0.15344 -0.15343 l 0.71119,-0.55775 0.71119,-0.55775 -0.55775,0.71118 -0.55775,0.71119 z m 7.31687,-1.62557 h -0.2032 l 0.25116,-0.40639 0.25117,-0.4064 h 0.20319 0.2032 l -0.25116,0.4064 -0.25117,0.40639 z m 24.43154,-0.40639 h -0.2032 v -0.2032 -0.2032 h 0.2032 0.2032 v 0.2032 0.2032 z m -22.758,-0.81279 h -0.2032 v -0.2032 -0.20319 h 0.2032 0.20319 v 0.20319 0.2032 z m 21.53882,0 h -0.20319 v -0.2032 -0.20319 h 0.20319 0.2032 v 0.20319 0.2032 z m -20.72604,-0.40639 h -0.20319 v -0.2032 -0.2032 h 0.20319 0.2032 v 0.2032 0.2032 z m 19.91326,0 h -0.2032 v -0.2032 -0.2032 h 0.2032 0.20319 v 0.2032 0.2032 z m -19.10047,-0.4064 h -0.2032 v -0.20319 -0.2032 h 0.2032 0.20319 v 0.2032 0.20319 z m 18.28768,0 h -0.2032 v -0.20319 -0.2032 h 0.2032 0.2032 v 0.2032 0.20319 z m -24.83794,-0.40639 h -0.20319 l 0.25116,-0.40639 0.25116,-0.40639 h 0.2032 0.2032 l -0.25117,0.40639 -0.25116,0.40639 z m 7.36304,0 h -0.20319 v -0.2032 -0.20319 h 0.20319 0.2032 v 0.20319 0.2032 z m 16.66211,0 h -0.20319 v -0.2032 -0.20319 h 0.20319 0.2032 v 0.20319 0.2032 z m -15.64612,-0.40639 h -0.54186 l 0.27093,-0.27093 0.27093,-0.27093 0.27093,0.27093 0.27092,0.27093 z m 14.63014,0 h -0.54185 l 0.27092,-0.27093 0.27093,-0.27093 0.27093,0.27093 0.27093,0.27093 z m -13.41097,-0.40639 h -0.54185 l 0.27092,-0.27093 0.27093,-0.27093 0.27093,0.27093 0.27093,0.27093 z m 12.19179,0 h -0.54185 l 0.27092,-0.27093 0.27093,-0.27093 0.27093,0.27093 0.27093,0.27093 z m -20.16441,-0.4064 h -0.2032 l 0.25116,-0.40639 0.25117,-0.40639 h 0.20319 0.2032 l -0.25117,0.40639 -0.25116,0.40639 z m 9.5982,0 h -0.54186 l 0.27093,-0.27093 0.27093,-0.27092 0.27093,0.27092 0.27092,0.27093 z m 8.94064,0 h -0.54185 l 0.27092,-0.27093 0.27093,-0.27092 0.27093,0.27092 0.27093,0.27093 z m -6.09589,-0.50067 h -1.42238 l 0.71119,-0.18586 0.71119,-0.18585 0.71118,0.18585 0.71119,0.18586 z m 3.25114,0 h -1.42237 l 0.71118,-0.18586 0.71119,-0.18585 0.71119,0.18585 0.71119,0.18586 z m -14.42695,-0.31211 h -0.2032 v -0.2032 -0.2032 h 0.2032 0.2032 v 0.2032 0.2032 z m 0.76482,-0.4064 h -0.2032 l 0.25117,-0.40639 0.25116,-0.40639 h 0.2032 0.20319 l -0.25116,0.40639 -0.25116,0.40639 z m 1.26715,-0.81278 h -0.2032 v -0.2032 -0.2032 h 0.2032 0.20319 v 0.2032 0.2032 z m 1.21917,-0.4064 h -0.20319 v -0.20319 -0.2032 h 0.20319 0.2032 v 0.2032 0.20319 z m 0.81279,-0.40639 h -0.2032 v -0.20319 -0.2032 h 0.2032 0.2032 v 0.2032 0.20319 z m 1.21918,-0.40639 h -0.2032 v -0.2032 -0.20319 h 0.2032 0.2032 v 0.20319 0.2032 z m 1.42237,-0.40639 h -0.54185 l 0.27092,-0.27093 0.27093,-0.27093 0.27093,0.27093 0.27093,0.27093 z m 1.79491,-0.43848 -0.77892,-0.0321 0.53339,-0.21344 0.53339,-0.21345 0.24553,0.24553 0.24553,0.24553 -0.77892,-0.0321 z m -2.81089,-8.90856 h -0.20319 v -0.2032 -0.2032 h 0.20319 0.2032 v 0.2032 0.2032 z m -1.21918,-0.4064 h -0.20319 v -0.20319 -0.2032 h 0.20319 0.2032 v 0.2032 0.20319 z m -1.21918,-0.40639 h -0.20319 v -0.20319 -0.2032 h 0.20319 0.2032 v 0.2032 0.20319 z m -0.81278,-0.40639 h -0.2032 v -0.2032 -0.20319 h 0.2032 0.2032 v 0.20319 0.2032 z m -0.81279,-0.40639 h -0.20319 v -0.2032 -0.2032 h 0.20319 0.2032 v 0.2032 0.2032 z m -0.81278,-0.4064 h -0.2032 v -0.20319 -0.2032 h 0.2032 0.20319 v 0.2032 0.20319 z m -0.7888,-0.40639 h -0.17922 l -0.28997,-0.46918 -0.28997,-0.46919 0.46918,0.28997 0.46919,0.28997 v 0.17922 0.17921 z m 12.77739,-0.52817 h -2.23516 l 1.11758,-0.1693 1.11758,-0.1693 1.11758,0.1693 1.11758,0.1693 z m -13.99657,-0.28462 h -0.17922 l -0.28997,-0.46918 -0.28997,-0.46919 0.46918,0.28998 0.46919,0.28997 v 0.17921 0.17921 z m 9.93264,0 h -0.54186 l 0.27093,-0.27093 0.27093,-0.27092 0.27093,0.27092 0.27093,0.27093 z m 8.12786,0 h -0.54186 l 0.27093,-0.27093 0.27093,-0.27092 0.27093,0.27092 0.27092,0.27093 z m -9.75343,-0.40639 h -0.54186 l 0.27093,-0.27093 0.27093,-0.27092 0.27093,0.27092 0.27092,0.27093 z m 11.5822,0 h -0.2032 v -0.2032 -0.20319 h 0.2032 0.20319 v 0.20319 0.2032 z m -13.00458,-0.40639 h -0.20319 v -0.2032 -0.20319 h 0.20319 0.2032 v 0.20319 0.2032 z m 14.22376,0 h -0.2032 v -0.2032 -0.20319 h 0.2032 0.20319 v 0.20319 0.2032 z m -22.69502,-0.40639 h -0.14021 l -0.77418,-0.91439 -0.77417,-0.91438 0.91438,0.77417 0.91439,0.77418 v 0.14021 0.14021 z m 7.65848,0 h -0.2032 v -0.2032 -0.2032 h 0.2032 0.20319 v 0.2032 0.2032 z m 16.05252,0 h -0.54186 l 0.27093,-0.27093 0.27093,-0.27093 0.27093,0.27093 0.27092,0.27093 z m -17.2717,-0.4064 h -0.2032 v -0.20319 -0.2032 h 0.2032 0.20319 v 0.2032 0.20319 z m 18.28768,0 h -0.2032 v -0.20319 -0.2032 h 0.2032 0.2032 v 0.2032 0.20319 z m -19.07648,-0.40639 h -0.17922 l -0.28997,-0.46919 -0.28997,-0.46918 0.46918,0.28997 0.46919,0.28997 v 0.17922 0.17921 z m 19.88927,0 h -0.2032 v -0.2032 -0.20319 h 0.2032 0.20319 v 0.20319 0.2032 z m -21.13244,-0.81279 h -0.20319 v -0.20319 -0.2032 h 0.20319 0.2032 v 0.2032 0.20319 z m 22.35161,0 h -0.20319 v -0.20319 -0.2032 h 0.20319 0.2032 v 0.2032 0.20319 z m 0.76482,-0.40639 h -0.20319 l 0.25116,-0.40639 0.25116,-0.4064 h 0.2032 0.2032 l -0.25117,0.4064 -0.25116,0.40639 z m -29.96212,-0.40639 h -0.14021 l -0.77417,-0.91439 -0.77418,-0.91438 0.91438,0.77417 0.91439,0.77418 v 0.14021 0.14021 z m 5.6505,0 h -0.17922 l -0.28997,-0.46919 -0.28997,-0.46918 0.46919,0.28997 0.46918,0.28997 v 0.17922 0.17921 z m 26.24987,-1.21918 h -0.20319 l 0.95447,-1.01598 0.95446,-1.01599 h 0.2032 0.20319 l -0.95446,1.01599 -0.95447,1.01598 z m -28.25606,-0.40639 h -0.15344 l -0.55775,-0.71119 -0.55775,-0.71119 0.71119,0.55775 0.71119,0.55775 v 0.15344 0.15344 z m -5.71528,-0.81279 h -0.17921 l -0.28997,-0.46918 -0.28998,-0.46919 0.46919,0.28997 0.46918,0.28997 v 0.17922 0.17921 z m -0.81278,-1.21918 h -0.17922 l -0.28997,-0.46918 -0.28997,-0.46919 0.46918,0.28998 0.46919,0.28996 v 0.17922 0.17921 z m 4.47032,-0.40639 h -0.17922 l -0.28997,-0.46919 -0.28997,-0.46918 0.46919,0.28997 0.46918,0.28997 v 0.17922 0.17921 z m 33.30024,-0.40639 h -0.2032 v -0.2032 -0.2032 h 0.2032 0.20319 v 0.2032 0.2032 z m -38.60733,-0.4064 h -0.2032 v -0.20319 -0.2032 h 0.2032 0.20319 v 0.2032 0.20319 z m -0.4064,-0.81278 h -0.20319 v -0.2032 -0.2032 h 0.20319 0.2032 v 0.2032 0.2032 z m 4.47033,0 h -0.2032 v -0.2032 -0.2032 h 0.2032 0.20319 v 0.2032 0.2032 z m 35.35618,0 h -0.20319 v -0.2032 -0.2032 h 0.20319 0.2032 v 0.2032 0.2032 z m -40.2329,-0.81279 h -0.2032 v -0.2032 -0.20319 h 0.2032 0.2032 v 0.20319 0.2032 z m 4.47032,0 h -0.20319 v -0.2032 -0.20319 h 0.20319 0.2032 v 0.20319 0.2032 z m 36.57537,-0.40639 h -0.2032 v -0.2032 -0.2032 h 0.2032 0.20319 v 0.2032 0.2032 z m -41.38435,-0.54186 -0.27093,0.27093 v -0.54186 -0.54185 l 0.27093,0.27092 0.27093,0.27093 z m 4.06393,-0.40639 -0.27093,0.27092 v -0.54185 -0.54186 l 0.27093,0.27093 0.27093,0.27093 z m 37.72681,0.13546 h -0.2032 v -0.20319 -0.2032 h 0.2032 0.2032 v 0.2032 0.20319 z m -42.26487,-0.81278 h -0.20319 v -0.2032 -0.2032 h 0.20319 0.2032 v 0.2032 0.2032 z m 4.06393,-0.4064 h -0.20319 v -0.20319 -0.2032 h 0.20319 0.2032 v 0.2032 0.20319 z m 38.60733,0 h -0.20319 v -0.20319 -0.2032 h 0.20319 0.2032 v 0.2032 0.20319 z m -43.07765,-0.81278 h -0.2032 v -0.2032 -0.2032 h 0.2032 0.2032 v 0.2032 0.2032 z m 4.13166,-0.13547 -0.27093,0.27093 v -0.54186 -0.54185 l 0.27093,0.27092 0.27093,0.27093 z m 39.42012,0 -0.27093,0.27093 v -0.54186 -0.54185 l 0.27093,0.27092 0.27093,0.27093 z m -43.91584,-1.19378 -0.24553,0.24553 0.0321,-0.77892 0.0321,-0.77892 0.21345,0.53339 0.21344,0.53339 -0.24552,0.24553 z m 4.08933,-0.0254 -0.27093,0.27092 v -0.54185 -0.54186 l 0.27093,0.27093 0.27093,0.27093 z m 40.2075,0.0254 -0.24553,0.24553 0.0321,-0.77892 0.0321,-0.77892 0.21345,0.53339 0.21344,0.53339 -0.24552,0.24553 z m -40.63929,-1.62557 -0.24553,0.24553 0.0321,-0.77892 0.0321,-0.77892 0.21344,0.53339 0.21345,0.53339 -0.24553,0.24553 z m 41.25035,-1.9219 -0.34879,2.23516 -0.0507,-3.67375 -0.0507,-3.67375 -0.62875,-2.42214 -0.62874,-2.42215 -0.97434,-2.13356 -0.97435,-2.13356 h 0.17486 0.17487 l 1.16902,2.33676 1.16903,2.33676 0.44355,2.03196 0.44355,2.03197 0.21514,1.62557 0.21515,1.62557 z m -45.29067,1.32078 -0.20498,0.50799 v -1.01598 -1.01599 l 0.20498,0.508 0.20499,0.50799 z m 3.6752,-2.84475 -0.17612,0.91438 v -1.82877 -1.82876 l 0.17612,0.91438 0.17612,0.91438 z m 60.97595,-8.33106 -0.12553,5.58791 V 172.31891 161.1431 l 0.12553,5.58791 0.12552,5.5879 z m -64.67476,4.86825 -0.24553,0.24553 0.0321,-0.77892 0.0321,-0.77892 0.21344,0.53339 0.21345,0.53339 -0.24553,0.24553 z m 4.06393,-0.81278 -0.24553,0.24552 0.0321,-0.77891 0.0321,-0.77893 0.21344,0.5334 0.21345,0.53339 -0.24553,0.24553 z m -3.63214,-1.65097 -0.27093,0.27092 v -0.54185 -0.54186 l 0.27093,0.27093 0.27093,0.27093 z m 4.06393,-0.4064 -0.27093,0.27093 v -0.54186 -0.54185 l 0.27093,0.27092 0.27093,0.27093 z m -3.65754,-1.21918 -0.27093,0.27093 v -0.54186 -0.54185 l 0.27093,0.27092 0.27093,0.27093 z m 4.06393,0 -0.27093,0.27093 v -0.54186 -0.54185 l 0.27093,0.27092 0.27093,0.27093 z m 43.41632,-0.27093 h -0.2032 v -0.20319 -0.2032 h 0.2032 0.20319 v 0.2032 0.20319 z m -43.07766,-0.81278 h -0.20319 v -0.2032 -0.2032 h 0.20319 0.2032 v 0.2032 0.2032 z m -4.06393,-0.4064 h -0.20319 v -0.20319 -0.2032 h 0.20319 0.2032 v 0.2032 0.20319 z m 46.73519,0 h -0.20319 v -0.20319 -0.2032 h 0.20319 0.2032 v 0.2032 0.20319 z m -42.26486,-0.40639 h -0.2032 v -0.20319 -0.2032 h 0.2032 0.20319 v 0.2032 0.20319 z m -3.9962,-0.54185 -0.27093,0.27092 v -0.54185 -0.54186 l 0.27093,0.27093 0.27093,0.27093 z m 4.40259,-0.27093 h -0.2032 v -0.2032 -0.2032 h 0.2032 0.2032 v 0.2032 0.2032 z m 41.45208,0 h -0.2032 v -0.2032 -0.2032 h 0.2032 0.2032 v 0.2032 0.2032 z m -45.51601,-0.81279 h -0.2032 v -0.2032 -0.20319 h 0.2032 0.2032 v 0.20319 0.2032 z m 4.47032,0 h -0.20319 v -0.2032 -0.20319 h 0.20319 0.2032 v 0.20319 0.2032 z m 40.6393,0 h -0.2032 v -0.2032 -0.20319 h 0.2032 0.20319 v 0.20319 0.2032 z m -44.70323,-0.81279 h -0.20319 v -0.20319 -0.2032 h 0.20319 0.2032 v 0.2032 0.20319 z m 4.42236,0 h -0.2032 l 0.25117,-0.40639 0.25116,-0.40639 h 0.20319 0.2032 l -0.25116,0.40639 -0.25116,0.40639 z m 39.87447,0 h -0.20319 v -0.20319 -0.2032 h 0.20319 0.2032 v 0.2032 0.20319 z m -43.89043,-0.81278 h -0.2032 v -0.2032 -0.20319 h 0.2032 0.20319 v 0.20319 0.2032 z m 43.48404,0 h -0.20319 v -0.2032 -0.20319 h 0.20319 0.2032 v 0.20319 0.2032 z m -38.65709,-0.40639 h -0.15344 v -0.15344 -0.15344 l 0.71119,-0.55775 0.71119,-0.55775 -0.55775,0.71119 -0.55775,0.71119 z m 33.80436,0 h -0.17921 l -0.28997,-0.46919 -0.28998,-0.46918 0.46919,0.28997 0.46918,0.28997 v 0.17921 0.17922 z m 4.47032,-0.4064 h -0.17921 l -0.28997,-0.46918 -0.28997,-0.46919 0.46918,0.28998 0.46919,0.28997 v 0.17921 0.17921 z m -42.28885,-0.40639 h -0.20319 v -0.2032 -0.20319 h 0.20319 0.2032 v 0.20319 0.2032 z m 0.35843,-0.81279 h -0.2032 l 0.25116,-0.40639 0.25117,-0.40639 h 0.20319 0.2032 l -0.25116,0.40639 -0.25117,0.40639 z m 41.11764,0 h -0.17922 l -0.28997,-0.46918 -0.28997,-0.46919 0.46918,0.28998 0.46919,0.28997 v 0.17921 0.17921 z m -5.25734,-0.40639 h -0.15343 l -0.55775,-0.71119 -0.55775,-0.71118 0.71118,0.55775 0.71119,0.55775 v 0.15343 0.15344 z m -34.7658,-1.21918 h -0.2032 l 2.00142,-2.03196 2.00141,-2.03197 h 0.20319 0.2032 l -2.00141,2.03197 -2.00141,2.03196 z m 38.84296,0 h -0.14021 l -0.77417,-0.91438 -0.77418,-0.91439 0.91439,0.77418 0.91438,0.77417 v 0.14021 0.14021 z m -32.62418,-0.40639 h -0.15344 v -0.15344 -0.15343 l 0.71119,-0.55776 0.71119,-0.55775 -0.55775,0.71119 -0.55776,0.71119 z m 26.08289,-0.40639 h -0.17921 l -0.28997,-0.46919 -0.28998,-0.46918 0.46919,0.28997 0.46918,0.28997 v 0.17921 0.17922 z m -24.45553,-0.81279 h -0.20319 l 0.25116,-0.40639 0.25116,-0.4064 h 0.2032 0.2032 l -0.25117,0.4064 -0.25116,0.40639 z m 22.80597,-0.40639 h -0.20319 v -0.2032 -0.2032 h 0.20319 0.2032 v 0.2032 0.2032 z m -21.53882,-0.4064 h -0.2032 v -0.20319 -0.2032 h 0.2032 0.2032 v 0.2032 0.20319 z m 20.72604,0 h -0.2032 v -0.20319 -0.2032 h 0.2032 0.2032 v 0.2032 0.20319 z m 6.56527,0 h -0.14021 l -0.77417,-0.91438 -0.77418,-0.91438 0.91439,0.77417 0.91438,0.77417 v 0.14021 0.14021 z M 329.0982,167.0358 h -0.20319 v -0.2032 -0.20319 h 0.20319 0.2032 v 0.20319 0.2032 z m 0.81279,-0.40639 h -0.2032 v -0.2032 -0.20319 h 0.2032 0.2032 v 0.20319 0.2032 z m 17.67809,0 h -0.54185 l 0.27092,-0.27093 0.27093,-0.27093 0.27093,0.27093 0.27093,0.27093 z m -16.8653,-0.40639 h -0.2032 v -0.2032 -0.2032 h 0.2032 0.20319 v 0.2032 0.2032 z m 15.84932,0 h -0.2032 v -0.2032 -0.2032 h 0.2032 0.2032 v 0.2032 0.2032 z m -14.83334,-0.4064 h -0.54186 l 0.27093,-0.27093 0.27093,-0.27092 0.27093,0.27092 0.27092,0.27093 z m 13.81736,0 h -0.54186 l 0.27093,-0.27093 0.27093,-0.27092 0.27093,0.27092 0.27092,0.27093 z m -21.3836,-0.40639 h -0.20319 l 0.25116,-0.40639 0.25116,-0.4064 h 0.2032 0.2032 l -0.25117,0.4064 -0.25116,0.40639 z m 8.78542,0 h -0.54186 l 0.27093,-0.27093 0.27093,-0.27093 0.27093,0.27093 0.27092,0.27093 z m 11.379,0 h -0.54186 l 0.27093,-0.27093 0.27093,-0.27093 0.27093,0.27093 0.27093,0.27093 z m 8.76143,0 h -0.17921 l -0.28997,-0.46919 -0.28997,-0.46918 0.46918,0.28997 0.46919,0.28997 v 0.17922 0.17921 z m -18.34553,-0.43848 -0.77892,-0.0321 0.53339,-0.21345 0.53339,-0.21344 0.24553,0.24552 0.24553,0.24553 -0.77892,-0.0321 z m 7.72147,0 -0.77892,-0.0321 0.53339,-0.21345 0.53339,-0.21344 0.24553,0.24552 0.24552,0.24553 -0.77891,-0.0321 z m -17.03464,-0.37431 h -0.2032 v -0.20319 -0.2032 h 0.2032 0.20319 v 0.2032 0.20319 z m 13.20777,-0.11068 h -1.82877 l 0.91438,-0.17612 0.91439,-0.17612 0.91438,0.17612 0.91439,0.17612 z m 13.23175,0.11068 h -0.17921 l -0.28997,-0.46918 -0.28997,-0.46919 0.46918,0.28998 0.46919,0.28997 v 0.17921 0.17921 z m -25.22034,-0.81278 h -0.2032 v -0.2032 -0.2032 h 0.2032 0.20319 v 0.2032 0.2032 z m 23.97718,0 h -0.2032 v -0.2032 -0.2032 h 0.2032 0.2032 v 0.2032 0.2032 z m -23.1644,-0.4064 h -0.20319 v -0.20319 -0.2032 h 0.20319 0.2032 v 0.2032 0.20319 z m 22.35161,0 h -0.20319 v -0.20319 -0.2032 h 0.20319 0.2032 v 0.2032 0.20319 z m -21.53882,-0.40639 h -0.2032 v -0.20319 -0.2032 h 0.2032 0.2032 v 0.2032 0.20319 z m 20.72604,0 h -0.2032 v -0.20319 -0.2032 h 0.2032 0.2032 v 0.2032 0.20319 z m -19.71006,-0.40639 h -0.54185 l 0.27092,-0.27093 0.27093,-0.27093 0.27093,0.27093 0.27093,0.27093 z m 18.69408,0 h -0.54186 l 0.27093,-0.27093 0.27093,-0.27093 0.27093,0.27093 0.27092,0.27093 z m -17.6781,-0.40639 h -0.20319 v -0.2032 -0.2032 h 0.20319 0.2032 v 0.2032 0.2032 z m 16.66211,0 h -0.20319 v -0.2032 -0.2032 h 0.20319 0.2032 v 0.2032 0.2032 z m -15.23973,-0.4064 h -0.54186 l 0.27093,-0.27093 0.27093,-0.27092 0.27093,0.27092 0.27092,0.27093 z m 14.02056,0 h -0.2032 v -0.20319 -0.2032 h 0.2032 0.20319 v 0.2032 0.20319 z M 169.38578,161.3463 h -0.2032 v -0.2032 -0.20319 h 0.2032 0.20319 v 0.20319 0.2032 z m 163.97955,0 h -0.54186 l 0.27093,-0.27093 0.27093,-0.27093 0.27093,0.27093 0.27093,0.27093 z m 10.73555,-0.0321 -0.77892,-0.0321 0.53339,-0.21344 0.53339,-0.21345 0.24553,0.24553 0.24553,0.24553 -0.77892,-0.0321 z m -8.53425,-0.4064 -0.77892,-0.0321 0.53339,-0.21345 0.53339,-0.21344 0.24553,0.24552 0.24552,0.24553 -0.77891,-0.0321 z m 6.33295,-0.0321 h -1.01598 l 0.50799,-0.20498 0.50799,-0.20498 0.50799,0.20498 0.50799,0.20498 z m -171.70102,-3.18698 h -0.2032 v -0.20319 -0.2032 h 0.2032 0.2032 v 0.2032 0.20319 z m 0.81279,-2.03196 h -0.2032 v -0.2032 -0.20319 h 0.2032 0.20319 v 0.20319 0.2032 z m -1.9686,-7.20574 -0.2024,0.50025 0.0151,-1.21917 0.0151,-1.21918 0.18734,0.71892 0.18734,0.71892 -0.2024,0.50026 z m 0.004,-2.68316 -0.27092,0.27093 v -0.54186 -0.54185 l 0.27092,0.27092 0.27093,0.27093 z m 15.3752,0.13547 h -0.20319 v -0.2032 -0.2032 h 0.20319 0.2032 v 0.2032 0.2032 z m -15.44293,-1.62557 h -0.20319 v -0.2032 -0.2032 h 0.20319 0.2032 v 0.2032 0.2032 z m 0.0423,-0.92285 -0.24552,0.24552 0.0321,-0.77891 0.0321,-0.77893 0.21344,0.5334 0.21345,0.53339 -0.24553,0.24553 z m 0.0254,-1.65097 -0.27092,0.27092 v -0.54185 -0.54186 l 0.27092,0.27093 0.27093,0.27093 z m 0,-1.62558 -0.27092,0.27093 v -0.54186 -0.54185 l 0.27092,0.27092 0.27093,0.27093 z m 0,-1.21918 -0.27092,0.27093 v -0.54186 -0.54185 l 0.27092,0.27092 0.27093,0.27093 z m -0.002,-1.7949 -0.20498,0.50799 v -1.01598 -1.01598 l 0.20498,0.50799 0.20498,0.50799 z m 3.99798,-2.13356 h -0.20319 v -0.2032 -0.2032 h 0.20319 0.2032 v 0.2032 0.2032 z m -4.0216,-0.51646 -0.24552,0.24553 0.0321,-0.77892 0.0321,-0.77892 0.21344,0.53339 0.21345,0.53339 -0.24553,0.24553 z m -0.0423,-1.9219 h -0.20319 v -0.2032 -0.20319 h 0.20319 0.2032 v 0.20319 0.2032 z m 14.22376,0 h -0.2032 v -0.2032 -0.20319 h 0.2032 0.20319 v 0.20319 0.2032 z m -1.21918,-1.21918 h -0.2032 v -0.2032 -0.20319 h 0.2032 0.20319 v 0.20319 0.2032 z m -1.62558,-0.81278 h -0.20319 v -0.2032 -0.2032 h 0.20319 0.2032 v 0.2032 0.2032 z m -11.379,-0.4064 h -0.20319 v -0.20319 -0.2032 h 0.20319 0.2032 v 0.2032 0.20319 z m 0,-3.25114 h -0.20319 v -0.2032 -0.20319 h 0.20319 0.2032 v 0.20319 0.2032 z m 209.7665,-21.2679 -0.27093,0.27093 v -0.54186 -0.54185 l 0.27093,0.27092 0.27092,0.27093 z m -207.32814,-1.8965 h -0.2032 v -0.2032 -0.20319 h 0.2032 0.2032 v 0.20319 0.2032 z m 205.43164,0 h -0.54186 l 0.27093,-0.27093 0.27093,-0.27093 0.27093,0.27093 0.27092,0.27093 z m -215.18507,-1.21918 h -0.2032 v -0.20319 -0.2032 h 0.2032 0.2032 v 0.2032 0.20319 z m 223.92251,-1.62557 h -0.20319 v -0.2032 -0.20319 h 0.20319 0.2032 v 0.20319 0.2032 z M 163.28988,99.168178 h -0.2032 v -0.203196 -0.203197 h 0.2032 0.2032 v 0.203197 0.203196 z m 1.62557,-1.625571 h -0.20319 V 97.33941 97.136214 h 0.20319 0.2032 v 0.203196 0.203197 z M 381.5229,96.729821 h -0.2032 v -0.203197 -0.203196 h 0.2032 0.20319 v 0.203196 0.203197 z"
         id="path459" /><path
         style="fill:#9b9b9b;stroke-width:0.406393"
         d="m 273.94883,282.43904 -105.37584,-0.0124 -0.68071,-0.39717 -0.6807,-0.39717 -0.46886,-1.42065 -0.46885,-1.42064 0.25821,-1.17563 0.25821,-1.17564 0.69165,-0.62593 0.69165,-0.62593 3.92607,-0.0792 3.92607,-0.0792 1.41406,0.87393 1.41405,0.87394 2.37785,0.90663 2.37784,0.90663 88.97598,0.10786 88.97598,0.10787 2.25924,-0.41012 2.25923,-0.41013 2.90143,-1.42491 2.90143,-1.42491 3.80406,0.006 3.80405,0.006 0.44715,0.29857 0.44715,0.29857 0.46724,0.88767 0.46723,0.88767 v 1.46756 1.46757 l -0.99751,0.9975 -0.99751,0.99753 z M 170.19856,266.60207 h -0.2032 v -0.20319 -0.2032 h 0.2032 0.2032 v 0.2032 0.20319 z m -2.23516,-83.37472 h -1.01598 l 0.50799,-0.20498 0.50799,-0.20498 0.50799,0.20498 0.50799,0.20498 z m 1.10316,-7.34522 -0.16859,1.1103 0.004,-2.43836 0.004,-2.43836 0.16445,1.32806 0.16445,1.32805 -0.1686,1.11031 z m 0.31922,-14.12944 h -0.2032 v -0.20319 -0.2032 h 0.2032 0.20319 v 0.2032 0.20319 z m 0.40639,-2.43836 h -0.2032 v -0.20319 -0.2032 h 0.2032 0.20319 v 0.2032 0.20319 z m 1.62557,-4.47032 h -0.2032 v -0.20319 -0.2032 h 0.2032 0.2032 v 0.2032 0.20319 z m 1.62557,-2.43836 h -0.20319 v -0.20319 -0.2032 h 0.20319 0.2032 v 0.2032 0.20319 z m 5.28311,-4.47032 h -0.2032 v -0.20319 -0.2032 h 0.2032 0.2032 v 0.2032 0.20319 z m 0.81279,-0.40639 h -0.2032 v -0.2032 -0.20319 h 0.2032 0.20319 v 0.20319 0.2032 z m 0.81278,-0.40639 h -0.20319 v -0.2032 -0.2032 h 0.20319 0.2032 v 0.2032 0.2032 z m -10.90488,-0.54186 -0.27092,0.27093 v -0.54186 -0.54186 l 0.27092,0.27093 0.27093,0.27093 z m 12.12406,0.13546 h -0.2032 v -0.20319 -0.2032 h 0.2032 0.2032 v 0.2032 0.20319 z m 1.21918,-0.40639 h -0.2032 v -0.2032 -0.20319 h 0.2032 0.2032 v 0.20319 0.2032 z m -13.34324,-1.35464 -0.27092,0.27092 v -0.54185 -0.54186 l 0.27092,0.27093 0.27093,0.27093 z m -0.0677,-1.08372 h -0.20319 v -0.20319 -0.2032 h 0.20319 0.2032 v 0.2032 0.20319 z m 0,-1.62557 h -0.20319 v -0.2032 -0.20319 h 0.20319 0.2032 v 0.20319 0.2032 z m 8.53425,-0.81278 h -0.20319 v -0.2032 -0.2032 h 0.20319 0.2032 v 0.2032 0.2032 z m 2.03197,0 h -0.2032 v -0.2032 -0.2032 h 0.2032 0.2032 v 0.2032 0.2032 z m 172.40121,0 h -1.39429 l -1.07533,-0.99658 -1.07532,-0.99658 v -1.66345 -1.66345 l 0.99751,-0.99751 0.99751,-0.99751 h 1.66345 1.66345 l 0.99658,1.07533 0.99657,1.07532 v 1.3943 1.39429 l -1.18792,1.18792 -1.18791,1.18792 z m -182.8997,-0.54186 -0.27092,0.27093 v -0.54186 -0.54186 l 0.27092,0.27093 0.27093,0.27093 z m 7.24735,0.13546 h -0.2032 v -0.20319 -0.2032 h 0.2032 0.20319 v 0.2032 0.20319 z m 118.66674,0 h -49.37675 v -1.62557 -1.62557 h 49.37675 49.37674 v 1.62557 1.62557 z m -125.98182,-1.62557 h -0.20319 v -0.2032 -0.20319 h 0.20319 0.2032 v 0.20319 0.2032 z m 5.28311,0 h -0.2032 v -0.2032 -0.20319 h 0.2032 0.2032 v 0.20319 0.2032 z m 9.34704,-0.81279 h -0.2032 v -0.20319 -0.2032 h 0.2032 0.20319 v 0.2032 0.20319 z m -14.56242,-0.54185 -0.27092,0.27092 v -0.54185 -0.54186 l 0.27092,0.27093 0.27093,0.27093 z m 4.40259,0.13546 h -0.20319 v -0.20319 -0.2032 h 0.20319 0.2032 v 0.2032 0.20319 z m 10.56622,-0.40639 h -0.2032 v -0.2032 -0.20319 h 0.2032 0.2032 v 0.20319 0.2032 z m -10.90666,-1.52397 -0.20498,0.50799 v -1.01599 -1.01598 l 0.20498,0.50799 0.20498,0.50799 z m 11.379,0 -0.20497,0.50799 v -1.01599 -1.01598 l 0.20497,0.50799 0.20498,0.50799 z m -15.46655,-0.61806 -0.24552,0.24553 0.0321,-0.77892 0.0321,-0.77892 0.21344,0.53339 0.21345,0.53339 -0.24553,0.24553 z m 4.42799,-1.9219 h -0.20319 v -0.2032 -0.20319 h 0.20319 0.2032 v 0.20319 0.2032 z m -4.40259,-0.54186 -0.27092,0.27093 v -0.54186 -0.54185 l 0.27092,0.27092 0.27093,0.27093 z m 4.80899,-0.27093 h -0.2032 v -0.20319 -0.2032 h 0.2032 0.20319 v 0.2032 0.20319 z m -4.81335,-1.10984 -0.2024,0.50025 0.0151,-1.21918 0.0151,-1.21917 0.18734,0.71892 0.18734,0.71892 -0.2024,0.50026 z m 8.06449,-1.32851 h -0.2032 v -0.2032 -0.2032 h 0.2032 0.2032 v 0.2032 0.2032 z m -8.05183,-1.31604 -0.18494,0.70645 0.008,-1.62558 0.008,-1.62557 0.17674,0.91913 0.17674,0.91912 z m 0.0183,-4.27187 -0.15557,1.72717 v -3.45434 -3.45434 l 0.15557,1.72717 0.15556,1.72717 z m 1.7344,-21.23403 h -0.54186 l 0.27093,-0.27093 0.27093,-0.27093 0.27093,0.27093 0.27093,0.27093 z m -9.14384,-0.81279 h -0.2032 v -0.20319 -0.2032 h 0.2032 0.2032 v 0.2032 0.20319 z m 224.32891,-0.81278 h -0.2032 v -0.2032 -0.20319 h 0.2032 0.20319 v 0.20319 0.2032 z M 162.0707,101.20014 h -0.20319 v -0.20319 -0.2032 h 0.20319 0.2032 v 0.2032 0.20319 z m 0.40639,-0.81278 h -0.20319 v -0.2032 -0.203196 h 0.20319 0.2032 v 0.203196 0.2032 z m 4.87672,-4.063932 h -0.2032 v -0.203197 -0.203196 h 0.2032 0.2032 v 0.203196 0.203197 z m 212.94991,0 h -0.2032 v -0.203197 -0.203196 h 0.2032 0.20319 v 0.203196 0.203197 z"
         id="path457" /><path
         style="fill:#9d472c;stroke-width:0.406393"
         d="m 244.26368,278.74606 -58.21579,-0.0478 -1.82877,-0.31789 -1.82877,-0.31788 -2.3354,-0.88219 -2.3354,-0.88218 -2.28532,-2.08865 -2.28532,-2.08865 -1.00918,-1.59866 -1.00919,-1.59865 -0.87238,-2.2783 -0.87238,-2.2783 -0.11595,-50.59592 -0.11595,-50.59592 0.45078,-2.70357 0.45079,-2.70357 1.13454,-2.37634 1.13454,-2.37635 1.65134,-1.85838 1.65134,-1.85838 2.39869,-1.27849 2.39869,-1.27849 2.38904,-0.62226 2.38904,-0.62227 h 58.6384 58.6384 v 66.64845 66.64844 z m -59.84137,-7.67366 h 3.86074 v -3.86074 -3.86073 h -3.86074 -3.86073 v 3.86073 3.86074 z m 15.23974,0 h 4.06393 v -3.86074 -3.86073 h -4.06393 -4.06393 v 3.86073 3.86074 z m 15.23974,0 h 3.86073 v -3.86074 -3.86073 h -3.86073 -3.86074 v 3.86073 3.86074 z m 15.23973,0 h 4.06393 v -3.86074 -3.86073 h -4.06393 -4.06393 v 3.86073 3.86074 z m 15.23974,0 h 3.86073 v -3.86074 -3.86073 h -3.86073 -3.86074 v 3.86073 3.86074 z m 15.23973,0 h 4.06393 v -3.86074 -3.86073 h -4.06393 -4.06393 v 3.86073 3.86074 z m 15.23974,0 h 3.86073 v -3.86074 -3.86073 H 275.86073 272 v 3.86073 3.86074 z m 15.23973,0 h 4.06393 v -3.86074 -3.86073 h -4.06393 -4.06393 v 3.86073 3.86074 z M 184.42231,256.03586 h 3.86074 v -4.06393 -4.06393 h -3.86074 -3.86073 v 4.06393 4.06393 z m 15.25446,0 h 4.07864 l -0.11631,-3.96233 -0.11632,-3.96234 -3.96233,-0.11631 -3.96233,-0.11631 v 4.07864 4.07865 z m 15.22502,0 h 3.86073 v -4.06393 -4.06393 h -3.86073 -3.86074 v 4.06393 4.06393 z m 15.25445,0 h 4.07864 l -0.11631,-3.96233 -0.11632,-3.96234 -3.96233,-0.11631 -3.96233,-0.11631 v 4.07864 4.07865 z m 15.22502,0 h 3.86073 v -4.06393 -4.06393 h -3.86073 -3.86074 v 4.06393 4.06393 z m 15.25445,0 h 4.07864 l -0.11631,-3.96233 -0.11631,-3.96234 -3.96234,-0.11631 -3.96233,-0.11631 v 4.07864 4.07865 z m 15.22502,0 h 3.86073 V 251.97193 247.908 H 275.86073 272 v 4.06393 4.06393 z m 15.25445,0 h 4.07864 l -0.11631,-3.96233 -0.11631,-3.96234 -3.96233,-0.11631 -3.96234,-0.11631 v 4.07864 4.07865 z M 184.42231,240.59292 h 3.86074 v -3.86073 -3.86073 h -3.86074 -3.86073 v 3.86073 3.86073 z m 15.23974,0 h 4.06393 v -3.86073 -3.86073 h -4.06393 -4.06393 v 3.86073 3.86073 z m 15.23974,0 h 3.86073 v -3.86073 -3.86073 h -3.86073 -3.86074 v 3.86073 3.86073 z m 15.23973,0 h 4.06393 v -3.86073 -3.86073 h -4.06393 -4.06393 v 3.86073 3.86073 z m 15.23974,0 h 3.86073 v -3.86073 -3.86073 h -3.86073 -3.86074 v 3.86073 3.86073 z m 15.23973,0 h 4.06393 v -3.86073 -3.86073 h -4.06393 -4.06393 v 3.86073 3.86073 z m 15.23974,0 h 3.86073 v -3.86073 -3.86073 H 275.86073 272 v 3.86073 3.86073 z m 15.23973,0 h 4.06393 v -3.86073 -3.86073 h -4.06393 -4.06393 v 3.86073 3.86073 z M 184.42231,225.55639 h 3.86074 v -4.06393 -4.06393 h -3.86074 -3.86073 v 4.06393 4.06393 z m 15.25446,0 h 4.07864 l -0.11631,-3.96234 -0.11632,-3.96233 -3.96233,-0.11631 -3.96233,-0.11631 v 4.07864 4.07865 z m 15.22502,0 h 3.86073 v -4.06393 -4.06393 h -3.86073 -3.86074 v 4.06393 4.06393 z m 15.25445,0 h 4.07864 l -0.11631,-3.96234 -0.11632,-3.96233 -3.96233,-0.11631 -3.96233,-0.11631 v 4.07864 4.07865 z m 15.22502,0 h 3.86073 v -4.06393 -4.06393 h -3.86073 -3.86074 v 4.06393 4.06393 z m 15.25445,0 h 4.07864 l -0.11631,-3.96234 -0.11631,-3.96233 -3.96234,-0.11631 -3.96233,-0.11631 v 4.07864 4.07865 z m 15.22502,0 h 3.86073 v -4.06393 -4.06393 H 275.86073 272 v 4.06393 4.06393 z m 15.25445,0 h 4.07864 l -0.11631,-3.96234 -0.11631,-3.96233 -3.96233,-0.11631 -3.96234,-0.11631 v 4.07864 4.07865 z M 184.42231,210.11345 h 3.86074 v -3.86073 -3.86073 h -3.86074 -3.86073 v 3.86073 3.86073 z m 15.23974,0 h 4.06393 v -3.86073 -3.86073 h -4.06393 -4.06393 v 3.86073 3.86073 z m 15.23974,0 h 3.86073 v -3.86073 -3.86073 h -3.86073 -3.86074 v 3.86073 3.86073 z m 15.23973,0 h 4.06393 v -3.86073 -3.86073 h -4.06393 -4.06393 v 3.86073 3.86073 z m 15.23974,0 h 3.86073 v -3.86073 -3.86073 h -3.86073 -3.86074 v 3.86073 3.86073 z m 15.23973,0 h 4.06393 v -3.86073 -3.86073 h -4.06393 -4.06393 v 3.86073 3.86073 z m 15.23974,0 h 3.86073 v -3.86073 -3.86073 H 275.86073 272 v 3.86073 3.86073 z m 15.23973,0 h 4.06393 v -3.86073 -3.86073 h -4.06393 -4.06393 v 3.86073 3.86073 z M 184.42231,195.07691 h 3.86074 v -4.06392 -4.06393 h -3.86074 -3.86073 v 4.06393 4.06392 z m 15.25446,0 h 4.07864 l -0.11631,-3.96233 -0.11632,-3.96233 -3.96233,-0.11631 -3.96233,-0.11632 v 4.07865 4.07864 z m 15.22502,0 h 3.86073 v -4.06392 -4.06393 h -3.86073 -3.86074 v 4.06393 4.06392 z m 15.25445,0 h 4.07864 l -0.11631,-3.96233 -0.11632,-3.96233 -3.96233,-0.11631 -3.96233,-0.11632 v 4.07865 4.07864 z m 15.22502,0 h 3.86073 v -4.06392 -4.06393 h -3.86073 -3.86074 v 4.06393 4.06392 z m 15.25445,0 h 4.07864 l -0.11631,-3.96233 -0.11631,-3.96233 -3.96234,-0.11631 -3.96233,-0.11632 v 4.07865 4.07864 z m 15.22502,0 h 3.86073 v -4.06392 -4.06393 H 275.86073 272 v 4.06393 4.06392 z m 15.25445,0 h 4.07864 l -0.11631,-3.96233 -0.11631,-3.96233 -3.96233,-0.11631 -3.96234,-0.11632 v 4.07865 4.07864 z M 184.42231,179.63398 h 3.86074 v -3.86073 -3.86073 h -3.86074 -3.86073 v 3.86073 3.86073 z m 15.23974,0 h 4.06393 v -3.86073 -3.86073 h -4.06393 -4.06393 v 3.86073 3.86073 z m 15.23974,0 h 3.86073 v -3.86073 -3.86073 h -3.86073 -3.86074 v 3.86073 3.86073 z m 15.23973,0 h 4.06393 v -3.86073 -3.86073 h -4.06393 -4.06393 v 3.86073 3.86073 z m 15.23974,0 h 3.86073 v -3.86073 -3.86073 h -3.86073 -3.86074 v 3.86073 3.86073 z m 15.23973,0 h 4.06393 v -3.86073 -3.86073 h -4.06393 -4.06393 v 3.86073 3.86073 z m 15.23974,0 h 3.86073 v -3.86073 -3.86073 H 275.86073 272 v 3.86073 3.86073 z m 15.23973,0 h 4.06393 v -3.86073 -3.86073 h -4.06393 -4.06393 v 3.86073 3.86073 z M 184.42231,164.59744 h 3.86074 v -4.06393 -4.06393 h -3.86074 -3.86073 v 4.06393 4.06393 z m 15.25446,0 h 4.07864 l -0.11631,-3.96233 -0.11632,-3.96233 -3.96233,-0.11631 -3.96233,-0.11632 v 4.07865 4.07864 z m 15.22502,0 h 3.86073 v -4.06393 -4.06393 h -3.86073 -3.86074 v 4.06393 4.06393 z m 15.25445,0 h 4.07864 l -0.11631,-3.96233 -0.11632,-3.96233 -3.96233,-0.11631 -3.96233,-0.11632 v 4.07865 4.07864 z m 15.22502,0 h 3.86073 v -4.06393 -4.06393 h -3.86073 -3.86074 v 4.06393 4.06393 z m 15.25445,0 h 4.07864 l -0.11631,-3.96233 -0.11631,-3.96233 -3.96234,-0.11631 -3.96233,-0.11632 v 4.07865 4.07864 z m 15.22502,0 h 3.86073 v -4.06393 -4.06393 H 275.86073 272 v 4.06393 4.06393 z m 15.25445,0 h 4.07864 l -0.11631,-3.96233 -0.11631,-3.96233 -3.96233,-0.11631 -3.96234,-0.11632 v 4.07865 4.07864 z m 47.53326,102.69564 h -2.23516 l 1.11758,-0.1693 1.11758,-0.1693 1.11758,0.1693 1.11758,0.1693 z m -4.30099,-0.3167 -0.77892,-0.0321 0.53339,-0.21345 0.53339,-0.21344 0.24553,0.24552 0.24553,0.24553 -0.77892,-0.0321 z m 8.53425,0 -0.77892,-0.0321 0.53339,-0.21345 0.53339,-0.21344 0.24553,0.24552 0.24553,0.24553 -0.77892,-0.0321 z m -10.32916,-0.37431 h -0.54185 l 0.27092,-0.27093 0.27093,-0.27092 0.27093,0.27092 0.27093,0.27093 z m 12.19179,0 h -0.54185 l 0.27092,-0.27093 0.27093,-0.27092 0.27093,0.27092 0.27093,0.27093 z m -13.27034,-0.40639 h -0.4529 l -3.3071,-1.65525 -3.3071,-1.65526 -2.40232,-2.22413 -2.40232,-2.22412 -1.52676,-2.30016 -1.52676,-2.30016 -1.2135,-3.47229 -1.2135,-3.47229 -0.0129,-4.26713 -0.0129,-4.26713 0.72877,-2.41711 0.72877,-2.41711 1.17227,-2.32225 1.17226,-2.32224 2.01919,-2.42631 2.0192,-2.4263 2.89973,-1.92774 2.89974,-1.92774 2.91634,-1.03003 2.91633,-1.03002 4.67352,-0.11881 4.67352,-0.11882 -0.76016,0.22325 -0.76016,0.22324 2.1264,2.15315 2.1264,2.15315 -2.38222,-0.56046 -2.38222,-0.56046 -2.23516,-3.4e-4 -2.23517,-3.4e-4 -2.60373,0.61374 -2.60373,0.61374 -2.46523,1.31062 -2.46523,1.31062 -2.27052,2.23516 -2.27052,2.23516 -1.26114,2.23516 -1.26114,2.23516 -0.71511,2.43836 -0.7151,2.43836 -0.006,3.25114 -0.006,3.25115 0.872,2.84475 0.87199,2.84475 1.27536,2.03196 1.27536,2.03197 1.46556,1.52397 1.46557,1.52397 h -0.37925 -0.37925 l 3.84468,3.86074 3.84469,3.86073 h -0.45291 z m -7.18951,-7.72147 h 0.14021 v -0.1402 -0.14021 l -0.91439,-0.77418 -0.91438,-0.77417 0.77417,0.91438 0.77418,0.91438 z m 22.08542,7.72147 h -0.54185 l 0.27092,-0.27093 0.27093,-0.27093 0.27093,0.27093 0.27093,0.27093 z m 1.01599,-0.40639 h -0.2032 v -0.2032 -0.2032 h 0.2032 0.20319 v 0.2032 0.2032 z m 1.21918,-0.4064 h -0.2032 v -0.20319 -0.2032 h 0.2032 0.20319 v 0.2032 0.20319 z m 0.81278,-0.40639 h -0.20319 v -0.20319 -0.2032 h 0.20319 0.2032 v 0.2032 0.20319 z m 0.81279,-0.40639 h -0.2032 v -0.2032 -0.20319 h 0.2032 0.20319 v 0.20319 0.2032 z m 0.76482,-0.40639 h -0.2032 l 0.25116,-0.4064 0.25117,-0.40639 h 0.20319 0.2032 l -0.25116,0.40639 -0.25117,0.4064 z m -12.14382,-0.52263 -2.03197,-0.006 1.12317,-0.16984 1.12317,-0.16984 0.90879,0.17539 0.9088,0.17539 z m -4.26713,-0.29016 h -0.54186 l 0.27093,-0.27093 0.27093,-0.27093 0.27093,0.27093 0.27093,0.27093 z m 8.12786,0 h -0.54186 l 0.27093,-0.27093 0.27093,-0.27093 0.27093,0.27093 0.27092,0.27093 z m 9.50227,0 h -0.2032 l 0.25116,-0.40639 0.25117,-0.4064 h 0.20319 0.2032 l -0.25116,0.4064 -0.25117,0.40639 z m -19.4589,-0.40639 h -0.2032 v -0.2032 -0.2032 h 0.2032 0.2032 v 0.2032 0.2032 z m 11.7854,0 h -0.2032 v -0.2032 -0.2032 h 0.2032 0.20319 v 0.2032 0.2032 z m -13.00458,-0.4064 h -0.20319 v -0.20319 -0.2032 h 0.20319 0.2032 v 0.2032 0.20319 z m 14.22376,0 h -0.2032 v -0.20319 -0.2032 h 0.2032 0.20319 v 0.2032 0.20319 z m 7.6717,0 h -0.15343 v -0.15343 -0.15344 l 0.71118,-0.55775 0.71119,-0.55775 -0.55775,0.71119 -0.55775,0.71118 z m -22.70824,-0.40639 h -0.2032 v -0.2032 -0.20319 h 0.2032 0.20319 v 0.20319 0.2032 z m 16.25571,0 h -0.20319 v -0.2032 -0.20319 h 0.20319 0.2032 v 0.20319 0.2032 z m -17.47489,-0.40639 h -0.2032 v -0.2032 -0.20319 h 0.2032 0.20319 v 0.20319 0.2032 z m 18.28768,0 h -0.2032 v -0.2032 -0.20319 h 0.2032 0.2032 v 0.20319 0.2032 z m -19.10047,-0.40639 h -0.20319 v -0.2032 -0.2032 h 0.20319 0.2032 v 0.2032 0.2032 z m 19.91326,0 h -0.2032 v -0.2032 -0.2032 h 0.2032 0.20319 v 0.2032 0.2032 z m 0.76482,-0.4064 h -0.2032 l 0.25116,-0.40639 0.25117,-0.40639 h 0.20319 0.2032 l -0.25117,0.40639 -0.25116,0.40639 z m -21.89726,-0.40639 h -0.20319 v -0.2032 -0.20319 h 0.20319 0.2032 v 0.20319 0.2032 z m -0.7888,-0.40639 h -0.17921 l -0.28997,-0.46919 -0.28998,-0.46918 0.46919,0.28997 0.46918,0.28997 v 0.17922 0.17921 z m 23.90523,0 h -0.20319 l 0.25116,-0.4064 0.25116,-0.40639 h 0.2032 0.2032 l -0.25117,0.40639 -0.25116,0.4064 z m 1.5141,-1.21918 h -0.20319 l 1.37862,-1.42238 1.37861,-1.42237 h 0.2032 0.2032 l -1.37862,1.42237 -1.37862,1.42238 z m 5.39279,-0.4064 h -0.15344 v -0.15343 -0.15344 l 0.71119,-0.55775 0.71119,-0.55775 -0.55775,0.71119 -0.55775,0.71118 z m 1.67533,-2.03196 h -0.20319 v -0.2032 -0.20319 h 0.20319 0.2032 v 0.20319 0.2032 z m -3.7055,-1.21918 h -0.2032 l 0.25117,-0.40639 0.25116,-0.40639 h 0.2032 0.20319 l -0.25116,0.40639 -0.25116,0.40639 z m 4.51829,0 h -0.2032 v -0.2032 -0.20319 h 0.2032 0.2032 v 0.20319 0.2032 z m 0.40639,-0.81278 h -0.20319 v -0.2032 -0.2032 h 0.20319 0.2032 v 0.2032 0.2032 z m -3.65753,-0.81279 h -0.2032 v -0.2032 -0.20319 h 0.2032 0.20319 v 0.20319 0.2032 z m 4.06392,0 h -0.20319 v -0.2032 -0.20319 h 0.20319 0.2032 v 0.20319 0.2032 z m -3.65753,-0.81279 h -0.2032 v -0.20319 -0.2032 h 0.2032 0.20319 v 0.2032 0.20319 z m 4.06393,0 h -0.2032 v -0.20319 -0.2032 h 0.2032 0.20319 v 0.2032 0.20319 z m -3.65754,-0.81278 h -0.2032 v -0.2032 -0.2032 h 0.2032 0.2032 v 0.2032 0.2032 z m 4.06393,0 h -0.2032 v -0.2032 -0.2032 h 0.2032 0.2032 v 0.2032 0.2032 z m -3.65754,-0.81279 h -0.20319 v -0.20319 -0.2032 h 0.20319 0.2032 v 0.2032 0.20319 z m 4.06393,-0.40639 h -0.20319 v -0.2032 -0.20319 h 0.20319 0.2032 v 0.20319 0.2032 z m -3.65753,-0.40639 h -0.2032 v -0.2032 -0.2032 h 0.2032 0.20319 v 0.2032 0.2032 z m 4.06393,-0.81279 h -0.2032 v -0.2032 -0.20319 h 0.2032 0.20319 v 0.20319 0.2032 z m -3.65754,-0.40639 h -0.2032 v -0.2032 -0.2032 h 0.2032 0.2032 v 0.2032 0.2032 z m 4.13166,-1.35464 -0.27093,0.27092 v -0.54185 -0.54186 l 0.27093,0.27093 0.27093,0.27093 z m -3.72527,-0.27093 h -0.20319 v -0.2032 -0.2032 h 0.20319 0.2032 v 0.2032 0.2032 z m 0.44873,-1.73564 -0.24553,0.24553 0.0321,-0.77892 0.0321,-0.77892 0.21344,0.53339 0.21345,0.53339 -0.24553,0.24553 z m 3.67858,-0.187 -0.20241,0.50026 0.0151,-1.21918 0.0151,-1.21918 0.18734,0.71892 0.18734,0.71892 -0.2024,0.50026 z m -3.1804,-3.7561 -0.13412,1.41161 -0.46648,-3.04795 -0.46648,-3.04795 -0.27788,-0.81278 -0.27789,-0.81279 0.62609,0.76607 0.6261,0.76605 0.25239,1.68307 0.25239,1.68307 z m 3.19396,-0.92515 -0.18585,0.71119 v -1.42238 -1.42237 l 0.18585,0.71118 0.18586,0.71119 z m -0.4156,-3.28501 -0.27093,0.27093 v -0.54186 -0.54185 l 0.27093,0.27092 0.27093,0.27093 z m -0.40639,-1.62557 -0.27093,0.27093 v -0.54186 -0.54186 l 0.27093,0.27093 0.27093,0.27093 z m -4.13166,-0.67732 h -0.2032 v -0.2032 -0.2032 h 0.2032 0.20319 v 0.2032 0.2032 z m 3.72527,-0.54186 -0.27093,0.27093 v -0.54186 -0.54186 l 0.27093,0.27093 0.27092,0.27093 z m -4.13167,-0.67732 h -0.20319 v -0.2032 -0.2032 h 0.20319 0.2032 v 0.2032 0.2032 z m 3.65754,-0.4064 h -0.2032 v -0.20319 -0.2032 h 0.2032 0.2032 v 0.2032 0.20319 z m -4.06393,-0.40639 h -0.2032 v -0.20319 -0.2032 h 0.2032 0.2032 v 0.2032 0.20319 z m -0.40639,-0.81278 h -0.2032 v -0.2032 -0.2032 h 0.2032 0.20319 v 0.2032 0.2032 z m 4.06393,0 h -0.2032 v -0.2032 -0.2032 h 0.2032 0.20319 v 0.2032 0.2032 z m -0.4064,-0.81279 h -0.20319 v -0.2032 -0.20319 h 0.20319 0.2032 v 0.20319 0.2032 z m -4.47032,-0.40639 h -0.20319 v -0.2032 -0.2032 h 0.20319 0.2032 v 0.2032 0.2032 z m 4.06393,-0.4064 h -0.20319 v -0.20319 -0.2032 h 0.20319 0.2032 v 0.2032 0.20319 z m -4.85273,-0.81278 h -0.17921 l -0.28997,-0.46919 -0.28998,-0.46918 0.46919,0.28997 0.46918,0.28997 v 0.17922 0.17921 z m 4.03995,-0.40639 h -0.2032 v -0.2032 -0.2032 h 0.2032 0.20319 v 0.2032 0.2032 z m -0.38241,-0.81279 h -0.17922 l -0.28997,-0.46919 -0.28997,-0.46918 0.46918,0.28997 0.46919,0.28997 v 0.17922 0.17921 z m -1.15684,-1.62557 h -0.11688 l -2.01669,-2.13357 -2.01669,-2.13356 2.13357,2.01669 2.13356,2.01669 v 0.11687 0.11688 z m -6.13246,-0.81279 h -0.15344 l -0.55775,-0.71119 -0.55775,-0.71118 0.71119,0.55775 0.71119,0.55775 v 0.15343 0.15344 z m -1.65135,-1.21918 h -0.17921 l -0.28997,-0.46918 -0.28998,-0.46919 0.46919,0.28998 0.46918,0.28997 v 0.17921 0.17921 z m -1.24316,-0.81278 h -0.2032 v -0.2032 -0.2032 h 0.2032 0.2032 v 0.2032 0.2032 z m -0.81279,-0.4064 h -0.20319 v -0.20319 -0.2032 h 0.20319 0.2032 v 0.2032 0.20319 z m -0.81278,-0.40639 h -0.2032 v -0.2032 -0.20319 h 0.2032 0.20319 v 0.20319 0.2032 z m -0.81279,-0.40639 h -0.2032 v -0.2032 -0.20319 h 0.2032 0.2032 v 0.20319 0.2032 z m 6.52627,-0.40639 h -0.17921 l -0.28997,-0.46919 -0.28997,-0.46918 0.46918,0.28997 0.46919,0.28997 v 0.17921 0.17922 z m -1.21918,-0.81279 h -0.17921 l -0.28997,-0.46919 -0.28997,-0.46918 0.46918,0.28997 0.46919,0.28997 v 0.17922 0.17921 z m -1.24316,-0.81279 h -0.2032 v -0.20319 -0.2032 h 0.2032 0.2032 v 0.2032 0.20319 z m -0.81279,-0.40639 h -0.20319 v -0.2032 -0.20319 h 0.20319 0.2032 v 0.20319 0.2032 z m -0.81278,-0.40639 h -0.2032 v -0.2032 -0.2032 h 0.2032 0.2032 v 0.2032 0.2032 z m -0.81279,-0.4064 h -0.20319 v -0.20319 -0.2032 h 0.20319 0.2032 v 0.2032 0.20319 z m -1.21918,-0.40639 h -0.20319 v -0.20319 -0.2032 h 0.20319 0.2032 v 0.2032 0.20319 z m -1.21917,-0.40639 h -0.2032 v -0.2032 -0.20319 h 0.2032 0.20319 v 0.20319 0.2032 z m -1.42238,-0.40639 h -0.54186 l 0.27093,-0.27093 0.27093,-0.27093 0.27093,0.27093 0.27093,0.27093 z m -7.92466,-8.61348 -1.21918,-0.0151 0.71892,-0.18734 0.71892,-0.18735 0.50026,0.2024 0.50026,0.20241 -1.21918,-0.0151 z m 4.47032,0 -1.21918,-0.0151 0.71892,-0.18734 0.71892,-0.18735 0.50026,0.2024 0.50026,0.20241 -1.21918,-0.0151 z m -7.34894,-0.35925 -0.77892,-0.0321 0.53339,-0.21344 0.53339,-0.21345 0.24553,0.24553 0.24553,0.24553 -0.77892,-0.0321 z m 10.39689,0.0321 h -0.54186 l 0.27093,-0.27093 0.27093,-0.27093 0.27093,0.27093 0.27092,0.27093 z m -11.79557,-0.41604 -0.19302,-0.01 -2.38402,-0.98018 -2.38401,-0.98017 -2.08631,-1.38922 -2.08631,-1.38921 -1.77003,-1.77557 -1.77003,-1.77556 -1.20379,-1.74965 -1.2038,-1.74966 -1.02692,-2.32206 -1.02693,-2.32207 -0.57117,-2.98524 -0.57117,-2.98523 v -1.60696 -1.60695 l 0.63926,-3.13241 0.63926,-3.13242 1.45121,-3.04794 1.4512,-3.04795 3.29424,-3.29424 3.29424,-3.29424 3.04795,-1.4512 3.04795,-1.45121 3.13241,-0.63926 3.13241,-0.63926 h 1.60695 1.60696 l 3.11399,0.5958 3.114,0.59581 2.91605,1.41415 2.91605,1.41417 1.93545,1.6152 1.93546,1.61521 1.43538,1.71805 1.43539,1.71804 1.03772,1.77073 1.03772,1.77074 0.79958,2.13148 0.79958,2.1315 -3.68416,-3.64907 -3.68417,-3.64907 v 0.34608 0.34608 l -0.5966,-0.49513 -0.59659,-0.49513 0.0886,-0.41628 0.0886,-0.41627 -1.0442,-0.66233 -1.04419,-0.66233 -2.20695,-1.45377 -2.20695,-1.45377 -1.72556,-0.67585 -1.72556,-0.67586 -2.84636,-0.44163 -2.84636,-0.44163 -2.94635,0.44111 -2.94635,0.4411 -3.26591,1.59882 -3.26591,1.59882 -2.53177,2.63657 -2.53177,2.63658 -1.40378,2.97467 -1.40377,2.97467 -0.44971,2.94634 -0.44972,2.94635 0.44163,2.84637 0.44163,2.84636 0.67586,1.72556 0.67586,1.72556 1.33962,2.12183 1.33962,2.12183 1.65392,1.60507 1.65391,1.60507 1.91457,1.2198 1.91458,1.21979 2.47325,0.82625 2.47325,0.82625 2.60666,0.25766 2.60666,0.25766 3.03835,-0.64322 3.03834,-0.64322 2.14176,-1.04787 2.14176,-1.04786 2.33817,-1.8699 2.33816,-1.86991 -1.21918,1.34471 -1.21918,1.3447 -2.40904,1.57638 -2.40905,1.57639 -2.61208,0.80678 -2.61207,0.80679 h -3.12295 -3.12296 l -2.40199,-0.62564 -2.402,-0.62564 -2.3951,-1.14954 -2.3951,-1.14953 2.97437,2.99435 2.97437,2.99436 -0.19302,-0.01 z m 22.99536,-37.3785 h 0.17921 v -0.17921 -0.17922 l -0.46918,-0.28997 -0.46919,-0.28997 0.28997,0.46918 0.28997,0.46919 z m -9.57422,37.38815 h -0.54186 l 0.27093,-0.27093 0.27093,-0.27093 0.27093,0.27093 0.27092,0.27093 z m 1.21918,-0.4064 h -0.54186 l 0.27093,-0.27093 0.27093,-0.27092 0.27093,0.27092 0.27092,0.27093 z m 1.01598,-0.40639 h -0.2032 v -0.20319 -0.2032 h 0.2032 0.2032 v 0.2032 0.20319 z m 1.01598,-0.40639 h -0.54185 l 0.27092,-0.27093 0.27093,-0.27093 0.27093,0.27093 0.27093,0.27093 z m 0.96802,-0.40639 h -0.2032 l 0.25116,-0.4064 0.25117,-0.40639 h 0.20319 0.2032 l -0.25116,0.40639 -0.25117,0.4064 z m 1.26714,-0.81279 h -0.20319 v -0.2032 -0.20319 h 0.20319 0.2032 v 0.20319 0.2032 z m 0.81279,-0.40639 h -0.2032 v -0.2032 -0.2032 h 0.2032 0.2032 v 0.2032 0.2032 z m 1.17121,-0.81279 h -0.20319 l 0.25116,-0.40639 0.25116,-0.40639 h 0.2032 0.20319 l -0.25116,0.40639 -0.25116,0.40639 z m 1.50859,-1.21918 h -0.2032 l 1.58733,-1.62557 1.58733,-1.62557 h 0.2032 0.20319 l -1.58733,1.62557 -1.58733,1.62557 z m 3.77452,-4.06393 h -0.2032 l 0.25117,-0.40639 0.25116,-0.40639 h 0.2032 0.20319 l -0.25116,0.40639 -0.25116,0.40639 z m -3.65933,-1.21918 h -0.15344 v -0.15343 -0.15344 l 0.71119,-0.55775 0.71119,-0.55775 -0.55775,0.71119 -0.55775,0.71118 z m 4.92648,-0.40639 h -0.2032 v -0.2032 -0.20319 h 0.2032 0.20319 v 0.20319 0.2032 z m 0.40639,-0.81278 h -0.2032 v -0.2032 -0.2032 h 0.2032 0.2032 v 0.2032 0.2032 z m -4.1119,-0.4064 h -0.20319 l 0.25116,-0.40639 0.25116,-0.40639 h 0.2032 0.2032 l -0.25117,0.40639 -0.25116,0.40639 z m 4.47033,-0.40639 h -0.2032 l 0.25116,-0.40639 0.25116,-0.4064 h 0.2032 0.2032 l -0.25117,0.4064 -0.25116,0.40639 z m -3.60957,-0.81279 h -0.2032 v -0.20319 -0.2032 h 0.2032 0.20319 v 0.2032 0.20319 z m 4.53805,-0.54185 -0.27093,0.27092 v -0.54185 -0.54186 l 0.27093,0.27093 0.27093,0.27093 z m 0.33866,-1.08372 h -0.2032 v -0.20319 -0.2032 h 0.2032 0.2032 v 0.2032 0.20319 z m -3.65754,-0.81278 h -0.20319 v -0.2032 -0.2032 h 0.20319 0.2032 v 0.2032 0.2032 z m 4.13167,-0.13547 -0.27093,0.27093 v -0.54186 -0.54185 l 0.27093,0.27092 0.27092,0.27093 z m -3.72527,-0.67732 h -0.2032 v -0.2032 -0.20319 h 0.2032 0.20319 v 0.20319 0.2032 z m 4.13166,-0.54186 -0.27093,0.27093 v -0.54186 -0.54185 l 0.27093,0.27092 0.27093,0.27093 z m -3.72527,-0.67732 h -0.2032 v -0.2032 -0.20319 h 0.2032 0.2032 v 0.20319 0.2032 z m 4.13166,-0.94825 -0.27093,0.27093 v -0.54186 -0.54185 l 0.27093,0.27092 0.27093,0.27093 z m -3.65753,-0.40639 -0.27093,0.27093 v -0.54186 -0.54186 l 0.27093,0.27093 0.27092,0.27093 z m 0.40203,-2.19356 -0.20241,0.50025 0.0151,-1.21918 0.0151,-1.21917 0.18734,0.71892 0.18735,0.71892 -0.2024,0.50026 z m 3.65754,0 -0.20241,0.50025 0.0151,-1.21918 0.0151,-1.21917 0.18734,0.71892 0.18734,0.71892 -0.2024,0.50026 z m -3.65754,-4.47033 -0.20241,0.50026 0.0151,-1.21918 0.0151,-1.21918 0.18734,0.71892 0.18735,0.71893 -0.2024,0.50025 z m 3.65754,0 -0.20241,0.50026 0.0151,-1.21918 0.0151,-1.21918 0.18734,0.71892 0.18734,0.71893 -0.2024,0.50025 z m -201.53744,-6.10362 -0.12868,5.7911 0.0159,-40.87454 0.0159,-40.87454 1.21918,-1.968366 1.21918,-1.968367 1.79109,-0.945936 1.79108,-0.945936 106.10624,0.0089 106.10624,0.0089 1.62558,0.75025 1.62557,0.75025 0.89498,0.973541 0.89499,0.973541 0.62899,1.505373 0.62898,1.50538 v 34.75965 34.75965 h -3.65753 -3.65754 V 138.3851 104.85768 l -0.81279,-0.81279 -0.81278,-0.81278 H 273.90644 170.5571 l -0.73572,0.53797 -0.73572,0.53797 -0.21537,33.80224 -0.21537,33.80223 h -3.38255 -3.38255 z m 4.37348,5.50867 -1.21918,-0.0151 0.71892,-0.18735 0.71893,-0.18734 0.50025,0.2024 0.50026,0.2024 -1.21918,-0.0151 z m 193.07899,-2.0628 -0.24553,0.24553 0.0321,-0.77892 0.0321,-0.77892 0.21344,0.53339 0.21345,0.53339 -0.24553,0.24553 z m 3.65753,-0.40639 -0.24553,0.24552 0.0321,-0.77891 0.0321,-0.77892 0.21345,0.53339 0.21344,0.53339 -0.24552,0.24553 z m -4.03853,-1.24458 -0.27093,0.27093 v -0.54186 -0.54186 l 0.27093,0.27093 0.27093,0.27093 z m -0.47412,-1.49011 h -0.2032 v -0.2032 -0.20319 h 0.2032 0.20319 v 0.20319 0.2032 z m -0.4064,-0.81279 h -0.20319 v -0.20319 -0.2032 h 0.20319 0.2032 v 0.2032 0.20319 z m -0.40639,-0.81278 h -0.2032 v -0.2032 -0.20319 h 0.2032 0.2032 v 0.20319 0.2032 z m -0.40639,-0.81279 h -0.2032 v -0.20319 -0.2032 h 0.2032 0.20319 v 0.2032 0.20319 z m -0.40639,-0.81278 h -0.2032 v -0.2032 -0.2032 h 0.2032 0.20319 v 0.2032 0.2032 z m -0.38241,-0.81279 h -0.17922 l -0.28997,-0.46918 -0.28997,-0.46919 0.46918,0.28998 0.46919,0.28996 v 0.17922 0.17921 z m -177.00812,-32.73974 -1.42237,0.23822 -1.62557,-0.76227 -1.62558,-0.76226 -0.71118,-1.23576 -0.71119,-1.23576 0.001,-1.76607 0.002,-1.76606 0.82016,-1.34524 0.82017,-1.34523 1.40042,-0.58513 1.40042,-0.58514 h 1.06922 1.06922 l 1.37578,0.65286 1.37579,0.65285 0.8192,1.32548 0.81919,1.32548 -0.002,1.5776 -0.001,1.57761 -0.79187,1.2987 -0.79186,1.29869 -0.93379,0.60161 -0.93378,0.60161 z"
         id="path455" /><path
         style="fill:#883c25;stroke-width:0.406393"
         d="m 203.61774,269.35885 -0.15165,1.91674 0.002,-4.06393 0.002,-4.06393 0.14973,2.14719 0.14973,2.14718 -0.15166,1.91675 z m 30.47948,0 -0.15166,1.91674 0.002,-4.06393 0.002,-4.06393 0.14973,2.14719 0.14973,2.14718 -0.15165,1.91675 z m 30.47947,0 -0.15166,1.91674 0.002,-4.06393 0.002,-4.06393 0.14973,2.14719 0.14973,2.14718 -0.15165,1.91675 z m 30.47947,0 -0.15166,1.91674 0.002,-4.06393 0.002,-4.06393 0.14973,2.14719 0.14973,2.14718 -0.15165,1.91675 z m 44.40506,-2.52463 -4.26712,0.13603 -1.63858,-0.39369 -1.63858,-0.39367 -4.66051,-4.73668 -4.66051,-4.73668 2.03196,1.62103 2.03197,1.62103 1.42237,0.85231 1.42238,0.85231 2.43836,0.81047 2.43835,0.81048 2.64156,0.27169 2.64155,0.2717 3.04795,-0.6382 3.04795,-0.6382 2.60493,-1.27964 2.60494,-1.27964 2.47498,-2.48256 2.47497,-2.48256 1.28656,-2.43829 1.28656,-2.4383 0.69842,-2.64155 0.69842,-2.64156 0.047,-3.47874 0.047,-3.47874 -1.81127,-3.61306 -1.81126,-3.61307 -2.61045,-2.76721 -2.61044,-2.76721 -2.94538,-1.45569 -2.94537,-1.45568 -1.96468,-1.99467 -1.96467,-1.99467 h 1.05949 1.0595 l 2.58276,0.79803 2.58277,0.79802 2.43835,1.46095 2.43836,1.46095 2.18319,2.10975 2.18319,2.10975 1.5803,2.40649 1.58029,2.4065 1.04784,3.283 1.04785,3.28301 0.0277,3.86074 0.0277,3.86073 -0.66246,2.52966 -0.66245,2.52967 -1.21803,2.41289 -1.21802,2.41289 -2.0224,2.43016 -2.0224,2.43016 -3.08761,2.06512 -3.08761,2.06512 -2.72526,0.87165 -2.72525,0.87164 -4.26713,0.13603 z m -143.6599,-10.79836 h -0.2032 v -0.2032 -0.2032 h 0.2032 0.20319 v 0.2032 0.2032 z m 7.82187,-3.42218 -0.13647,3.62537 -0.0836,-3.94761 -0.0836,-3.94762 -3.96233,-0.13286 -3.96234,-0.13285 3.97509,-0.0851 3.97509,-0.0851 0.20727,0.54015 0.20728,0.54016 z m 22.6576,3.42218 h -0.2032 v -0.2032 -0.2032 h 0.2032 0.20319 v 0.2032 0.2032 z m 7.82187,-3.42218 -0.13647,3.62537 -0.0836,-3.94761 -0.0836,-3.94762 -3.96233,-0.13286 -3.96233,-0.13285 3.97508,-0.0851 3.97509,-0.0851 0.20727,0.54015 0.20728,0.54016 z m 22.6576,3.42218 h -0.2032 v -0.2032 -0.2032 h 0.2032 0.2032 v 0.2032 0.2032 z m 7.82187,-3.42218 -0.13646,3.62537 -0.0836,-3.94761 -0.0836,-3.94762 -3.96233,-0.13286 -3.96233,-0.13285 3.97508,-0.0851 3.97509,-0.0851 0.20727,0.54015 0.20728,0.54016 z m 22.6576,3.42218 h -0.2032 v -0.2032 -0.2032 h 0.2032 0.2032 v 0.2032 0.2032 z m 7.82187,-3.42218 -0.13646,3.62537 -0.0836,-3.94761 -0.0836,-3.94762 -3.96233,-0.13286 -3.96233,-0.13285 3.97508,-0.0851 3.97509,-0.0851 0.20728,0.54015 0.20727,0.54016 z m -110.63929,-4.44772 -4.06393,-0.002 2.14719,-0.14973 2.14719,-0.14973 1.91674,0.15165 1.91674,0.15166 -4.06393,-0.002 z m 30.47948,0 -4.06393,-0.002 2.14718,-0.14973 2.14719,-0.14973 1.91674,0.15165 1.91675,0.15166 -4.06393,-0.002 z m 30.47947,0 -4.06393,-0.002 2.14718,-0.14973 2.14719,-0.14973 1.91674,0.15165 1.91675,0.15166 -4.06393,-0.002 z m 30.47947,0 -4.06393,-0.002 2.14718,-0.14973 2.14719,-0.14973 1.91674,0.15165 1.91675,0.15166 -4.06393,-0.002 z m -72.24299,-9.28658 -0.15165,1.91674 0.002,-4.06393 0.002,-4.06393 0.14973,2.14719 0.14973,2.14718 -0.15166,1.91675 z m 30.47948,0 -0.15166,1.91674 0.002,-4.06393 0.002,-4.06393 0.14973,2.14719 0.14973,2.14718 -0.15165,1.91675 z m 30.47947,0 -0.15166,1.91674 0.002,-4.06393 0.002,-4.06393 0.14973,2.14719 0.14973,2.14718 -0.15165,1.91675 z m 30.47947,0 -0.15166,1.91674 0.002,-4.06393 0.002,-4.06393 0.14973,2.14719 0.14973,2.14718 -0.15165,1.91675 z m -99.25484,-13.32299 h -0.2032 v -0.2032 -0.2032 h 0.2032 0.20319 v 0.2032 0.2032 z m 7.82187,-3.42218 -0.13647,3.62537 -0.0836,-3.94761 -0.0836,-3.94762 -3.96233,-0.13286 -3.96234,-0.13286 3.97509,-0.0851 3.97509,-0.085 0.20727,0.54015 0.20728,0.54016 z m 22.6576,3.42218 h -0.2032 v -0.2032 -0.2032 h 0.2032 0.20319 v 0.2032 0.2032 z m 7.82187,-3.42218 -0.13647,3.62537 -0.0836,-3.94761 -0.0836,-3.94762 -3.96233,-0.13286 -3.96233,-0.13286 3.97508,-0.0851 3.97509,-0.085 0.20727,0.54015 0.20728,0.54016 z m 22.6576,3.42218 h -0.2032 v -0.2032 -0.2032 h 0.2032 0.2032 v 0.2032 0.2032 z m 7.82187,-3.42218 -0.13646,3.62537 -0.0836,-3.94761 -0.0836,-3.94762 -3.96233,-0.13286 -3.96233,-0.13286 3.97508,-0.0851 3.97509,-0.085 0.20727,0.54015 0.20728,0.54016 z m 22.6576,3.42218 h -0.2032 v -0.2032 -0.2032 h 0.2032 0.2032 v 0.2032 0.2032 z m 7.82187,-3.42218 -0.13646,3.62537 -0.0836,-3.94761 -0.0836,-3.94762 -3.96233,-0.13286 -3.96233,-0.13286 3.97508,-0.0851 3.97509,-0.085 0.20728,0.54015 0.20727,0.54016 z m -110.63929,-4.44772 -4.06393,-0.002 2.14719,-0.14973 2.14719,-0.14973 1.91674,0.15165 1.91674,0.15166 -4.06393,-0.002 z m 30.47948,0 -4.06393,-0.002 2.14718,-0.14973 2.14719,-0.14973 1.91674,0.15165 1.91675,0.15166 -4.06393,-0.002 z m 30.47947,0 -4.06393,-0.002 2.14718,-0.14973 2.14719,-0.14973 1.91674,0.15165 1.91675,0.15166 -4.06393,-0.002 z m 30.47947,0 -4.06393,-0.002 2.14718,-0.14973 2.14719,-0.14973 1.91674,0.15165 1.91675,0.15166 -4.06393,-0.002 z m -72.24299,-9.28658 -0.15165,1.91674 0.002,-4.06393 0.002,-4.06393 0.14973,2.14719 0.14973,2.14718 -0.15166,1.91675 z m 30.47948,0 -0.15166,1.91674 0.002,-4.06393 0.002,-4.06393 0.14973,2.14719 0.14973,2.14718 -0.15165,1.91675 z m 30.47947,0 -0.15166,1.91674 0.002,-4.06393 0.002,-4.06393 0.14973,2.14719 0.14973,2.14718 -0.15165,1.91675 z m 30.47947,0 -0.15166,1.91674 0.002,-4.06393 0.002,-4.06393 0.14973,2.14719 0.14973,2.14718 -0.15165,1.91675 z m 45.42105,1.42304 -2.84475,0.20433 -2.64156,-0.37811 -2.64155,-0.37812 -2.99711,-2.98558 -2.99711,-2.98558 2.40766,1.15557 2.40767,1.15557 2.402,0.62564 2.40199,0.62564 h 3.12296 3.12295 l 2.61207,-0.80679 2.61208,-0.80678 2.42306,-1.56611 2.42307,-1.5661 1.71186,-1.99583 1.71187,-1.99584 1.41212,-2.67902 1.41212,-2.67903 0.62114,-2.38467 0.62112,-2.38467 v -2.67399 -2.67398 l -0.6062,-2.32737 -0.60621,-2.32737 -1.06233,-2.12674 -1.06234,-2.12674 -1.6428,-2.03196 -1.64282,-2.03196 4.70931,4.67351 4.70931,4.67352 0.42364,3.12741 0.42364,3.12741 -0.38121,3.0067 -0.38121,3.00669 -0.8612,2.30175 -0.86119,2.30174 -1.06293,1.92717 -1.06292,1.92717 -2.86901,2.86901 -2.86901,2.86901 -2.03197,1.12627 -2.03196,1.12625 -2.84475,0.93883 -2.84475,0.93882 z M 195.80132,195.07691 h -0.2032 v -0.20319 -0.2032 h 0.2032 0.20319 v 0.2032 0.20319 z m 7.82187,-3.42217 -0.13647,3.62537 -0.0836,-3.94761 -0.0836,-3.94762 -3.96233,-0.13286 -3.96234,-0.13286 3.97509,-0.085 3.97509,-0.085 0.20727,0.54015 0.20728,0.54016 z m 22.6576,3.42217 h -0.2032 v -0.20319 -0.2032 h 0.2032 0.20319 v 0.2032 0.20319 z m 7.82187,-3.42217 -0.13647,3.62537 -0.0836,-3.94761 -0.0836,-3.94762 -3.96233,-0.13286 -3.96233,-0.13286 3.97508,-0.085 3.97509,-0.085 0.20727,0.54015 0.20728,0.54016 z m 22.6576,3.42217 h -0.2032 v -0.20319 -0.2032 h 0.2032 0.2032 v 0.2032 0.20319 z m 7.82187,-3.42217 -0.13646,3.62537 -0.0836,-3.94761 -0.0836,-3.94762 -3.96233,-0.13286 -3.96233,-0.13286 3.97508,-0.085 3.97509,-0.085 0.20727,0.54015 0.20728,0.54016 z m 22.6576,3.42217 h -0.2032 v -0.20319 -0.2032 h 0.2032 0.2032 v 0.2032 0.20319 z m 7.82187,-3.42217 -0.13646,3.62537 -0.0836,-3.94761 -0.0836,-3.94762 -3.96233,-0.13286 -3.96233,-0.13286 3.97508,-0.085 3.97509,-0.085 0.20728,0.54015 0.20727,0.54016 z m -110.63929,-4.44772 -4.06393,-0.002 2.14719,-0.14973 2.14719,-0.14973 1.91674,0.15165 1.91674,0.15165 -4.06393,-0.002 z m 30.47948,0 -4.06393,-0.002 2.14718,-0.14973 2.14719,-0.14973 1.91674,0.15165 1.91675,0.15165 -4.06393,-0.002 z m 30.47947,0 -4.06393,-0.002 2.14718,-0.14973 2.14719,-0.14973 1.91674,0.15165 1.91675,0.15165 -4.06393,-0.002 z m 30.47947,0 -4.06393,-0.002 2.14718,-0.14973 2.14719,-0.14973 1.91674,0.15165 1.91675,0.15165 -4.06393,-0.002 z m -111.49525,-4.0608 -2.49797,0.26108 v -5.74739 -5.74739 h 3.45434 3.45434 v 5.4863 5.48631 h -0.95637 -0.95637 z m 218.1734,0.1453 h -3.65754 v -5.6895 -5.6895 h 3.65754 3.65753 v 5.6895 5.6895 z m -178.92114,-5.37109 -0.15165,1.91675 0.002,-4.06393 0.002,-4.06393 0.14973,2.14719 0.14973,2.14718 -0.15166,1.91674 z m 30.47948,0 -0.15166,1.91675 0.002,-4.06393 0.002,-4.06393 0.14973,2.14719 0.14973,2.14718 -0.15165,1.91674 z m 30.47947,0 -0.15166,1.91675 0.002,-4.06393 0.002,-4.06393 0.14973,2.14719 0.14973,2.14718 -0.15165,1.91674 z m 30.47947,0 -0.15166,1.91675 0.002,-4.06393 0.002,-4.06393 0.14973,2.14719 0.14973,2.14718 -0.15165,1.91674 z m -99.25484,-13.32299 h -0.2032 v -0.20319 -0.2032 h 0.2032 0.20319 v 0.2032 0.20319 z m 7.82187,-3.42217 -0.13647,3.62537 -0.0836,-3.94762 -0.0836,-3.94761 -3.96233,-0.13286 -3.96234,-0.13286 3.97509,-0.085 3.97509,-0.0851 0.20727,0.54016 0.20728,0.54015 z m 22.6576,3.42217 h -0.2032 v -0.20319 -0.2032 h 0.2032 0.20319 v 0.2032 0.20319 z m 7.82187,-3.42217 -0.13647,3.62537 -0.0836,-3.94762 -0.0836,-3.94761 -3.96233,-0.13286 -3.96233,-0.13286 3.97508,-0.085 3.97509,-0.0851 0.20727,0.54016 0.20728,0.54015 z m 22.6576,3.42217 h -0.2032 v -0.20319 -0.2032 h 0.2032 0.2032 v 0.2032 0.20319 z m 7.82187,-3.42217 -0.13646,3.62537 -0.0836,-3.94762 -0.0836,-3.94761 -3.96233,-0.13286 -3.96233,-0.13286 3.97508,-0.085 3.97509,-0.0851 0.20727,0.54016 0.20728,0.54015 z m 22.6576,3.42217 h -0.2032 v -0.20319 -0.2032 h 0.2032 0.2032 v 0.2032 0.20319 z m 7.82187,-3.42217 -0.13646,3.62537 -0.0836,-3.94762 -0.0836,-3.94761 -3.96233,-0.13286 -3.96233,-0.13286 3.97508,-0.085 3.97509,-0.0851 0.20728,0.54016 0.20727,0.54015 z m -110.63929,-4.44772 -4.06393,-0.002 2.14719,-0.14973 2.14719,-0.14973 1.91674,0.15165 1.91674,0.15165 -4.06393,-0.002 z m 30.47948,0 -4.06393,-0.002 2.14718,-0.14973 2.14719,-0.14973 1.91674,0.15165 1.91675,0.15165 -4.06393,-0.002 z m 30.47947,0 -4.06393,-0.002 2.14718,-0.14973 2.14719,-0.14973 1.91674,0.15165 1.91675,0.15165 -4.06393,-0.002 z m 30.47947,0 -4.06393,-0.002 2.14718,-0.14973 2.14719,-0.14973 1.91674,0.15165 1.91675,0.15165 -4.06393,-0.002 z"
         id="path453" /><path
         style="fill:#612b1a;stroke-width:0.406393"
         d="m 195.89628,269.35885 -0.15165,1.91674 0.002,-4.06393 0.002,-4.06393 0.14973,2.14719 0.14973,2.14718 -0.15165,1.91675 z m 30.47947,0 -0.15165,1.91674 0.002,-4.06393 0.002,-4.06393 0.14973,2.14719 0.14973,2.14718 -0.15165,1.91675 z m 30.47947,0 -0.15165,1.91674 0.002,-4.06393 0.002,-4.06393 0.14973,2.14719 0.14973,2.14718 -0.15165,1.91675 z m 30.47947,0 -0.15165,1.91674 0.002,-4.06393 0.002,-4.06393 0.14973,2.14719 0.14974,2.14718 -0.15166,1.91675 z m -99.25484,-5.60153 h -0.2032 v -0.20319 -0.2032 h 0.2032 0.2032 v 0.2032 0.20319 z m 30.47947,0 h -0.20319 v -0.20319 -0.2032 h 0.20319 0.2032 v 0.2032 0.20319 z m 30.47947,0 h -0.20319 v -0.20319 -0.2032 h 0.20319 0.2032 v 0.2032 0.20319 z m 30.47947,0 h -0.20319 v -0.20319 -0.2032 h 0.20319 0.2032 v 0.2032 0.20319 z m -95.09595,-7.86989 -4.06393,-0.002 2.14719,-0.14973 2.14719,-0.14973 1.91674,0.15165 1.91674,0.15165 -4.06393,-0.002 z m 15.32859,0.0641 -3.7719,0.0844 -0.20797,-0.54196 -0.20797,-0.54197 0.13801,-3.42037 0.138,-3.42037 0.0827,3.74389 0.0827,3.74388 3.75914,0.13411 3.75913,0.1341 z m 15.15089,-0.0641 -4.06393,-0.002 2.14718,-0.14973 2.14719,-0.14973 1.91674,0.15165 1.91675,0.15165 -4.06393,-0.002 z m 15.32858,0.0641 -3.77189,0.0844 -0.20798,-0.54196 -0.20796,-0.54197 0.138,-3.42037 0.13801,-3.42037 0.0827,3.74389 0.0827,3.74388 3.75914,0.13411 3.75913,0.1341 z m 15.15089,-0.0641 -4.06393,-0.002 2.14718,-0.14973 2.14719,-0.14973 1.91674,0.15165 1.91675,0.15165 -4.06393,-0.002 z m 15.32858,0.0641 -3.77189,0.0844 -0.20798,-0.54196 -0.20796,-0.54197 0.138,-3.42037 0.13801,-3.42037 0.0827,3.74389 0.0827,3.74388 3.75913,0.13411 3.75914,0.1341 z m 15.15089,-0.0641 -4.06393,-0.002 2.14718,-0.14973 2.14719,-0.14973 1.91674,0.15165 1.91675,0.15165 -4.06393,-0.002 z m 15.32858,0.0641 -3.77189,0.0844 -0.20797,-0.54196 -0.20797,-0.54197 0.138,-3.42037 0.13801,-3.42037 0.0827,3.74389 0.0827,3.74388 3.75913,0.13411 3.75914,0.1341 z m -95.29303,-17.07213 -0.15165,1.91674 0.002,-4.06393 0.002,-4.06393 0.14973,2.14719 0.14973,2.14718 -0.15165,1.91675 z m 30.47947,0 -0.15165,1.91674 0.002,-4.06393 0.002,-4.06393 0.14973,2.14719 0.14973,2.14718 -0.15165,1.91675 z m 30.47947,0 -0.15165,1.91674 0.002,-4.06393 0.002,-4.06393 0.14973,2.14719 0.14973,2.14718 -0.15165,1.91675 z m 30.47947,0 -0.15165,1.91674 0.002,-4.06393 0.002,-4.06393 0.14973,2.14719 0.14974,2.14718 -0.15166,1.91675 z m -99.25484,-5.60153 h -0.2032 v -0.20319 -0.2032 h 0.2032 0.2032 v 0.2032 0.20319 z m 30.47947,0 h -0.20319 v -0.20319 -0.2032 h 0.20319 0.2032 v 0.2032 0.20319 z m 30.47947,0 h -0.20319 v -0.20319 -0.2032 h 0.20319 0.2032 v 0.2032 0.20319 z m 30.47947,0 h -0.20319 v -0.20319 -0.2032 h 0.20319 0.2032 v 0.2032 0.20319 z m -95.09595,-7.86989 -4.06393,-0.002 2.14719,-0.14973 2.14719,-0.14974 1.91674,0.15166 1.91674,0.15165 -4.06393,-0.002 z m 15.32859,0.0641 -3.7719,0.0844 -0.20797,-0.54197 -0.20797,-0.54196 0.13801,-3.42037 0.138,-3.42037 0.0827,3.74389 0.0827,3.74388 3.75914,0.1341 3.75913,0.13411 z m 15.15089,-0.0641 -4.06393,-0.002 2.14718,-0.14973 2.14719,-0.14974 1.91674,0.15166 1.91675,0.15165 -4.06393,-0.002 z m 15.32858,0.0641 -3.77189,0.0844 -0.20798,-0.54197 -0.20796,-0.54196 0.138,-3.42037 0.13801,-3.42037 0.0827,3.74389 0.0827,3.74388 3.75914,0.1341 3.75913,0.13411 z m 15.15089,-0.0641 -4.06393,-0.002 2.14718,-0.14973 2.14719,-0.14974 1.91674,0.15166 1.91675,0.15165 -4.06393,-0.002 z m 15.32858,0.0641 -3.77189,0.0844 -0.20798,-0.54197 -0.20796,-0.54196 0.138,-3.42037 0.13801,-3.42037 0.0827,3.74389 0.0827,3.74388 3.75913,0.1341 3.75914,0.13411 z m 15.15089,-0.0641 -4.06393,-0.002 2.14718,-0.14973 2.14719,-0.14974 1.91674,0.15166 1.91675,0.15165 -4.06393,-0.002 z m 15.32858,0.0641 -3.77189,0.0844 -0.20797,-0.54197 -0.20797,-0.54196 0.138,-3.42037 0.13801,-3.42037 0.0827,3.74389 0.0827,3.74388 3.75913,0.1341 3.75914,0.13411 z m -95.29303,-17.07213 -0.15165,1.91674 0.002,-4.06393 0.002,-4.06393 0.14973,2.14719 0.14973,2.14718 -0.15165,1.91675 z m 30.47947,0 -0.15165,1.91674 0.002,-4.06393 0.002,-4.06393 0.14973,2.14719 0.14973,2.14718 -0.15165,1.91675 z m 30.47947,0 -0.15165,1.91674 0.002,-4.06393 0.002,-4.06393 0.14973,2.14719 0.14973,2.14718 -0.15165,1.91675 z m 30.47947,0 -0.15165,1.91674 0.002,-4.06393 0.002,-4.06393 0.14973,2.14719 0.14974,2.14718 -0.15166,1.91675 z m -99.25484,-5.60153 h -0.2032 v -0.2032 -0.20319 h 0.2032 0.2032 v 0.20319 0.2032 z m 30.47947,0 h -0.20319 v -0.2032 -0.20319 h 0.20319 0.2032 v 0.20319 0.2032 z m 30.47947,0 h -0.20319 v -0.2032 -0.20319 h 0.20319 0.2032 v 0.20319 0.2032 z m 30.47947,0 h -0.20319 v -0.2032 -0.20319 h 0.20319 0.2032 v 0.20319 0.2032 z m -95.09595,-7.86989 -4.06393,-0.002 2.14719,-0.14974 2.14719,-0.14973 1.91674,0.15166 1.91674,0.15165 -4.06393,-0.002 z m 15.32859,0.0641 -3.7719,0.0843 -0.20797,-0.54196 -0.20797,-0.54196 0.13801,-3.42037 0.138,-3.42037 0.0827,3.74388 0.0827,3.74389 3.75914,0.1341 3.75913,0.13411 z m 15.15089,-0.0641 -4.06393,-0.002 2.14718,-0.14974 2.14719,-0.14973 1.91674,0.15166 1.91675,0.15165 -4.06393,-0.002 z m 15.32858,0.0641 -3.77189,0.0843 -0.20798,-0.54196 -0.20796,-0.54196 0.138,-3.42037 0.13801,-3.42037 0.0827,3.74388 0.0827,3.74389 3.75914,0.1341 3.75913,0.13411 z m 15.15089,-0.0641 -4.06393,-0.002 2.14718,-0.14974 2.14719,-0.14973 1.91674,0.15166 1.91675,0.15165 -4.06393,-0.002 z m 15.32858,0.0641 -3.77189,0.0843 -0.20798,-0.54196 -0.20796,-0.54196 0.138,-3.42037 0.13801,-3.42037 0.0827,3.74388 0.0827,3.74389 3.75913,0.1341 3.75914,0.13411 z m 15.15089,-0.0641 -4.06393,-0.002 2.14718,-0.14974 2.14719,-0.14973 1.91674,0.15166 1.91675,0.15165 -4.06393,-0.002 z m 15.32858,0.0641 -3.77189,0.0843 -0.20797,-0.54196 -0.20797,-0.54196 0.138,-3.42037 0.13801,-3.42037 0.0827,3.74388 0.0827,3.74389 3.75913,0.1341 3.75914,0.13411 z m -95.29303,-17.07214 -0.15165,1.91675 0.002,-4.06393 0.002,-4.06393 0.14973,2.14719 0.14973,2.14718 -0.15165,1.91674 z m 30.47947,0 -0.15165,1.91675 0.002,-4.06393 0.002,-4.06393 0.14973,2.14719 0.14973,2.14718 -0.15165,1.91674 z m 30.47947,0 -0.15165,1.91675 0.002,-4.06393 0.002,-4.06393 0.14973,2.14719 0.14973,2.14718 -0.15165,1.91674 z m 30.47947,0 -0.15165,1.91675 0.002,-4.06393 0.002,-4.06393 0.14973,2.14719 0.14974,2.14718 -0.15166,1.91674 z m -99.25484,-5.60152 h -0.2032 v -0.2032 -0.20319 h 0.2032 0.2032 v 0.20319 0.2032 z m 30.47947,0 h -0.20319 v -0.2032 -0.20319 h 0.20319 0.2032 v 0.20319 0.2032 z m 30.47947,0 h -0.20319 v -0.2032 -0.20319 h 0.20319 0.2032 v 0.20319 0.2032 z m 30.47947,0 h -0.20319 v -0.2032 -0.20319 h 0.20319 0.2032 v 0.20319 0.2032 z m -95.09595,-7.86989 -4.06393,-0.002 2.14719,-0.14973 2.14719,-0.14973 1.91674,0.15166 1.91674,0.15165 -4.06393,-0.002 z m 15.32859,0.0641 -3.7719,0.0843 -0.20797,-0.54196 -0.20797,-0.54196 0.13801,-3.42037 0.138,-3.42037 0.0827,3.74388 0.0827,3.74389 3.75914,0.1341 3.75913,0.13411 z m 15.15089,-0.0641 -4.06393,-0.002 2.14718,-0.14973 2.14719,-0.14973 1.91674,0.15166 1.91675,0.15165 -4.06393,-0.002 z m 15.32858,0.0641 -3.77189,0.0843 -0.20798,-0.54196 -0.20796,-0.54196 0.138,-3.42037 0.13801,-3.42037 0.0827,3.74388 0.0827,3.74389 3.75914,0.1341 3.75913,0.13411 z m 15.15089,-0.0641 -4.06393,-0.002 2.14718,-0.14973 2.14719,-0.14973 1.91674,0.15166 1.91675,0.15165 -4.06393,-0.002 z m 15.32858,0.0641 -3.77189,0.0843 -0.20798,-0.54196 -0.20796,-0.54196 0.138,-3.42037 0.13801,-3.42037 0.0827,3.74388 0.0827,3.74389 3.75913,0.1341 3.75914,0.13411 z m 15.15089,-0.0641 -4.06393,-0.002 2.14718,-0.14973 2.14719,-0.14973 1.91674,0.15166 1.91675,0.15165 -4.06393,-0.002 z m 15.32858,0.0641 -3.77189,0.0843 -0.20797,-0.54196 -0.20797,-0.54196 0.138,-3.42037 0.13801,-3.42037 0.0827,3.74388 0.0827,3.74389 3.75913,0.1341 3.75914,0.13411 z"
         id="path451" /><path
         style="fill:#020000;stroke-width:0.406393"
         d="m 184.43756,271.0724 h -3.87598 v -3.87599 -3.87598 l 3.75914,0.11685 3.75913,0.11685 0.11685,3.75913 0.11685,3.75914 z m 15.22449,0 h -3.65754 v -3.86074 -3.86073 h 3.65754 3.65754 v 3.86073 3.86074 z m 15.25499,0 h -3.87599 v -3.87599 -3.87598 l 3.75914,0.11685 3.75913,0.11685 0.11685,3.75913 0.11685,3.75914 z m 15.22448,0 h -3.65754 v -3.86074 -3.86073 h 3.65754 3.65754 v 3.86073 3.86074 z m 15.25499,0 h -3.87599 v -3.87599 -3.87598 l 3.75914,0.11685 3.75913,0.11685 0.11685,3.75913 0.11685,3.75914 z m 15.22448,0 h -3.65753 v -3.86074 -3.86073 h 3.65753 3.65754 v 3.86073 3.86074 z m 15.25499,0 H 272 v -3.87599 -3.87598 l 3.75913,0.11685 3.75913,0.11685 0.11685,3.75913 0.11685,3.75914 z m 15.22448,0 h -3.65753 v -3.86074 -3.86073 h 3.65753 3.65754 v 3.86073 3.86074 z M 184.42231,255.62946 h -3.86073 v -3.65753 -3.65754 h 3.86073 3.86074 v 3.65754 3.65753 z m 15.23974,0 h -3.65754 v -3.65753 -3.65754 h 3.65754 3.65754 v 3.65754 3.65753 z m 15.23974,0 h -3.86074 v -3.65753 -3.65754 h 3.86074 3.86073 v 3.65754 3.65753 z m 15.23973,0 h -3.65754 v -3.65753 -3.65754 h 3.65754 3.65754 v 3.65754 3.65753 z m 15.23974,0 h -3.86074 v -3.65753 -3.65754 h 3.86074 3.86073 v 3.65754 3.65753 z m 15.23973,0 h -3.65753 v -3.65753 -3.65754 h 3.65753 3.65754 v 3.65754 3.65753 z m 15.23974,0 H 272 v -3.65753 -3.65754 h 3.86073 3.86073 v 3.65754 3.65753 z m 15.23973,0 h -3.65753 v -3.65753 -3.65754 h 3.65753 3.65754 v 3.65754 3.65753 z m -106.6629,-15.03654 h -3.87598 v -3.87598 -3.87598 l 3.75914,0.11685 3.75913,0.11685 0.11685,3.75913 0.11685,3.75913 z m 15.22449,0 h -3.65754 v -3.86073 -3.86073 h 3.65754 3.65754 v 3.86073 3.86073 z m 15.25499,0 h -3.87599 v -3.87598 -3.87598 l 3.75914,0.11685 3.75913,0.11685 0.11685,3.75913 0.11685,3.75913 z m 15.22448,0 h -3.65754 v -3.86073 -3.86073 h 3.65754 3.65754 v 3.86073 3.86073 z m 15.25499,0 h -3.87599 v -3.87598 -3.87598 l 3.75914,0.11685 3.75913,0.11685 0.11685,3.75913 0.11685,3.75913 z m 15.22448,0 h -3.65753 v -3.86073 -3.86073 h 3.65753 3.65754 v 3.86073 3.86073 z m 15.25499,0 H 272 v -3.87598 -3.87598 l 3.75913,0.11685 3.75913,0.11685 0.11685,3.75913 0.11685,3.75913 z m 15.22448,0 h -3.65753 v -3.86073 -3.86073 h 3.65753 3.65754 v 3.86073 3.86073 z M 184.42231,225.14999 h -3.86073 v -3.65753 -3.65754 h 3.86073 3.86074 v 3.65754 3.65753 z m 15.23974,0 h -3.65754 v -3.65753 -3.65754 h 3.65754 3.65754 v 3.65754 3.65753 z m 15.23974,0 h -3.86074 v -3.65753 -3.65754 h 3.86074 3.86073 v 3.65754 3.65753 z m 15.23973,0 h -3.65754 v -3.65753 -3.65754 h 3.65754 3.65754 v 3.65754 3.65753 z m 15.23974,0 h -3.86074 v -3.65753 -3.65754 h 3.86074 3.86073 v 3.65754 3.65753 z m 15.23973,0 h -3.65753 v -3.65753 -3.65754 h 3.65753 3.65754 v 3.65754 3.65753 z m 15.23974,0 H 272 v -3.65753 -3.65754 h 3.86073 3.86073 v 3.65754 3.65753 z m 15.23973,0 h -3.65753 v -3.65753 -3.65754 h 3.65753 3.65754 v 3.65754 3.65753 z m -106.6629,-15.03654 h -3.87598 v -3.87598 -3.87598 l 3.75914,0.11684 3.75913,0.11685 0.11685,3.75914 0.11685,3.75913 z m 15.22449,0 h -3.65754 v -3.86073 -3.86073 h 3.65754 3.65754 v 3.86073 3.86073 z m 15.25499,0 h -3.87599 v -3.87598 -3.87598 l 3.75914,0.11684 3.75913,0.11685 0.11685,3.75914 0.11685,3.75913 z m 15.22448,0 h -3.65754 v -3.86073 -3.86073 h 3.65754 3.65754 v 3.86073 3.86073 z m 15.25499,0 h -3.87599 v -3.87598 -3.87598 l 3.75914,0.11684 3.75913,0.11685 0.11685,3.75914 0.11685,3.75913 z m 15.22448,0 h -3.65753 v -3.86073 -3.86073 h 3.65753 3.65754 v 3.86073 3.86073 z m 15.25499,0 H 272 v -3.87598 -3.87598 l 3.75913,0.11684 3.75913,0.11685 0.11685,3.75914 0.11685,3.75913 z m 15.22448,0 h -3.65753 v -3.86073 -3.86073 h 3.65753 3.65754 v 3.86073 3.86073 z M 184.42231,194.67052 h -3.86073 v -3.65753 -3.65754 h 3.86073 3.86074 v 3.65754 3.65753 z m 15.23974,0 h -3.65754 v -3.65753 -3.65754 h 3.65754 3.65754 v 3.65754 3.65753 z m 15.23974,0 h -3.86074 v -3.65753 -3.65754 h 3.86074 3.86073 v 3.65754 3.65753 z m 15.23973,0 h -3.65754 v -3.65753 -3.65754 h 3.65754 3.65754 v 3.65754 3.65753 z m 15.23974,0 h -3.86074 v -3.65753 -3.65754 h 3.86074 3.86073 v 3.65754 3.65753 z m 15.23973,0 h -3.65753 v -3.65753 -3.65754 h 3.65753 3.65754 v 3.65754 3.65753 z m 15.23974,0 H 272 v -3.65753 -3.65754 h 3.86073 3.86073 v 3.65754 3.65753 z m 15.23973,0 h -3.65753 v -3.65753 -3.65754 h 3.65753 3.65754 v 3.65754 3.65753 z m -106.6629,-15.03654 h -3.87598 v -3.87598 -3.87598 l 3.75914,0.11684 3.75913,0.11685 0.11685,3.75914 0.11685,3.75913 z m 15.22449,0 h -3.65754 v -3.86073 -3.86073 h 3.65754 3.65754 v 3.86073 3.86073 z m 15.25499,0 h -3.87599 v -3.87598 -3.87598 l 3.75914,0.11684 3.75913,0.11685 0.11685,3.75914 0.11685,3.75913 z m 15.22448,0 h -3.65754 v -3.86073 -3.86073 h 3.65754 3.65754 v 3.86073 3.86073 z m 15.25499,0 h -3.87599 v -3.87598 -3.87598 l 3.75914,0.11684 3.75913,0.11685 0.11685,3.75914 0.11685,3.75913 z m 15.22448,0 h -3.65753 v -3.86073 -3.86073 h 3.65753 3.65754 v 3.86073 3.86073 z m 15.25499,0 H 272 v -3.87598 -3.87598 l 3.75913,0.11684 3.75913,0.11685 0.11685,3.75914 0.11685,3.75913 z m 15.22448,0 h -3.65753 v -3.86073 -3.86073 h 3.65753 3.65754 v 3.86073 3.86073 z M 184.42231,164.19105 h -3.86073 v -3.65754 -3.65753 h 3.86073 3.86074 v 3.65753 3.65754 z m 15.23974,0 h -3.65754 v -3.65754 -3.65753 h 3.65754 3.65754 v 3.65753 3.65754 z m 15.23974,0 h -3.86074 v -3.65754 -3.65753 h 3.86074 3.86073 v 3.65753 3.65754 z m 15.23973,0 h -3.65754 v -3.65754 -3.65753 h 3.65754 3.65754 v 3.65753 3.65754 z m 15.23974,0 h -3.86074 v -3.65754 -3.65753 h 3.86074 3.86073 v 3.65753 3.65754 z m 15.23973,0 h -3.65753 v -3.65754 -3.65753 h 3.65753 3.65754 v 3.65753 3.65754 z m 15.23974,0 H 272 v -3.65754 -3.65753 h 3.86073 3.86073 v 3.65753 3.65754 z m 15.23973,0 h -3.65753 v -3.65754 -3.65753 h 3.65753 3.65754 v 3.65753 3.65754 z"
         id="path449" /></g></g></svg>
