<?xml version="1.0" encoding="UTF-8" standalone="no"?>
<!-- Created with Inkscape (http://www.inkscape.org/) -->

<svg
   width="720.0px"
   height="576.0px"
   viewBox="0 0 720.0 576.0"
   version="1.1"
   id="SVGRoot"
   sodipodi:docname="spongebob.svg"
   inkscape:version="1.2.1 (9c6d41e410, 2022-07-14, custom)"
   xml:space="preserve"
   xmlns:inkscape="http://www.inkscape.org/namespaces/inkscape"
   xmlns:sodipodi="http://sodipodi.sourceforge.net/DTD/sodipodi-0.dtd"
   xmlns="http://www.w3.org/2000/svg"
   xmlns:svg="http://www.w3.org/2000/svg"><sodipodi:namedview
     id="namedview310"
     pagecolor="#ffffff"
     bordercolor="#111111"
     borderopacity="1"
     inkscape:showpageshadow="0"
     inkscape:pageopacity="0"
     inkscape:pagecheckerboard="1"
     inkscape:deskcolor="#d1d1d1"
     inkscape:document-units="px"
     showgrid="false"
     inkscape:zoom="0.45245917"
     inkscape:cx="-244.22093"
     inkscape:cy="221.01442"
     inkscape:window-width="1366"
     inkscape:window-height="695"
     inkscape:window-x="0"
     inkscape:window-y="0"
     inkscape:window-maximized="1"
     inkscape:current-layer="layer1" /><defs
     id="defs305" /><g
     inkscape:label="Layer 1"
     inkscape:groupmode="layer"
     id="layer1"><g
       id="g60754"
       transform="matrix(2.2573868,0,0,2.2573868,-347.75151,-244.39242)"
       style="display:inline"><path
         style="fill:#000000;stroke-width:0.550388"
         d="m 276.011,342.44285 c -6.06497,-5.65038 -2.16631,-15.51846 5.74069,-14.53055 2.87837,0.35963 2.87837,0.35963 3.72891,-1.76609 0.4678,-1.16915 1.24323,-2.45162 1.72318,-2.84994 0.99433,-0.82522 1.13245,-6.62027 0.51348,-21.54326 -0.35546,-8.57011 -0.35546,-8.57011 -3.43809,-9.63179 -3.08262,-1.06167 -3.08262,-1.06167 -3.24768,-4.2264 -0.16507,-3.16473 -0.16507,-3.16473 -10.31977,-3.16473 -10.15471,0 -10.15471,0 -10.15471,-19.26357 0,-21.36636 -0.30471,-22.85007 -2.40199,-11.69574 -3.94884,21.00183 -3.93902,20.91361 -2.62967,23.60864 0.64842,1.33464 1.17895,3.43356 1.17895,4.66424 0,1.40422 0.40998,2.75882 1.10078,3.63702 2.22002,2.82231 0.80363,5.85609 -2.20403,4.72083 -1.24123,-0.46852 -1.50825,-0.44197 -1.28946,0.12817 0.97493,2.54063 -3.51446,4.23749 -4.80943,1.81783 -0.56898,-1.06314 -0.69026,-1.09223 -1.14749,-0.27519 -1.26177,2.25465 -4.85967,0.58348 -4.85967,-2.25724 0,-0.85622 -0.30987,-0.99615 -1.74085,-0.78613 -1.2584,0.1847 -1.94477,-0.0234 -2.47674,-0.75091 -1.03549,-1.41612 -0.96928,-1.62671 1.19045,-3.78645 1.16094,-1.16094 1.92636,-2.46614 1.92636,-3.28484 0,-2.40704 1.09275,-4.40124 3.79959,-6.93403 2.63074,-2.46158 2.65076,-2.50706 3.27064,-7.43023 0.54968,-4.3656 2.28188,-20.89759 2.28513,-21.80911 5.5e-4,-0.1892 -0.74179,-0.4926 -1.64993,-0.67423 -3.43016,-0.68603 0.49049,-16.68004 5.21018,-21.25454 1.83468,-1.77825 1.83468,-1.77825 0.7853,-4.15055 -1.7732,-4.00861 -1.8877,-6.88017 -0.46998,-11.78655 1.2682,-4.38892 1.2682,-4.38892 -0.33989,-8.13217 -1.41679,-3.29794 -1.60925,-4.398 -1.61784,-9.24712 -0.009,-5.05489 -0.14366,-5.75082 -1.65117,-8.53101 -1.83265,-3.37983 -2.20207,-9.4004 -0.87044,-14.18585 0.61684,-2.21669 0.53762,-2.61167 -1.37195,-6.84094 -2.01567,-4.46426 -2.02432,-4.51531 -1.60513,-9.48082 0.47737,-5.65475 0.47623,-6.01417 -0.0328,-10.33325 -0.74099,-6.28769 1.03883,-7.98174 7.6888,-7.31823 8.47575,0.84567 11.35158,0.65508 15.55356,-1.0308 3.73898,-1.50012 4.21962,-1.56173 9.35659,-1.1995 7.95577,0.56101 10.50576,0.42329 14.77647,-0.79802 4.58584,-1.31144 7.68828,-1.39338 10.36772,-0.27384 2.74234,1.14582 5.36006,1.0551 10.92366,-0.3786 4.78451,-1.23292 4.78451,-1.23292 10.18782,-0.0144 6.64029,1.49752 6.66401,1.49756 11.64072,0.0225 4.5105,-1.3369 6.23267,-1.16532 12.37373,1.23279 3.21157,1.25413 3.21157,1.25413 6.75267,-0.49206 11.37474,-5.60914 20.29317,0.87033 15.27664,11.09885 -1.45293,2.96247 -1.45293,2.96247 -0.2752,6.83989 1.64457,5.41438 1.55784,9.87694 -0.27116,13.9525 -1.3453,2.99772 -1.39898,3.40685 -0.75078,5.72201 0.85032,3.03703 0.4102,8.21326 -1.11092,13.0653 -1.31717,4.20153 -1.35364,5.79184 -0.19898,8.67761 1.17235,2.92999 0.81512,10.37488 -0.64037,13.34569 -0.98365,2.00773 -0.98405,2.15861 -0.0129,4.85922 1.20092,3.33963 0.98296,9.15951 -0.44655,11.92388 -0.74904,1.44848 -0.77864,1.78437 -0.15724,1.78437 4.91899,0 12.66446,22.00455 8.06898,22.92365 -1.90237,0.38047 -1.88124,0.23018 -1.0941,7.78216 1.957,18.77599 2.10425,19.43235 4.96514,22.13141 2.50321,2.3616 3.12823,3.63565 4.07136,8.29905 0.16575,0.8196 0.88855,1.69329 1.71076,2.06791 2.55398,1.16367 1.74139,4.21831 -1.12215,4.21831 -2.09672,0 -2.21466,0.0917 -2.47675,1.92636 -0.30222,2.11553 -2.52943,2.97778 -4.17151,1.61498 -0.63829,-0.52974 -1.00659,-0.48154 -1.79882,0.23542 -1.9565,1.7706 -5.17745,0.19227 -4.29587,-2.10507 0.21878,-0.57015 -0.0482,-0.59669 -1.28947,-0.12817 -3.02826,1.14303 -4.4748,-2.21802 -2.20403,-5.12104 0.6736,-0.86115 1.08088,-2.24483 1.08854,-3.69817 0.007,-1.27721 0.52466,-3.30529 1.15094,-4.50685 1.1387,-2.18464 1.1387,-2.18464 -1.51356,-16.54046 -2.65227,-14.35583 -2.65227,-14.35583 -2.92747,4.78204 -0.27519,19.13786 -0.27519,19.13786 -10.87015,19.28734 -10.59497,0.14948 -10.59497,0.14948 -10.59497,2.85022 0,3.27123 -0.71558,4.0963 -4.29812,4.95574 -2.97977,0.71483 -5.09077,28.59957 -2.33526,30.84689 0.55675,0.45407 1.1928,1.44477 1.41345,2.20155 0.71984,2.46897 1.25384,2.74691 4.60467,2.39668 7.51556,-0.78553 11.03979,8.25818 5.52054,14.16656 -2.56201,2.74265 -11.78653,1.60539 -14.13128,-1.7422 -0.7418,-1.05907 -0.89435,-1.09362 -1.33689,-0.30283 -0.9111,1.62804 -4.55017,0.64316 -7.4623,-2.01962 -1.45521,-1.3306 -1.54199,-2.45072 -0.40134,-5.18066 0.66582,-1.59352 0.7114,-2.38398 0.22286,-3.86427 -0.7983,-2.41889 -0.25309,-4.46991 1.35025,-5.0795 3.50592,-1.33295 2.94578,-29.70724 -0.62138,-31.47662 -2.61435,-1.29677 -2.61435,-1.29677 -2.77972,-4.47196 -0.26038,-4.99919 -24.50512,-4.73417 -24.76669,0.27073 -0.16462,3.14979 -0.16462,3.14979 -2.89576,4.40273 -1.75428,0.80479 -2.63049,1.51524 -2.44972,1.9863 0.15478,0.40335 0.28298,6.96689 0.28489,14.58564 0.003,13.85227 0.003,13.85227 1.65117,14.78985 1.76949,1.0069 2.22552,3.28376 1.08466,5.41549 -0.40833,0.76297 -0.33271,1.60325 0.27519,3.05817 0.46102,1.10338 0.83822,2.55191 0.83822,3.21896 0,2.77291 -7.27479,6.73962 -8.55659,4.66562 -0.23773,-0.38465 -0.77885,-0.21143 -1.54605,0.49495 -3.04179,2.80062 -11.22275,3.8111 -13.5209,1.67005 z m 8.4603,-1.0733 c 1.45288,-0.36584 3.09738,-1.33459 4.2044,-2.47674 1.93544,-1.99687 3.25341,-2.41535 3.25341,-1.03304 0,1.50358 1.62843,1.52002 3.86635,0.039 2.4647,-1.63106 2.52781,-1.88982 1.32319,-5.42518 -0.64573,-1.89511 -0.71543,-2.81679 -0.27519,-3.63938 1.53127,-2.8612 -0.0589,-4.90289 -2.23772,-2.87304 -1.65132,1.53843 -3.00317,1.44699 -4.63473,-0.3135 -1.55197,-1.6746 -1.53516,-1.68276 -3.15717,1.53229 -1.21419,2.40671 -1.21419,2.40671 -4.8812,2.40671 -5.51571,0 -8.27043,2.95564 -7.03406,7.54714 1.20003,4.45661 3.9185,5.65947 9.57272,4.23572 z m 65.2088,-0.84963 c 4.42804,-5.62934 1.56273,-11.63597 -5.2049,-10.91122 -3.48725,0.37346 -5.21275,-0.69824 -5.21275,-3.23758 0,-1.78349 -1.49511,-2.11913 -2.95161,-0.66263 -1.68844,1.68844 -2.74041,1.76369 -4.20343,0.30068 -2.14335,-2.14336 -3.80158,-0.63323 -2.68756,2.44753 0.6024,1.66589 0.56845,2.33227 -0.23265,4.56735 -1.22748,3.42471 -1.3098,3.17497 1.61066,4.88647 2.54317,1.4904 2.54317,1.4904 3.54646,0.1608 1.00329,-1.32959 1.00329,-1.32959 2.83366,0.44399 3.67856,3.56444 10.42435,4.64607 12.50212,2.00461 z m -56.21427,-19.64601 c 0.16075,-4.22133 0.16075,-4.22133 -1.51357,-4.22133 -1.67229,0 -1.67431,0.004 -1.67431,3.17985 0,6.59713 2.93975,7.55754 3.18788,1.04148 z m 42.7557,-0.7829 c 0.0138,-3.15085 0.007,-3.16324 -1.63737,-3.16324 -1.85418,0 -2.85251,5.92631 -1.31119,7.7835 1.30999,1.57842 2.93262,-0.96418 2.94856,-4.62026 z m -42.64126,-19.60607 c 0,-5.69612 -0.40924,-6.94865 -2.27034,-6.94865 -1.58237,0 -1.58237,0 -1.58237,5.22869 0,5.22868 0,5.22868 1.92636,5.22868 1.92635,0 1.92635,0 1.92635,-3.50872 z m 42.93024,-1.71996 c 0,-5.22869 0,-5.22869 -1.65116,-5.22869 -1.65116,0 -1.65116,0 -1.65116,5.22869 0,5.22868 0,5.22868 1.65116,5.22868 1.65116,0 1.65116,0 1.65116,-5.22868 z m -84.92135,-10.48866 c -0.42007,-4.07007 0.64896,-4.58784 3.23485,-1.56677 1.01143,1.18165 1.84826,1.87724 1.85962,1.54577 0.0114,-0.33148 -0.47468,-1.05097 -1.0801,-1.59887 -0.81245,-0.73526 -1.10078,-1.69518 -1.10078,-3.66482 0,-1.6171 -0.43374,-3.4779 -1.10078,-4.72244 -1.49046,-2.78088 -1.45418,-3.26678 1.37597,-18.42719 2.92575,-15.6725 2.80483,-13.98776 1.03583,-14.43175 -1.87081,-0.46954 -1.69581,-0.90805 -2.40641,6.03017 -2.08189,20.32749 -2.47237,22.0152 -5.70688,24.66564 -1.88786,1.54695 -2.46947,2.47084 -2.99862,4.76322 -0.87014,3.76966 -0.85462,3.86881 0.5819,3.71672 1.36379,-0.14438 1.55211,0.97022 0.74506,4.40959 -0.25938,1.10541 -0.20947,1.78876 0.13065,1.78876 0.30272,0 0.7124,-0.80494 0.9104,-1.78876 0.63867,-3.17323 0.88782,-3.71511 1.70817,-3.71511 0.86941,0 0.96246,0.18525 1.86604,3.71511 0.83913,3.27814 1.31988,2.91225 0.94508,-0.71927 z m 125.31285,-0.80581 c 0.45876,-2.86889 2.26282,-3.1264 2.81129,-0.40127 0.61381,3.04975 0.89078,3.74142 1.37769,3.44049 0.25862,-0.15983 0.24079,-1.09057 -0.0396,-2.06831 -1.0989,-3.83163 -0.34809,-5.28213 1.75089,-3.38258 1.06957,0.96795 1.12097,1.42332 -0.57354,-5.08181 -0.41712,-1.60131 -1.20401,-2.73514 -2.65364,-3.82362 -3.36327,-2.52537 -3.487,-2.99216 -5.14318,-19.40154 -1.3022,-12.90235 -1.02335,-11.81434 -2.90682,-11.34162 -1.81432,0.45537 -1.88879,-0.61591 1.09347,15.73128 2.53438,13.89218 2.53438,13.89218 1.37597,16.68705 -0.63713,1.53718 -1.15842,3.74255 -1.15842,4.90083 0,1.26003 -0.46627,2.76077 -1.16081,3.73616 -0.63845,0.89662 -1.02769,1.76336 -0.86496,1.92608 0.16272,0.16273 0.87084,-0.59149 1.5736,-1.67604 2.12085,-3.273 3.38859,-2.70681 3.09288,1.38132 -0.27795,3.84268 0.78529,3.37536 1.4252,-0.62642 z m -80.65193,2.70961 c 5.61604,-1.95775 2.14189,-5.45003 -5.42174,-5.45003 -9.45348,0 -11.08695,3.74567 -2.47675,5.67936 2.15163,0.48322 6.19092,0.36594 7.89849,-0.22933 z m 43.42109,-0.23026 c 2.80984,-0.83443 4.2419,-2.93307 3.1771,-4.65595 -1.30999,-2.11961 -14.65197,-0.49652 -14.48762,1.76245 0.26907,3.69847 4.74452,4.84339 11.31052,2.8935 z m 24.90911,-15.12675 c 0,-7.15504 0,-7.15504 -20.50194,-7.03542 -11.27606,0.0658 -17.34409,0.19703 -13.48449,0.29164 7.01744,0.17202 7.01744,0.17202 7.01744,3.18271 0,3.01068 0,3.01068 -9.5644,3.01068 -7.83023,0 -9.68862,0.14969 -10.24956,0.82559 -0.96373,1.16123 -1.48521,1.04951 -3.85234,-0.82529 -1.67897,-1.32977 -2.14597,-1.49034 -2.40107,-0.82558 -1.12179,2.92335 -21.81636,0.84734 -21.81636,-2.18854 0,-3.01382 0,-3.01382 9.21899,-3.17897 5.07045,-0.0908 -0.87374,-0.22066 -13.2093,-0.2885 -12.33556,-0.0678 -22.42855,0.0624 -22.42886,0.28943 -3.2e-4,0.22704 4.93336,0.34106 10.96373,0.25337 12.33083,-0.17928 12.16158,-0.24015 11.35076,4.0819 -0.35652,1.90043 -0.35652,1.90043 -11.3358,1.74091 -10.97926,-0.15951 -10.97926,-0.15951 -10.97869,3.8308 5.5e-4,3.99031 5.5e-4,3.99031 50.63623,3.99031 50.63566,0 50.63566,0 50.63566,-7.15504 z m -22.56589,-3.57752 c 0,-3.0504 0,-3.0504 10.87016,-2.90117 10.87015,0.14923 10.87015,0.14923 10.87015,2.90117 0,2.75194 0,2.75194 -10.87015,2.90117 -10.87016,0.14923 -10.87016,0.14923 -10.87016,-2.90117 z m 20.36434,-0.013 c 0,-2.30437 -18.72565,-2.93245 -19.16547,-0.64284 -0.4769,2.48268 -0.0996,2.58219 9.79161,2.58219 9.37386,0 9.37386,0 9.37386,-1.93935 z m -40.99985,-4.64243 c 0.0306,-1.21867 -0.10123,-1.96202 -0.29291,-1.65188 -0.19167,0.31014 -0.80808,-1.44835 -1.36979,-3.90776 -1.0213,-4.47164 -1.0213,-4.47164 -4.08441,-4.07133 -1.68472,0.22017 -3.35827,0.40811 -3.719,0.41765 -0.42662,0.0113 -0.55471,0.61053 -0.36645,1.71436 0.22836,1.33899 0.15922,1.52285 -0.32772,0.87144 -0.47578,-0.63647 -0.54,-0.32128 -0.28035,1.37597 0.18524,1.21085 0.1325,1.91603 -0.11718,1.56705 -0.25925,-0.36235 -0.45397,0.7265 -0.45397,2.53848 0,8.33769 10.80315,9.46199 11.01178,1.14602 z m -37.43039,4.65542 c 0,-1.65116 0,-1.65116 -9.49419,-1.80175 -9.49418,-0.1506 -9.49418,-0.1506 -9.49418,1.80175 0,1.95235 0,1.95235 9.49418,1.80176 9.49419,-0.15059 9.49419,-0.15059 9.49419,-1.80176 z m 26.27746,0.55388 c 0.43956,-2.29945 -0.4992,-2.51834 -10.10722,-2.35658 -9.53551,0.16053 -10.07677,0.33554 -9.07902,2.93563 0.63481,1.65431 18.86447,1.10413 19.18624,-0.57905 z m 26.00937,-0.55388 c 0,-2.83015 -12.94221,-2.83092 -15.68515,-0.001 -1.89629,1.95648 -1.89629,1.95648 6.89443,1.80429 8.79072,-0.15202 8.79072,-0.15202 8.79072,-1.80319 z m -27.79458,-6.56867 c 0,-0.13157 0.36194,-1.9598 0.80431,-4.06275 1.72895,-8.21916 0.05,-11.16518 -3.7942,-6.65748 -3.92147,4.59836 -3.56127,4.58027 -10.49593,0.52696 -5.60725,-3.27746 -5.60725,-3.27746 -9.40761,-2.97002 -2.73942,0.2216 -4.49181,0.062 -6.27711,-0.57182 -2.45342,-0.87096 -2.50664,-0.86373 -5.64952,0.76847 -3.57385,1.85601 -5.07301,2.01163 -7.91987,0.82213 -1.08675,-0.45407 -2.06949,-0.82558 -2.18388,-0.82558 -0.11439,0 -0.20798,2.97209 -0.20798,6.60465 0,6.60465 0,6.60465 22.5659,6.60465 12.41124,0 22.56589,-0.10764 22.56589,-0.23921 z m 56.13954,-7.19102 c 0,-7.43023 0,-7.43023 -1.51356,-7.43707 -0.83246,-0.004 -3.62346,-0.59064 -6.20221,-1.30417 -6.52715,-1.80604 -11.34198,-0.62689 -19.60324,4.80081 -6.99897,4.59836 -6.93293,4.6015 -11.5416,-0.54789 -4.1813,-4.67186 -4.43325,-4.56308 -4.65926,2.01158 -0.33515,9.74988 0.0244,9.90697 22.67205,9.90697 20.84782,0 20.84782,0 20.84782,-7.43023 z m -60.78024,-5.18705 c 1.49289,-1.64202 2.27979,-2.82581 1.74867,-2.63065 -0.53113,0.19516 -3.51741,0.0697 -6.63618,-0.27883 -8.30858,-0.92845 -8.73352,-0.46361 -2.80451,3.06786 2.69637,1.60602 4.9194,2.89913 4.94008,2.87358 0.0207,-0.0255 1.25904,-1.38993 2.75194,-3.03196 z m 15.13675,1.42677 c 0.0377,-1.16126 0.0527,-1.16374 0.56091,-0.0924 0.40596,0.85571 0.45862,0.68722 0.23651,-0.75679 -0.15714,-1.02165 -0.28571,-2.41567 -0.28571,-3.09781 0,-1.07026 -0.50174,-1.36629 -3.66059,-2.15977 -4.32766,-1.08707 -4.37248,-1.05411 -4.75899,3.50038 -0.2088,2.46041 -0.13114,3.29981 0.2546,2.75194 0.43732,-0.62114 0.5048,-0.55489 0.31814,0.31244 -0.22163,1.02985 0.006,1.089 3.52978,0.91801 3.4264,-0.16625 3.77016,-0.29055 3.80535,-1.37597 z m 16.93107,-2.07183 c 4.03565,-2.58032 4.03565,-2.58032 1.37597,-3.41942 -4.77907,-1.50776 -12.29146,-1.50568 -12.29146,0.003 0,0.89042 5.70001,6.71585 6.24566,6.38309 0.3488,-0.21272 2.45023,-1.54791 4.66983,-2.96708 z m -63.43667,-1.92635 c 2.57325,-1.50802 2.24639,-1.49393 10.81203,-0.46631 2.75437,0.33043 3.49202,0.19742 5.90654,-1.0651 3.05393,-1.59686 6.13867,-1.82714 11.91535,-0.88949 2.62749,0.42649 3.94303,0.36708 6.05426,-0.27339 3.17361,-0.96276 7.35471,-1.05911 10.31301,-0.23766 1.73643,0.48217 2.77883,0.38379 5.86451,-0.55346 4.83456,-1.46845 10.36166,-1.48552 14.95335,-0.0462 4.18151,1.31077 5.40788,1.34867 8.94271,0.27634 3.64795,-1.10665 6.47625,-1.03144 11.05963,0.29407 6.187,1.78929 7.59332,0.6952 6.37979,-4.96329 -0.87003,-4.05681 -0.74963,-5.72186 0.53152,-7.35057 1.56227,-1.98611 1.85261,-4.5907 0.82986,-7.44462 -1.18804,-3.31514 -1.08836,-4.71665 0.53214,-7.48183 1.82208,-3.10914 2.25404,-6.99992 1.12471,-10.13057 -1.16874,-3.23992 -1.0932,-5.8059 0.27706,-9.41113 1.30454,-3.43231 1.20796,-6.42676 -0.34454,-10.6831 -0.97119,-2.66263 -0.96666,-2.74512 0.46937,-8.53101 1.53392,-6.18033 1.71606,-8.30895 1.14744,-13.40948 -0.28285,-2.53716 -0.125,-3.69336 0.79674,-5.836 1.88498,-4.38176 2.01907,-6.66348 0.63587,-10.82 -1.56375,-4.69907 -1.51385,-6.97279 0.23549,-10.73105 2.36484,-5.08057 1.3096,-8.41937 -2.87167,-9.08601 -1.12206,-0.1789 -2.41031,-0.52387 -2.86278,-0.7666 -0.45246,-0.24273 -1.19549,-0.26162 -1.65116,-0.042 -7.48858,3.60984 -10.02658,3.89705 -15.89211,1.7984 -3.99851,-1.43064 -4.10358,-1.43876 -7.43023,-0.57441 -1.85591,0.48221 -4.73658,0.79037 -6.4015,0.68481 -2.71043,-0.17185 -2.79681,-0.14637 -0.82559,0.24356 1.98359,0.39237 2.03808,0.4441 0.55039,0.52245 -0.90814,0.0478 -3.90487,-0.45213 -6.6594,-1.11103 -5.00824,-1.19799 -5.00824,-1.19799 -9.74947,-0.009 -6.14419,1.54101 -18.52077,0.62163 -13.82167,-1.02672 0.55288,-0.19394 -0.20849,-0.35262 -1.69194,-0.35262 -1.48346,0 -2.2604,0.15322 -1.72654,0.34048 1.3111,0.45992 -8.11133,2.77984 -11.26505,2.7736 -4.70403,-0.009 -8.79865,-0.72418 -6.54718,-1.14307 1.276,-0.2374 0.34691,-0.36434 -2.75193,-0.37599 -3.09886,-0.0117 -4.21376,0.13118 -3.30233,0.42307 1.23911,0.39683 1.25931,0.44612 0.20313,0.49552 -0.64507,0.0302 -2.81208,0.67187 -4.81559,1.42599 -5.18268,1.95075 -8.66166,2.23676 -13.66571,1.12347 -6.48984,-1.44385 -8.19274,0.0279 -6.99639,6.04665 0.53399,2.68652 0.55003,4.47641 0.0705,7.8673 -0.67941,4.80425 -0.47096,6.0541 1.73616,10.40963 1.6826,3.32046 1.7474,4.38722 0.62332,10.26156 -0.94161,4.92075 -0.63941,6.82114 1.77025,11.13249 1.34857,2.41285 1.47007,3.1082 1.35189,7.73701 -0.11194,4.38442 0.0626,5.54307 1.26529,8.40058 1.61864,3.84574 1.74197,6.38323 0.51162,10.52629 -1.22989,4.1415 -0.80326,7.98573 1.34004,12.07454 1.96604,3.75065 2.09706,4.92868 0.91944,8.26642 -1.11715,3.16635 -1.03766,4.13694 0.65362,7.98062 1.02936,2.33936 1.54715,4.66513 1.7757,7.97582 0.32262,4.67348 0.32262,4.67348 2.79936,5.88418 3.22365,1.57579 3.99948,1.5586 6.92069,-0.15334 z m 1.47671,-4.13022 c -3.46115,-1.28036 -4.02012,-8.42867 -0.90284,-11.54595 2.50566,-2.50566 5.22354,-2.73427 7.34038,-0.61744 4.81337,4.81337 -0.28186,14.44053 -6.43754,12.16339 z m 68.24022,-3.3334 c -1.04593,-1.04594 -0.8299,-4.01414 0.37127,-5.10119 2.55911,-2.31596 5.61933,0.84261 3.86257,3.9867 -0.90924,1.62728 -3.13512,2.2132 -4.23384,1.11449 z m 6.47092,-7.61901 c -1.36268,-1.36268 -1.52186,-6.39541 -0.27833,-8.80012 2.82731,-5.46743 9.08744,-3.99787 9.08248,2.1321 -0.005,5.85262 -5.47587,9.9963 -8.80415,6.66802 z m -81.32364,-0.0864 c -0.94969,-0.94969 -0.8548,-3.27768 0.19468,-4.77603 2.14244,-3.05875 5.89394,0.34201 4.03915,3.66154 -0.90924,1.62729 -3.13511,2.21321 -4.23383,1.11449 z m 34.89239,-7.45077 c -0.21019,-0.21019 -0.22536,-1.76807 -0.0337,-3.46198 0.41125,-3.63504 0.44487,-3.59791 -5.22251,-5.76834 -7.97668,-3.05482 -20.06085,-12.95814 -25.0962,-20.56707 -1.39831,-2.11299 -1.61505,-2.24342 -2.45894,-1.4797 -2.23742,2.02483 -3.46545,0.25275 -1.3529,-1.95228 2.5084,-2.61818 8.49476,-2.90537 8.49476,-0.40753 0,0.97996 -0.23829,1.0736 -1.92636,0.75691 -2.48011,-0.46527 -2.44437,-0.29161 0.76926,3.73836 12.47088,15.63879 26.39922,22.16943 43.03313,20.1771 16.71269,-2.00174 28.39478,-9.7222 32.71328,-21.61953 1.21914,-3.35868 0.42831,-5.1006 -1.15362,-2.541 -0.56061,0.90709 -1.8853,0.48729 -1.8853,-0.59746 0,-1.4019 1.88356,-2.38383 4.69263,-2.44636 2.43569,-0.0542 5.21435,1.39251 5.21435,2.71488 0,0.96833 -1.71456,1.07973 -2.62382,0.17047 -0.48963,-0.48964 -0.69773,-0.45691 -0.87499,0.1376 -3.65035,12.24258 -12.70457,20.85233 -25.78989,24.52389 -3.18417,0.89344 -3.18417,0.89344 -3.18417,4.61473 0,2.88562 -0.19551,3.79633 -0.8706,4.05538 -1.2129,0.46544 -21.97534,0.42097 -22.44437,-0.0481 z m 9.55528,-4.02095 c 0,-2.20155 0,-2.20155 -2.33915,-2.20906 -1.28653,-0.004 -2.86973,-0.14988 -3.51823,-0.32388 -1.06155,-0.28483 -1.1991,-0.0646 -1.37993,2.20906 -0.20086,2.52543 -0.20086,2.52543 3.51822,2.52543 3.71909,0 3.71909,0 3.71909,-2.20155 z m 11.55814,-0.59877 c 0,-3.05748 0.14196,-3.0161 -6.19186,-1.80478 -3.93539,0.75263 -1.97854,4.6051 2.33915,4.6051 3.85271,0 3.85271,0 3.85271,-2.80032 z m -45.68218,-22.81099 c 0,-0.46414 0.64475,-2.11623 1.43277,-3.67131 1.03576,-2.04398 1.34981,-3.33863 1.13338,-4.67233 -0.21668,-1.3352 -0.11833,-1.73933 0.35599,-1.46277 0.36046,0.21017 0.18357,-0.15579 -0.3931,-0.81325 -1.12019,-1.27714 -1.74278,-1.59917 -1.10894,-0.5736 0.23326,0.37743 0.0838,0.52163 -0.38031,0.36693 -0.42052,-0.14018 -0.76459,-0.5851 -0.76459,-0.98872 0,-0.40362 -0.37152,-0.83526 -0.82559,-0.95921 -0.73384,-0.20033 -0.73384,-0.1546 0,0.41144 0.65028,0.50158 0.47497,0.54234 -0.82558,0.19194 -2.95025,-0.79485 -6.55851,-0.53205 -8.28189,0.60322 -1.62508,1.07051 -1.62508,1.07051 -0.24912,1.39956 1.98419,0.47448 1.77663,1.93057 -0.27519,1.93057 -1.17815,0 -1.60129,-0.23651 -1.47706,-0.82558 0.14096,-0.66841 -0.007,-0.6472 -0.77972,0.11139 -1.30623,1.28315 -1.19722,3.99434 0.23869,5.93651 1.42184,1.92314 1.52798,2.90499 0.28766,2.66106 -5.59484,-1.10031 -3.52083,-11.44046 2.7495,-13.70785 1.73287,-0.62661 1.73287,-0.62661 1.73287,-6.20727 0,-6.57749 1.65105,-10.94866 5.7581,-15.2446 2.33709,-2.44459 2.33709,-2.44459 1.17903,-6.06116 -1.49335,-4.66366 -1.4597,-5.37739 0.28486,-6.04067 1.96006,-0.74521 2.57706,-0.1139 3.78377,3.87158 0.55102,1.8199 1.1484,3.30753 1.32751,3.30585 0.1791,-0.002 1.19251,-0.22533 2.252,-0.49698 1.0595,-0.27165 2.61275,-0.64782 3.45168,-0.83595 1.52533,-0.34204 1.52533,-0.34204 1.15606,-4.76984 -0.34316,-4.11481 3.49881,-7.21912 4.02321,-3.25076 0.06,0.45407 0.26262,2.45151 0.45026,4.43875 0.34116,3.61316 0.34116,3.61316 2.92262,4.18386 1.41979,0.31388 2.98691,0.74703 3.48247,0.96256 0.72538,0.31549 1.15359,-0.31235 2.19663,-3.22067 1.13026,-3.15152 1.47183,-3.61148 2.6765,-3.60413 2.86223,0.0174 3.02231,0.59867 1.45159,5.27035 -1.44613,4.30116 -1.44613,4.30116 0.1692,5.97824 0.88843,0.9224 2.45815,3.08206 3.48826,4.79925 1.87292,3.12216 1.87292,3.12216 3.07164,0.65484 0.6593,-1.35703 2.33492,-3.68203 3.72362,-5.16665 2.52489,-2.69931 2.52489,-2.69931 1.36701,-6.12798 -1.38315,-4.09574 -1.45924,-5.73345 -0.28728,-6.18318 2.28381,-0.87637 2.87347,-0.39162 4.11269,3.38104 1.49232,4.54321 1.10979,4.17423 3.63173,3.5031 1.16465,-0.30993 2.74203,-0.68912 3.50528,-0.84264 1.35679,-0.27289 1.38314,-0.36992 1.18199,-4.35318 -0.20573,-4.07407 -0.20573,-4.07407 1.36421,-4.39013 2.07159,-0.41706 2.94376,0.76019 2.95342,3.9865 0.0124,4.13739 0.3313,4.6739 3.18935,5.36559 1.42022,0.34371 2.99549,0.78917 3.50062,0.9899 0.73442,0.29186 1.16389,-0.30832 2.14386,-2.99597 1.39913,-3.83724 1.60009,-4.04062 3.51707,-3.55949 1.74745,0.43859 1.79464,1.60578 0.24985,6.18015 -1.15143,3.40958 -1.15143,3.40958 1.34639,6.18775 3.57011,3.97083 4.95039,7.85152 4.99654,14.04791 0.0372,4.99352 0.0372,4.99352 2.72462,5.63191 6.51759,1.5482 9.65772,10.57538 4.3828,12.59956 -1.3997,0.53711 -1.46633,-0.29183 -0.2506,-3.11786 1.56106,-3.62879 0.78515,-5.39976 -3.07762,-7.02448 -2.55065,-1.07283 -8.23546,-2.15554 -6.86252,-1.30702 0.4647,0.2872 0.23337,0.61839 -0.74249,1.06302 -1.79791,0.81918 -2.07652,0.81178 -1.58512,-0.0422 0.21775,-0.37839 0.18392,-0.49506 -0.0752,-0.25926 -0.78531,0.71466 -0.74504,1.95371 0.0737,2.26789 1.6354,0.62756 0.85539,2.07306 -1.01746,1.88557 -2.2907,-0.22933 -2.73229,1.89959 -1.00224,4.83181 1.8149,3.07602 1.31443,4.74087 -0.74205,2.46849 -0.934,-1.03206 -1.00985,-1.02449 -4.07561,0.40671 -6.42691,3.00029 -15.50975,2.24097 -21.51223,-1.79841 -2.66113,-1.7908 -2.66113,-1.7908 -4.1308,0.0511 -1.40053,1.75523 -3.62428,2.51691 -3.62428,1.24138 0,-0.33027 0.87211,-1.61936 1.93803,-2.86465 3.67262,-4.29061 3.79557,-8.64338 0.24415,-8.64338 -2.0157,0 -3.80763,1.70208 -3.91127,3.71512 -0.0429,0.83246 -0.10477,2.12737 -0.13759,2.87758 -0.0729,1.66511 -1.98604,2.32715 -1.98604,0.68725 0,-0.87145 -0.40355,-0.68402 -2.3031,1.06962 -5.62077,5.18907 -17.16853,7.12528 -23.45584,3.93283 -2.36748,-1.20212 -2.36748,-1.20212 -2.97788,0.13759 -0.67598,1.48361 -2.08489,1.81868 -2.08489,0.49584 z m 21.82762,-2.99306 c 21.55035,-9.93104 8.89977,-42.77672 -13.77779,-35.77234 -10.06618,3.10913 -19.81399,24.12761 -11.22818,24.2105 5.28425,0.051 9.11662,5.03769 7.43126,9.66954 -0.35402,0.97295 -0.0757,1.30529 1.8027,2.15232 5.10869,2.30369 10.39797,2.2165 15.77201,-0.26002 z m -5.91395,-8.24723 c -4.29941,-1.30294 -6.84605,-5.07919 -6.41944,-9.51901 1.00463,-10.45536 16.12791,-10.95529 17.78572,-0.58795 1.02462,6.40767 -5.22769,11.96726 -11.36628,10.10696 z m 5.31801,-2.71858 c 4.83627,-2.19654 5.34824,-8.14364 0.99579,-11.56727 -2.76379,-2.174 -3.82066,-0.18942 -1.23122,2.31199 1.17071,1.13092 1.10835,0.91437 1.30138,4.51926 0.19138,3.57395 0.22218,3.54708 -3.0827,2.68981 -4.46586,-1.15843 -5.72844,-3.12685 -4.09974,-6.39167 1.87109,-3.75067 0.79228,-4.79096 -1.84887,-1.78286 -3.78821,4.31452 -0.87376,10.61935 5.17167,11.18786 0.30271,0.0284 1.55988,-0.40674 2.79369,-0.96712 z m 37.95433,12.29784 c 5.03373,-1.31112 6.62207,-2.42607 6.41085,-4.50016 -0.30044,-2.95025 2.47424,-6.73797 6.20732,-8.47363 4.56511,-2.12251 2.21003,-14.11865 -3.87246,-19.7253 -11.41404,-10.52109 -29.17218,-4.58521 -32.16013,10.74993 -1.00004,5.13255 -0.245,8.06537 2.20541,8.56653 2.95241,0.60383 4.04222,2.35318 3.63334,5.83215 -0.64765,5.51045 9.18708,9.73543 17.57567,7.55048 z m -12.57709,-9.83269 c -10.00858,-3.65509 -6.86933,-18.14939 3.74033,-17.26956 5.09367,0.42241 7.99185,3.72498 7.99185,9.10699 0,6.01377 -6.06383,10.23262 -11.73218,8.16257 z m 6.60465,-2.81374 c 4.78097,-3.13262 3.05422,-12.36806 -2.31247,-12.36806 -0.57635,0 0.35766,2.41578 1.38317,3.57752 2.10468,2.38428 1.44669,9.6449 -0.68123,7.51699 -0.35043,-0.35043 -1.17339,-0.63714 -1.82881,-0.63714 -3.07532,0 -5.42491,-4.50162 -3.40407,-6.52191 1.94847,-1.94794 0.70278,-3.92934 -1.42038,-2.25926 -6.36329,5.00537 1.47159,15.14228 8.26379,10.69186 z m -74.43862,-22.49424 c -0.69824,-2.78203 -0.12626,-3.89534 2.09583,-4.07933 2.54522,-0.21074 3.80033,1.64732 2.71774,4.02334 -0.89573,1.96591 -4.3242,2.00579 -4.81357,0.056 z m 6.12871,-10.55266 c -1.72194,-1.72194 -1.15899,-6.65652 1.00642,-8.82194 3.14485,-3.14485 6.38449,-1.84629 6.38449,2.55912 0,5.0988 -4.63088,9.02285 -7.39091,6.26282 z m 6.04591,-3.81789 c 2.11402,-5.53547 -2.923,-8.17376 -5.44769,-2.85338 -1.21755,2.5658 -1.15126,4.5457 0.19736,5.89431 1.6494,1.6494 3.97306,0.30357 5.25033,-3.04093 z m 88.19079,4.10069 c -2.14276,-1.24919 -1.65234,-6.98345 0.70516,-8.24515 2.36544,-1.26594 3.81341,0.21986 3.81341,3.91306 0,3.85837 -2.01592,5.79109 -4.51857,4.33209 z m 2.79675,-1.25913 c 1.64024,-1.97637 1.12611,-6.41459 -0.74308,-6.41459 -1.15635,0 -2.48859,2.21646 -2.48859,4.14029 0,2.61386 1.86221,3.92439 3.23167,2.2743 z m -100.41159,87.52664 c -2.19376,-4.88123 -2.59395,-7.58957 -1.56798,-10.61151 0.46541,-1.37082 0.76262,-2.91015 0.66047,-3.42075 -0.35608,-1.77988 -3.17498,3.32568 -4.80537,8.70344 -2.69428,8.88697 -2.86071,8.05575 1.76098,8.79467 2.19361,0.35072 4.23607,0.70731 4.53878,0.79244 1.08536,0.30517 0.91786,-0.9102 -0.58688,-4.25829 z m 115.64624,2.9873 c 2.22981,-0.63277 -2.88303,-16.30477 -5.66793,-17.37344 -1.19917,-0.46016 -1.35239,-0.11548 -0.70526,1.58658 1.08968,2.86607 0.70436,7.2216 -0.79668,9.00548 -4.05224,4.81581 0.13625,8.77735 7.16987,6.78138 z"
         id="path2173"
         sodipodi:nodetypes="sssssssssssssssssssssssscsssssssssscssssssssssssssssssssssssssssssssssssssssssssssssssssssccssssssssssssssssssssssssssssssssssssssssssssssssssssssssssssssssssssssssssssssssssssssssssssssssssssssssssssssssssssssssssssssssssssssssssssccsssssssssssssscsssssssssssssssssssssscsssccsssssssssssssssssssssssssssssssssssssssssssssssssssssssssssssssssscsssssscssssssssssssssssssssscsssssssssssssssssssssssssssssssscsssssssssssssssssssssssssssssssssssssssssssssssssssssssssssssssssssssssssssssssssssssssssssssssssssssssssssssssssssssssssssss" /><path
         style="fill:#a1b30d;fill-opacity:1;stroke-width:0;stroke-linecap:round;stroke-linejoin:round;paint-order:stroke fill markers"
         d="m 274.01232,245.31962 c -1.70793,-0.86422 -2.70691,-2.83211 -2.70691,-5.33232 0,-3.03653 0.91403,-5.16207 2.81064,-6.53597 2.33052,-1.68822 4.20135,-1.5608 6.08004,0.41411 2.46427,2.59049 2.42733,6.3447 -0.0925,9.39552 -1.87235,2.26692 -4.15507,3.0384 -6.09131,2.05866 z"
         id="path13627" /><path
         style="fill:#a1b30d;fill-opacity:1;stroke-width:0;stroke-linecap:round;stroke-linejoin:round;paint-order:stroke fill markers"
         d="m 267.88571,234.87059 c -0.17111,-0.0892 -0.39791,-0.2407 -0.50399,-0.33664 -0.83813,-0.75791 -0.88417,-2.8492 -0.0947,-4.2998 0.56156,-1.03176 1.71344,-1.75681 2.49331,-1.56939 1.65304,0.39724 2.54989,2.18482 2.00168,3.98969 -0.1993,0.65613 -0.31354,0.83929 -0.86956,1.39405 -0.45015,0.44913 -0.79192,0.69016 -1.15156,0.81213 -0.64112,0.21744 -1.46888,0.22183 -1.87522,0.01 z"
         id="path13666" /><path
         style="fill:#a1b30d;fill-opacity:1;stroke-width:0;stroke-linecap:round;stroke-linejoin:round;paint-order:stroke fill markers"
         d="m 349.53231,235.07187 c -1.43174,-0.96379 -1.72186,-1.81575 -1.71405,-5.03334 0.008,-3.17946 0.40336,-4.2925 2.14489,-6.03403 2.1657,-2.1657 5.23338,-1.70604 6.63758,0.99459 1.67992,3.23092 -0.0847,8.54046 -3.36643,10.12911 -1.49417,0.72332 -2.56809,0.70698 -3.70199,-0.0563 z"
         id="path13705" /><path
         style="fill:#a1b30d;fill-opacity:1;stroke-width:0;stroke-linecap:round;stroke-linejoin:round;paint-order:stroke fill markers"
         d="m 342.50701,242.39454 c -1.28111,-0.74668 -1.08655,-3.90198 0.31822,-5.16078 0.94011,-0.84244 1.76296,-0.93528 2.6684,-0.30107 1.31026,0.91773 1.53737,2.59435 0.59095,4.36274 -0.59805,1.11747 -2.5285,1.71055 -3.57757,1.09911 z"
         id="path13744" /><path
         style="fill:#fcee21;fill-opacity:1;stroke-width:0;stroke-linecap:round;stroke-linejoin:round;paint-order:stroke fill markers"
         d="m 265.89033,249.45682 c -1.78656,-0.97092 -2.28966,-1.99993 -2.74343,-5.61131 -0.30562,-2.4323 -1.16625,-6.16332 -1.9125,-8.29115 -1.089,-3.10513 -1.17995,-4.5656 -0.46077,-7.39896 0.78031,-3.07417 0.624,-4.24878 -1.21007,-9.09335 -2.00059,-5.28439 -2.05296,-5.84788 -1.0451,-11.24484 0.92543,-4.95559 0.88269,-6.24743 -0.33447,-10.10871 -0.76753,-2.43486 -1.3955,-6.57277 -1.3955,-9.19537 0,-3.21335 -0.58023,-5.90568 -1.77925,-8.25595 -1.5743,-3.08589 -1.71552,-4.33172 -1.22603,-10.81587 0.476,-6.30545 0.32676,-7.77212 -1.06926,-10.50855 -1.36603,-2.67765 -1.60182,-4.7629 -1.49183,-13.19349 l 0.13063,-10.01318 7.68816,0.29199 c 7.4151,0.28162 15.0344,-1.17645 17.35803,-3.32172 1.13203,-1.04514 4.43488,-0.90773 5.12773,0.21333 0.8021,1.29783 13.26018,0.46636 17.09528,-1.14096 2.4766,-1.03797 3.11598,-1.05431 4.00523,-0.10236 1.27866,1.36881 9.74161,1.48872 15.20877,0.21551 2.73168,-0.63617 5.06744,-0.60218 8.52133,0.12401 3.63903,0.76512 6.30445,0.77431 11.33264,0.0391 5.5206,-0.80722 7.15421,-0.75679 10.19075,0.31456 4.84106,1.70802 7.76001,1.60782 12.49453,-0.42892 3.52243,-1.51531 4.32976,-1.58502 7.2633,-0.6272 3.97229,1.29699 4.59862,3.73475 2.42313,9.4312 -1.32068,3.45817 -1.32202,4.06458 -0.0205,9.37953 1.2663,5.17116 1.27523,6.01152 0.0993,9.34161 -0.714,2.02186 -1.29221,6.39553 -1.29221,9.77424 0,3.36323 -0.57702,8.60304 -1.28227,11.64401 -0.96806,4.17423 -1.07167,6.28733 -0.4228,8.62363 1.12702,4.05791 1.09396,8.00288 -0.1005,11.98963 -0.75694,2.52644 -0.72605,4.24923 0.14101,7.86355 1.03492,4.31403 0.98093,4.94049 -0.7952,9.22572 -1.68325,4.06112 -1.79474,5.03737 -0.95581,8.36905 0.79393,3.15301 0.72312,4.24913 -0.43172,6.6828 -1.04789,2.20824 -1.24772,4.09306 -0.82765,7.80607 0.64208,5.6752 0.0812,6.22645 -5.14139,5.05302 -1.83267,-0.41177 -7.42972,-0.76517 -12.43789,-0.78532 -5.00818,-0.0202 -11.92818,-0.0657 -15.37778,-0.10125 -3.4496,-0.0356 -10.59967,0.17729 -15.88906,0.47292 -5.28939,0.29564 -12.66702,0.49164 -16.39474,0.43556 -4.54826,-0.0684 -7.83985,0.34183 -10.00683,1.24725 -2.43878,1.01898 -4.58335,1.2158 -8.76171,0.80407 -4.27108,-0.42085 -6.12714,-0.23767 -8.14043,0.80344 -3.116,1.61134 -3.33264,1.61462 -6.13311,0.0927 z m 13.90057,-4.80831 c 3.10747,-2.67295 3.70344,-7.78095 1.26825,-10.87016 -1.83521,-2.3281 -4.44361,-2.9136 -6.67963,-1.49935 -0.92713,0.58639 -1.47647,0.17662 -2.25936,-1.68535 -1.36066,-3.23606 -4.17235,-3.31983 -5.38232,-0.16037 -1.12844,2.94661 0.0379,4.85751 2.84524,4.66152 1.92302,-0.13424 2.04793,0.0549 1.4387,2.17924 -0.93269,3.25211 -0.12773,6.57601 1.94394,8.02706 2.44692,1.71388 4.27746,1.53886 6.82518,-0.65259 z m 66.31086,-2.46568 c 2.6623,-2.66231 0.0613,-7.42015 -3.12436,-5.71523 -1.68094,0.89962 -2.43804,4.89167 -1.16847,6.16123 0.88756,0.88755 3.19947,0.64735 4.29283,-0.446 z m 7.73998,-6.54767 c 1.97768,-1.05843 4.135,-5.07158 4.135,-7.69214 0,-5.40319 -5.8634,-7.62316 -9.13823,-3.45989 -2.45946,3.12669 -2.39131,8.94851 0.12538,10.71127 2.19084,1.53452 2.7412,1.58425 4.87785,0.44076 z m -28.46014,-9.17414 c 0.43527,-0.68993 0.79717,-2.44826 0.80421,-3.90742 0.0112,-2.32352 0.40228,-2.77911 3.1488,-3.6683 4.75427,-1.5392 11.07156,-4.88226 14.63062,-7.74239 3.58614,-2.88191 8.22166,-9.49753 9.84376,-14.04863 0.82036,-2.30167 1.44709,-2.9278 2.62284,-2.62033 2.10612,0.55076 2.04713,-1.97225 -0.0727,-3.10671 -0.88962,-0.47613 -2.59895,-0.86569 -3.79846,-0.86569 -1.19952,0 -2.67305,-0.4597 -3.27452,-1.02155 -0.88869,-0.83016 -0.70635,-1.22244 0.97318,-2.09379 1.63073,-0.84603 2.76311,-0.86361 5.36753,-0.0833 4.46809,1.33867 5.76314,3.30258 4.62443,7.01281 -0.48522,1.581 -0.61297,3.14379 -0.28389,3.47288 1.2081,1.20809 3.45197,-1.2644 3.69479,-4.07125 0.30378,-3.51138 -2.22144,-7.08335 -6.17559,-8.7355 -2.58349,-1.07945 -2.7474,-1.41612 -3.30975,-6.79786 -0.6219,-5.95179 -1.74877,-8.89151 -5.14916,-13.43295 -1.7959,-2.39854 -1.94476,-3.08787 -1.15566,-5.35146 1.28306,-3.6806 1.12315,-6.26766 -0.42411,-6.8614 -1.83783,-0.70524 -2.68323,-0.0176 -4.07586,3.3155 -1.26134,3.01879 -2.31539,3.39022 -5.82943,2.05418 -1.72935,-0.6575 -2.14511,-1.37361 -2.14511,-3.6948 0,-4.15384 -0.74852,-5.52483 -3.01641,-5.52483 -1.84559,0 -2.00119,0.32717 -2.00119,4.20758 0,4.32182 -0.0726,4.41145 -4.32119,5.3382 -2.02633,0.442 -2.33855,0.16131 -3.41057,-3.06615 -0.84373,-2.54017 -1.6987,-3.629 -2.99988,-3.82042 -2.44875,-0.36024 -3.04676,1.5658 -1.90007,6.11972 0.91186,3.6213 0.85023,3.84721 -2.10596,7.72004 -1.67492,2.19425 -3.34457,3.98956 -3.71033,3.98956 -0.36576,0 -1.85716,-1.6457 -3.31423,-3.65712 -2.54444,-3.5125 -2.60899,-3.80071 -1.63251,-7.28838 1.19785,-4.27829 0.67944,-6.19796 -1.67379,-6.19796 -1.20922,0 -2.09503,0.97343 -3.04397,3.34506 -1.40531,3.51221 -2.19532,3.86268 -5.70186,2.5295 -1.48013,-0.56275 -2.1451,-1.43767 -2.1451,-2.8224 0,-4.32988 -1.02641,-7.2335 -2.55698,-7.2335 -1.72783,0 -2.75618,2.53848 -2.61258,6.44913 0.0885,2.41061 -0.21526,2.77258 -2.96369,3.53146 -3.49668,0.96548 -3.672,0.86975 -4.88466,-2.66731 -1.11544,-3.25354 -3.24563,-4.76451 -4.68618,-3.32396 -0.78693,0.78692 -0.8112,2.04425 -0.10458,5.41693 0.85422,4.07716 0.78389,4.54209 -0.98063,6.48282 -3.86325,4.24902 -4.87994,6.75519 -5.47195,13.48846 -0.56172,6.38882 -0.72967,6.81604 -3.6145,9.19395 -4.01178,3.30685 -5.56337,8.13061 -3.58599,11.14848 1.49441,2.28076 3.86494,2.87675 3.86494,0.97171 0,-0.9109 3.41117,-2.66689 3.78019,-1.94597 0.0495,0.0967 1.57124,2.0294 3.38159,4.29479 4.63849,5.80438 14.75975,13.63943 21.89848,16.95199 6.00768,2.78772 6.06293,2.84306 6.06293,6.07179 0,4.07124 0.19049,4.13001 12.78512,3.94445 7.73878,-0.11403 10.02834,-0.41493 10.6496,-1.39965 z m -63.99364,-64.81067 c 0,-2.21917 -0.31376,-2.53905 -2.71787,-2.77085 -2.50111,-0.24115 -2.71787,-0.0689 -2.71787,2.16036 0,3.03174 0.63699,3.67891 3.31377,3.36675 1.74524,-0.20352 2.12197,-0.69286 2.12197,-2.75626 z m 6.77575,-10.0448 c 1.68967,-1.68967 2.05009,-2.77657 1.84359,-5.55963 -0.31607,-4.25976 -2.13825,-5.72619 -5.12746,-4.1264 -3.43115,1.83629 -4.89209,6.71617 -3.04433,10.16874 1.19141,2.22617 3.81983,2.02567 6.3282,-0.48271 z m 92.27054,0.90768 c 0.54437,-0.65593 0.87269,-2.81977 0.7296,-4.80854 -0.23152,-3.21775 -0.48767,-3.61594 -2.32614,-3.61594 -1.35874,0 -2.43496,0.71568 -3.14388,2.09067 -2.33948,4.53757 1.72458,9.96767 4.74042,6.33381 z"
         id="path18686" /><path
         style="fill:#00a0c6;fill-opacity:1;stroke-width:0;stroke-linecap:round;stroke-linejoin:round;paint-order:stroke fill markers"
         d="m 293.35393,185.63823 c -3.02164,-1.50574 -4.56963,-4.54139 -3.73552,-7.3254 0.46771,-1.56108 2.6574,-4.25154 3.46021,-4.25154 0.68654,0 0.62534,0.41875 -0.42639,2.91756 -1.09012,2.58999 -0.9547,4.15625 0.4552,5.26529 1.11803,0.87943 5.59727,2.30152 6.34523,2.0145 0.4136,-0.15871 0.52924,-0.89853 0.52924,-3.38582 0,-3.11581 -0.0262,-3.21412 -1.24649,-4.67469 -1.26629,-1.51566 -1.62966,-2.84912 -0.77638,-2.84912 0.77515,0 3.31337,2.38151 3.93548,3.69249 0.72608,1.5301 0.74847,4.20901 0.0466,5.56641 -0.63376,1.22557 -2.32042,2.56143 -4.22851,3.34904 -1.83244,0.75639 -2.26457,0.72478 -4.3586,-0.31872 z"
         id="path24770" /><path
         style="fill:#00a0c6;fill-opacity:1;stroke-width:0;stroke-linecap:round;stroke-linejoin:round;paint-order:stroke fill markers"
         d="m 324.7336,185.61111 c -2.31919,-1.20372 -3.82793,-3.17225 -4.28058,-5.58508 -0.31806,-1.69541 0.9057,-4.33921 2.4406,-5.27263 1.90868,-1.16074 2.43745,0.0978 0.88901,2.116 -1.82639,2.38043 0.52577,6.80766 3.61686,6.80766 0.40838,0 1.15821,0.27239 1.66631,0.6053 0.89437,0.58602 0.94634,0.57751 1.63085,-0.2671 1.06709,-1.31668 0.74464,-5.46131 -0.5807,-7.46404 -0.52712,-0.79653 -1.10844,-1.84288 -1.29182,-2.32522 -0.29789,-0.7835 -0.24072,-0.87699 0.53623,-0.87699 0.51015,0 1.35869,0.48902 2.05261,1.18295 3.23461,3.23461 2.40457,9.06105 -1.58669,11.13771 -1.27082,0.6612 -3.7611,0.63257 -5.09268,-0.0586 z"
         id="path24809" /><path
         style="fill:#fcee21;fill-opacity:1;stroke-width:0;stroke-linecap:round;stroke-linejoin:round;paint-order:stroke fill markers"
         d="m 304.82172,217.34077 c -9.91362,-2.04907 -27.77474,-14.30248 -25.26171,-17.33049 0.8774,-1.05721 1.66003,-1.03707 5.21811,0.1343 5.7871,1.90519 14.37265,0.44825 19.76765,-3.3545 2.12703,-1.49926 3.86732,-2.28076 3.86732,-1.73666 0,0.66339 0.44365,0.62108 1.34677,-0.12844 0.74071,-0.61475 1.34676,-2.04946 1.34676,-3.18825 0,-2.56066 2.29232,-4.98993 4.06627,-4.3092 1.93327,0.74186 1.61936,3.04983 -0.92382,6.79247 -1.23453,1.81678 -2.24461,3.7287 -2.24461,4.24871 0,1.42158 1.89063,1.13786 3.77371,-0.5663 1.57063,-1.4214 1.9071,-1.39684 5.6277,0.41076 5.75262,2.79484 11.83969,3.37441 17.66241,1.6817 2.67477,-0.77758 5.82402,-1.16252 6.99834,-0.85543 1.92106,0.50237 2.06863,0.3416 1.47191,-1.6036 -1.4487,-4.72254 -1.59731,-6.20223 -0.6229,-6.20223 0.55138,0 1.00251,0.80806 1.00251,1.79569 0,0.9976 0.59856,1.79568 1.34676,1.79568 2.0028,0 1.64603,1.87006 -1.21847,6.38692 -6.12129,9.65227 -17.6601,15.41897 -32.89952,16.44205 -3.4567,0.23206 -8.10302,0.0461 -10.32519,-0.41318 z"
         id="path24848" /><path
         style="fill:#fcee21;fill-opacity:1;stroke-width:0;stroke-linecap:round;stroke-linejoin:round;paint-order:stroke fill markers"
         d="m 275.34779,197.46388 c -1.08751,-1.38421 -1.97729,-2.62855 -1.97729,-2.76519 0,-0.13663 0.77841,-0.24842 1.72979,-0.24842 1.54361,0 1.71517,-0.10141 1.59396,-0.94218 -0.47203,-3.27425 -7.68303,-2.15258 -9.68866,1.50706 -0.59428,1.08438 -0.58526,1.23045 0.10783,1.74665 0.64121,0.47756 0.65971,0.6004 0.12154,0.80692 -0.77434,0.29713 -2.26649,-1.66665 -2.62378,-3.4531 -0.15444,-0.7722 0.004,-1.72777 0.41151,-2.47984 0.36452,-0.67295 0.67043,-0.98445 0.67979,-0.69222 0.0107,0.33366 0.64951,0.53131 1.71724,0.53131 1.44219,0 1.70023,-0.13504 1.70023,-0.8899 0,-0.53243 -0.3415,-0.97921 -0.85012,-1.11221 -1.3328,-0.34854 -1.01072,-0.84163 1.06841,-1.63565 2.18326,-0.8338 6.50048,-0.61782 8.05868,0.40315 0.49344,0.32331 1.24695,0.65736 1.67445,0.74233 1.03172,0.20504 1.22465,2.9541 0.36883,5.25515 -0.3478,0.93512 -0.96599,2.60983 -1.37375,3.72156 l -0.74139,2.02135 z"
         id="path31023" /><path
         style="fill:#a1b30d;fill-opacity:1;stroke-width:0;stroke-linecap:round;stroke-linejoin:round;paint-order:stroke fill markers"
         d="m 264.10195,151.8252 c -0.35666,-0.17139 -0.8998,-0.73706 -1.20697,-1.25706 -1.66161,-2.81288 1.95095,-8.79253 4.49075,-7.43326 0.71908,0.38483 1.57401,1.87426 1.57401,2.74216 0,1.31348 -0.98887,3.76846 -1.94365,4.82532 -1.14403,1.26634 -1.96069,1.581 -2.91414,1.12284 z"
         id="path31062" /><path
         style="fill:#a1b30d;fill-opacity:1;stroke-width:0;stroke-linecap:round;stroke-linejoin:round;paint-order:stroke fill markers"
         d="m 257.14268,163.63912 c -0.77872,-0.70328 -1.18817,-2.58451 -0.75909,-3.48769 0.3896,-0.82005 1.4256,-1.29198 2.52352,-1.14954 1.97077,0.25569 2.34904,0.66137 2.34904,2.51922 0,0.75571 -0.11103,1.17865 -0.40879,1.5572 -0.95433,1.21323 -2.69114,1.47615 -3.70468,0.56081 z"
         id="path42437" /><path
         style="fill:#a1b30d;fill-opacity:1;stroke-width:0;stroke-linecap:round;stroke-linejoin:round;paint-order:stroke fill markers"
         d="m 357.36591,151.29883 c -0.98729,-0.98729 -0.71092,-4.16627 0.46438,-5.34156 1.01144,-1.01144 1.07357,-1.01693 1.70701,-0.15065 0.88188,1.20604 0.83181,3.66051 -0.10186,4.99351 -0.86509,1.23509 -1.24226,1.32597 -2.06953,0.4987 z"
         id="path42476" /><path
         style="fill:#de9329;fill-opacity:1;stroke-width:0;stroke-linecap:round;stroke-linejoin:round;paint-order:stroke fill markers"
         d="m 274.82204,281.2526 c -9.6063,-0.55696 -10.86657,-1.00199 -10.86657,-3.83723 v -2.45086 h 10.33788 c 9.45642,0 10.43157,-0.17504 11.43658,-2.05293 0.60429,-1.12912 0.85615,-2.68501 0.5597,-3.45755 -0.35346,-0.9211 0.13044,-1.40462 1.40573,-1.40462 1.40769,0 1.94474,0.67151 1.94474,2.43161 0,2.01619 0.70145,2.62047 4.10597,3.53722 2.25829,0.60809 7.57142,0.97431 11.80697,0.81382 4.23555,-0.1605 7.95617,-0.0366 8.26806,0.27526 0.61385,0.61385 18.36315,0.0414 22.00196,-0.70959 1.70534,-0.35196 2.2227,-1.14417 2.2227,-3.40352 0,-2.28621 0.44187,-2.9448 1.97575,-2.9448 1.53388,0 1.97574,0.65859 1.97574,2.9448 0,3.77769 2.2981,4.41358 13.43886,3.71853 8.13797,-0.50771 8.29429,-0.4748 8.29429,1.74626 0,4.25153 -3.54441,4.64334 -44.45418,4.91413 -20.91816,0.13846 -40.92254,0.0842 -44.45418,-0.12053 z"
         id="path42515" /><path
         style="fill:#de9329;fill-opacity:1;stroke-width:0;stroke-linecap:round;stroke-linejoin:round;paint-order:stroke fill markers"
         d="m 288.8724,290.4229 c -1.27213,-0.21237 -3.71312,-1.04562 -4.65553,-1.58921 -0.72447,-0.41786 -1.47013,-1.24248 -1.47215,-1.62802 -3.3e-4,-0.0629 0.21965,-0.36523 0.48884,-0.67182 0.99927,-1.1381 3.18515,-1.61275 7.42713,-1.61275 2.34806,0 3.31287,0.0644 4.24508,0.28343 2.37695,0.55844 3.99135,1.63865 3.99135,2.67065 0,1.01371 -1.7134,2.091 -3.96394,2.49229 -1.35616,0.24183 -4.75791,0.27294 -6.06078,0.0554 z"
         id="path53114" /><path
         style="fill:#de9329;fill-opacity:1;stroke-width:0;stroke-linecap:round;stroke-linejoin:round;paint-order:stroke fill markers"
         d="m 331.47141,290.45476 c -1.33903,-0.44357 -2.10891,-1.03537 -2.58199,-1.9847 -0.46618,-0.93549 -0.51519,-1.57684 -0.14854,-1.94349 1.13396,-1.13397 5.34658,-2.04383 9.57915,-2.06897 3.7723,-0.0224 4.71943,0.39821 4.71714,2.09485 -0.003,2.28359 -3.46298,3.97336 -8.47551,4.1393 -1.8332,0.0607 -2.29961,0.0249 -3.09025,-0.23699 z"
         id="path53153" /><path
         style="fill:#000000;fill-opacity:1;stroke-width:0;stroke-linecap:round;stroke-linejoin:round;paint-order:stroke fill markers"
         d="m 266.22042,272.86406 c -0.92993,-0.19926 -1.14864,-0.51093 -1.14864,-1.63688 0,-1.19548 0.30312,-1.504 1.64343,-1.67271 1.217,-0.15319 14.23057,0.0501 15.52569,0.24252 1.30794,0.19433 1.62274,0.47562 1.62274,1.45003 0,0.96652 -0.27432,1.21202 -1.60128,1.43306 -1.25882,0.2097 -15.17697,0.36931 -16.04194,0.18398 z"
         id="path53268" /><path
         style="fill:#000000;fill-opacity:1;stroke-width:0;stroke-linecap:round;stroke-linejoin:round;paint-order:stroke fill markers"
         d="m 295.29868,273.23046 c -1.61376,-0.1258 -3.35892,-0.41746 -3.77008,-0.63008 -0.53342,-0.27584 -0.91673,-1.45362 -0.64084,-1.9691 0.30182,-0.56397 1.59306,-0.81988 4.97068,-0.98515 4.02532,-0.19696 10.81312,-0.1957 12.18172,0.002 1.38173,0.19986 1.82632,0.41381 2.0669,0.99463 0.25723,0.621 0.0349,1.25723 -0.53474,1.53026 -0.58539,0.28056 -2.39101,0.60976 -4.51787,0.82368 -1.83763,0.18483 -8.3734,0.34126 -9.75577,0.23349 z"
         id="path53307" /><path
         style="fill:#000000;fill-opacity:1;stroke-width:0;stroke-linecap:round;stroke-linejoin:round;paint-order:stroke fill markers"
         d="m 320.04796,272.85465 c -0.54183,-0.23782 -0.44336,-0.52266 0.48383,-1.39956 1.3153,-1.24396 3.12279,-1.81088 6.86997,-2.15477 3.50179,-0.32138 7.34247,0.25372 8.33713,1.24838 0.50855,0.50856 0.56708,1.31718 0.12432,1.71787 -0.16377,0.14822 -0.72153,0.34091 -1.23946,0.42823 -1.31202,0.22117 -14.11614,0.3616 -14.57579,0.15985 z"
         id="path53346" /><path
         style="fill:#000000;fill-opacity:1;stroke-width:0;stroke-linecap:round;stroke-linejoin:round;paint-order:stroke fill markers"
         d="m 347.35612,273.00001 c -2.80562,-0.12569 -3.35838,-0.22065 -3.82726,-0.65748 -0.47818,-0.44548 -0.45196,-1.46882 0.0505,-1.97128 0.75013,-0.75013 3.06241,-1.08247 7.53513,-1.08302 4.71947,-5.5e-4 8.97877,0.52312 10.44566,1.28437 0.55733,0.28923 0.58956,0.34869 0.58956,1.08778 0,0.7103 -0.0437,0.80277 -0.47799,1.01091 -0.87858,0.42109 -8.39919,0.59378 -14.3156,0.32872 z"
         id="path53385" /><path
         style="fill:#fcee21;fill-opacity:1;stroke-width:0;stroke-linecap:round;stroke-linejoin:round;paint-order:stroke fill markers"
         d="m 250.53826,287.66276 c -0.54911,-2.00155 -0.89703,-2.54829 -1.62164,-2.54829 -0.69102,0 -1.1242,0.58137 -1.7261,2.31663 l -0.80356,2.31664 0.10857,-2.5483 c 0.0992,-2.32857 0.0187,-2.56107 -0.93392,-2.69636 -2.17205,-0.30847 -0.90178,-4.9255 2.23703,-8.13094 3.29465,-3.36458 3.73993,-5.11965 5.53387,-21.81208 0.51886,-4.82793 1.03187,-8.86655 1.14002,-8.97469 0.10815,-0.10815 0.72186,-0.0648 1.36381,0.0963 0.97229,0.24402 1.12977,0.50477 0.94309,1.56145 -0.12326,0.69768 -1.16003,6.43289 -2.30392,12.74491 -2.33071,12.86076 -2.52027,15.94637 -1.16335,18.93675 0.50406,1.11086 0.92106,3.01743 0.92666,4.23684 0.01,2.11233 -0.0359,2.19241 -0.96622,1.69455 -1.3463,-0.72051 -1.72737,-0.15549 -1.89286,2.80658 l -0.14237,2.54831 z"
         id="path53424" /><path
         style="fill:#fcee21;fill-opacity:1;stroke-width:0;stroke-linecap:round;stroke-linejoin:round;paint-order:stroke fill markers"
         d="m 375.68794,287.76406 c -0.0509,-3.1293 -0.75244,-4.02641 -2.20565,-2.82036 -0.69116,0.57362 -0.72679,0.38788 -0.41222,-2.14897 0.18938,-1.52727 0.6574,-3.5066 1.04005,-4.3985 1.07001,-2.49407 0.81449,-5.73206 -1.46251,-18.53308 -1.15587,-6.49816 -2.10202,-12.2699 -2.10257,-12.8261 -10e-4,-0.9704 1.58912,-1.95466 2.18887,-1.35491 0.14669,0.14669 0.84959,5.5227 1.56199,11.94667 1.68843,15.22518 1.76735,15.52939 4.82159,18.58363 2.36602,2.36602 2.66004,2.95408 3.7559,7.51205 0.30162,1.25451 0.25953,1.32848 -0.43176,0.75898 -1.1704,-0.96418 -2.16675,-0.31022 -2.17455,1.42728 l -0.007,1.52035 -0.58397,-1.15421 c -0.32117,-0.63482 -0.9143,-1.21783 -1.31805,-1.29559 -0.73649,-0.14183 -1.20655,0.74468 -2.1588,4.07145 -0.43812,1.53058 -0.46684,1.45821 -0.51149,-1.28869 z"
         id="path55567" /><path
         style="fill:#fc0019;fill-opacity:1;stroke-width:0;stroke-linecap:round;stroke-linejoin:round;paint-order:stroke fill markers"
         d="m 312.64171,269.9629 c -2.0583,-2.0583 -2.22382,-3.42882 -1.08184,-8.95776 l 0.7535,-3.64809 h 2.98718 2.98717 l 1.28235,4.30586 c 1.64515,5.52411 1.61458,7.09278 -0.17085,8.77012 -2.04257,1.91889 -4.54241,1.74497 -6.75751,-0.47013 z"
         id="path57610" /><path
         style="fill:#fc0019;fill-opacity:1;stroke-width:0;stroke-linecap:round;stroke-linejoin:round;paint-order:stroke fill markers"
         d="m 311.70754,252.6521 c -0.22632,-1.2064 -0.23092,-2.91293 -0.0102,-3.79229 0.36664,-1.46079 0.60302,-1.56244 2.73758,-1.17724 3.2917,0.59402 4.41302,1.29651 4.66645,2.92342 0.40758,2.61655 -1.22231,4.23955 -4.25754,4.23955 -2.61596,0 -2.74123,-0.0876 -3.13628,-2.19344 z"
         id="path60414" /><path
         style="fill:#000000;fill-opacity:1;stroke-width:0;stroke-linecap:round;stroke-linejoin:round;paint-order:stroke fill markers"
         d="m 277.0065,340.04483 c -0.81098,-0.86858 -1.61531,-2.69485 -1.80293,-4.09367 -0.49426,-3.68496 1.42681,-5.42545 6.63922,-6.01517 3.62275,-0.40987 4.03399,-0.61567 5.20867,-2.6066 1.41886,-2.4048 1.89325,-2.59546 3.03496,-1.21978 0.87967,1.05994 4.11474,1.27561 4.70908,0.31394 0.21343,-0.34533 0.82003,-0.62787 1.348,-0.62787 0.76832,0 0.87719,0.48985 0.54538,2.45381 -0.22801,1.3496 -0.11799,3.52794 0.24449,4.84075 0.58011,2.10097 0.49721,2.55923 -0.69188,3.82496 -1.59537,1.6982 -3.34632,1.85767 -4.17321,0.38008 -0.64792,-1.15776 -0.99068,-1.00025 -5.25218,2.41346 -1.10193,0.88271 -2.87024,1.45769 -5.02302,1.63328 -2.92085,0.23823 -3.49934,0.0815 -4.78658,-1.29719 z"
         id="path60453" /><path
         style="fill:#000000;fill-opacity:1;stroke-width:0;stroke-linecap:round;stroke-linejoin:round;paint-order:stroke fill markers"
         d="m 341.59112,340.79404 c -0.85301,-0.34043 -2.45879,-1.31143 -3.5684,-2.15778 -2.35509,-1.79631 -2.61397,-1.83764 -3.94802,-0.63034 -0.88153,0.79777 -1.25729,0.74799 -3.08398,-0.40859 -1.93644,-1.22607 -2.04546,-1.47318 -1.57808,-3.57694 0.27614,-1.24294 0.44431,-3.58743 0.37373,-5.20999 -0.13848,-3.18356 0.50946,-4.18344 1.74569,-2.69388 1.0198,1.22879 3.69158,1.19284 5.08525,-0.0684 1.29523,-1.17218 2.44354,-0.69007 2.44354,1.0259 0,1.77964 2.47203,3.08437 5.72034,3.01917 3.55406,-0.0713 5.18617,0.7669 6.18409,3.1761 0.9641,2.32753 -0.0311,5.86817 -2.04615,7.27956 -1.51461,1.06088 -4.9926,1.17725 -7.32801,0.2452 z"
         id="path60529" /><path
         style="fill:#ffffff;stroke:none;stroke-width:0.581531"
         d="m 382.64724,327.72069 c -10.29686,-0.81052 -11.92138,-2.34717 -11.92138,-11.27658 0,-5.84994 0.46244,-8.52357 1.47424,-8.52357 0.41103,0 2.47765,1.93333 4.59249,4.29628 2.11483,2.36296 4.59046,4.60501 5.5014,4.98233 2.05941,0.85303 4.0655,0.0949 10.08735,-3.81196 12.83855,-8.3295 18.64863,-9.60793 30.10076,-6.62327 2.39882,0.62518 5.07614,1.14117 5.94961,1.14665 2.09571,0.0132 2.34389,1.13698 2.09764,9.49877 -0.2212,7.51145 -0.7266,8.60609 -4.49986,9.74629 -2.58616,0.78149 -35.23092,1.20669 -43.38225,0.56506 z"
         id="path547"
         transform="matrix(0.71982543,0,0,0.71982543,54.389754,28.534843)" /><path
         style="fill:#ffffff;stroke:none;stroke-width:0.581531"
         d="m 299.77707,327.7041 c -8.45541,-0.68172 -9.30245,-1.66908 -9.30245,-10.84336 v -6.50234 l 3.05303,1.16229 c 3.79051,1.44304 6.05658,1.18775 11.42614,-1.28724 l 4.07101,-1.87645 3.80659,1.0304 c 2.86883,0.77655 4.88365,0.93935 8.17861,0.66082 l 4.37201,-0.36957 5.66215,2.99926 c 3.11418,1.64959 6.81868,3.60921 8.23222,4.35472 1.41353,0.7455 3.07453,1.35546 3.69111,1.35546 0.61657,0 2.90692,-1.72411 5.08965,-3.83136 5.37814,-5.19216 6.10181,-5.01144 6.07435,1.51695 -0.0114,2.71222 -0.34909,6.39758 -0.7504,8.18969 l -0.72967,3.25839 -5.29962,0.37618 c -6.70263,0.47577 -41.00298,0.33601 -47.57473,-0.19384 z"
         id="path549"
         transform="matrix(0.71982543,0,0,0.71982543,54.389754,28.534843)" /><path
         style="fill:#ffffff;stroke:none;stroke-width:0.581531"
         d="m 336.99708,311.36073 c -7.26057,-4.33964 -7.43698,-4.61695 -2.88689,-4.53816 2.06755,0.0358 6.23797,0.23207 9.26759,0.43615 l 5.50841,0.37106 -2.89152,3.29623 c -1.59034,1.81293 -3.15321,3.31714 -3.47305,3.34269 -0.31984,0.0255 -2.80588,-1.28304 -5.52454,-2.90797 z"
         id="path551"
         transform="matrix(0.71982543,0,0,0.71982543,54.389754,28.534843)" /><path
         style="fill:#ffffff;stroke:none;stroke-width:0.581531"
         d="m 379.92558,309.67886 c -2.52715,-2.62934 -3.85353,-4.42946 -3.51398,-4.76901 1.54656,-1.54657 12.59727,-0.98247 17.15058,0.87548 l 1.84632,0.75337 -3.47297,2.32751 c -1.91014,1.28012 -4.48043,2.93697 -5.71176,3.68187 l -2.23879,1.35437 z"
         id="path553"
         transform="matrix(0.71982543,0,0,0.71982543,54.389754,28.534843)" /><path
         style="fill:#ffffff;stroke:none;stroke-width:0.581531"
         d="m 437.03233,296.22245 c -3.93156,-1.56865 -4.46591,-4.21079 -1.79551,-8.87816 2.14094,-3.74197 2.69219,-7.80032 1.60881,-11.84409 -0.96463,-3.60054 -0.12878,-4.18476 1.90361,-1.33052 2.91699,4.09653 7.51179,18.40995 6.71536,20.91926 -0.52764,1.66245 -5.44861,2.32395 -8.43227,1.13351 z"
         id="path555"
         transform="matrix(0.71982543,0,0,0.71982543,54.389754,28.534843)" /><path
         style="fill:#ffffff;stroke:none;stroke-width:0.581531"
         d="m 280.87936,297.10568 c -6.60179,-1.28621 -6.6876,-1.3202 -6.6876,-2.64878 0,-2.26448 5.27409,-17.10935 7.00624,-19.72031 1.95293,-2.94375 2.09779,-2.47243 0.78978,2.56964 -1.18305,4.56042 -0.76675,7.79857 1.83075,14.24026 2.00248,4.96608 2.38874,6.54793 1.56769,6.42016 -0.23988,-0.0373 -2.26797,-0.42477 -4.50686,-0.86097 z"
         id="path557"
         transform="matrix(0.71982543,0,0,0.71982543,54.389754,28.534843)" /><path
         style="fill:#ffffff;stroke:none;stroke-width:0.156167"
         d="m 348.32997,273.00929 c -0.82636,-0.2821 -0.98108,-0.92211 -0.77536,-3.20741 0.0901,-1.00108 0.23463,-2.04292 0.32114,-2.3152 0.26164,-0.82344 0.43622,-0.88102 1.80776,-0.59621 0.68231,0.14169 2.36139,0.28969 3.79939,0.33489 2.91819,0.0917 3.54487,0.22212 3.75768,0.78185 0.0806,0.2119 0.14648,1.2435 0.14648,2.29244 0,2.17589 -0.12095,2.49011 -1.05873,2.75056 -0.82296,0.22855 -7.30612,0.19539 -7.99836,-0.0409 z"
         id="path559"
         transform="matrix(0.71982543,0,0,0.71982543,54.389754,28.534843)" /><path
         style="fill:#ffffff;stroke:none;stroke-width:0.156167"
         d="m 366.01753,272.97891 c -2.36535,-0.65537 -4.22613,-2.53028 -3.87998,-3.90944 0.14697,-0.58559 0.96361,-1.4186 1.66637,-1.6998 0.866,-0.3465 6.40189,-1.34841 7.56166,-1.36853 1.92569,-0.0334 2.10663,0.2617 2.10663,3.43586 0,3.61844 -0.066,3.68027 -3.98224,3.73282 -1.93395,0.0259 -2.87684,-0.0259 -3.47244,-0.19091 z"
         id="path561"
         transform="matrix(0.71982543,0,0,0.71982543,54.389754,28.534843)" /><path
         style="fill:#ffffff;stroke:none;stroke-width:0.156167"
         d="m 382.92029,236.03008 c -6.56913,-0.68475 -12.34922,-3.75932 -14.23201,-7.57035 l -0.60381,-1.22219 -0.0113,-2.81863 c -0.0114,-2.86833 -0.12756,-3.66816 -0.6925,-4.76983 -0.65517,-1.27766 -2.31891,-2.3871 -4.2155,-2.81104 -2.27591,-0.50875 -3.36765,-1.95161 -3.77144,-4.98441 -0.34012,-2.5546 0.34653,-7.25628 1.58376,-10.84437 3.18095,-9.2251 10.48019,-15.70029 20.04308,-17.78032 2.17211,-0.47246 7.69284,-0.51302 9.86416,-0.0725 7.01609,1.42351 13.37129,5.58565 17.07431,11.18228 3.25209,4.91511 5.07745,10.49243 5.08893,15.54905 0.009,3.92928 -0.9935,6.24562 -3.20461,7.40496 -4.53354,2.37708 -7.72672,6.0156 -8.50861,9.69527 -0.11863,0.5583 -0.21691,1.61623 -0.2184,2.35097 -0.002,1.20406 -0.0475,1.40652 -0.45667,2.0517 -0.81784,1.2896 -2.96791,2.42963 -6.54003,3.46771 -4.22657,1.22826 -7.43567,1.564 -11.19941,1.17168 z m -1.79592,-13.63853 c 2.71751,-0.494 4.46388,-1.43118 6.56634,-3.52381 1.2738,-1.26785 1.59731,-1.70001 2.22141,-2.96754 1.03116,-2.09423 1.27481,-3.21412 1.25715,-5.77816 -0.0335,-4.86235 -1.64847,-8.24778 -4.98785,-10.45586 -2.26386,-1.49692 -5.97082,-2.28015 -8.979,-1.89715 -2.79376,0.35571 -4.92589,1.32126 -6.86594,3.1093 -3.53022,3.25361 -4.88078,8.64034 -3.33189,13.28923 1.88105,5.64582 8.16578,9.30633 14.11978,8.22399 z"
         id="path563"
         transform="matrix(0.71982543,0,0,0.71982543,54.389754,28.534843)" /><path
         style="fill:#ffffff;stroke:none;stroke-width:0.156167"
         d="m 326.16788,236.0383 c -4.1082,-0.51583 -9.68549,-2.68332 -10.1524,-3.94549 -0.0765,-0.20675 0.0143,-0.82146 0.24536,-1.66127 0.98325,-3.5738 0.0324,-6.93039 -2.74602,-9.69327 -2.11193,-2.10015 -4.11598,-2.97042 -7.53343,-3.27143 -0.91665,-0.0807 -1.9005,-0.24478 -2.18633,-0.36455 -1.96522,-0.82345 -2.89063,-3.18296 -2.4942,-6.35945 0.97763,-7.83357 7.54911,-18.62983 14.46783,-23.76913 4.06019,-3.01596 9.41521,-4.5332 15.14815,-4.29195 4.57828,0.19267 8.64418,1.52778 12.56908,4.12729 2.1884,1.4494 5.32612,4.51537 6.9175,6.75934 1.24352,1.75345 3.17668,5.56984 3.86741,7.63493 3.60058,10.76476 0.5944,21.84752 -7.73734,28.52491 -3.56022,2.8533 -8.47033,5.12699 -12.96182,6.00214 -1.96933,0.38371 -5.59824,0.53464 -7.40379,0.30793 z m 12.32303,-13.68405 c 3.86851,-0.93048 7.43375,-4.07795 8.88657,-7.84523 0.65437,-1.69685 0.84687,-3.0108 0.75363,-5.1441 -0.0902,-2.06394 -0.35404,-3.18826 -1.13832,-4.85101 -1.47135,-3.11943 -3.77432,-5.15507 -7.09638,-6.27262 -1.22574,-0.41234 -1.80247,-0.51267 -3.31848,-0.57726 -2.97366,-0.1267 -5.20775,0.3848 -7.53509,1.72516 -1.30309,0.75047 -3.36278,2.78174 -4.11737,4.06055 -1.77679,3.01113 -2.23528,7.41133 -1.11933,10.74224 0.58605,1.74924 1.1023,2.68509 2.24061,4.06172 1.86076,2.25034 4.98983,3.94808 8.05972,4.37299 1.13505,0.15711 3.10841,0.0345 4.38444,-0.27244 z"
         id="path565"
         transform="matrix(0.71982543,0,0,0.71982543,54.389754,28.534843)" /><path
         style="fill:#ffffff;stroke:none;stroke-width:0.156167"
         d="m 327.7611,382.29442 c -0.61122,-0.42811 -0.69934,-1.45387 -0.64388,-7.49479 0.0378,-4.11113 0.10376,-5.71306 0.24563,-5.96086 0.26062,-0.45522 1.17064,-0.73497 2.01453,-0.61931 2.17541,0.29818 2.6389,1.62995 2.80642,8.06375 0.11001,4.22543 -0.0144,5.50526 -0.58059,5.97337 -0.4479,0.37031 -3.32696,0.39866 -3.84211,0.0378 z"
         id="path567"
         transform="matrix(0.71982543,0,0,0.71982543,54.389754,28.534843)" /><path
         style="fill:#ffffff;stroke:none;stroke-width:0.156167"
         d="m 329.46284,411.88322 c -0.91246,-0.85008 -1.49514,-3.06903 -1.66608,-6.34468 -0.0575,-1.10235 -0.0351,-2.59957 0.0497,-3.32715 0.20256,-1.73641 0.36396,-1.87854 2.13335,-1.87854 2.01148,0 2.01779,0.009 2.08231,3.07014 0.0903,4.28382 -0.42496,7.39945 -1.382,8.35648 -0.52541,0.52541 -0.76052,0.54931 -1.21731,0.12375 z"
         id="path569"
         transform="matrix(0.71982543,0,0,0.71982543,54.389754,28.534843)" /><path
         style="fill:#ffffff;stroke:none;stroke-width:0.156167"
         d="m 388.00695,382.22879 c -0.48101,-0.48101 -0.5584,-1.48504 -0.54853,-7.11683 0.0106,-6.06387 0.0643,-6.42381 1.00635,-6.74539 0.3003,-0.10251 0.82711,-0.18639 1.17068,-0.18639 0.34356,0 0.87037,0.0839 1.17068,0.18639 0.93835,0.32033 0.99218,0.68174 1.00469,6.74539 0.0117,5.66672 -0.0571,6.55595 -0.54785,7.08272 -0.27185,0.29179 -0.48335,0.33519 -1.63361,0.33519 -1.09664,0 -1.37253,-0.0512 -1.62241,-0.30108 z"
         id="path571"
         transform="matrix(0.71982543,0,0,0.71982543,54.389754,28.534843)" /><path
         style="fill:#ffffff;stroke:none;stroke-width:0.156167"
         d="m 387.96882,411.80622 c -0.54536,-0.29615 -1.18646,-1.62401 -1.39719,-2.89385 -0.45495,-2.7415 0.55987,-6.84756 1.94374,-7.86457 0.60608,-0.44541 2.04152,-0.40963 2.51337,0.0627 0.30628,0.30656 0.3244,0.49372 0.322,3.32641 -0.002,2.65739 -0.0436,3.14482 -0.36063,4.2509 -0.41618,1.45198 -0.91798,2.37865 -1.59783,2.9507 -0.54667,0.45999 -0.82494,0.49279 -1.42346,0.16776 z"
         id="path573"
         transform="matrix(0.71982543,0,0,0.71982543,54.389754,28.534843)" /></g></g></svg>
