<?xml version="1.0" encoding="UTF-8" standalone="no"?>
<!-- Created with Inkscape (http://www.inkscape.org/) -->

<svg
   width="720.0px"
   height="576.0px"
   viewBox="0 0 720.0 576.0"
   version="1.1"
   id="SVGRoot"
   sodipodi:docname="video.svg"
   inkscape:version="1.2.1 (9c6d41e410, 2022-07-14, custom)"
   xml:space="preserve"
   xmlns:inkscape="http://www.inkscape.org/namespaces/inkscape"
   xmlns:sodipodi="http://sodipodi.sourceforge.net/DTD/sodipodi-0.dtd"
   xmlns:xlink="http://www.w3.org/1999/xlink"
   xmlns="http://www.w3.org/2000/svg"
   xmlns:svg="http://www.w3.org/2000/svg"><sodipodi:namedview
     id="namedview310"
     pagecolor="#ffffff"
     bordercolor="#111111"
     borderopacity="1"
     inkscape:showpageshadow="0"
     inkscape:pageopacity="0"
     inkscape:pagecheckerboard="1"
     inkscape:deskcolor="#d1d1d1"
     inkscape:document-units="px"
     showgrid="false"
     inkscape:zoom="0.74280449"
     inkscape:cx="177.03178"
     inkscape:cy="331.17732"
     inkscape:window-width="1366"
     inkscape:window-height="695"
     inkscape:window-x="0"
     inkscape:window-y="0"
     inkscape:window-maximized="1"
     inkscape:current-layer="layer1" /><defs
     id="defs305"><linearGradient
       inkscape:collect="always"
       id="linearGradient2178"><stop
         style="stop-color:#050505;stop-opacity:1"
         offset="0"
         id="stop2174" /><stop
         style="stop-color:#a6a6a6;stop-opacity:1"
         offset="1"
         id="stop2176" /></linearGradient><linearGradient
       inkscape:collect="always"
       xlink:href="#linearGradient2178"
       id="linearGradient10100"
       x1="24.836189"
       y1="23.617123"
       x2="730.42035"
       y2="600.63843"
       gradientUnits="userSpaceOnUse"
       gradientTransform="matrix(0.41551386,0,0,0.41551386,149.92306,145.63481)"
       spreadMethod="reflect" /><linearGradient
       inkscape:collect="always"
       xlink:href="#linearGradient2178"
       id="linearGradient3838"
       x1="24.211891"
       y1="36.838852"
       x2="476.43475"
       y2="480.22278"
       gradientUnits="userSpaceOnUse"
       gradientTransform="matrix(0.37372328,0,0,0.32606697,162.71203,152.57765)" /></defs><g
     inkscape:label="Layer 1"
     inkscape:groupmode="layer"
     id="layer1"><g
       id="g2710"
       transform="matrix(2.4855299,0,0,2.4855299,-292.57271,-313.59137)"><path
         id="rect867"
         style="fill:url(#linearGradient10100);fill-opacity:1;stroke:none;stroke-width:6.64822;stroke-linecap:round;stroke-linejoin:round;stroke-opacity:1;paint-order:fill markers stroke"
         d="m 173.16131,155.44828 c -7.15696,0 -12.91826,5.76129 -12.91826,12.91826 V 315.7084 c 0,7.15696 5.7613,12.91827 12.91826,12.91826 h 178.77484 c 7.15696,0 12.91826,-5.7613 12.91826,-12.91826 V 168.36654 c 0,-7.15697 -5.7613,-12.91826 -12.91826,-12.91826 z m -1.40074,9.1413 h 12.57011 c 1.77678,0 3.20725,1.43047 3.20725,3.20725 v 3.90843 c 0,1.77677 -1.43047,3.20724 -3.20725,3.20724 h -12.57011 c -1.77678,0 -3.20724,-1.43047 -3.20724,-3.20724 v -3.90843 c 0,-1.77678 1.43046,-3.20725 3.20724,-3.20725 z m 28.1673,0 h 12.57092 c 1.77677,0 3.20643,1.43047 3.20643,3.20725 v 3.90843 c 0,1.77677 -1.42966,3.20724 -3.20643,3.20724 h -12.57092 c -1.77678,0 -3.20644,-1.43047 -3.20644,-3.20724 v -3.90843 c 0,-1.77678 1.42966,-3.20725 3.20644,-3.20725 z m 28.1681,0 h 12.57011 c 1.77678,0 3.20725,1.43047 3.20725,3.20725 v 3.90843 c 0,1.77677 -1.43047,3.20724 -3.20725,3.20724 h -12.57011 c -1.77678,0 -3.20724,-1.43047 -3.20724,-3.20724 v -3.90843 c 0,-1.77678 1.43046,-3.20725 3.20724,-3.20725 z m 28.1673,0 h 12.57092 c 1.77678,0 3.20643,1.43047 3.20643,3.20725 v 3.90843 c 0,1.77677 -1.42965,3.20724 -3.20643,3.20724 h -12.57092 c -1.77678,0 -3.20644,-1.43047 -3.20644,-3.20724 v -3.90843 c 0,-1.77678 1.42966,-3.20725 3.20644,-3.20725 z m 28.16811,0 h 12.5701 c 1.77678,0 3.20725,1.43047 3.20725,3.20725 v 3.90843 c 0,1.77677 -1.43047,3.20724 -3.20725,3.20724 h -12.5701 c -1.77678,0 -3.20725,-1.43047 -3.20725,-3.20724 v -3.90843 c 0,-1.77678 1.43047,-3.20725 3.20725,-3.20725 z m 28.16729,0 h 12.57092 c 1.77678,0 3.20644,1.43047 3.20644,3.20725 v 3.90843 c 0,1.77677 -1.42966,3.20724 -3.20644,3.20724 h -12.57092 c -1.77677,0 -3.20643,-1.43047 -3.20643,-3.20724 v -3.90843 c 0,-1.77678 1.42966,-3.20725 3.20643,-3.20725 z m 28.16811,0 h 12.5701 c 1.77678,0 3.20725,1.43047 3.20725,3.20725 v 3.90843 c 0,1.77677 -1.43047,3.20724 -3.20725,3.20724 h -12.5701 c -1.77678,0 -3.20725,-1.43047 -3.20725,-3.20724 v -3.90843 c 0,-1.77678 1.43047,-3.20725 3.20725,-3.20725 z m -78.21805,50.22443 a 27.22369,27.22369 0 0 1 27.22346,27.22346 27.22369,27.22369 0 0 1 -27.22346,27.22346 27.22369,27.22369 0 0 1 -27.22346,-27.22346 27.22369,27.22369 0 0 1 27.22346,-27.22346 z m -90.78816,94.34843 h 12.57011 c 1.77678,-1e-5 3.20725,1.43047 3.20725,3.20724 v 3.90843 c 0,1.77677 -1.43047,3.20725 -3.20725,3.20724 h -12.57011 c -1.77678,1e-5 -3.20724,-1.43046 -3.20724,-3.20724 v -3.90843 c 0,-1.77677 1.43046,-3.20724 3.20724,-3.20724 z m 28.1673,0 h 12.57092 c 1.77677,-1e-5 3.20643,1.43047 3.20643,3.20724 v 3.90843 c 0,1.77677 -1.42966,3.20725 -3.20643,3.20724 h -12.57092 c -1.77678,1e-5 -3.20644,-1.43046 -3.20644,-3.20724 v -3.90843 c 0,-1.77677 1.42966,-3.20724 3.20644,-3.20724 z m 28.1681,0 h 12.57011 c 1.77678,-1e-5 3.20725,1.43047 3.20725,3.20724 v 3.90843 c 0,1.77677 -1.43047,3.20725 -3.20725,3.20724 h -12.57011 c -1.77678,1e-5 -3.20724,-1.43046 -3.20724,-3.20724 v -3.90843 c 0,-1.77677 1.43046,-3.20724 3.20724,-3.20724 z m 28.1673,0 h 12.57092 c 1.77678,-1e-5 3.20643,1.43047 3.20643,3.20724 v 3.90843 c 0,1.77677 -1.42965,3.20725 -3.20643,3.20724 h -12.57092 c -1.77678,1e-5 -3.20644,-1.43046 -3.20644,-3.20724 v -3.90843 c 0,-1.77677 1.42966,-3.20724 3.20644,-3.20724 z m 28.16811,0 h 12.5701 c 1.77678,-1e-5 3.20725,1.43047 3.20725,3.20724 v 3.90843 c 0,1.77677 -1.43047,3.20725 -3.20725,3.20724 h -12.5701 c -1.77678,1e-5 -3.20725,-1.43046 -3.20725,-3.20724 v -3.90843 c 0,-1.77677 1.43047,-3.20724 3.20725,-3.20724 z m 28.16729,0 h 12.57092 c 1.77678,-1e-5 3.20644,1.43047 3.20644,3.20724 v 3.90843 c 0,1.77677 -1.42966,3.20725 -3.20644,3.20724 h -12.57092 c -1.77677,1e-5 -3.20643,-1.43046 -3.20643,-3.20724 v -3.90843 c 0,-1.77677 1.42966,-3.20724 3.20643,-3.20724 z m 28.16811,0 h 12.5701 c 1.77678,-1e-5 3.20725,1.43047 3.20725,3.20724 v 3.90843 c 0,1.77677 -1.43047,3.20725 -3.20725,3.20724 h -12.5701 c -1.77678,1e-5 -3.20725,-1.43046 -3.20725,-3.20724 v -3.90843 c 0,-1.77677 1.43047,-3.20724 3.20725,-3.20724 z" /><path
         id="path33745"
         style="fill:url(#linearGradient3838);fill-opacity:1;stroke:url(#linearGradient3838);stroke-width:5.20133;stroke-linecap:round;stroke-linejoin:round;paint-order:fill markers stroke"
         inkscape:transform-center-x="-8.535118"
         inkscape:transform-center-y="-1.4134419e-05"
         d="m 249.92477,258.03369 v -29.09558 l 28.88025,14.54779 z" /></g></g></svg>
