<?xml version="1.0" encoding="UTF-8" standalone="no"?>
<!-- Created with Inkscape (http://www.inkscape.org/) -->

<svg
   width="180"
   height="180"
   viewBox="0 0 180 180"
   version="1.1"
   id="svg5"
   xml:space="preserve"
   inkscape:version="1.2.1 (9c6d41e410, 2022-07-14, custom)"
   sodipodi:docname="lyrics.svg"
   xmlns:inkscape="http://www.inkscape.org/namespaces/inkscape"
   xmlns:sodipodi="http://sodipodi.sourceforge.net/DTD/sodipodi-0.dtd"
   xmlns="http://www.w3.org/2000/svg"
   xmlns:svg="http://www.w3.org/2000/svg"><sodipodi:namedview
     id="namedview7"
     pagecolor="#505050"
     bordercolor="#eeeeee"
     borderopacity="1"
     inkscape:showpageshadow="0"
     inkscape:pageopacity="0"
     inkscape:pagecheckerboard="0"
     inkscape:deskcolor="#505050"
     inkscape:document-units="px"
     showgrid="false"
     inkscape:zoom="2.1144699"
     inkscape:cx="-20.808998"
     inkscape:cy="109.72017"
     inkscape:window-width="1366"
     inkscape:window-height="695"
     inkscape:window-x="0"
     inkscape:window-y="0"
     inkscape:window-maximized="1"
     inkscape:current-layer="svg5" /><defs
     id="defs2" /><path
     style="display:inline;fill:#ffffff;stroke-width:0.358366"
     d="M 65.368611,42.26103 H 25.607578 c -3.027996,-1.352021 -5.266815,-4.992892 -3.374033,-8.111981 0.768503,-2.256509 3.534748,-3.583534 5.863573,-3.176539 h 77.140842 c 2.69649,1.105093 4.93971,3.719227 3.98788,6.757366 -0.16066,3.576864 -4.24807,5.118076 -7.38779,4.531154 z"
     id="path424" /><path
     style="display:inline;fill:#ffffff;stroke-width:0.358366"
     d="M 65.368611,65.196436 H 25.607578 c -3.027995,-1.352021 -5.266814,-4.992892 -3.374033,-8.11198 0.768499,-2.256513 3.534748,-3.583535 5.863573,-3.17654 h 77.140842 c 2.69649,1.105093 4.93971,3.719226 3.98788,6.757366 -0.16066,3.576863 -4.24807,5.118075 -7.38779,4.531154 z"
     id="path422" /><path
     style="display:inline;fill:#ffffff;stroke-width:0.358366"
     d="M 46.465981,88.131841 H 25.607578 c -3.027995,-1.352021 -5.266815,-4.992892 -3.374033,-8.111979 0.768499,-2.256513 3.534748,-3.583536 5.863573,-3.176541 h 39.185593 c 2.508921,1.319847 4.487744,3.822945 3.869158,6.762086 -0.591824,2.966712 -3.640094,5.22168 -6.707625,4.526434 z"
     id="path420" /><path
     style="display:inline;fill:#ffffff;stroke-width:0.358366"
     d="m 101.23581,162.7429 c -13.144451,0.23506 -25.506652,-9.9232 -27.936948,-22.82738 -0.858203,-3.33122 -0.362104,-6.91355 -0.338154,-10.3139 1.419128,-7.88616 6.00612,-15.05529 12.70355,-19.48954 4.79436,-2.88511 10.292854,-5.03361 15.983002,-4.45198 5.94381,-0.47978 11.72099,2.07328 16.57665,5.16661 0.49898,-3.27521 0.0705,-7.47792 0.21346,-11.109115 0.076,-24.43726 -0.15147,-48.917159 0.11338,-73.327857 0.48139,-3.512083 4.21351,-5.862285 7.62939,-4.97836 12.01582,0.447409 23.68118,6.586472 31.44009,15.279639 7.04466,7.892906 14.89952,20.287833 10.55227,29.932861 -1.28553,2.852137 -5.59739,3.937078 -8.69851,3.524382 -12.26301,-1.631954 -12.38225,-23.211989 -29.55522,-22.447498 l -0.19283,91.974408 c -1.95498,7.05814 -5.79514,13.75032 -11.90502,17.97896 -3.91908,2.54968 -8.30688,4.33586 -12.9733,4.93554 -1.24033,0.33858 -2.53341,0.12241 -3.61181,0.15323 z"
     id="path5738" /></svg>
