<!-- Created with Inkscape (http://www.inkscape.org/) -->
<svg width="180" height="180" version="1.1" viewBox="0 0 180 180" xml:space="preserve" xmlns="http://www.w3.org/2000/svg" xmlns:xlink="http://www.w3.org/1999/xlink"><defs><linearGradient id="d" x1="4.218" x2="180.53" y1="178.36" y2="2.2171" gradientTransform="matrix(.74351 0 0 .74351 24.49 23.598)" gradientUnits="userSpaceOnUse"><stop stop-color="#fc5aa9" offset="0"/><stop stop-color="#f75d5f" offset="1"/></linearGradient><linearGradient id="c" x1=".84863" x2="180.84" y1="180.07" y2=".21472" gradientTransform="matrix(.74351 0 0 .74351 24.49 23.598)" gradientUnits="userSpaceOnUse"><stop stop-color="#fc5aa9" offset="0"/><stop stop-color="#f75d5f" offset="1"/></linearGradient><linearGradient id="b" x1=".086203" x2="182.25" y1="180.16" y2="-.67255" gradientTransform="matrix(.74351 0 0 .74351 24.49 23.598)" gradientUnits="userSpaceOnUse"><stop stop-color="#fc5aa9" offset="0"/><stop stop-color="#f75d5f" offset="1"/></linearGradient><linearGradient id="a" x1="2.3602" x2="180.72" y1="179.11" y2="-.28694" gradientTransform="matrix(.74351 0 0 .74351 24.49 23.598)" gradientUnits="userSpaceOnUse"><stop stop-color="#fc5aa9" offset="0"/><stop stop-color="#f75d5f" offset="1"/></linearGradient></defs><g><g stroke-width=".26645"><path d="m73.092 55.02h-29.563c-2.2513-1.0052-3.9159-3.7122-2.5086-6.0313 0.57139-1.6777 2.6281-2.6644 4.3596-2.3618h57.355c2.0048 0.82164 3.6727 2.7653 2.965 5.0241-0.11945 2.6594-3.1585 3.8053-5.4929 3.3689z" fill="url(#c)"/><path d="m73.092 72.072h-29.563c-2.2513-1.0052-3.9159-3.7122-2.5086-6.0313 0.57138-1.6777 2.6281-2.6644 4.3596-2.3618h57.355c2.0048 0.82164 3.6727 2.7653 2.965 5.0241-0.11945 2.6594-3.1585 3.8053-5.4929 3.3689z" fill="url(#b)"/><path d="m59.037 89.125h-15.508c-2.2513-1.0052-3.9159-3.7122-2.5086-6.0313 0.57138-1.6777 2.6281-2.6644 4.3596-2.3618h29.135c1.8654 0.98131 3.3367 2.8424 2.8767 5.0277-0.44002 2.2058-2.7064 3.8824-4.9872 3.3654z" fill="url(#a)"/></g><path d="m99.759 144.6c-9.773 0.17477-18.964-7.378-20.771-16.972-0.63808-2.4768-0.26923-5.1403-0.25142-7.6684 1.0551-5.8634 4.4656-11.194 9.4452-14.491 3.5646-2.1451 7.6528-3.7425 11.883-3.3101 4.4193-0.35672 8.7146 1.5415 12.325 3.8414 0.37099-2.4351 0.0524-5.5599 0.15871-8.2597 0.0565-18.169-0.11262-36.37 0.0843-54.52 0.35791-2.6113 3.1328-4.3586 5.6725-3.7014 8.9338 0.33265 17.607 4.8971 23.376 11.361 5.2378 5.8684 11.078 15.084 7.8457 22.255-0.95579 2.1206-4.1617 2.9272-6.4674 2.6204-9.1176-1.2134-9.2063-17.258-21.974-16.69l-0.14337 68.384c-1.4535 5.2478-4.3087 10.223-8.8515 13.367-2.9139 1.8957-6.1762 3.2237-9.6457 3.6696-0.9222 0.25173-1.8836 0.091-2.6854 0.11392z" fill="url(#d)" style="mix-blend-mode:normal"/></g></svg>
