<?xml version="1.0" encoding="UTF-8" standalone="no"?>
<!-- Created with Inkscape (http://www.inkscape.org/) -->

<svg
   width="180"
   height="180"
   viewBox="0 0 180 180"
   version="1.1"
   id="svg5"
   xml:space="preserve"
   inkscape:version="1.2.2 (732a01da63, 2022-12-09)"
   sodipodi:docname="foreground.svg"
   inkscape:export-filename="ic_foreground.svg"
   inkscape:export-xdpi="96"
   inkscape:export-ydpi="96"
   xmlns:inkscape="http://www.inkscape.org/namespaces/inkscape"
   xmlns:sodipodi="http://sodipodi.sourceforge.net/DTD/sodipodi-0.dtd"
   xmlns:xlink="http://www.w3.org/1999/xlink"
   xmlns="http://www.w3.org/2000/svg"
   xmlns:svg="http://www.w3.org/2000/svg"><sodipodi:namedview
     id="namedview7"
     pagecolor="#505050"
     bordercolor="#eeeeee"
     borderopacity="1"
     inkscape:showpageshadow="0"
     inkscape:pageopacity="0"
     inkscape:pagecheckerboard="0"
     inkscape:deskcolor="#505050"
     inkscape:document-units="px"
     showgrid="false"
     inkscape:zoom="2.1144699"
     inkscape:cx="-18.207873"
     inkscape:cy="82.526594"
     inkscape:window-width="1920"
     inkscape:window-height="1013"
     inkscape:window-x="-9"
     inkscape:window-y="-9"
     inkscape:window-maximized="1"
     inkscape:current-layer="svg5" /><defs
     id="defs2"><linearGradient
       inkscape:collect="always"
       id="linearGradient3176"><stop
         style="stop-color:#fc5aa9;stop-opacity:1;"
         offset="0"
         id="stop3172" /><stop
         style="stop-color:#f75d5f;stop-opacity:1;"
         offset="1"
         id="stop3174" /></linearGradient><linearGradient
       inkscape:collect="always"
       id="linearGradient3170"><stop
         style="stop-color:#fc5aa9;stop-opacity:1;"
         offset="0"
         id="stop3166" /><stop
         style="stop-color:#f75d5f;stop-opacity:1;"
         offset="1"
         id="stop3168" /></linearGradient><linearGradient
       inkscape:collect="always"
       id="linearGradient3164"><stop
         style="stop-color:#fc5aa9;stop-opacity:1;"
         offset="0"
         id="stop3160" /><stop
         style="stop-color:#f75d5f;stop-opacity:1;"
         offset="1"
         id="stop3162" /></linearGradient><linearGradient
       inkscape:collect="always"
       id="pink"><stop
         style="stop-color:#fc5aa9;stop-opacity:1;"
         offset="0"
         id="stop1568" /><stop
         style="stop-color:#f75d5f;stop-opacity:1;"
         offset="1"
         id="stop1566" /></linearGradient><linearGradient
       inkscape:collect="always"
       xlink:href="#pink"
       id="linearGradient1572"
       x1="4.2180023"
       y1="178.36076"
       x2="180.52817"
       y2="2.2170568"
       gradientUnits="userSpaceOnUse"
       gradientTransform="matrix(0.74350617,0,0,0.74350617,24.489624,23.598372)" /><linearGradient
       inkscape:collect="always"
       xlink:href="#linearGradient3164"
       id="linearGradient16772"
       x1="0.84862679"
       y1="180.07054"
       x2="180.83847"
       y2="0.21472116"
       gradientUnits="userSpaceOnUse"
       gradientTransform="matrix(0.74350617,0,0,0.74350617,24.489624,23.598372)" /><linearGradient
       inkscape:collect="always"
       xlink:href="#linearGradient3170"
       id="linearGradient16780"
       x1="0.086203262"
       y1="180.15764"
       x2="182.24747"
       y2="-0.67254817"
       gradientUnits="userSpaceOnUse"
       gradientTransform="matrix(0.74350617,0,0,0.74350617,24.489624,23.598372)" /><linearGradient
       inkscape:collect="always"
       xlink:href="#linearGradient3176"
       id="linearGradient16788"
       x1="2.3602245"
       y1="179.11032"
       x2="180.71793"
       y2="-0.28694159"
       gradientUnits="userSpaceOnUse"
       gradientTransform="matrix(0.74350617,0,0,0.74350617,24.489624,23.598372)" /></defs><path
     style="display:inline;fill:url(#linearGradient16772);fill-opacity:1;stroke-width:0.266447"
     d="M 73.091589,55.019709 H 43.529016 c -2.251334,-1.005236 -3.91591,-3.712246 -2.508615,-6.031308 0.571387,-1.677728 2.628107,-2.66438 4.359603,-2.361776 H 102.7347 c 2.00485,0.821643 3.6727,2.765268 2.96501,5.024143 -0.11945,2.65942 -3.15847,3.805321 -5.49287,3.368941 z"
     id="path424" /><path
     style="display:inline;fill:url(#linearGradient16780);fill-opacity:1;stroke-width:0.266447"
     d="M 73.091589,72.072325 H 43.529016 c -2.251333,-1.005236 -3.915909,-3.712246 -2.508615,-6.031307 0.571384,-1.677732 2.628107,-2.664381 4.359603,-2.361777 H 102.7347 c 2.00485,0.821643 3.6727,2.765267 2.96501,5.024143 -0.11945,2.65942 -3.15847,3.80532 -5.49287,3.368941 z"
     id="path422" /><path
     style="display:inline;fill:url(#linearGradient16788);fill-opacity:1;stroke-width:0.266447"
     d="M 59.037367,89.12494 H 43.529016 c -2.251333,-1.005236 -3.91591,-3.712246 -2.508615,-6.031307 0.571384,-1.677731 2.628107,-2.664381 4.359603,-2.361777 h 29.13473 c 1.865399,0.981314 3.336666,2.842383 2.876743,5.027652 -0.440025,2.205769 -2.706432,3.882352 -4.98716,3.365432 z"
     id="path420" /><path
     style="display:inline;mix-blend-mode:normal;fill:url(#linearGradient1572);fill-opacity:1"
     d="m 99.759073,144.59872 c -9.772981,0.17477 -18.964353,-7.37796 -20.771293,-16.9723 -0.63808,-2.47678 -0.269227,-5.14026 -0.25142,-7.66844 1.05513,-5.86341 4.465587,-11.1937 9.445168,-14.4906 3.564636,-2.14509 7.6528,-3.74252 11.883462,-3.31007 4.41926,-0.35672 8.71463,1.5415 12.32484,3.84141 0.37099,-2.43514 0.0524,-5.55988 0.15871,-8.2597 0.0565,-18.169254 -0.11262,-36.37021 0.0843,-54.519715 0.35791,-2.611255 3.13277,-4.358645 5.6725,-3.701441 8.93383,0.332651 17.6071,4.897083 23.3759,11.360506 5.23775,5.868424 11.07788,15.084129 7.84567,22.255267 -0.95579,2.120581 -4.16169,2.927242 -6.46739,2.620399 -9.11762,-1.213367 -9.20628,-17.258257 -21.97449,-16.689853 l -0.14337,68.383537 c -1.45354,5.24777 -4.30872,10.22345 -8.85146,13.36747 -2.91386,1.8957 -6.17621,3.22374 -9.64572,3.66961 -0.9222,0.25173 -1.88361,0.091 -2.685407,0.11392 z"
     id="path5738" /></svg>
