<?xml version="1.0" encoding="UTF-8"?>
<!-- Created with Inkscape (http://www.inkscape.org/) -->
<svg width="180" height="180" version="1.1" viewBox="0 0 180 180" xml:space="preserve" xmlns="http://www.w3.org/2000/svg"><g transform="translate(-13.6 -125)" fill="none" stroke="#f55"><g transform="translate(1.39)"><path transform="translate(1.09 8.44)" d="m85.1 211a11 10.5 0 0 1-11 10.5 11 10.5 0 0 1-11-10.5 11 10.5 0 0 1 11-10.5 11 10.5 0 0 1 11 10.5z" fill="#caf" stroke="none"/><path transform="translate(1.09 8.44)" d="m139 211a11 10.5 0 0 1-11 10.5 11 10.5 0 0 1-11-10.5 11 10.5 0 0 1 11-10.5 11 10.5 0 0 1 11 10.5z" fill="#caf" stroke="none"/><path d="m94.4 256 15.6-1e-5" fill="#7137c8" stroke="#caf" stroke-linecap="round" stroke-linejoin="round" stroke-width="11"/></g><path d="m160 191c-0.397-27.1-28.7-41.6-56.8-42.2-28 0.562-56.4 15.1-56.8 42.2" color="#000000" fill="none" stroke="#caf" stroke-linecap="round" stroke-linejoin="round" stroke-width="11"/><path d="m45.3 200c-5.36 0-9.88 4.52-9.88 9.88v34.9c0 5.36 4.52 9.88 9.88 9.88h2.1c5.36 0 9.88-4.52 9.88-9.88v-34.9c0-5.36-4.52-9.88-9.88-9.88z" color="#000000" fill="#caf" stroke="none" style="-inkscape-stroke:none"/><path d="m161 200c-5.36 0-9.88 4.52-9.88 9.88v34.9c0 5.36 4.52 9.88 9.88 9.88h2.1c5.36 0 9.88-4.52 9.88-9.88v-34.9c0-5.36-4.52-9.88-9.88-9.88z" color="#000000" fill="#caf" stroke="none" style="-inkscape-stroke:none"/></g></svg>
