<?xml version="1.0" encoding="UTF-8" standalone="no"?>
<!-- Created with Inkscape (http://www.inkscape.org/) -->

<svg
   width="180"
   height="180"
   viewBox="0 0 180 180"
   version="1.1"
   id="svg5"
   xml:space="preserve"
   inkscape:version="1.2.2 (732a01da63, 2022-12-09)"
   sodipodi:docname="mellowMusic.svg"
   xmlns:inkscape="http://www.inkscape.org/namespaces/inkscape"
   xmlns:sodipodi="http://sodipodi.sourceforge.net/DTD/sodipodi-0.dtd"
   xmlns="http://www.w3.org/2000/svg"
   xmlns:svg="http://www.w3.org/2000/svg"><sodipodi:namedview
     id="namedview7"
     pagecolor="#ffffff"
     bordercolor="#000000"
     borderopacity="0.25"
     inkscape:showpageshadow="2"
     inkscape:pageopacity="0.0"
     inkscape:pagecheckerboard="0"
     inkscape:deskcolor="#d1d1d1"
     inkscape:document-units="px"
     showgrid="false"
     inkscape:zoom="3.3273302"
     inkscape:cx="6.9124489"
     inkscape:cy="81.596951"
     inkscape:window-width="1920"
     inkscape:window-height="1013"
     inkscape:window-x="-9"
     inkscape:window-y="-9"
     inkscape:window-maximized="1"
     inkscape:current-layer="layer1" /><defs
     id="defs2" /><g
     inkscape:label="Layer 1"
     inkscape:groupmode="layer"
     id="layer1"
     style="opacity:1;fill:none;stroke:#ff5555"
     transform="translate(-13.600945,-124.95868)"><g
       id="g6276"
       transform="translate(1.3924)"><path
         id="path1546"
         style="opacity:1;fill:#000000;fill-opacity:1;stroke:none;stroke-width:11.3972;stroke-linecap:round;stroke-linejoin:round"
         d="m 85.142548,210.58389 a 11.020203,10.519284 0 0 1 -11.020202,10.5193 11.020203,10.519284 0 0 1 -11.020202,-10.5193 11.020203,10.519284 0 0 1 11.020202,-10.51927 11.020203,10.519284 0 0 1 11.020202,10.51927 z"
         transform="translate(1.086198,8.43916)" /><path
         id="path6267"
         style="opacity:1;fill:#000000;fill-opacity:1;stroke:none;stroke-width:11.3972;stroke-linecap:round;stroke-linejoin:round"
         d="m 139.14255,210.58389 a 11.020203,10.519284 0 0 1 -11.0202,10.5193 11.020203,10.519284 0 0 1 -11.02021,-10.5193 11.020203,10.519284 0 0 1 11.02021,-10.51927 11.020203,10.519284 0 0 1 11.0202,10.51927 z"
         transform="translate(1.086198,8.43916)" /><path
         style="opacity:1;fill:none;fill-opacity:1;stroke:#000000;stroke-width:11.047;stroke-linecap:round;stroke-linejoin:round;stroke-dasharray:none"
         d="m 91.389059,256.27356 c 7.153566,-6.94259 15.611611,-7.30065 23.141671,-0.60109"
         id="path6265"
         sodipodi:nodetypes="cc" /></g><path
       style="color:#000000;fill:none;stroke:#000000;stroke-width:11.047;stroke-linecap:round;stroke-linejoin:round;stroke-dasharray:none"
       d="M 160.35395,190.71457 C 159.95682,163.62335 131.61448,149.1196 103.60094,148.55781 75.587411,149.1196 47.245075,163.62335 46.847938,190.71457"
       id="path711"
       sodipodi:nodetypes="cc" /><path
       style="color:#000000;fill:#000000;fill-opacity:1;stroke:none;stroke-linecap:round;stroke-linejoin:round;-inkscape-stroke:none"
       d="m 45.308594,199.64618 c -5.362614,0 -9.882813,4.51825 -9.882813,9.88086 v 34.86133 c 0,5.36261 4.520199,9.88281 9.882813,9.88281 h 2.103515 c 5.362614,0 9.88086,-4.5202 9.88086,-9.88281 v -34.86133 c 0,-5.36261 -4.518246,-9.88086 -9.88086,-9.88086 z"
       id="rect1271" /><path
       style="color:#000000;fill:#000000;fill-opacity:1;stroke:none;stroke-linecap:round;stroke-linejoin:round;-inkscape-stroke:none"
       d="m 160.50977,199.64618 c -5.36262,0 -9.88282,4.5202 -9.88282,9.88281 v 34.86133 c 0,5.36261 4.5202,9.88086 9.88282,9.88086 h 2.10156 c 5.36261,0 9.88281,-4.51825 9.88281,-9.88086 v -34.86133 c 0,-5.36261 -4.5202,-9.88281 -9.88281,-9.88281 z"
       id="rect1271-7" /></g></svg>
