<?xml version="1.0" encoding="UTF-8" standalone="no"?>
<!-- Created with Inkscape (http://www.inkscape.org/) -->

<svg
   width="180"
   height="180"
   viewBox="0 0 180 180"
   version="1.1"
   id="svg5"
   xml:space="preserve"
   inkscape:version="1.2.2 (732a01da63, 2022-12-09)"
   sodipodi:docname="broken_egg.svg"
   xmlns:inkscape="http://www.inkscape.org/namespaces/inkscape"
   xmlns:sodipodi="http://sodipodi.sourceforge.net/DTD/sodipodi-0.dtd"
   xmlns="http://www.w3.org/2000/svg"
   xmlns:svg="http://www.w3.org/2000/svg"><sodipodi:namedview
     id="namedview7"
     pagecolor="#ffffff"
     bordercolor="#000000"
     borderopacity="0.25"
     inkscape:showpageshadow="2"
     inkscape:pageopacity="0.0"
     inkscape:pagecheckerboard="0"
     inkscape:deskcolor="#d1d1d1"
     inkscape:document-units="px"
     showgrid="false"
     inkscape:zoom="3.3273302"
     inkscape:cx="110.14837"
     inkscape:cy="77.539643"
     inkscape:window-width="1920"
     inkscape:window-height="1027"
     inkscape:window-x="-8"
     inkscape:window-y="-8"
     inkscape:window-maximized="1"
     inkscape:current-layer="layer1" /><defs
     id="defs2" /><g
     inkscape:label="Layer 1"
     inkscape:groupmode="layer"
     id="layer1"
     style="opacity:1;fill:none;stroke:#ff5555"
     transform="translate(-13.600945,-124.95868)"><g
       id="g976"
       transform="matrix(1.2771257,0,0,1.2771257,-28.710489,-67.711961)"><path
         style="opacity:1;fill:none;stroke:#000000;stroke-width:5.24;stroke-linecap:round;stroke-linejoin:round;stroke-dasharray:none;stroke-opacity:1"
         d="m 59.75842,232.1512 c 5.93332,-1.491 9.010739,-2.11908 16.018739,-3.4454 5.88399,6.22558 5.520294,6.29411 10.203034,10.28282 5.475084,-5.13577 9.328811,-9.5538 15.132937,-15.01527 4.61013,6.52131 9.90051,13.51765 15.71699,19.70784 8.61821,-8.27563 10.10238,-8.66403 15.33126,-14.67485 6.54325,3.69457 5.80179,3.84377 15.45283,9.66396 -2.16567,23.78432 -19.66016,41.42243 -43.22956,41.34802 -29.234219,0.12549 -46.7366,-24.92874 -44.62623,-47.86712 z"
         id="path302"
         sodipodi:nodetypes="ccccccccc" /><path
         style="opacity:1;fill:none;fill-rule:nonzero;stroke:#000000;stroke-width:5.24;stroke-linecap:round;stroke-linejoin:round;stroke-dasharray:none"
         d="m 115.57129,228.99911 c -7.54176,-10.31976 -14.88182,-20.35392 -15.39357,-20.31484 L 85.019687,223.6717 74.497908,213.66432 c -4.867984,1.25624 -5.539143,1.48806 -12.430461,2.27407 11.646129,-34.73544 24.980735,-54.39743 41.890903,-53.24329 13.96722,0.95328 29.08227,16.38525 41.17612,58.82258 -10.92834,-4.87794 -7.07457,-4.68441 -13.63315,-7.78175 -5.73949,5.11888 -7.71582,7.56535 -15.93003,15.26318 z"
         id="path402"
         sodipodi:nodetypes="cccccsccc"
         inkscape:linked-fill="path414" /></g></g></svg>
