<?xml version="1.0" encoding="UTF-8"?>
<!-- Created with Inkscape (http://www.inkscape.org/) -->
<svg width="180" height="180" version="1.1" viewBox="0 0 180 180" xml:space="preserve" xmlns="http://www.w3.org/2000/svg"><g transform="translate(-13.6 -125)" fill="none" stroke="#f55"><g transform="matrix(1.28 0 0 1.28 -28.7 -67.7)" fill="none" stroke="#000" stroke-linecap="round" stroke-linejoin="round" stroke-width="5.24"><path d="m59.8 232c5.93-1.49 9.01-2.12 16-3.45 5.88 6.23 5.52 6.29 10.2 10.3 5.48-5.14 9.33-9.55 15.1-15 4.61 6.52 9.9 13.5 15.7 19.7 8.62-8.28 10.1-8.66 15.3-14.7 6.54 3.69 5.8 3.84 15.5 9.66-2.17 23.8-19.7 41.4-43.2 41.3-29.2 0.125-46.7-24.9-44.6-47.9z"/><path d="m116 229c-7.54-10.3-14.9-20.4-15.4-20.3l-15.2 15-10.5-10c-4.87 1.26-5.54 1.49-12.4 2.27 11.6-34.7 25-54.4 41.9-53.2 14 0.953 29.1 16.4 41.2 58.8-10.9-4.88-7.07-4.68-13.6-7.78-5.74 5.12-7.72 7.57-15.9 15.3z"/></g></g></svg>
