<?xml version="1.0" encoding="UTF-8"?>
<!-- Created with Inkscape (http://www.inkscape.org/) -->
<svg width="180" height="180" version="1.1" viewBox="0 0 180 180" xml:space="preserve" xmlns="http://www.w3.org/2000/svg"><g transform="translate(-13.6 -125)" fill="none" stroke="#f55"><path d="m158 220c5.73 43.9-23.1 68.1-54.8 68.1-31.7 1.2e-4 -61.2-27.8-53.3-72 6.77-37.7 24.7-73.7 55-74 26.3-0.267 48.3 41 53.1 78z" stroke="#000" stroke-linecap="round" stroke-linejoin="round" stroke-width="7.25"/><g transform="translate(1.31 -.615)"><path d="m87.1 213a7.01 6.69 0 0 1-7.01 6.69 7.01 6.69 0 0 1-7.01-6.69 7.01 6.69 0 0 1 7.01-6.69 7.01 6.69 0 0 1 7.01 6.69z" fill="#000" stroke="none"/><path d="m132 214a7.01 6.69 0 0 1-7.01 6.69 7.01 6.69 0 0 1-7.01-6.69 7.01 6.69 0 0 1 7.01-6.69 7.01 6.69 0 0 1 7.01 6.69z" fill="#000" stroke="none"/><g fill="none" stroke="#000" stroke-linecap="round" stroke-linejoin="round" stroke-width="7.25"><path d="m69.8 200 17.3-7.12"/><path d="m97.3 238 11.5-0.407"/><path d="m118 194 17.1 5.84"/></g></g></g></svg>
