<?xml version="1.0" encoding="UTF-8" standalone="no"?>
<!-- Created with Inkscape (http://www.inkscape.org/) -->

<svg
   width="180"
   height="180"
   viewBox="0 0 180 180"
   version="1.1"
   id="svg5"
   xml:space="preserve"
   inkscape:version="1.2.2 (732a01da63, 2022-12-09)"
   sodipodi:docname="egg_not_found.svg"
   xmlns:inkscape="http://www.inkscape.org/namespaces/inkscape"
   xmlns:sodipodi="http://sodipodi.sourceforge.net/DTD/sodipodi-0.dtd"
   xmlns="http://www.w3.org/2000/svg"
   xmlns:svg="http://www.w3.org/2000/svg"><sodipodi:namedview
     id="namedview7"
     pagecolor="#ffffff"
     bordercolor="#000000"
     borderopacity="0.25"
     inkscape:showpageshadow="2"
     inkscape:pageopacity="0.0"
     inkscape:pagecheckerboard="0"
     inkscape:deskcolor="#d1d1d1"
     inkscape:document-units="px"
     showgrid="false"
     inkscape:zoom="3.3273302"
     inkscape:cx="49.739578"
     inkscape:cy="81.29641"
     inkscape:window-width="1920"
     inkscape:window-height="1013"
     inkscape:window-x="-9"
     inkscape:window-y="-9"
     inkscape:window-maximized="1"
     inkscape:current-layer="layer1" /><defs
     id="defs2" /><g
     inkscape:label="Layer 1"
     inkscape:groupmode="layer"
     id="layer1"
     style="opacity:1;fill:none;stroke:#ff5555"
     transform="translate(-13.600945,-124.95868)"><path
       id="path356"
       style="stroke:#000000;stroke-width:7.25291;stroke-linecap:round;stroke-linejoin:round;stroke-dasharray:none"
       d="m 157.9255,219.89562 c 5.72825,43.92312 -23.11999,68.08132 -54.823,68.08144 -31.702848,1.2e-4 -61.215844,-27.75148 -53.262476,-72.02493 6.767273,-37.6709 24.717056,-73.70328 54.962596,-74.01049 26.3235,-0.26738 48.30381,41.00229 53.12288,77.95398 z"
       sodipodi:nodetypes="sssss" /><g
       id="g1733"
       transform="translate(1.313109,-0.61462)"><path
         id="path1546"
         style="fill:#000000;stroke:none;stroke-width:7.25291;stroke-linecap:round;stroke-linejoin:round"
         d="m 87.146158,213.28877 a 7.0129871,6.6942148 0 0 1 -7.012987,6.69422 7.0129871,6.6942148 0 0 1 -7.012987,-6.69422 7.0129871,6.6942148 0 0 1 7.012987,-6.69421 7.0129871,6.6942148 0 0 1 7.012987,6.69421 z" /><path
         id="path1546-0"
         style="fill:#000000;stroke:none;stroke-width:7.25291;stroke-linecap:round;stroke-linejoin:round"
         d="m 131.56174,214.03258 a 7.0129871,6.6942148 0 0 1 -7.01299,6.69421 7.0129871,6.6942148 0 0 1 -7.01299,-6.69421 7.0129871,6.6942148 0 0 1 7.01299,-6.69422 7.0129871,6.6942148 0 0 1 7.01299,6.69422 z" /><path
         style="fill:none;stroke:#000000;stroke-width:7.25291;stroke-linecap:round;stroke-linejoin:round;stroke-dasharray:none"
         d="m 69.826202,199.90034 17.319953,-7.11925"
         id="path1635"
         sodipodi:nodetypes="cc" /><path
         style="fill:none;stroke:#000000;stroke-width:7.25291;stroke-linecap:round;stroke-linejoin:round;stroke-dasharray:none"
         d="m 97.346864,238.36551 11.490896,-0.4068"
         id="path1635-99"
         sodipodi:nodetypes="cc" /><path
         style="fill:none;stroke:#000000;stroke-width:7.25291;stroke-linecap:round;stroke-linejoin:round;stroke-dasharray:none"
         d="m 117.64203,193.84367 17.10744,5.84415"
         id="path1635-9"
         sodipodi:nodetypes="cc" /></g></g></svg>
