<?xml version="1.0" encoding="UTF-8"?>
<!-- Created with Inkscape (http://www.inkscape.org/) -->
<svg width="180" height="180" version="1.1" viewBox="0 0 180 180" xml:space="preserve" xmlns="http://www.w3.org/2000/svg"><g stroke-linecap="round" stroke-linejoin="round"><g transform="translate(-6.26 -2.44)"><path d="m71.8 37.4c-0.167 0.0347-0.326 0.1-0.469 0.193-0.173 0.0326-0.338 0.0982-0.486 0.193l-0.0137 0.0137-2.73 2.65c-0.543 0.527-0.555 1.39-0.0273 1.94 0.527 0.543 1.39 0.556 1.94 0.0293l2.34-2.28h4.93c0.757 6.05e-4 1.37-0.614 1.37-1.37-4.75e-4 -0.757-0.614-1.37-1.37-1.37h-5.46zm11 0c-0.756 4.74e-4 -1.37 0.613-1.37 1.37-6.04e-4 0.757 0.612 1.37 1.37 1.37h5.48c0.757-4.74e-4 1.37-0.614 1.37-1.37-4.74e-4 -0.756-0.613-1.37-1.37-1.37zm11 0c-0.757-6.04e-4 -1.37 0.612-1.37 1.37-6.05e-4 0.757 0.614 1.37 1.37 1.37h5.48c0.757 6.05e-4 1.37-0.614 1.37-1.37-4.7e-4 -0.757-0.614-1.37-1.37-1.37zm11 0c-0.756 4.74e-4 -1.37 0.613-1.37 1.37-6e-4 0.757 0.612 1.37 1.37 1.37h5.48c0.757-4.75e-4 1.37-0.614 1.37-1.37-4.7e-4 -0.756-0.613-1.37-1.37-1.37zm11 0c-0.757-6.02e-4 -1.37 0.612-1.37 1.37-6.1e-4 0.757 0.614 1.37 1.37 1.37h5.48c0.757 6.03e-4 1.37-0.614 1.37-1.37-4.7e-4 -0.757-0.614-1.37-1.37-1.37zm-50.5 6.49c-0.363-0.0044-0.713 0.135-0.973 0.389-1.31 1.28-2.62 2.56-3.92 3.86-0.533 0.537-0.531 1.4 0.0059 1.94 0.537 0.533 1.4 0.529 1.94-0.0078 1.28-1.29 2.58-2.56 3.89-3.83 0.541-0.528 0.552-1.39 0.0254-1.94-0.254-0.261-0.601-0.41-0.965-0.414zm-7.77 7.77c-0.363 8e-3 -0.708 0.16-0.959 0.422-1.27 1.32-2.53 2.65-3.79 3.97-0.521 0.549-0.499 1.42 0.0508 1.94 0.549 0.521 1.42 0.499 1.94-0.0508 1.26-1.32 2.51-2.65 3.77-3.96 0.524-0.546 0.506-1.41-0.041-1.94-0.262-0.251-0.613-0.388-0.977-0.381zm88.1 4.81c-0.757-6.03e-4 -1.37 0.614-1.37 1.37v5.48c-6.1e-4 0.757 0.614 1.37 1.37 1.37 0.757-4.75e-4 1.37-0.614 1.37-1.37v-5.48c6e-4 -0.757-0.612-1.37-1.37-1.37zm-95.6 3.14c-0.364 0.0096-0.709 0.163-0.959 0.428l-0.889 0.938c-0.241 0.255-0.375 0.592-0.375 0.943v4.19c-6.04e-4 0.757 0.612 1.37 1.37 1.37 0.757-4.74e-4 1.37-0.614 1.37-1.37v-3.64l0.516-0.541c0.521-0.549 0.497-1.42-0.0527-1.94-0.264-0.25-0.616-0.385-0.979-0.375zm95.6 7.82c-0.757-6.02e-4 -1.37 0.612-1.37 1.37v5.48c4.7e-4 0.757 0.614 1.37 1.37 1.37 0.756-4.74e-4 1.37-0.613 1.37-1.37v-5.48c-4.7e-4 -0.756-0.613-1.37-1.37-1.37zm-96.5 2.78c-0.756 4.74e-4 -1.37 0.613-1.37 1.37v5.48c4.74e-4 0.756 0.613 1.37 1.37 1.37 0.756-4.74e-4 1.37-0.613 1.37-1.37v-5.48c-4.74e-4 -0.756-0.613-1.37-1.37-1.37zm96.5 8.18c-0.757-6.03e-4 -1.37 0.614-1.37 1.37v5.48c-6.1e-4 0.757 0.614 1.37 1.37 1.37 0.757-4.75e-4 1.37-0.614 1.37-1.37v-5.48c6e-4 -0.757-0.612-1.37-1.37-1.37zm-96.5 2.78c-0.757 4.75e-4 -1.37 0.614-1.37 1.37v5.48c-6.04e-4 0.757 0.612 1.37 1.37 1.37 0.757-4.74e-4 1.37-0.614 1.37-1.37v-5.48c6.04e-4 -0.757-0.612-1.37-1.37-1.37zm96.5 8.18c-0.757-6.02e-4 -1.37 0.612-1.37 1.37v5.48c4.7e-4 0.757 0.614 1.37 1.37 1.37 0.756-4.74e-4 1.37-0.613 1.37-1.37v-5.48c-4.7e-4 -0.756-0.613-1.37-1.37-1.37zm-96.5 2.78c-0.756 4.74e-4 -1.37 0.613-1.37 1.37v5.48c4.72e-4 0.756 0.613 1.37 1.37 1.37 0.756-4.7e-4 1.37-0.613 1.37-1.37v-5.48c-4.74e-4 -0.756-0.613-1.37-1.37-1.37zm96.5 8.18c-0.757-6e-4 -1.37 0.614-1.37 1.37v5.48c-6e-4 0.757 0.614 1.37 1.37 1.37 0.757-4.7e-4 1.37-0.614 1.37-1.37v-5.48c6e-4 -0.757-0.612-1.37-1.37-1.37zm-96.5 2.78c-0.757 4.7e-4 -1.37 0.614-1.37 1.37v5.48c-6.02e-4 0.757 0.612 1.37 1.37 1.37 0.757-4.7e-4 1.37-0.614 1.37-1.37v-5.48c6.02e-4 -0.757-0.612-1.37-1.37-1.37zm96.5 8.18c-0.757-6e-4 -1.37 0.612-1.37 1.37v5.48c4.7e-4 0.757 0.614 1.37 1.37 1.37 0.756-4.7e-4 1.37-0.613 1.37-1.37v-5.48c-4.7e-4 -0.756-0.613-1.37-1.37-1.37zm-96.5 2.78c-0.756 4.7e-4 -1.37 0.613-1.37 1.37v5.48c4.74e-4 0.756 0.613 1.37 1.37 1.37 0.756-4.7e-4 1.37-0.613 1.37-1.37v-5.48c-4.74e-4 -0.756-0.613-1.37-1.37-1.37zm96.5 8.18c-0.757-6e-4 -1.37 0.614-1.37 1.37v5.48c-6.1e-4 0.757 0.614 1.37 1.37 1.37 0.757-4.7e-4 1.37-0.614 1.37-1.37v-5.48c6.1e-4 -0.757-0.612-1.37-1.37-1.37zm-96.5 2.78c-0.757 4.7e-4 -1.37 0.614-1.37 1.37v5.48c-6.08e-4 0.757 0.612 1.37 1.37 1.37 0.757-4.7e-4 1.37-0.614 1.37-1.37v-5.48c6.08e-4 -0.757-0.612-1.37-1.37-1.37zm96.5 8.18c-0.757-6e-4 -1.37 0.612-1.37 1.37v3.99c-6e-5 0.44-0.0274 0.879-0.082 1.31-0.095 0.751 0.438 1.44 1.19 1.53 0.75 0.0939 1.43-0.438 1.53-1.19 0.0693-0.55 0.103-1.1 0.104-1.66v-3.99c-4.7e-4 -0.756-0.613-1.37-1.37-1.37zm-96.5 2.78c-0.756 4.7e-4 -1.37 0.613-1.37 1.37v1.21c-5.57e-4 1.59 0.28 3.17 0.85 4.67 0.27 0.707 1.06 1.06 1.77 0.791 0.706-0.27 1.06-1.06 0.791-1.77-0.446-1.17-0.672-2.43-0.672-3.69v-1.21c-4.74e-4 -0.756-0.613-1.37-1.37-1.37zm94.2 7.8c-0.356 0.07-0.67 0.279-0.873 0.58-0.877 1.3-2.06 2.4-3.42 3.18l-0.107 0.0606c-0.661 0.368-0.897 1.2-0.529 1.86 0.368 0.661 1.2 0.897 1.86 0.529l0.123-0.0684c5e-3 -3e-3 9e-3 -5e-3 0.0137-8e-3 1.73-0.991 3.22-2.37 4.33-4.03 0.424-0.627 0.258-1.48-0.369-1.9-0.302-0.204-0.672-0.279-1.03-0.209zm-89.5 2.43c-0.558-0.511-1.42-0.472-1.94 0.0859-0.51 0.559-0.471 1.43 0.0879 1.94 1.51 1.38 3.34 2.39 5.31 2.94 0.729 0.2 1.48-0.228 1.68-0.957 0.2-0.729-0.228-1.48-0.957-1.68-1.55-0.426-3-1.23-4.19-2.32zm77.8 2.55c-0.956-0.0609-2-0.0689-3.12 0.18-0.738 0.165-1.2 0.896-1.04 1.63 0.165 0.738 0.896 1.2 1.63 1.04 1.4-0.311 3.14 0.123 5.25 0.0215 0.756-0.0363 1.34-0.679 1.3-1.44-0.0363-0.756-0.678-1.34-1.43-1.3-0.77 0.0372-1.64-0.0758-2.6-0.137zm-68.6 0.146c-0.757-6.1e-4 -1.37 0.614-1.37 1.37 4.75e-4 0.757 0.614 1.37 1.37 1.37h5.48c0.756-4.7e-4 1.37-0.613 1.37-1.37 6.02e-4 -0.757-0.612-1.37-1.37-1.37zm11 0c-0.757 4.7e-4 -1.37 0.614-1.37 1.37 4.74e-4 0.756 0.613 1.37 1.37 1.37h5.48c0.756-4.7e-4 1.37-0.613 1.37-1.37 6.02e-4 -0.757-0.612-1.37-1.37-1.37zm11 0c-0.757-6.1e-4 -1.37 0.614-1.37 1.37 4.75e-4 0.757 0.614 1.37 1.37 1.37h5.48c0.756-4.7e-4 1.37-0.613 1.37-1.37 6.02e-4 -0.757-0.612-1.37-1.37-1.37zm11 0c-0.757 4.7e-4 -1.37 0.614-1.37 1.37 4.74e-4 0.756 0.613 1.37 1.37 1.37h5.48c0.757 6e-4 1.37-0.612 1.37-1.37 6e-4 -0.757-0.614-1.37-1.37-1.37zm11 0c-0.757-6.1e-4 -1.37 0.614-1.37 1.37 4.7e-4 0.757 0.614 1.37 1.37 1.37h5.48c0.756-4.7e-4 1.37-0.613 1.37-1.37 6e-4 -0.757-0.612-1.37-1.37-1.37zm11 0c-0.757 4.7e-4 -1.37 0.614-1.37 1.37 4.7e-4 0.756 0.613 1.37 1.37 1.37h5.48c0.757 6e-4 1.37-0.612 1.37-1.37 6e-4 -0.757-0.614-1.37-1.37-1.37z" color="#000000" fill="#b2b2b2" stroke-dasharray="5.48, 5.48" style="-inkscape-stroke:none"/><path d="m139 21.2a18.5 18.5 0 0 0-18.5 18.5 18.5 18.5 0 0 0 18.5 18.5 18.5 18.5 0 0 0 18.5-18.5 18.5 18.5 0 0 0-18.5-18.5zm0.293 6.88c2.33 0 4.35 1.37 5.7 3.32s2.12 4.51 2.12 7.32c0 2.81-0.774 5.37-2.12 7.32-1.35 1.95-3.38 3.32-5.7 3.32-2.33 1e-6 -4.35-1.37-5.7-3.32-1.35-1.95-2.12-4.51-2.12-7.32 0-2.81 0.774-5.38 2.12-7.32 1.35-1.95 3.37-3.32 5.7-3.32zm0 2.92c-1.19 0-2.35 0.685-3.3 2.06-0.954 1.38-1.61 3.4-1.61 5.66 0 2.26 0.651 4.28 1.61 5.66 0.954 1.38 2.11 2.06 3.3 2.06 1.19 0 2.35-0.685 3.31-2.06 0.954-1.38 1.6-3.4 1.6-5.66 0-2.26-0.649-4.28-1.6-5.66-0.954-1.38-2.12-2.06-3.31-2.06z" fill="#b2b2b2" stroke-dasharray="4.92073, 4.92073" stroke-width="2.46"/><g fill="none" stroke="#b2b2b2" stroke-width="2.74"><path d="m55.2 22.7 0.213 15.1"/><path d="m32 46.8 15.1-0.213"/><path d="m38.6 30 10.8 10.2"/></g></g><path transform="matrix(.699 -.104 .104 .699 16.8 36.9)" d="m107 120-17.6-11.7-19.6 7.83 5.73-20.4-13.5-16.3 21.1-0.837 11.3-17.9 7.32 19.8 20.5 5.21-16.6 13.1z" fill="#b2b2b2" stroke="#b2b2b2" stroke-width="5.44"/></g></svg>
