<?xml version="1.0" encoding="UTF-8" standalone="no"?>
<!-- Created with Inkscape (http://www.inkscape.org/) -->

<svg
   width="180"
   height="180"
   viewBox="0 0 180 180"
   version="1.1"
   id="svg5"
   xml:space="preserve"
   inkscape:version="1.2.2 (732a01da63, 2022-12-09)"
   sodipodi:docname="empty_barcode_list.svg"
   xmlns:inkscape="http://www.inkscape.org/namespaces/inkscape"
   xmlns:sodipodi="http://sodipodi.sourceforge.net/DTD/sodipodi-0.dtd"
   xmlns="http://www.w3.org/2000/svg"
   xmlns:svg="http://www.w3.org/2000/svg"><sodipodi:namedview
     id="namedview7"
     pagecolor="#ffffff"
     bordercolor="#000000"
     borderopacity="0.25"
     inkscape:showpageshadow="2"
     inkscape:pageopacity="0.0"
     inkscape:pagecheckerboard="0"
     inkscape:deskcolor="#d1d1d1"
     inkscape:document-units="px"
     showgrid="false"
     inkscape:zoom="3.3273302"
     inkscape:cx="112.5527"
     inkscape:cy="98.577532"
     inkscape:window-width="1920"
     inkscape:window-height="1027"
     inkscape:window-x="-8"
     inkscape:window-y="-8"
     inkscape:window-maximized="1"
     inkscape:current-layer="layer1" /><defs
     id="defs2" /><g
     inkscape:label="Layer 1"
     inkscape:groupmode="layer"
     id="layer1"><g
       id="g5147"
       transform="translate(-6.2635208,-6.4370077)"><path
         style="color:#000000;fill:#b2b2b2;stroke-linecap:round;stroke-linejoin:round;stroke-dasharray:5.48, 5.48;-inkscape-stroke:none"
         d="m 71.830078,37.400391 c -0.16692,0.03472 -0.325893,0.1003 -0.46875,0.193359 -0.173028,0.0326 -0.33815,0.09825 -0.486328,0.193359 l -0.01367,0.01367 -2.732422,2.652344 c -0.542661,0.527439 -0.554903,1.394959 -0.02734,1.9375 0.526893,0.543213 1.394422,0.556333 1.9375,0.0293 l 2.34375,-2.279297 H 77.3086 c 0.757484,6.05e-4 1.371698,-0.61361 1.371093,-1.371094 -4.75e-4,-0.756721 -0.614372,-1.369744 -1.371093,-1.36914 h -5.458985 z m 10.958984,0 c -0.755959,4.74e-4 -1.368666,0.613181 -1.36914,1.36914 -6.04e-4,0.756722 0.612418,1.370619 1.36914,1.371094 h 5.480469 c 0.756722,-4.74e-4 1.369745,-0.614372 1.369141,-1.371094 -4.74e-4,-0.755959 -0.613182,-1.368666 -1.369141,-1.36914 z m 10.960938,0 c -0.756722,-6.04e-4 -1.370619,0.612418 -1.371094,1.36914 -6.05e-4,0.757485 0.613609,1.371699 1.371094,1.371094 h 5.478516 c 0.757485,6.05e-4 1.371704,-0.613609 1.371094,-1.371094 -4.7e-4,-0.756722 -0.614372,-1.369744 -1.371094,-1.36914 z m 10.95898,0 c -0.75596,4.74e-4 -1.36867,0.613181 -1.36914,1.36914 -6e-4,0.756722 0.61242,1.370619 1.36914,1.371094 h 5.48047 c 0.75672,-4.75e-4 1.36974,-0.614372 1.36914,-1.371094 -4.7e-4,-0.755959 -0.61318,-1.368666 -1.36914,-1.36914 z m 10.96094,0 c -0.75672,-6.02e-4 -1.37062,0.61242 -1.37109,1.36914 -6.1e-4,0.757483 0.61361,1.371697 1.37109,1.371094 h 5.47852 c 0.75748,6.03e-4 1.3717,-0.613611 1.37109,-1.371094 -4.7e-4,-0.75672 -0.61437,-1.369742 -1.37109,-1.36914 z m -50.498045,6.486328 c -0.362902,-0.0044 -0.712718,0.135395 -0.972656,0.388672 -1.308643,1.275701 -2.620981,2.557424 -3.917969,3.863281 -0.533411,0.536649 -0.530769,1.404109 0.0059,1.9375 0.537173,0.532889 1.404635,0.529397 1.9375,-0.0078 1.277503,-1.286238 2.579406,-2.557625 3.886719,-3.832031 0.540816,-0.527768 0.552176,-1.393774 0.02539,-1.935547 -0.253867,-0.260673 -0.601004,-0.409647 -0.964844,-0.414062 z m -7.773438,7.771484 c -0.36293,0.008 -0.707841,0.15975 -0.958984,0.421875 -1.267264,1.321678 -2.527653,2.647101 -3.785156,3.972656 -0.521277,0.548943 -0.498536,1.416616 0.05078,1.9375 0.548943,0.521277 1.416616,0.498536 1.9375,-0.05078 1.256857,-1.324875 2.512256,-2.647557 3.773438,-3.962891 0.52388,-0.546282 0.505512,-1.41388 -0.04102,-1.9375 -0.262164,-0.251387 -0.613426,-0.388379 -0.976563,-0.380859 z m 88.064453,4.808594 c -0.75748,-6.03e-4 -1.3717,0.613611 -1.37109,1.371094 v 5.478515 c -6.1e-4,0.757483 0.61361,1.371697 1.37109,1.371094 0.75672,-4.75e-4 1.36974,-0.614372 1.36914,-1.371094 v -5.478515 c 6e-4,-0.756722 -0.61242,-1.370619 -1.36914,-1.371094 z m -95.621093,3.136719 c -0.363784,0.0096 -0.708819,0.163449 -0.958985,0.427734 l -0.888671,0.9375 c -0.241178,0.254838 -0.3754,0.59249 -0.375,0.943359 v 4.185547 c -6.04e-4,0.756722 0.612418,1.370619 1.36914,1.371094 0.756722,-4.74e-4 1.369745,-0.614372 1.369141,-1.371094 v -3.640625 l 0.515625,-0.541015 c 0.520759,-0.549474 0.497145,-1.417164 -0.05273,-1.9375 -0.263588,-0.249734 -0.615536,-0.384612 -0.978515,-0.375 z m 95.621093,7.824218 c -0.75672,-6.02e-4 -1.37062,0.612421 -1.37109,1.369141 v 5.480469 c 4.7e-4,0.75672 0.61437,1.369742 1.37109,1.36914 0.75596,-4.74e-4 1.36867,-0.613181 1.36914,-1.36914 v -5.480469 c -4.7e-4,-0.755959 -0.61318,-1.368667 -1.36914,-1.369141 z m -96.474609,2.78125 c -0.755959,4.74e-4 -1.368666,0.613182 -1.36914,1.369141 v 5.480469 c 4.74e-4,0.755959 0.613181,1.368666 1.36914,1.36914 0.755959,-4.74e-4 1.368667,-0.613181 1.369141,-1.36914 v -5.480469 c -4.74e-4,-0.755959 -0.613182,-1.368667 -1.369141,-1.369141 z m 96.474609,8.177735 c -0.75748,-6.03e-4 -1.37169,0.61361 -1.37109,1.371093 v 5.478516 c -6.1e-4,0.757483 0.61361,1.371697 1.37109,1.371094 0.75672,-4.75e-4 1.36974,-0.614372 1.36914,-1.371094 v -5.478516 c 6e-4,-0.756721 -0.61242,-1.370618 -1.36914,-1.371093 z m -96.474609,2.78125 c -0.756721,4.75e-4 -1.369744,0.614372 -1.36914,1.371093 v 5.478516 c -6.04e-4,0.756722 0.612418,1.370619 1.36914,1.371094 0.756722,-4.74e-4 1.369745,-0.614372 1.369141,-1.371094 v -5.478516 c 6.04e-4,-0.756722 -0.612419,-1.370619 -1.369141,-1.371093 z m 96.474609,8.179687 c -0.75672,-6.02e-4 -1.37062,0.612421 -1.37109,1.369141 v 5.480469 c 4.7e-4,0.75672 0.61437,1.369742 1.37109,1.36914 0.75596,-4.74e-4 1.36867,-0.613181 1.36914,-1.36914 v -5.480469 c -4.7e-4,-0.755959 -0.61318,-1.368667 -1.36914,-1.369141 z m -96.474609,2.78125 c -0.755959,4.74e-4 -1.368666,0.613182 -1.36914,1.369141 v 5.480469 c 4.72e-4,0.75596 0.61318,1.368674 1.36914,1.369144 0.755961,-4.7e-4 1.368669,-0.613183 1.369141,-1.369144 V 93.498047 C 50.356948,92.742088 49.74424,92.12938 48.988281,92.128906 Z m 96.474609,8.177734 c -0.75748,-6e-4 -1.37169,0.61361 -1.37109,1.37109 v 5.47852 c -6e-4,0.75748 0.61361,1.37169 1.37109,1.37109 0.75672,-4.7e-4 1.36974,-0.61437 1.36914,-1.37109 v -5.47852 c 6e-4,-0.75672 -0.61242,-1.37062 -1.36914,-1.37109 z m -96.474609,2.78125 c -0.75672,4.7e-4 -1.369742,0.61437 -1.36914,1.37109 v 5.47852 c -6.02e-4,0.75672 0.61242,1.37062 1.36914,1.37109 0.75672,-4.7e-4 1.369743,-0.61437 1.369141,-1.37109 v -5.47852 c 6.02e-4,-0.75672 -0.612421,-1.37062 -1.369141,-1.37109 z m 96.474609,8.17969 c -0.75672,-6e-4 -1.37062,0.61242 -1.37109,1.36914 v 5.48047 c 4.7e-4,0.75672 0.61437,1.36974 1.37109,1.36914 0.75596,-4.7e-4 1.36867,-0.61318 1.36914,-1.36914 v -5.48047 c -4.7e-4,-0.75596 -0.61318,-1.36867 -1.36914,-1.36914 z m -96.474609,2.78125 c -0.755959,4.7e-4 -1.368666,0.61318 -1.36914,1.36914 v 5.48047 c 4.74e-4,0.75596 0.613181,1.36867 1.36914,1.36914 0.755959,-4.7e-4 1.368667,-0.61318 1.369141,-1.36914 v -5.48047 c -4.74e-4,-0.75596 -0.613182,-1.36867 -1.369141,-1.36914 z m 96.474609,8.17773 c -0.75749,-6e-4 -1.3717,0.61361 -1.37109,1.3711 v 5.47851 c -6.1e-4,0.75749 0.6136,1.3717 1.37109,1.3711 0.75672,-4.7e-4 1.36975,-0.61438 1.36914,-1.3711 v -5.47851 c 6.1e-4,-0.75672 -0.61242,-1.37063 -1.36914,-1.3711 z m -96.474609,2.78125 c -0.756724,4.7e-4 -1.369748,0.61438 -1.36914,1.3711 v 5.47851 c -6.08e-4,0.75672 0.612416,1.37063 1.36914,1.3711 0.756724,-4.7e-4 1.369749,-0.61438 1.369141,-1.3711 v -5.47851 c 6.08e-4,-0.75672 -0.612417,-1.37063 -1.369141,-1.3711 z m 96.474609,8.17969 c -0.75672,-6e-4 -1.37062,0.61242 -1.37109,1.36914 v 3.99219 c -6e-5,0.44017 -0.0274,0.87884 -0.082,1.3125 -0.095,0.75147 0.43784,1.43741 1.18945,1.53125 0.75008,0.0939 1.43445,-0.43754 1.5293,-1.1875 0.0693,-0.55034 0.10344,-1.1047 0.10351,-1.65625 v -3.99219 c -4.7e-4,-0.75596 -0.61318,-1.36867 -1.36914,-1.36914 z m -96.474609,2.78125 c -0.755959,4.7e-4 -1.368666,0.61318 -1.36914,1.36914 v 1.21094 c -5.57e-4,1.58622 0.280308,3.17438 0.849609,4.66601 0.269958,0.70731 1.062445,1.06157 1.769531,0.79102 0.706256,-0.26997 1.060278,-1.06105 0.791016,-1.76758 -0.445656,-1.16767 -0.672317,-2.42848 -0.671875,-3.6875 v -0.002 -1.21094 c -4.74e-4,-0.75596 -0.613182,-1.36867 -1.369141,-1.36914 z m 94.210939,7.80273 c -0.35641,0.07 -0.67043,0.27863 -0.87305,0.58008 -0.8766,1.30038 -2.06323,2.40228 -3.42383,3.18164 l -0.10742,0.0606 c -0.66054,0.36849 -0.89747,1.20256 -0.5293,1.86328 0.36849,0.66054 1.20257,0.89748 1.86329,0.5293 l 0.12304,-0.0684 c 0.005,-0.003 0.009,-0.005 0.0137,-0.008 1.7295,-0.99067 3.21811,-2.37492 4.33204,-4.02735 0.42353,-0.62722 0.25824,-1.47904 -0.36914,-1.90234 -0.30171,-0.20364 -0.67206,-0.27883 -1.0293,-0.20899 z m -89.472658,2.4336 c -0.55821,-0.51076 -1.424777,-0.4723 -1.935546,0.0859 -0.510239,0.55875 -0.470888,1.42534 0.08789,1.93554 1.509041,1.37968 3.337646,2.39423 5.3125,2.9375 0.729142,0.20027 1.482666,-0.22807 1.683594,-0.95703 0.200264,-0.72914 -0.228072,-1.48266 -0.957031,-1.68359 -1.548457,-0.42598 -3.004018,-1.23276 -4.191407,-2.31836 z m 77.845708,2.54883 c -0.95625,-0.0609 -1.99898,-0.0689 -3.11524,0.17968 -0.73825,0.16465 -1.20338,0.89644 -1.03906,1.63477 0.16465,0.73825 0.89644,1.20337 1.63476,1.03906 1.39888,-0.31149 3.13871,0.12343 5.24805,0.0215 0.75635,-0.0363 1.33984,-0.67924 1.30274,-1.43555 -0.0363,-0.75555 -0.67803,-1.33873 -1.4336,-1.30274 -0.77021,0.0372 -1.6414,-0.0758 -2.59765,-0.13671 z m -68.576176,0.14648 c -0.757483,-6.1e-4 -1.371697,0.61361 -1.371094,1.37109 4.75e-4,0.75672 0.614372,1.36974 1.371094,1.36914 h 5.480468 c 0.755959,-4.7e-4 1.368667,-0.61318 1.369141,-1.36914 6.02e-4,-0.75672 -0.612421,-1.37062 -1.369141,-1.37109 z m 10.958984,0 c -0.75672,4.7e-4 -1.369743,0.61437 -1.369141,1.37109 4.74e-4,0.75596 0.613182,1.36867 1.369141,1.36914 h 5.480469 c 0.755959,-4.7e-4 1.368666,-0.61318 1.36914,-1.36914 6.02e-4,-0.75672 -0.61242,-1.37062 -1.36914,-1.37109 z m 10.960938,0 c -0.757483,-6.1e-4 -1.371697,0.61361 -1.371094,1.37109 4.75e-4,0.75672 0.614372,1.36974 1.371094,1.36914 h 5.480468 c 0.755959,-4.7e-4 1.368667,-0.61318 1.369141,-1.36914 6.02e-4,-0.75672 -0.612421,-1.37062 -1.369141,-1.37109 z m 10.958984,0 c -0.75672,4.7e-4 -1.369743,0.61437 -1.369141,1.37109 4.74e-4,0.75596 0.613182,1.36867 1.369141,1.36914 h 5.48047 c 0.75672,6e-4 1.37062,-0.61242 1.37109,-1.36914 6e-4,-0.75748 -0.61361,-1.37169 -1.37109,-1.37109 z m 10.96094,0 c -0.75749,-6.1e-4 -1.3717,0.6136 -1.3711,1.37109 4.7e-4,0.75672 0.61438,1.36975 1.3711,1.36914 h 5.48047 c 0.75596,-4.7e-4 1.36867,-0.61318 1.36914,-1.36914 6e-4,-0.75672 -0.61242,-1.37062 -1.36914,-1.37109 z m 10.95898,0 c -0.75672,4.7e-4 -1.36974,0.61437 -1.36914,1.37109 4.7e-4,0.75596 0.61318,1.36867 1.36914,1.36914 h 5.48047 c 0.75672,6e-4 1.37062,-0.61242 1.37109,-1.36914 6e-4,-0.75748 -0.61361,-1.37169 -1.37109,-1.37109 z"
         id="rect354"
         sodipodi:nodetypes="cccccccccccccccccccccccccccccccccccccccccsccccccsssccccccsscccccccscccccccccssccccccccccccccccccccccccccccccccccccccccccccccccccccccccccccccccccccccccccccccccccccscccccccsscccsccsccccccccccccccccccccccccsccccccsscccccccccccccccccccccccccccccccccccccccccc" /><path
         id="path2008"
         style="fill:#b2b2b2;stroke-width:2.46036;stroke-linecap:round;stroke-linejoin:round;stroke-dasharray:4.92073, 4.92073"
         d="M 139.41001 21.229976 A 18.510143 18.510143 0 0 0 120.90024 39.739742 A 18.510143 18.510143 0 0 0 139.41001 58.249508 A 18.510143 18.510143 0 0 0 157.91977 39.739742 A 18.510143 18.510143 0 0 0 139.41001 21.229976 z M 139.70297 28.10693 C 142.02965 28.10693 144.05549 29.476874 145.4061 31.423336 C 146.75671 33.369798 147.5311 35.937548 147.5311 38.745601 C 147.5311 41.553655 146.75671 44.119452 145.4061 46.065914 C 144.05549 48.012377 142.02965 49.38232 139.70297 49.38232 C 137.37631 49.382321 135.35241 48.012377 134.0018 46.065914 C 132.6512 44.119452 131.8768 41.553655 131.8768 38.745601 C 131.8768 35.937548 132.6512 33.369798 134.0018 31.423336 C 135.35241 29.476874 137.37631 28.10693 139.70297 28.10693 z M 139.70297 31.024898 C 138.51226 31.024898 137.35274 31.709916 136.39829 33.085445 C 135.44384 34.460976 134.79282 36.484465 134.79282 38.745601 C 134.79282 41.006738 135.44384 43.028274 136.39829 44.403805 C 137.35274 45.779334 138.51226 46.464351 139.70297 46.464351 C 140.8937 46.464351 142.05517 45.779334 143.00961 44.403805 C 143.96406 43.028274 144.61313 41.006738 144.61313 38.745601 C 144.61313 36.484465 143.96406 34.460976 143.00961 33.085445 C 142.05517 31.709916 140.8937 31.024898 139.70297 31.024898 z " /><path
         style="fill:none;fill-opacity:1;stroke:#b2b2b2;stroke-width:2.74;stroke-linecap:round;stroke-linejoin:round;stroke-dasharray:none;stroke-dashoffset:0;stroke-opacity:1"
         d="m 55.247581,22.711465 0.212515,15.088547"
         id="path2536" /><path
         style="fill:none;fill-opacity:1;stroke:#b2b2b2;stroke-width:2.74;stroke-linecap:round;stroke-linejoin:round;stroke-dasharray:none;stroke-dashoffset:0;stroke-opacity:1"
         d="M 31.977215,46.83189 47.065763,46.619374"
         id="path2536-2"
         sodipodi:nodetypes="cc" /><path
         style="fill:none;fill-opacity:1;stroke:#b2b2b2;stroke-width:2.74;stroke-linecap:round;stroke-linejoin:round;stroke-dasharray:none;stroke-dashoffset:0;stroke-opacity:1"
         d="M 38.565173,30.043224 49.403426,40.243932"
         id="path2536-7"
         sodipodi:nodetypes="cc" /></g><g
       id="g5138"
       transform="matrix(0.99543778,0,0,1.0942642,-7.8834555,-8.6614597)"><path
         style="fill:#b2b2b2;fill-opacity:1;stroke:#b2b2b2;stroke-width:5.44;stroke-linecap:round;stroke-linejoin:round;stroke-dasharray:none;stroke-dashoffset:0;stroke-opacity:1"
         d="M 123.33207,79.342891 V 100.98186"
         id="path5130" /><path
         style="fill:#b2b2b2;fill-opacity:1;stroke:#b2b2b2;stroke-width:2.74;stroke-linecap:round;stroke-linejoin:round;stroke-dasharray:none;stroke-dashoffset:0;stroke-opacity:1"
         d="M 113.33207,79.342891 V 100.98186"
         id="path5128" /><path
         style="fill:#b2b2b2;fill-opacity:1;stroke:#b2b2b2;stroke-width:5.44;stroke-linecap:round;stroke-linejoin:round;stroke-dasharray:none;stroke-dashoffset:0;stroke-opacity:1"
         d="M 103.33207,79.342891 V 100.98186"
         id="path5126" /><path
         style="fill:#b2b2b2;fill-opacity:1;stroke:#b2b2b2;stroke-width:2.74;stroke-linecap:round;stroke-linejoin:round;stroke-dasharray:none;stroke-dashoffset:0;stroke-opacity:1"
         d="M 93.332066,79.342891 V 100.98186"
         id="path5124" /><path
         style="fill:#b2b2b2;fill-opacity:1;stroke:#b2b2b2;stroke-width:2.74;stroke-linecap:round;stroke-linejoin:round;stroke-dasharray:none;stroke-dashoffset:0;stroke-opacity:1"
         d="M 83.332066,79.342891 V 100.98186"
         id="path5122" /><path
         style="fill:#b2b2b2;fill-opacity:1;stroke:#b2b2b2;stroke-width:5.44;stroke-linecap:round;stroke-linejoin:round;stroke-dasharray:none;stroke-dashoffset:0;stroke-opacity:1"
         d="M 73.332066,79.342891 V 100.98186"
         id="path5107" /></g></g></svg>
