<?xml version="1.0" encoding="UTF-8" standalone="no"?>
<!-- Created with Inkscape (http://www.inkscape.org/) -->

<svg
   width="180"
   height="180"
   viewBox="0 0 180 180"
   version="1.1"
   id="svg5"
   xml:space="preserve"
   inkscape:version="1.2.1 (9c6d41e410, 2022-07-14, custom)"
   sodipodi:docname="foode.svg"
   xmlns:inkscape="http://www.inkscape.org/namespaces/inkscape"
   xmlns:sodipodi="http://sodipodi.sourceforge.net/DTD/sodipodi-0.dtd"
   xmlns="http://www.w3.org/2000/svg"
   xmlns:svg="http://www.w3.org/2000/svg"><sodipodi:namedview
     id="namedview7"
     pagecolor="#505050"
     bordercolor="#eeeeee"
     borderopacity="1"
     inkscape:showpageshadow="0"
     inkscape:pageopacity="0"
     inkscape:pagecheckerboard="0"
     inkscape:deskcolor="#505050"
     inkscape:document-units="px"
     showgrid="false"
     inkscape:zoom="1.8260717"
     inkscape:cx="-54.214739"
     inkscape:cy="102.40562"
     inkscape:window-width="1366"
     inkscape:window-height="695"
     inkscape:window-x="0"
     inkscape:window-y="0"
     inkscape:window-maximized="1"
     inkscape:current-layer="layer1" /><defs
     id="defs2"><inkscape:path-effect
       effect="offset"
       id="path-effect419"
       is_visible="true"
       lpeversion="1.2"
       linejoin_type="miter"
       unit="mm"
       offset="1.6"
       miter_limit="4"
       attempt_force_join="false"
       update_on_knot_move="true" /></defs><g
     inkscape:label="Layer 1"
     inkscape:groupmode="layer"
     id="layer1"><path
       style="fill:#d3ffab;stroke:none;fill-opacity:1"
       d="m 28.597656,1.171875 v 6.8085938 c 0,6.0029762 -0.04394,12.7642512 1.47461,19.3574222 2.592283,11.254813 9.544595,16.923706 17.804687,19.964843 -40.6718302,11.157579 -34.534279,66.443206 -21.410156,94.257816 6.864101,14.54777 21.234535,34.02407 40.470703,36.28711 8.855153,1.04178 16.092183,-2.29297 22.707031,-2.29297 7.286347,0 15.496689,3.99064 25.285159,1.86133 12.78872,-2.78249 23.84177,-13.33949 30.38672,-23.05664 16.08123,-23.87354 28.65264,-68.574144 5.71093,-94.394536 -8.30911,-9.352184 -19.84298,-14.116035 -31.7539,-14.496094 -3.95378,-0.126158 -7.95083,0.23361 -11.88477,1.068359 -3.40935,0.72343 -6.40527,1.961168 -9.199217,3.060547 0.278103,-0.853584 0.781702,-2.206455 1.001953,-2.58789 1.304534,-2.258297 9.693114,-4.80166 11.687504,-11.47461 1.73817,-5.816648 -1.38642,-10.730316 -7.20899,-10.984375 -4.270925,-0.186355 -9.557478,2.356739 -11.841795,4.332031 -0.447791,0.387104 -0.822596,0.822314 -1.236328,1.232422 C 90.33603,28.805822 90.076587,27.493891 89.679688,26.203125 81.767154,0.47034727 50.845976,3.8134806 35.357422,1.9746094 Z"
       id="path368"
       sodipodi:nodetypes="ccccccccccccsscccsccc" /><path
       style="display:inline;fill:#44aa00;stroke:none"
       d="m 34.644597,7.9806077 c 0,6.0238003 -0.0424,12.0874003 1.3194,18.0000003 5.3881,23.3933 32.8176,16.8197 49.6806,20 0,-6.01 0.043,-12.1852 -1.745,-18 -6.5,-21.1390003 -32.2762,-17.9842003 -49.255,-20.0000003 m 53,46.0000003 c 4.402,-1.2876 4.201,-6.343 6.31,-9.9954 2.339998,-4.0508 9.959003,-6.2625 11.130003,-10.1805 1.842,-6.1641 -7.572005,-1.8423 -9.301005,-0.3472 -5.879998,5.0831 -8.113998,13.076 -8.138998,20.5231 m -36,-1.5278 c -38.1106,8.2927 -32.0819,60.303802 -19.7083,86.527792 6.5042,13.785 19.2945,30.93 35.7083,32.861 7.837,0.922 14.509,-2.333 22,-2.333 8.233998,0 15.399003,3.871 24.000003,2 10.994,-2.392 20.554,-11.467 26.657,-20.528 15.154,-22.497 26.582,-64.064992 6.204,-86.999992 -9.466,-10.6543 -23.991,-14.4709 -37.861,-11.5278 -6.53801,1.3873 -13.221005,5.8223 -20.000003,5.375 -12.917,-0.8521 -23.212,-8.3752 -37,-5.375 m 6,4.7871 c 10.88,-1.4566 19.591,5.3166 30,5.7222 20.165003,0.7857 37.763003,-14.7649 54.847003,5.0185 5.98,6.925 7.416,15.277 8.287,24 2.636,26.380002 -11.509,70.493992 -42.134,74.735992 -6.32501,0.876 -11.836005,-2.489 -18.000003,-2.717 -6.215,-0.231 -11.789,3.087 -18,2.902 -16.2102,-0.481 -28.122,-15.665 -34.75,-28.921 -12.6905,-25.38099 -18.8927,-75.567492 19.75,-80.740692 m 30,21.1897 c -12.112,1.78 -22.048,17.275 -16.523,29.333002 1.154,2.51999 4.373,2.078 6.305,3.695 6.169,5.161 9.189,8.9 19.134998,6.305 3.246,-0.846 2.989,-4.371 5.300995,-6.305 1.93201,-1.617 5.15101,-1.17501 6.30501,-3.695 5.952,-12.991002 -6.20101,-31.438002 -20.523003,-29.333002 m -6.935,15.917 c 5.853,-1.252 8.862,7.207002 2.87,9.134002 -6.033,1.94 -9.401,-7.738002 -2.87,-9.134002 m 14.999998,0.129 c 6.236995,-2.139 9.203005,7.035002 2.912,9.005002 -5.858998,1.834 -8.815998,-6.979002 -2.912,-9.005002 m -6.064998,10.505002 2,6 h -4 l 2,-6 m -29,18 21,4 v 1.99999 l -15.306,4.083 2.306,8.917 c 7.162,3.581 11.392,-8.217 20,-9.296 3.834,-0.481 9.975998,2.318 12.781993,4.861 1.83901,1.666 2.28401,5.982 5.27801,5.875 3.305,-0.119 7.805,-9.541 5.44,-11.94 -1.655,-1.68 -11.49301,-1.721 -14.500005,-2.5 v -1.99999 c 4.449995,-1.19301 8.513005,-3.989 13.000005,-4.94 2.357,-0.499 5.546,1.145 7.519,-0.59701 2.679,-2.36699 -1.686,-12.71799 -5.459,-11.829 -2.695,0.63601 -3.378,4.119 -5.273,5.80101 -3.662,3.252 -13.807003,8.54499 -18.787003,7.847 -4.923,-0.68901 -13.084,-4.559 -16.787,-7.847 -2.099,-1.864 -3.287,-6.929 -7,-5.72201 -3.885,1.26201 -4.983,10.06701 -4.213,13.28701 z"
       id="path417" /></g></svg>
