<?xml version="1.0" encoding="UTF-8" standalone="no"?>
<!-- Created with Inkscape (http://www.inkscape.org/) -->

<svg
   width="180"
   height="180"
   viewBox="0 0 180 180"
   version="1.1"
   id="svg5"
   xml:space="preserve"
   inkscape:version="1.2.2 (732a01da63, 2022-12-09)"
   sodipodi:docname="foode_forground.svg"
   xmlns:inkscape="http://www.inkscape.org/namespaces/inkscape"
   xmlns:sodipodi="http://sodipodi.sourceforge.net/DTD/sodipodi-0.dtd"
   xmlns="http://www.w3.org/2000/svg"
   xmlns:svg="http://www.w3.org/2000/svg"><sodipodi:namedview
     id="namedview7"
     pagecolor="#ffffff"
     bordercolor="#000000"
     borderopacity="0.25"
     inkscape:showpageshadow="2"
     inkscape:pageopacity="0.0"
     inkscape:pagecheckerboard="0"
     inkscape:deskcolor="#d1d1d1"
     inkscape:document-units="px"
     showgrid="false"
     showguides="false"
     inkscape:zoom="2.8284271"
     inkscape:cx="-0.53033008"
     inkscape:cy="73.008775"
     inkscape:window-width="1920"
     inkscape:window-height="1001"
     inkscape:window-x="-9"
     inkscape:window-y="-9"
     inkscape:window-maximized="1"
     inkscape:current-layer="g1430" /><defs
     id="defs2" /><g
     id="g1430"
     transform="translate(0,0.88340896)"><path
       id="path1351"
       style="opacity:1;fill:#44aa00;fill-opacity:1;stroke:none;stroke-width:4.8;stroke-linecap:round;stroke-linejoin:round;stroke-dasharray:none;stroke-opacity:1"
       d="M 73.328125 65.442763 C 73.328125 65.442763 66.975145 73.727717 66.533203 84.864638 C 66.091262 96.001559 69.146635 107.36118 68.962891 112.75136 C 68.350923 130.7035 65.381184 132.76856 65.339844 135.06776 C 65.219034 141.78683 64.72071 152.08424 66.974609 155.57558 C 68.370823 157.73833 80.556468 158.27128 90 158.35487 C 99.443531 158.27127 111.62917 157.73833 113.02539 155.57558 C 115.27929 152.08424 114.78097 141.78683 114.66016 135.06776 C 114.61886 132.76856 111.64908 130.7035 111.03711 112.75136 C 110.85337 107.36118 113.90874 96.001559 113.4668 84.864638 C 113.02486 73.727717 106.67187 65.442763 106.67188 65.442763 L 73.328125 65.442763 z M 91.650391 92.800185 C 94.929844 92.800185 97.547031 93.191263 99.503906 93.974013 C 100.40812 94.338397 100.86133 94.986169 100.86133 95.917372 C 100.86133 96.4572 100.68487 96.936506 100.33398 97.354872 C 99.942609 97.813726 99.457268 98.042372 98.876953 98.042372 C 98.688013 98.042372 98.479427 98.008288 98.25 97.94081 C 95.969228 97.293016 93.769215 96.970107 91.650391 96.970107 C 90.543744 96.970107 89.334473 97.070406 88.025391 97.272841 C 86.716308 97.475276 85.30644 97.786115 83.794922 98.204482 C 83.916383 99.081702 83.978516 99.783618 83.978516 100.30995 C 83.978516 102.18585 83.862239 104.76292 83.632812 108.04237 L 92.5 107.19276 C 95.104669 106.92285 96.703064 106.78847 97.296875 106.78847 C 97.890686 106.78847 98.390051 106.97699 98.794922 107.35487 C 99.199793 107.73275 99.402344 108.23815 99.402344 108.87245 C 99.402344 110.10056 98.782619 110.78845 97.541016 110.9369 L 92.722656 111.36268 L 83.371094 112.21229 C 83.317111 113.17049 83.269003 114.08294 83.228516 114.94667 C 83.201524 115.7969 83.1875 116.59308 83.1875 117.33534 C 83.1875 120.31789 83.404075 122.07073 83.835938 122.59706 C 84.159834 122.97494 85.218745 123.16542 87.013672 123.16542 C 87.850405 123.16542 89.105831 123.14536 90.779297 123.10487 C 92.466259 123.05089 93.735709 123.02284 94.585938 123.02284 C 94.855851 123.02284 95.252965 122.98272 95.779297 122.90175 C 96.305629 122.80728 96.696707 122.75917 96.953125 122.75917 C 98.383669 122.75917 99.099609 123.46109 99.099609 124.86464 C 99.099609 125.99828 98.52604 126.68013 97.378906 126.90956 C 96.110311 127.16598 93.362824 127.29433 89.138672 127.29433 C 84.955007 127.29433 82.269652 126.74082 81.082031 125.63417 C 79.786445 124.43305 79.138672 121.66746 79.138672 117.33534 C 79.138672 116.47162 79.158732 115.52703 79.199219 114.50136 C 79.239706 113.47568 79.29385 112.36867 79.361328 111.18104 C 79.212875 110.87064 79.138672 110.53974 79.138672 110.18886 C 79.138672 109.73 79.267019 109.31887 79.523438 108.95448 C 79.793351 105.05423 79.929688 102.17236 79.929688 100.30995 C 79.929688 99.81061 79.861519 99.080645 79.726562 98.12245 C 79.591606 97.15076 79.523438 96.416713 79.523438 95.917372 C 79.523438 94.311385 80.199259 93.507216 81.548828 93.507216 C 82.115647 93.507216 82.600989 93.703732 83.005859 94.095107 C 84.625343 93.663244 86.149535 93.338382 87.580078 93.12245 C 89.024117 92.906519 90.381795 92.800185 91.650391 92.800185 z " /><path
       style="opacity:1;fill:none;fill-opacity:1;stroke:#44aa00;stroke-width:4.8;stroke-linecap:round;stroke-linejoin:round;stroke-dasharray:none;stroke-opacity:1"
       d="m 78.5979,28.898325 c 0,0 -0.08839,15.351305 -3.270368,24.543693 -3.21881,9.298785 -8.352699,20.285126 -8.794641,31.422058 -0.441942,11.136932 2.614425,22.496344 2.43068,27.886524 -0.611968,17.95216 -3.582582,20.01885 -3.623922,22.31806 -0.12081,6.71907 -0.618718,17.01475 1.635184,20.50609 1.396215,2.16276 13.581627,2.69693 23.025168,2.78052 9.44354,-0.0836 21.628949,-0.61776 23.025169,-2.78052 2.2539,-3.49134 1.75599,-13.78702 1.63518,-20.50609 -0.0413,-2.29921 -3.01195,-4.3659 -3.62392,-22.31806 -0.18374,-5.39018 2.87262,-16.749592 2.43068,-27.886524 -0.44194,-11.136932 -5.57583,-22.123273 -8.79464,-31.422058 -3.18198,-9.192388 -3.27037,-24.543693 -3.27037,-24.543693 z"
       id="path1418"
       sodipodi:nodetypes="cssssscscssscc" /><path
       style="fill:#44aa00;stroke-width:1.13078;fill-opacity:1"
       d="M 89.999997,23.78299 76.006929,23.8125 c 0,0 0.955679,-6.295006 2.816232,-6.302308 3.425821,-0.01344 7.670765,-0.02445 11.176836,-0.03228 3.506072,0.0079 7.751025,0.01884 11.176843,0.03228 1.86055,0.0073 2.81623,6.302308 2.81623,6.302308 z"
       id="path472"
       sodipodi:nodetypes="ccscscc" /></g><g
     inkscape:label="Layer 1"
     inkscape:groupmode="layer"
     id="layer1" /></svg>
