<?xml version="1.0" encoding="UTF-8"?>
<!-- Created with Inkscape (http://www.inkscape.org/) -->
<svg id="SVGRoot" width="180px" height="180px" version="1.1" viewBox="0 0 180 180" xml:space="preserve" xmlns="http://www.w3.org/2000/svg"><g fill="#0d7842" stroke-width=".451"><path d="m91 81.2c-0.35-7.45-10.6-20.9-11.2-14.7-0.445 4.59-6.86 2.65-8.37-2.53-1.78-6.11 3.64-10.5 9.49-7.66 7.31 3.54 12.7 16 10.6 24.3-0.276 1.06-0.428 1.25-0.459 0.596z"/><path d="m46.2 105c-9.55-1.21-12.3-6.95-7.9-16.2l1.4-2.93 0.579 3.12c1.63 8.75 17.6 11.9 22 4.32 2.16-3.67 1.45-33-0.907-37.7l-1.26-2.49 3.47-7.13 3.3 2.28c3.8 2.63 3.67 2.26 2.06 5.9l-1.24 2.8-0.238 17.8c-0.224 16.8-0.292 17.9-1.19 20.2-2.99 7.37-10.7 11.2-20.1 10z"/><path d="m76.8 108c-6.63-2.37-8.78-7.41-6.66-15.7 0.701-2.74 3.3-8.91 3.76-8.91 0.0583-4.5e-5 0.106 2.59 0.106 5.75 0 9.04 2.38 11.5 11.2 11.4 9.52-0.0301 9.62-0.327 8.95-27.8-0.605-25-0.738-23.5 2.52-27.1l1.3-1.44 0.297 13.8c0.163 7.61 0.298 16.2 0.298 19 0.0024 9.51 1.25 10.5 12.6 10.3 8.14-0.177 9.92-0.549 9.92-2.07-9e-3 -1.98-4.69-3.53-6.55-2.17-0.77 0.563-1.29 0.416-4.84-1.37l-3.98-2 0.927-1.3c4.91-6.89 9.55-6.73 20.4 0.712 6.96 4.78 10.9 6.8 14 7.21 2.61 0.347 2.71-0.227-0.855 5.13l-3 4.5-1.17-1.17c-3.69-3.69-8.85-4.1-17.2-1.34-9.06 3-13.8 3.37-17.6 1.41-1.76-0.912-2.4-0.586-3.78 1.93-5.1 9.31-13.4 13.8-20.7 11.2z"/><path d="m119 127v-9.02h3.83v14.9h7.44v3.16h-11.3z"/><path d="m99.7 135c2.59-8.48 4.47-14.6 4.84-15.8 0.451-1.43 0.519-1.47 3.09-1.47h2.63l1.13 3.49c1.64 5.05 4.35 13.9 4.35 14.3 0 1.56-4.07 0.0935-4.57-1.64-0.797-2.79-1.12-3.04-3.81-3.04h-2.41l-1.44 4.96h-2.03c-1.72 0-1.99-0.119-1.79-0.789zm9.08-10.2c-1.26-4.37-1.34-4.4-2.2-0.997-0.398 1.58-0.852 3.21-1.01 3.62-0.242 0.631 0.056 0.745 1.95 0.745h2.23z"/><path d="m86.4 127v-9.02h4.06v14.9h7.21v3.16h-11.3z"/><path d="m67.7 135c0.144-0.572 1.34-4.58 2.65-8.9l2.39-7.86 5.47-0.267 1.64 5.32c0.904 2.92 2.13 6.9 2.74 8.84 0.602 1.93 1.09 3.61 1.09 3.72 0 1.75-4.05-0.0782-4.8-2.16l-0.851-2.37h-5.32l-1.32 4.73h-1.98c-1.84 0-1.96-0.072-1.72-1.04zm9.67-7.15c0-0.288-0.33-1.66-0.734-3.04-0.404-1.39-0.814-2.8-0.912-3.15-0.274-0.965-0.561-0.42-1.31 2.48-0.376 1.46-0.793 3.02-0.925 3.45-0.205 0.671 0.0655 0.789 1.82 0.789 1.26 0 2.06-0.202 2.06-0.524z"/><path d="m49.9 127v-9.02h4.15l-0.321 6.54 6.99 0.264v-6.8h4.06v18h-4.06v-7.7l-6.99 0.264 0.0475 3.72 0.0475 3.72h-3.93z"/><path d="m77.9 172c-64.8-9.83-93.3-87.3-50.2-137 41.4-47.4 120-32 140 27.5 20.1 58.5-29.3 118-90.1 109zm18.9-1.6c67.3-6.15 98-87.5 51.3-136-44-45.7-121-25.6-136 35.7-13.7 53.5 30.2 105 85 100z"/></g></svg>
