<?xml version="1.0" encoding="UTF-8" standalone="no"?>
<!-- Created with Inkscape (http://www.inkscape.org/) -->

<svg
   width="180.0px"
   height="180.0px"
   viewBox="0 0 180.0 180.0"
   version="1.1"
   id="SVGRoot"
   sodipodi:docname="halal_certified.svg"
   xml:space="preserve"
   inkscape:version="1.2.2 (732a01da63, 2022-12-09)"
   xmlns:inkscape="http://www.inkscape.org/namespaces/inkscape"
   xmlns:sodipodi="http://sodipodi.sourceforge.net/DTD/sodipodi-0.dtd"
   xmlns="http://www.w3.org/2000/svg"
   xmlns:svg="http://www.w3.org/2000/svg"><sodipodi:namedview
     id="namedview187"
     pagecolor="#ffffff"
     bordercolor="#000000"
     borderopacity="0.25"
     inkscape:showpageshadow="2"
     inkscape:pageopacity="0.0"
     inkscape:pagecheckerboard="0"
     inkscape:deskcolor="#d1d1d1"
     inkscape:document-units="px"
     showgrid="true"
     inkscape:zoom="4.1625654"
     inkscape:cx="83.722408"
     inkscape:cy="95.493995"
     inkscape:window-width="1920"
     inkscape:window-height="1013"
     inkscape:window-x="-9"
     inkscape:window-y="-9"
     inkscape:window-maximized="1"
     inkscape:current-layer="layer1"><inkscape:grid
       type="xygrid"
       id="grid310" /></sodipodi:namedview><defs
     id="defs182" /><g
     inkscape:label="Layer 1"
     inkscape:groupmode="layer"
     id="layer1"><path
       style="fill:#0d7842;stroke-width:0.450827;fill-opacity:1"
       d="M 90.990078,81.207976 C 90.639632,73.753401 80.361519,60.283016 79.759891,66.489839 c -0.445178,4.592701 -6.860863,2.653617 -8.372501,-2.530501 -1.782335,-6.112579 3.638794,-10.487436 9.487278,-7.656235 7.312732,3.540035 12.741569,16.020219 10.574155,24.308662 -0.276367,1.056924 -0.427838,1.253769 -0.458745,0.596211 z"
       id="path1125" /><path
       style="fill:#0d7842;stroke-width:0.450827;fill-opacity:1"
       d="M 46.216634,104.95362 C 36.670418,103.74764 33.873896,98.006827 38.312021,88.726653 l 1.401399,-2.930376 0.579264,3.115368 c 1.627458,8.75293 17.557855,11.882425 21.999337,4.321749 2.157992,-3.673497 1.451426,-33.000475 -0.907395,-37.66258 l -1.261223,-2.492812 1.737376,-3.563464 1.7374,-3.563466 3.303858,2.283953 c 3.802536,2.628706 3.674377,2.262075 2.064072,5.904251 l -1.239786,2.804069 -0.237729,17.807669 C 67.264499,91.536416 67.196138,92.693809 66.297145,94.912341 63.309356,102.28575 55.602839,106.13938 46.216634,104.95362 Z"
       id="path1123" /><path
       style="fill:#0d7842;stroke-width:0.450827;fill-opacity:1"
       d="m 76.834237,108.36362 c -6.634825,-2.36669 -8.77564,-7.40917 -6.659085,-15.684811 0.700756,-2.739895 3.302192,-8.911069 3.756537,-8.911301 0.05833,-4.5e-5 0.106265,2.586572 0.106265,5.748034 0,9.038232 2.375513,11.463798 11.199884,11.435918 9.522118,-0.0301 9.617914,-0.32727 8.952554,-27.77422 -0.60499,-24.956406 -0.737988,-23.525008 2.522139,-27.14475 l 1.300092,-1.443483 0.296901,13.841228 c 0.163211,7.612691 0.297573,16.174261 0.298407,19.025741 0.0024,9.51478 1.245643,10.526929 12.623259,10.27957 8.13879,-0.176869 9.92115,-0.54866 9.91508,-2.067846 -0.009,-1.978394 -4.68865,-3.530568 -6.54769,-2.171234 -0.76955,0.562712 -1.29036,0.415616 -4.84007,-1.367159 l -3.97774,-1.997747 0.92728,-1.302245 c 4.90728,-6.891653 9.54512,-6.729603 20.38351,0.712192 6.96181,4.780079 10.8823,6.799192 14.0069,7.213836 2.61407,0.346883 2.70982,-0.227336 -0.8548,5.126474 l -2.99622,4.500146 -1.16801,-1.167999 c -3.69455,-3.694541 -8.84777,-4.096822 -17.18421,-1.341531 -9.06241,2.995243 -13.7537,3.37104 -17.55341,1.40612 -1.762844,-0.911585 -2.401189,-0.58584 -3.776957,1.927324 -5.097839,9.312333 -13.39089,13.775883 -20.730569,11.157743 z"
       id="path1121" /><path
       style="fill:#0d7842;stroke-width:0.450827;fill-opacity:1"
       d="m 118.66978,126.59613 v -9.01655 h 1.916 1.91603 v 7.43867 7.43864 h 3.71933 3.71931 v 1.57791 1.57787 h -5.63534 -5.63533 z"
       id="path1119" /><path
       style="fill:#0d7842;stroke-width:0.450827;fill-opacity:1"
       d="m 99.689925,134.82374 c 2.591965,-8.48374 4.470745,-14.61081 4.838415,-15.77897 0.45106,-1.43314 0.51873,-1.46519 3.09412,-1.46519 h 2.63299 l 1.13353,3.49394 c 1.63785,5.04836 4.35042,13.9423 4.35042,14.26403 0,1.55634 -4.07317,0.0935 -4.5691,-1.64087 -0.79672,-2.78641 -1.11841,-3.04309 -3.81378,-3.04309 h -2.41178 l -0.72082,2.47954 -0.72083,2.47954 h -2.0271 c -1.72187,0 -1.990828,-0.11872 -1.786065,-0.78893 z m 9.078605,-10.24551 c -1.25932,-4.36615 -1.34409,-4.40461 -2.19997,-0.99745 -0.39759,1.58282 -0.85152,3.2131 -1.00876,3.62287 -0.24213,0.63098 0.056,0.74497 1.94749,0.74497 h 2.23337 z"
       id="path1117" /><path
       style="fill:#0d7842;stroke-width:0.450827;fill-opacity:1"
       d="m 86.435645,126.59613 v -9.01655 h 2.028723 2.028722 v 7.43867 7.43864 h 3.606615 3.606617 v 1.57791 1.57787 h -5.635338 -5.635339 z"
       id="path1115" /><path
       style="fill:#0d7842;stroke-width:0.450827;fill-opacity:1"
       d="m 67.744844,134.57233 c 0.143536,-0.57215 1.338011,-4.57887 2.654238,-8.90381 l 2.393107,-7.86351 2.732766,-0.13338 2.732789,-0.13339 1.642761,5.31789 c 0.90353,2.92488 2.134936,6.90066 2.73647,8.83514 0.601535,1.93441 1.09371,3.60813 1.09371,3.71929 0,1.74787 -4.045314,-0.0782 -4.795311,-2.16469 l -0.850816,-2.36685 h -2.662412 -2.662413 l -0.658416,2.36685 -0.658438,2.36685 h -1.979572 c -1.84241,0 -1.961494,-0.072 -1.718463,-1.04035 z m 9.674261,-7.14762 c 0,-0.28815 -0.330285,-1.65753 -0.733977,-3.04308 -0.403693,-1.38556 -0.814217,-2.80181 -0.91228,-3.14724 -0.27389,-0.96491 -0.561068,-0.42031 -1.305648,2.47585 -0.376215,1.46325 -0.792525,3.01552 -0.925153,3.44944 -0.205341,0.6714 0.06551,0.78894 1.817963,0.78894 1.263676,0 2.059095,-0.20233 2.059095,-0.52391 z"
       id="path1113" /><path
       style="fill:#0d7842;stroke-width:0.450827;fill-opacity:1"
       d="m 49.918654,126.59613 v -9.01655 h 2.076736 2.076758 l -0.160664,3.26851 -0.160661,3.26851 3.493899,0.1318 3.49392,0.13181 v -3.40016 -3.40017 h 2.028723 2.028721 v 9.01655 9.01654 h -2.028721 -2.028723 v -3.85099 -3.85102 l -3.49392,0.1318 -3.493899,0.13181 0.04746,3.71931 0.04746,3.71934 H 51.88233 49.918915 Z"
       id="path1111" /><path
       style="fill:#0d7842;stroke-width:0.450827;fill-opacity:1"
       d="M 77.943642,171.8957 C 13.110363,162.06546 -15.324807,84.607165 27.777174,35.240607 69.159389,-12.156217 147.52522,3.2382281 168.01528,62.789465 188.13367,121.26041 138.72425,181.11133 77.943642,171.89562 Z m 18.861027,-1.59523 C 164.1213,164.14863 194.76629,82.845829 148.05923,34.319344 104.09914,-11.353182 27.516363,8.7159597 11.837282,70.0174 -1.8520174,123.53931 42.010197,175.30779 96.804669,170.30039 Z"
       id="path1109" /></g></svg>
