<?xml version="1.0" encoding="UTF-8" standalone="no"?>
<!-- Created with Inkscape (http://www.inkscape.org/) -->

<svg
   width="192.0px"
   height="192.0px"
   viewBox="0 0 192.0 192.0"
   version="1.1"
   id="SVGRoot"
   sodipodi:docname="cheems.svg"
   xml:space="preserve"
   inkscape:version="1.2.2 (b0a8486541, 2022-12-01)"
   inkscape:export-filename="../../../Downloads/cheems.png"
   inkscape:export-xdpi="96"
   inkscape:export-ydpi="96"
   xmlns:inkscape="http://www.inkscape.org/namespaces/inkscape"
   xmlns:sodipodi="http://sodipodi.sourceforge.net/DTD/sodipodi-0.dtd"
   xmlns="http://www.w3.org/2000/svg"
   xmlns:svg="http://www.w3.org/2000/svg"><sodipodi:namedview
     id="namedview261"
     pagecolor="#ffffff"
     bordercolor="#000000"
     borderopacity="0.25"
     inkscape:showpageshadow="2"
     inkscape:pageopacity="0.0"
     inkscape:pagecheckerboard="0"
     inkscape:deskcolor="#d1d1d1"
     inkscape:document-units="px"
     showgrid="true"
     inkscape:zoom="1.3465948"
     inkscape:cx="34.902853"
     inkscape:cy="106.9364"
     inkscape:window-width="1920"
     inkscape:window-height="1011"
     inkscape:window-x="0"
     inkscape:window-y="0"
     inkscape:window-maximized="1"
     inkscape:current-layer="layer1"><inkscape:grid
       type="xygrid"
       id="grid384" /></sodipodi:namedview><defs
     id="defs256" /><g
     inkscape:label="Layer 1"
     inkscape:groupmode="layer"
     id="layer1"><path
       style="color:#000000;display:inline;fill:#f0e7c3;stroke-width:6.29291;stroke-linejoin:round;-inkscape-stroke:none"
       d="m 9.8001644,191.8769 c 0,0 -4.2630776,-45.76317 8.7685676,-59.83258 C 20.116127,94.391057 28.884695,86.654085 30.947887,74.27493 33.01108,61.895775 23.726714,22.695117 33.01108,15.473944 c 9.284366,-7.221174 27.3373,5.673779 30.947887,12.379155 3.610587,6.705375 -1.044249,-0.368751 4.642183,4.642183 5.686433,5.010934 32.52963,2.614087 36.10587,0 3.57623,-2.614087 -0.5158,-28.368897 13.41075,-25.7899064 13.92655,2.5789906 12.37916,9.2843664 11.86336,16.5055404 -0.5158,7.221173 -4.64219,9.284366 0.5158,15.989741 5.15798,6.705376 13.41075,-3.610586 24.75831,13.410752 11.34755,17.021338 17.02133,43.84284 16.50554,66.022161 -0.5158,22.17932 -13.93353,15.15924 -1.5474,50.54821 3.61058,10.31597 11.86336,22.69513 11.86336,22.69513 z"
       id="path5541" /><path
       style="display:inline;opacity:1;fill:#f5c770;fill-opacity:1;stroke:#f5c770;stroke-width:2.51339;stroke-linejoin:round;stroke-dasharray:none;stroke-opacity:1"
       d="m 164.0238,132.04432 c 0,0 -19.08453,22.17932 -20.11612,29.40049 -1.0316,7.22118 5.15798,20.11613 -26.30571,20.63193 -31.463683,0.5158 -42.811242,-1.0316 -42.811242,-9.28437 0,-8.25277 -11.347559,-10.31596 -11.347559,-10.31596 0,0 -12.894953,-1.5474 -13.926549,2.57899 -1.031596,4.12638 0,10.83176 6.705375,15.98974 6.705376,5.15798 4.642184,9.80017 4.642184,9.80017 L 34.558474,191.8769 44.874437,62.411573 103.67542,39.716456 h 23.21092 l 25.7899,6.705375 15.98975,39.200658 c 0,0 -3.61059,7.221173 -9.28437,2.063192 -5.67378,-5.157981 -2.57899,-24.75831 -10.31596,-25.789906 -7.73697,-1.031596 -9.28437,9.800164 -6.18958,17.021338 3.09479,7.221174 8.76857,14.442347 8.76857,14.442347 0,0 5.15798,17.02134 0.5158,26.8215 -4.64219,9.80017 -18.05294,13.92655 -27.3373,14.44235 -9.28437,0.5158 -9.80017,-3.61059 -11.86336,-10.83176 -2.06319,-7.22117 6.70537,-4.12639 11.86336,-7.73697 5.15798,-3.61059 9.28436,-11.86336 5.15798,-19.600331 -4.12639,-7.736972 -9.28437,-9.284366 -16.50554,-5.673779 -7.22118,3.610587 -39.716458,-3.094789 -49.516623,-1.031596 -9.800164,2.063192 -13.410751,7.736971 -11.347558,18.052936 2.063192,10.31596 18.568732,21.66352 31.463685,29.91629 12.894953,8.25277 20.116126,20.11613 39.716456,18.56873 19.60033,-1.54739 31.97948,-26.8215 37.13746,-27.8531 5.15799,-1.03159 3.09479,3.61059 3.09479,3.61059 z"
       id="path9083" /><path
       style="display:inline;opacity:1;fill:#edb444;fill-opacity:1;stroke:#edb444;stroke-width:2.51339;stroke-linejoin:round;stroke-dasharray:none;stroke-opacity:1"
       d="m 65.506362,187.23472 c 0,0 -27.337301,-8.25277 -27.853099,-17.02134 -0.515798,-8.76857 17.021338,-2.57899 28.884695,-7.73697 11.863357,-5.15798 4.642183,-22.69512 4.642183,-22.69512 L 48.485024,116.05458 c 0,0 -7.221174,-8.76857 -3.610587,-20.116129 3.610587,-11.347559 15.989742,-28.368897 22.179319,-32.495282 6.189578,-4.126385 9.284366,-13.410751 21.147723,-14.442347 11.863361,-1.031596 17.537141,5.673779 23.726711,7.221173 6.18958,1.547395 12.89496,-10.315962 16.50554,-13.410751 3.61059,-3.094788 0.5158,-31.463685 0.5158,-31.463685 L 114.50718,5.1579812 103.67542,32.495282 71.180141,35.074272 41.26385,12.379155 32.495282,16.50554 31.463686,71.180141 19.084531,116.05458 v 17.02134 L 10.315962,149.06566 9.2843662,191.3611 H 63.958967 Z"
       id="path6314" /><path
       style="display:inline;opacity:1;fill:#d08620;fill-opacity:1;stroke:#d08620;stroke-width:2.51339;stroke-linejoin:round;stroke-dasharray:none;stroke-opacity:1"
       d="m 50.032418,25.789906 c 0,0 6.189577,10.315963 11.863357,13.410751 5.673779,3.094789 24.75831,4.642184 24.75831,4.642184 0,0 -14.442348,-0.515799 -21.147723,7.221173 -6.705376,7.736972 -27.853099,24.75831 -27.853099,40.232254 0,15.473942 19.600329,53.643002 23.210916,57.769392 3.610586,4.12638 -9.800165,14.44235 -15.473944,10.83176 -5.673779,-3.61059 -20.631925,-20.63193 -20.631925,-20.63193 0,0 -3.610587,14.95815 -3.094789,26.82151 0.515798,11.86335 21.663521,25.2741 21.663521,25.2741 l -34.5584739,-1.03159 2.5789909,-47.45343 9.284366,-13.92655 2.578991,-27.8531 c 0,0 13.410751,-26.305702 13.926549,-35.590068 0.515798,-9.284367 -3.094789,-28.368897 -0.515798,-36.621667 2.57899,-8.25277 3.610587,-9.284366 7.221174,-8.768568 3.610586,0.515798 6.189577,5.673779 6.189577,5.673779 z"
       id="path4024" /><path
       style="color:#000000;display:inline;fill:#5f3d0f;stroke-linejoin:round;-inkscape-stroke:none"
       d="m 115.50977,3.4570313 c -3.05996,0.2753105 -5.69387,1.7738331 -7.3418,3.8886718 -2.19724,2.8197849 -3.11043,6.3076149 -3.73242,9.7480469 -0.622,3.440432 -0.88261,6.898905 -1.20508,9.523437 -0.16124,1.312267 -0.34743,2.41947 -0.5293,3.089844 -0.0578,0.212981 -0.1029,0.261396 -0.15429,0.353516 -0.10742,0.03579 -0.3224,0.160242 -1.03711,0.361328 -0.92335,0.259783 -2.193402,0.53382 -3.66602,0.777344 -2.945235,0.487047 -6.711369,0.866793 -10.517578,1.011718 -3.80621,0.144926 -7.671471,0.05144 -10.78125,-0.353515 -3.10978,-0.404956 -5.456289,-1.364011 -5.863281,-1.722656 -1.329742,-1.17178 -2.117646,-1.790198 -3.183594,-2.257813 -0.245897,-0.490771 -0.309833,-0.661899 -0.769531,-1.515625 -2.443954,-4.538771 -8.042285,-9.296316 -14.673829,-12.716797 -3.315771,-1.71024 -6.878974,-3.00449 -10.49414,-3.357422 -3.615166,-0.3529313 -7.411098,0.315837 -10.480469,2.703125 -3.610681,2.808308 -4.650654,7.456346 -5.150391,12.677735 -0.499736,5.221389 -0.253548,11.306188 0.203125,17.503906 0.456674,6.197718 1.136592,12.494843 1.566407,17.955078 0.429814,5.460236 0.553146,10.179171 0.144531,12.630859 -1.84236,11.054162 -10.654396,19.955969 -12.347656,57.146488 -7.0930232,8.57574 -8.7887884,23.23633 -9.3417971,36.19726 -0.5736935,13.44573 0.5136718,25.06641 0.5136718,25.06641 a 3.1467697,3.1467697 0 0 0 3.1328126,2.85547 H 182.07617 a 3.1467697,3.1467697 0 0 0 2.61914,-4.89258 c 0,0 -8.13573,-12.34257 -11.51172,-21.98828 -6.09745,-17.42133 -5.68482,-23.43591 -4.05859,-28.16602 1.62623,-4.7301 5.50843,-9.53818 5.78125,-21.26953 0.52963,-22.77441 -5.10795,-49.953909 -17.0332,-67.841796 -6.0318,-9.047687 -12.28649,-11.516848 -17.02344,-11.960937 -2.36848,-0.222045 -4.26238,-0.115085 -5.45508,-0.28711 -1.1927,-0.172024 -1.59976,-0.288083 -2.4043,-1.333984 -2.23667,-2.907667 -2.12223,-3.621254 -1.79296,-5.267578 0.32926,-1.646324 1.623,-4.39597 1.92187,-8.580078 0.2469,-3.456582 1.01609,-7.456484 -0.7793,-11.496094 -1.79538,-4.0396102 -6.18457,-6.9459279 -13.64843,-8.3281249 -1.09412,-0.2026148 -2.16166,-0.246067 -3.18164,-0.1542968 z m 2.03515,6.3417968 c 6.46267,1.1967909 8.26132,2.9341529 9.04492,4.6972659 0.78361,1.763113 0.52086,4.72565 0.25196,8.490234 -0.21694,3.037057 -1.24303,4.928017 -1.81641,7.794922 -0.57338,2.866905 0.0572,6.540189 2.97852,10.337891 1.77445,2.306784 4.3322,3.415026 6.49218,3.726562 2.15999,0.311536 4.00772,0.159415 5.76563,0.324219 3.51581,0.329607 7.05924,1.213866 12.375,9.1875 10.76983,16.154755 16.48046,42.618939 15.97851,64.203128 -0.24297,10.44795 -3.32635,13.21917 -5.4414,19.37109 -2.11505,6.15192 -2.21835,14.32145 4.07031,32.28906 2.60446,7.44133 6.4539,14.05942 9.20313,18.50977 H 12.755859 c -0.248111,-3.26378 -0.758294,-10.95701 -0.314453,-21.35938 0.552678,-12.95318 3.191667,-27.52798 8.435547,-33.18945 a 3.1467697,3.1467697 0 0 0 0.835938,-2.00781 c 1.528095,-37.18364 10.071985,-43.785427 12.33789,-57.380861 0.622981,-3.737883 0.362469,-8.562981 -0.07813,-14.160157 -0.440594,-5.597175 -1.116528,-11.871353 -1.5625,-17.923828 -0.445972,-6.052475 -0.651943,-11.894878 -0.216797,-16.441406 0.435147,-4.546528 1.718503,-7.508271 2.75,-8.310547 1.572808,-1.223294 3.512048,-1.649709 6.00586,-1.40625 2.493812,0.243459 5.411378,1.23848 8.220703,2.6875 5.61865,2.898041 10.852902,7.940824 12.019531,10.107422 0.878337,1.631198 1.228059,2.379647 1.345703,2.642578 0.02941,0.06573 0.04321,0.09715 0.05664,0.128906 0.0067,0.01588 0.0097,0.02606 0.03516,0.08398 0.01274,0.02896 0.02602,0.06128 0.08789,0.18164 0.03093,0.06018 0.189067,0.31974 0.189453,0.320313 1.93e-4,2.86e-4 0.335787,0.417812 0.335937,0.417969 1.5e-4,1.57e-4 1.417859,0.853484 1.417969,0.853515 1.9e-5,6e-6 0.40396,-0.132264 0.560547,-0.183593 -0.08442,-0.0025 0.220906,0.111136 1.302734,1.064453 2.436222,2.146819 5.576558,2.768918 9.210938,3.242187 3.63438,0.47327 7.769615,0.555071 11.832031,0.400391 4.062416,-0.154681 8.033311,-0.550816 11.304688,-1.091797 1.635692,-0.27049 3.094342,-0.573709 4.345702,-0.925781 1.25137,-0.352072 2.23809,-0.632833 3.34961,-1.445313 1.55601,-1.137381 1.87768,-2.451318 2.21094,-3.679687 0.33326,-1.228369 0.52553,-2.54115 0.70117,-3.970703 0.35129,-2.859108 0.60755,-6.169224 1.15039,-9.171875 0.54285,-3.002652 1.44177,-5.634414 2.50586,-7 1.0641,-1.3655872 1.82533,-1.8930974 4.41211,-1.4140629 z M 62.419922,30.40625 c -0.0023,0.03076 -0.01222,0.07078 -0.01367,0.09961 0.0018,-0.02132 0.0059,-0.08011 0.0059,-0.08008 0,3e-6 0.0076,-0.01901 0.0078,-0.01953 z m -0.04687,0.650391 c 0.0076,0.09341 0.01325,0.204874 0.02148,0.261718 -0.0053,-0.03138 -0.0086,-0.02864 -0.01758,-0.162109 -0.0016,-0.0235 -0.0027,-0.05457 -0.0039,-0.09961 z M 68.494141,31.75 c -0.0033,0.0095 -0.0064,0.01588 -0.0098,0.02539 0.0037,-0.0085 0.0063,-0.01741 0.0098,-0.02539 z m -0.955079,1.279297 c -0.02734,0.02211 -0.02203,0.04651 -0.05078,0.06836 -0.722823,0.549216 -1.358035,0.59828 -1.859375,0.558594 0.787885,-0.258293 1.457176,-0.478414 1.910156,-0.626953 z"
       id="path5543" /><path
       style="fill:#d08721"
       d="m 324.71061,111.87015 0.002,-8.5492 3.5,0.40861 3.5,0.4086 v 1.3906 1.39059 h 5.5 5.5 v 3.93358 3.93358 l -2.75,0.31642 -2.75,0.31642 -0.3083,2.16412 -0.30829,2.16412 -5.94353,0.33588 -5.94352,0.33588 0.002,-8.5492 z m 17.00182,-3.4508 c 0,-0.275 -0.225,-0.5 -0.5,-0.5 -0.275,0 -0.5,0.225 -0.5,0.5 0,0.275 0.225,0.5 0.5,0.5 0.275,0 0.5,-0.225 0.5,-0.5 z"
       id="path10958"
       transform="translate(-189.29791,-1.5473944)" /><path
       style="fill:#070707"
       d="m 300.93845,124.93845 v -2 h 16 16 v 2 2 h -16 -16 z m -5,-5 v -2 h 2 2 v 2 2 h -2 -2 z m 38,0 v -2 h 4.5 4.5 v 2 2 h -4.5 -4.5 z m 1.75,-12.74155 -6.75,-0.34983 v -1.95431 -1.95431 h -4.5 -4.5 v -4.499999 -4.5 h 7 c 3.85,0 6.94671,0.3375 6.88158,0.75 -0.0651,0.4125 -0.0651,1.3125 0,2 l 0.11842,1.25 h 4.5 4.5 v 4.999999 c 0,2.75 -0.1125,4.91186 -0.25,4.80414 -0.1375,-0.10772 -3.2875,-0.35328 -7,-0.54569 z m -74.25956,-9.10134 c -0.26974,-0.269743 -0.49044,-1.592902 -0.49044,-2.940353 v -2.44991 l -2.44792,0.467949 -2.44792,0.46795 -0.30208,-2.601373 -0.30208,-2.601372 -2.5,-0.01388 -2.5,-0.01389 -0.32626,-2.838114 -0.32627,-2.838113 -2.42373,0.463326 -2.42374,0.463326 -0.0153,-1.611328 c -0.008,-0.88623 -0.37155,-2.172319 -0.80694,-2.857975 l -0.79164,-1.246646 -12.44305,1.540411 c -6.84368,0.847226 -13.45556,1.794501 -14.69306,2.105055 l -2.25,0.564643 v 2.274961 2.27496 l -2.25,0.602977 c -1.2375,0.331637 -3.4875,0.609121 -5,0.616631 l -2.75,0.01365 v -2.371169 -2.37117 l 5,-0.663273 5,-0.663274 v -2.8936 -2.893601 l 5.25,-0.585197 c 37.46271,-4.175824 50.24704,-5.558716 51.3883,-5.558716 h 1.36169 v -2.5 -2.5 h 9 9 v 1 c 0,1.303557 3.98046,1.262546 15.55842,-0.160301 l 9.44158,-1.160302 V 62.27815 59.938451 h 8.89301 8.89301 l 0.51611,1.344955 0.51611,1.344955 5.84088,-0.835967 c 8.20507,-1.17434 23.70772,-2.820437 23.98174,-2.546421 0.1258,0.125808 0.54105,2.583083 0.92277,5.46061 l 0.69403,5.231868 h -2.74233 -2.74233 l 0.43112,2.937368 0.43111,2.937368 -2.31762,0.581684 -2.31761,0.581684 v 2.79429 2.79429 l -15.75,1.761083 c -8.6625,0.968596 -16.69965,1.985601 -17.86033,2.260011 l -2.11033,0.498928 -0.61467,-3.073353 -0.61467,-3.073353 h -2.41659 -2.41659 l -0.62746,-2.5 -0.62746,-2.5 -3.23095,0.01531 c -1.77702,0.0084 -3.84161,0.402241 -4.58796,0.875154 l -1.35701,0.859841 0.66382,2.091534 0.66383,2.091535 -2.55682,0.641719 -2.55681,0.64172 v 2.891592 2.891592 h -2.57946 -2.57945 l 0.65891,3 0.65891,3 -2.32945,0.05741 c -1.28121,0.03157 -8.97126,0.852273 -17.08901,1.823776 -8.11776,0.971503 -14.98026,1.54567 -15.25,1.275926 z m 9.50956,-8.157109 v -3 h 1.93045 1.93045 l 0.31955,2.25 0.31955,2.25 h 2.5 2.5 l 0.3231,-3.38055 0.32309,-3.38055 -2.62389,0.501588 -2.62388,0.501587 -0.59207,-2.960306 -0.59206,-2.960307 -2.30506,0.440641 -2.30507,0.440642 -0.30208,-2.601373 -0.30208,-2.601372 h -2.49018 -2.49018 l -0.51752,2.987789 -0.51753,2.987789 -1.74229,0.335535 -1.7423,0.335535 v -2.514307 c 0,-3.011748 -0.92222,-3.726946 -3.82646,-2.967472 l -2.17354,0.568394 v 2.816946 2.816946 l 2.75,0.316423 2.75,0.316422 0.31955,2.25 0.31955,2.25 h 2.43045 2.43045 v 2.5 2.5 h 3 3 z m -5.29876,-3.632097 c -0.38568,-0.38568 -0.70124,-1.526236 -0.70124,-2.53457 v -1.833333 h 2.56955 2.56955 l -0.31955,2.239784 -0.31955,2.239785 -1.54876,0.294785 c -0.85182,0.162132 -1.86432,-0.02077 -2.25,-0.406451 z m 65.29876,-9.48448 v -2.883423 h 2 2 v 2.5 2.5 h 3 3 v -3 -3 h -3 -3 v -2.5 -2.5 h -3.07946 -3.07945 l 0.65891,3 0.65891,3 h -2.57945 -2.57946 v -2.5 -2.5 h -3 -3 v 1.418213 c 0,0.780016 0.27314,2.130016 0.60699,3 l 0.60699,1.581787 h 2.39301 2.39301 v 2.333333 c 0,3.03726 0.53458,3.478294 3.5235,2.906925 l 2.4765,-0.473412 z"
       id="path10676"
       transform="translate(-189.29791,-1.5473944)" /><path
       style="opacity:1;fill:#ffffff;fill-opacity:1;stroke:#f5c770;stroke-width:0.507443;stroke-linejoin:round;stroke-dasharray:none;stroke-opacity:1"
       d="m 78.184335,90.995476 -2.47323,-0.196746 v -2.294509 -2.294509 h -2.406713 -2.406714 l -0.110103,-0.555215 c -0.06056,-0.305368 -0.213032,-1.294666 -0.338834,-2.198441 l -0.228732,-1.643227 -1.94854,-0.230273 c -1.071698,-0.12665 -2.289241,-0.281004 -2.705652,-0.343008 L 64.808706,81.126812 V 78.42678 75.726748 l 1.059956,-0.316983 c 0.582975,-0.174341 1.564428,-0.370636 2.181006,-0.43621 1.00096,-0.106455 1.184796,-0.06444 1.716118,0.392188 0.586808,0.504316 0.596018,0.544237 0.66353,2.876121 l 0.06846,2.364706 0.840071,-0.116174 c 0.462039,-0.0639 1.304086,-0.216164 1.871214,-0.338372 l 1.031143,-0.222198 0.455649,-2.758589 c 0.250608,-1.517224 0.501498,-2.878066 0.557534,-3.024094 0.0779,-0.202997 0.654736,-0.252161 2.450185,-0.20883 l 2.348301,0.05667 0.284514,2.574177 c 0.233094,2.108949 0.34256,2.572251 0.605689,2.563513 0.176646,-0.0059 1.184282,-0.179587 2.23919,-0.386047 1.054908,-0.206459 1.972906,-0.315227 2.039994,-0.241705 0.06709,0.07352 0.36139,1.351651 0.653999,2.840287 0.29261,1.488636 0.576613,2.751205 0.631117,2.805709 0.0545,0.0545 1.236571,-0.127977 2.626816,-0.405514 1.667546,-0.332895 2.52629,-0.428861 2.523524,-0.282006 -0.0023,0.122434 -0.135898,1.494554 -0.296868,3.049155 -0.160972,1.554602 -0.295364,2.940115 -0.298651,3.078919 -0.0044,0.187404 -0.623668,0.25237 -2.405506,0.25237 h -2.399529 l -0.234557,-1.665644 c -0.129006,-0.916105 -0.285849,-1.960918 -0.34854,-2.321808 l -0.11398,-0.656159 h -1.996494 -1.996494 v 3.028445 c 0,3.015625 -0.0019,3.028307 -0.454266,2.995996 -0.249847,-0.01785 -1.56722,-0.120984 -2.927496,-0.229195 z m 1.665644,-5.999512 c 0.342159,-0.12267 0.452001,-0.487927 0.719632,-2.393005 L 80.885452,80.35472 H 78.19733 75.509209 l 0.0011,1.261851 c 0.0012,1.364007 0.243771,2.481595 0.663029,3.054965 0.470926,0.644031 2.328062,0.807906 3.676615,0.324428 z"
       id="path10962" /><path
       style="opacity:1;fill:#ffffff;fill-opacity:1;stroke:#f5c770;stroke-width:0.507443;stroke-linejoin:round;stroke-dasharray:none;stroke-opacity:1"
       d="m 136.39946,78.475214 c -0.45352,-0.331623 -0.70502,-1.603277 -0.71637,-3.622168 l -0.009,-1.564696 h -2.39601 -2.396 l -0.53149,-1.608123 c -0.35578,-1.076481 -0.53149,-2.044304 -0.53149,-2.927496 v -1.319373 h 2.82655 2.82654 v 2.523703 2.523704 h 2.72945 c 2.72625,0 2.72933,-5.25e-4 2.62716,-0.454267 -0.6836,-3.03603 -1.11678,-5.102257 -1.11678,-5.32691 0,-0.212747 0.41807,-0.275712 1.83067,-0.275712 1.69281,0 1.82169,0.02828 1.71149,0.375497 -0.34433,1.084888 -0.70902,3.296579 -0.71211,4.318592 -0.003,1.102765 -0.0288,1.160903 -0.50825,1.160903 h -0.50474 v 2.906522 2.906521 l -1.76659,0.32423 c -2.14146,0.393032 -2.88858,0.406154 -3.36324,0.05907 z"
       id="path10964" /><path
       style="opacity:1;fill:#ffffff;fill-opacity:1;stroke:#f5c770;stroke-width:0.507443;stroke-linejoin:round;stroke-dasharray:none;stroke-opacity:1"
       d="m 145.76911,74.802572 v -2.523704 h -1.48942 -1.48942 l 0.0801,-0.959007 c 0.0441,-0.527454 0.22984,-1.844827 0.41279,-2.927496 l 0.33265,-1.968489 h 0.97569 0.97568 v 2.523704 2.523703 h 3.02844 3.02845 v 2.927496 2.927496 h -2.9275 -2.9275 z"
       id="path10966" /></g></svg>
