<?xml version="1.0" encoding="UTF-8" standalone="no"?>
<!-- Created with Inkscape (http://www.inkscape.org/) -->

<svg
   width="720.0px"
   height="576.0px"
   viewBox="0 0 720.0 576.0"
   version="1.1"
   id="SVGRoot"
   sodipodi:docname="meme.svg"
   inkscape:version="1.2.1 (9c6d41e410, 2022-07-14, custom)"
   xml:space="preserve"
   xmlns:inkscape="http://www.inkscape.org/namespaces/inkscape"
   xmlns:sodipodi="http://sodipodi.sourceforge.net/DTD/sodipodi-0.dtd"
   xmlns="http://www.w3.org/2000/svg"
   xmlns:svg="http://www.w3.org/2000/svg"><sodipodi:namedview
     id="namedview310"
     pagecolor="#ffffff"
     bordercolor="#111111"
     borderopacity="1"
     inkscape:showpageshadow="0"
     inkscape:pageopacity="0"
     inkscape:pagecheckerboard="1"
     inkscape:deskcolor="#d1d1d1"
     inkscape:document-units="px"
     showgrid="false"
     inkscape:zoom="0.74280449"
     inkscape:cx="238.95924"
     inkscape:cy="329.83107"
     inkscape:window-width="1366"
     inkscape:window-height="695"
     inkscape:window-x="0"
     inkscape:window-y="0"
     inkscape:window-maximized="1"
     inkscape:current-layer="layer1" /><defs
     id="defs305" /><g
     inkscape:label="Layer 1"
     inkscape:groupmode="layer"
     id="layer1"><g
       inkscape:label="Layer 1"
       id="layer1-2"
       transform="matrix(1.183793,0,0,1.183793,38.00831,88.161819)" /><g
       inkscape:label="Layer 1"
       id="layer1-9"
       transform="matrix(1.8533988,0,0,1.8533988,-144.12448,-30.581539)"><g
         id="g23287"
         transform="matrix(0.52836827,0,0,0.52836827,132.11679,53.785182)"><path
           style="fill:#558a39;fill-opacity:1;stroke:#000000;stroke-width:5.3;stroke-linecap:butt;stroke-linejoin:miter;stroke-miterlimit:4;stroke-dasharray:none;stroke-opacity:1"
           d="m 401.01624,326.90967 c 0,0 55.99043,-33.06253 67.75129,-97.58087 11.76086,-64.51834 5.58418,-108.53576 -13.4553,-136.371026 -19.03947,-27.835264 -29.03804,-18.362567 -29.03804,-18.362567 0,0 20.7789,-20.477382 5.17776,-36.833558 -15.60114,-16.356175 -23.97698,8.471179 -23.97698,8.471179 0,0 -20.03238,-15.871091 -27.406,-9.022977 -7.37362,6.848114 4.38326,31.194092 4.38326,31.194092 0,0 -15.00013,10.778707 -9.29036,21.656735 5.70976,10.878032 34.05222,-2.32783 34.05222,-2.32783 0,0 44.50894,28.432812 39.46375,69.501332 -5.04519,41.06852 -6.54993,102.50677 -41.68731,118.46599 -35.13737,15.95923 -5.97429,51.2095 -5.97429,51.2095 z"
           id="path1139" /><path
           style="opacity:1;fill:#0342ef;fill-opacity:1;stroke:#000000;stroke-width:5.3;stroke-linecap:butt;stroke-linejoin:miter;stroke-miterlimit:4;stroke-dasharray:none;stroke-opacity:1"
           d="m 416.90562,313.38309 -15.16891,12.60593 c 0,0 46.48347,19.56247 42.86617,60.35721 -3.61731,40.79473 -175.75327,46.22734 -175.75327,46.22734 0,0 -201.304316,-10.68319 -199.873918,-36.93368 1.430399,-26.25049 27.488069,-98.11495 42.494898,-99.79956 15.00684,-1.6846 280.41992,-9.76891 280.41992,-9.76891 z"
           id="path1137" /><g
           id="g23037"
           transform="translate(531.21255,0.02666092)"><g
             id="g22851"
             style="opacity:1"><path
               style="opacity:1;fill:#548c38;fill-opacity:1;stroke:#000000;stroke-width:5.3;stroke-linecap:butt;stroke-linejoin:miter;stroke-miterlimit:4;stroke-dasharray:none;stroke-opacity:1"
               d="m -129.88668,272.80931 c 0,0 16.01166,22.11804 -26.43881,35.15589 -42.45047,13.03784 -170.58706,37.9172 -218.2156,13.70551 -47.62853,-24.21169 -76.6908,-37.58841 -78.94285,-109.7578 -2.25204,-72.16939 51.75679,-109.76381 72.61689,-114.074556 20.86009,-4.310747 88.42396,16.346766 88.42396,16.346766 0,0 35.16345,-29.757027 71.63536,-30.733462 36.47192,-0.976435 48.22931,27.904442 48.22931,27.904442 0,0 42.52831,-11.395872 64.66936,29.36718 11.070524,20.38152 -0.47625,42.59423 -20.15771,60.5298 39.565095,19.76752 -3.36576,39.98783 -3.36576,39.98783 0,0 21.81705,5.02065 1.54585,31.5684 z"
               id="path7453"
               sodipodi:nodetypes="csssscscsccc" /><path
               style="fill:#a75b39;fill-opacity:1;stroke:#000000;stroke-width:5.3;stroke-linecap:round;stroke-linejoin:miter;stroke-miterlimit:4;stroke-dasharray:none;stroke-opacity:1"
               d="m -128.06677,201.25308 c 0,0 -8.61537,43.57535 -151.14517,37.27043 -88.10584,2.32619 -112.32568,-28.81663 -130.89572,9.25947 -4.28718,34.34344 128.7345,49.79231 174.19375,43.45309 45.45925,-6.33922 106.02723,-18.42676 106.02723,-18.42676 0,0 9.51007,-15.10622 8.50276,-20.27672 -2.43709,-12.50946 -11.80113,-10.12548 -11.80113,-10.12548 0,0 21.86968,-12.31227 21.74577,-22.96696 -0.10366,-8.91235 -16.62749,-18.18707 -16.62749,-18.18707 z"
               id="path17965" /><path
               style="fill:#a75b39;fill-opacity:1;stroke:#000000;stroke-width:5.3;stroke-linecap:round;stroke-linejoin:miter;stroke-miterlimit:4;stroke-dasharray:none;stroke-opacity:1"
               d="m -133.18505,242.40711 c 0,0 -64.38639,19.21981 -119.42655,21.10614 -55.04016,1.88633 -114.77521,-9.90166 -114.77521,-9.90166"
               id="path12015" /><path
               style="fill:none;stroke:#000000;stroke-width:5.3;stroke-linecap:round;stroke-linejoin:miter;stroke-miterlimit:4;stroke-dasharray:none;stroke-opacity:1"
               d="m -172.57842,111.3561 c 0,0 -31.42422,4.05094 -75.05313,35.30806"
               id="path14056" /><path
               style="fill:none;stroke:#000000;stroke-width:5.3;stroke-linecap:round;stroke-linejoin:miter;stroke-miterlimit:4;stroke-dasharray:none;stroke-opacity:1"
               d="m -274.16871,130.66237 c 0,0 40.9486,-29.25163 80.49038,-14.42788"
               id="path14058" /><path
               style="fill:none;stroke:#000000;stroke-width:5.3;stroke-linecap:round;stroke-linejoin:miter;stroke-miterlimit:4;stroke-dasharray:none;stroke-opacity:1"
               d="m -298.0364,131.19219 c 0,0 -21.81285,-20.72307 -65.63666,-12.01355 -43.82381,8.70951 -41.37739,28.38488 -41.37739,28.38488"
               id="path14060" /><path
               style="fill:none;stroke:#000000;stroke-width:5.3;stroke-linecap:round;stroke-linejoin:miter;stroke-miterlimit:4;stroke-dasharray:none;stroke-opacity:1"
               d="m -408.00295,192.13265 c 0,0 21.13257,3.73857 53.20655,-28.65764 32.07399,-32.39621 57.26644,-18.56931 57.26644,-18.56931"
               id="path14062" /><path
               style="fill:#ffffff;stroke:#000000;stroke-width:5.3;stroke-linecap:round;stroke-linejoin:miter;stroke-miterlimit:4;stroke-dasharray:none;stroke-opacity:1"
               d="m -104.0628,154.44093 c 0,0 -37.16647,-33.77223 -77.19736,-21.3649 -40.03089,12.40733 -23.82829,23.64435 -53.50278,36.72102 -29.6745,13.07666 -1.99459,31.31139 -1.99459,31.31139 0,0 37.2662,10.49731 54.292,4.47296 17.0258,-6.02435 50.65574,-16.1412 61.27804,-19.63568 10.62231,-3.49448 13.50037,-9.1015 16.26139,-18.67826 2.76102,-9.57676 0.8633,-12.82653 0.8633,-12.82653 z"
               id="path18654" /><path
               style="fill:#ffffff;stroke:#000000;stroke-width:5.3;stroke-linecap:round;stroke-linejoin:round;stroke-miterlimit:4;stroke-dasharray:none;stroke-opacity:1"
               d="m -384.75011,199.18449 c 0,0 23.04567,-2.0075 44.04144,-26.04636 20.99577,-24.03886 78.54091,-23.72187 94.94929,-11.9645 16.40838,11.75738 11.31125,25.07359 11.31125,25.07359 0,0 5.891,19.09117 -73.94298,40.39966 -84.20485,-6.45028 -76.33923,-42.36757 -76.359,-27.46239 z"
               id="path18689"
               sodipodi:nodetypes="cssccc" /><path
               id="path18935"
               style="opacity:1;fill:#000000;stroke:none;stroke-width:0;stroke-linecap:butt;stroke-linejoin:miter;stroke-miterlimit:4;stroke-dasharray:none;stroke-opacity:1"
               d="m -304.1543,162.43555 c -1.5894,0.0129 -3.24265,0.0801 -4.96289,0.20507 -34.97177,13.76149 -10.70898,60.93946 -10.70898,60.93946 l 12.76562,3.07812 39.77735,-12.82812 c 0,0 12.40033,-51.7935 -36.8711,-51.39453 z m -8.01172,7.43945 a 7.9336801,9.1027536 0 0 1 7.9336,9.10352 7.9336801,9.1027536 0 0 1 -7.9336,9.10156 7.9336801,9.1027536 0 0 1 -7.93359,-9.10156 7.9336801,9.1027536 0 0 1 7.93359,-9.10352 z m 25.4375,4.37695 a 9.7685938,11.426711 0 0 1 9.76954,11.42774 9.7685938,11.426711 0 0 1 -9.76954,11.42578 9.7685938,11.426711 0 0 1 -9.76757,-11.42578 9.7685938,11.426711 0 0 1 9.76757,-11.42774 z m -20.30859,16.47266 a 6.1010747,6.3567734 0 0 1 6.10156,6.35547 6.1010747,6.3567734 0 0 1 -6.10156,6.35742 6.1010747,6.3567734 0 0 1 -6.09961,-6.35742 6.1010747,6.3567734 0 0 1 6.09961,-6.35547 z m 5.60938,12.80664 a 5.0726252,4.9084358 0 0 1 5.07226,4.91016 5.0726252,4.9084358 0 0 1 -5.07226,4.9082 5.0726252,4.9084358 0 0 1 -5.07422,-4.9082 5.0726252,4.9084358 0 0 1 5.07422,-4.91016 z" /><path
               id="path19164"
               style="opacity:1;fill:#000000;stroke:none;stroke-width:0;stroke-linecap:butt;stroke-linejoin:round;stroke-miterlimit:4;stroke-dasharray:none;stroke-opacity:1"
               d="m -165.45312,138.6875 c -2.85372,0.0166 -5.99069,0.348 -9.43946,1.03906 -47.05866,30.6219 -4.4707,64.0586 -4.4707,64.0586 l 39.68945,-10.71289 c 0,0 11.9531,-54.6037 -25.77929,-54.38477 z m -10.62305,10.08789 a 6.6707764,7.6921272 0 0 1 6.66992,7.69141 6.6707764,7.6921272 0 0 1 -6.66992,7.6914 6.6707764,7.6921272 0 0 1 -6.67188,-7.6914 6.6707764,7.6921272 0 0 1 6.67188,-7.69141 z m 19.35742,8.99023 a 8.674716,10.607755 0 0 1 8.67383,10.60743 8.674716,10.607755 0 0 1 -8.67383,10.60742 8.674716,10.607755 0 0 1 -8.67383,-10.60742 8.674716,10.607755 0 0 1 8.67383,-10.60743 z m -21.67383,13.30079 a 5.6454506,5.6514306 0 0 1 5.64453,5.65039 5.6454506,5.6514306 0 0 1 -5.64453,5.65234 5.6454506,5.6514306 0 0 1 -5.64648,-5.65234 5.6454506,5.6514306 0 0 1 5.64648,-5.65039 z m 7,11.67578 a 4.5835571,4.6180182 0 0 1 4.58203,4.61719 4.5835571,4.6180182 0 0 1 -4.58203,4.61914 4.5835571,4.6180182 0 0 1 -4.58398,-4.61914 4.5835571,4.6180182 0 0 1 4.58398,-4.61719 z" /></g></g><path
           style="fill:#55893d;fill-opacity:1;stroke:#000000;stroke-width:4.4;stroke-linecap:butt;stroke-linejoin:miter;stroke-miterlimit:4;stroke-dasharray:none;stroke-opacity:1"
           d="m 121.50303,369.47938 c 0,0 -50.387808,-10.40263 -58.180531,-65.93335 C 55.529775,248.0153 50.871878,167.73981 57.385652,134.67669 63.899426,101.61358 66.531671,79.322009 82.246165,64.523364 97.96066,49.724719 114.11206,44.948531 114.11206,44.948531 c 0,0 -13.52912,-19.047964 -2.79748,-27.285427 10.73164,-8.2374627 27.62919,11.093066 27.62919,11.093066 0,0 11.5,-24.1481945 21.80202,-10.614846 10.30202,13.533348 -5.09097,27.857421 -5.09097,27.857421 0,0 10.8718,12.540073 0.92987,23.670312 -9.94194,11.130238 -30.31461,-6.229524 -30.31461,-6.229524 0,0 -33.91873,20.556262 -36.981632,59.922557 -3.062903,39.3663 6.823934,167.69878 14.786462,180.02225 7.96253,12.32347 23.30502,19.86969 23.30502,19.86969 0,0 7.21948,19.74539 2.31332,38.01156 -4.90615,18.26617 -8.19022,8.21379 -8.19022,8.21379 z"
           id="path937" /></g></g></g></svg>
