<?xml version="1.0" encoding="UTF-8" standalone="no"?>
<!-- Created with Inkscape (http://www.inkscape.org/) -->

<svg
   width="720.0px"
   height="576.0px"
   viewBox="0 0 720.0 576.0"
   version="1.1"
   id="SVGRoot"
   sodipodi:docname="movie.svg"
   inkscape:version="1.2.1 (9c6d41e410, 2022-07-14, custom)"
   xml:space="preserve"
   xmlns:inkscape="http://www.inkscape.org/namespaces/inkscape"
   xmlns:sodipodi="http://sodipodi.sourceforge.net/DTD/sodipodi-0.dtd"
   xmlns:xlink="http://www.w3.org/1999/xlink"
   xmlns="http://www.w3.org/2000/svg"
   xmlns:svg="http://www.w3.org/2000/svg"><sodipodi:namedview
     id="namedview310"
     pagecolor="#ffffff"
     bordercolor="#111111"
     borderopacity="1"
     inkscape:showpageshadow="0"
     inkscape:pageopacity="0"
     inkscape:pagecheckerboard="1"
     inkscape:deskcolor="#d1d1d1"
     inkscape:document-units="px"
     showgrid="false"
     inkscape:zoom="0.74280449"
     inkscape:cx="197.22552"
     inkscape:cy="331.17732"
     inkscape:window-width="1366"
     inkscape:window-height="695"
     inkscape:window-x="0"
     inkscape:window-y="0"
     inkscape:window-maximized="1"
     inkscape:current-layer="layer1" /><defs
     id="defs305"><linearGradient
       inkscape:collect="always"
       id="linearGradient2325"><stop
         style="stop-color:#1a1a1a;stop-opacity:1;"
         offset="0"
         id="stop2321" /><stop
         style="stop-color:#6b6b6b;stop-opacity:1"
         offset="1"
         id="stop2323" /></linearGradient><linearGradient
       inkscape:collect="always"
       xlink:href="#linearGradient7580"
       id="linearGradient7582"
       x1="-396.04105"
       y1="322.19305"
       x2="-362.28656"
       y2="356.13342"
       gradientUnits="userSpaceOnUse"
       spreadMethod="reflect"
       gradientTransform="matrix(4.4291845,0,0,4.4291845,2031.5135,-1200.2169)" /><linearGradient
       inkscape:collect="always"
       id="linearGradient7580"><stop
         style="stop-color:#efeced;stop-opacity:1"
         offset="0"
         id="stop7576" /><stop
         style="stop-color:#8c8d8c;stop-opacity:1"
         offset="1"
         id="stop7578" /></linearGradient><filter
       style="color-interpolation-filters:sRGB"
       inkscape:label="Drop Shadow"
       id="filter18301-3-6-3"
       x="-0.072540376"
       y="-0.072540375"
       width="1.1450808"
       height="1.1755834"><feFlood
         flood-opacity="0.639216"
         flood-color="rgb(0,0,0)"
         result="flood"
         id="feFlood18291-6-2-6" /><feComposite
         in="flood"
         in2="SourceGraphic"
         operator="in"
         result="composite1"
         id="feComposite18293-7-9-7" /><feGaussianBlur
         in="composite1"
         stdDeviation="9.34521"
         result="blur"
         id="feGaussianBlur18295-5-1-5" /><feOffset
         dx="0"
         dy="9.43102"
         result="offset"
         id="feOffset18297-3-2-3" /><feComposite
         in="SourceGraphic"
         in2="offset"
         operator="over"
         result="composite2"
         id="feComposite18299-5-7-5" /></filter><linearGradient
       inkscape:collect="always"
       xlink:href="#linearGradient7580"
       id="linearGradient15527"
       x1="265.24124"
       y1="198.52034"
       x2="320.1647"
       y2="250.85857"
       gradientUnits="userSpaceOnUse"
       gradientTransform="translate(-5.9759007,18.473919)" /><linearGradient
       inkscape:collect="always"
       xlink:href="#linearGradient2325"
       id="linearGradient2327"
       x1="182.35286"
       y1="227.63136"
       x2="308.65375"
       y2="325.88309"
       gradientUnits="userSpaceOnUse" /><linearGradient
       inkscape:collect="always"
       xlink:href="#linearGradient2325"
       id="linearGradient2655"
       x1="327.92184"
       y1="283.08981"
       x2="355.06525"
       y2="283.08981"
       gradientUnits="userSpaceOnUse" /><linearGradient
       inkscape:collect="always"
       xlink:href="#linearGradient2325"
       id="linearGradient2663"
       x1="155.08446"
       y1="297.07687"
       x2="166.92516"
       y2="297.07687"
       gradientUnits="userSpaceOnUse" /><linearGradient
       inkscape:collect="always"
       xlink:href="#linearGradient7580"
       id="linearGradient669"
       gradientUnits="userSpaceOnUse"
       gradientTransform="matrix(4.4291845,0,0,4.4291845,2031.5135,-1200.2169)"
       x1="-396.04105"
       y1="322.19305"
       x2="-362.28656"
       y2="356.13342"
       spreadMethod="reflect" /><linearGradient
       inkscape:collect="always"
       xlink:href="#linearGradient7580"
       id="linearGradient671"
       gradientUnits="userSpaceOnUse"
       gradientTransform="translate(-5.9759007,18.473919)"
       x1="265.24124"
       y1="198.52034"
       x2="320.1647"
       y2="250.85857" /></defs><g
     inkscape:label="Layer 1"
     inkscape:groupmode="layer"
     id="layer1"><g
       id="layer2"
       inkscape:label="Layer 2"
       style="display:inline"
       transform="matrix(2.071606,0,0,2.071606,-203.47684,-42.286097)"><g
         id="g2760"
         transform="matrix(1.0223704,0,0,1.0223704,22.662773,-83.828343)"><rect
           style="fill:url(#linearGradient2327);fill-opacity:1;stroke-width:8.3;stroke-linecap:round;stroke-linejoin:round;stroke-opacity:0.387422;paint-order:fill markers stroke"
           id="rect1085"
           width="151.50816"
           height="109.64532"
           x="171.50114"
           y="226.93793"
           ry="13.940867" /><g
           id="g869"
           transform="matrix(0.91036197,0,0,0.91036197,-46.308824,-246.87815)"><g
             id="g1946"
             transform="matrix(0.37039502,0,0,0.37039502,276.42729,403.1453)"><path
               sodipodi:type="spiral"
               style="fill:none;fill-rule:evenodd;stroke:#000000;stroke-width:4.8;stroke-miterlimit:4;stroke-dasharray:none"
               id="path18349"
               sodipodi:cx="287.16705"
               sodipodi:cy="221.91418"
               sodipodi:expansion="1"
               sodipodi:revolution="20.9"
               sodipodi:radius="109.18587"
               sodipodi:argument="-18.116268"
               sodipodi:t0="0"
               transform="translate(-7.6454202,17.967836)"
               d="m 287.16705,221.91418 c 0.58384,0.52595 -0.42092,1.04648 -0.87416,0.97037 -1.22824,-0.20625 -1.50454,-1.75128 -1.06657,-2.71869 0.78342,-1.73045 3.03573,-2.04586 4.56322,-1.16278 2.24165,1.29597 2.60213,4.3372 1.25898,6.40775 -1.79021,2.75971 -5.64466,3.16471 -8.25227,1.35519 -3.28142,-2.2771 -3.73053,-6.95496 -1.4514,-10.0968 2.76034,-3.80519 8.26687,-4.29823 11.94133,-1.5476 4.33023,3.24152 4.86711,9.57976 1.64381,13.78585 -3.72143,4.8561 -10.89333,5.43677 -15.63038,1.74002 -5.38254,-4.20049 -6.00699,-12.20737 -1.83623,-17.47491 4.67897,-5.9094 13.52174,-6.5776 19.31944,-1.93243 6.43655,5.15702 7.14851,14.83637 2.02864,21.16396 -5.63476,6.96394 -16.1512,7.71966 -23.0085,2.12485 -7.4915,-6.11225 -8.29097,-17.46619 -2.22105,-24.85303 6.58956,-8.0192 18.7813,-8.86244 26.69756,-2.31725 8.54702,7.06671 9.43402,20.0965 2.41346,28.54208 -7.54374,9.07494 -21.41181,10.0057 -30.38661,2.50966 -9.60294,-8.02066 -10.57746,-22.72716 -2.60587,-32.23113 8.49751,-10.13099 24.04259,-11.14928 34.07566,-2.70208 10.65911,8.97429 11.72116,25.35807 2.79828,35.92019 -9.451,11.18727 -26.67359,12.2931 -37.76471,2.89449 -11.71547,-9.92767 -12.86507,-27.98915 -2.9907,-39.60924 10.40429,-12.24371 29.30474,-13.43708 41.45377,-3.08691 12.77197,10.88087 14.00912,30.62036 3.18311,43.29831 -11.35742,13.30025 -31.936,14.58118 -45.14283,3.27931 -13.82857,-11.83394 -15.15328,-33.25167 -3.37552,-46.98736 12.31043,-14.35691 34.56736,-15.7254 48.83189,-3.47173 14.88526,12.78691 16.29753,35.88307 3.56793,50.67642 -13.26335,15.41364 -37.19878,16.86969 -52.52094,3.66414 -15.94203,-13.73979 -17.44186,-38.51452 -3.76035,-54.36547 14.2162,-16.47043 39.83027,-18.01404 56.21,-3.85655 16.99884,14.69259 18.58624,41.14602 3.95276,58.05452 -15.16899,17.52726 -42.4618,19.15845 -59.89906,4.04897 -18.05569,-15.64536 -19.73066,-43.77758 -4.14517,-61.74358 16.12172,-18.58414 45.09337,-20.3029 63.58811,-4.24138 19.11259,16.59807 20.87514,46.40916 4.33759,65.43264 -17.07442,19.64104 -47.72497,21.44737 -67.27717,4.43379 -20.16951,-17.55075 -22.01963,-49.04078 -4.52999,-69.1217 18.02707,-20.69798 50.35659,-22.59189 70.96622,-4.6262 21.22646,18.50339 23.16416,51.67242 4.7224,72.81075 -18.9797,21.75494 -52.98824,23.73643 -74.65527,4.81861 -22.28343,-19.45601 -24.30872,-54.30408 -4.91482,-76.4998 19.93231,-22.81193 55.61992,-24.881 78.34433,-5.01103 23.34042,20.40861 25.45329,56.93577 5.10723,80.18886 -20.88489,23.86893 -58.25161,26.02558 -82.03339,5.20344 -24.39743,-21.36118 -26.59787,-59.56746 -5.29964,-83.87791 21.83746,-24.92595 60.88332,-27.17018 85.72244,-5.39586 25.45446,22.31374 27.74249,62.19918 5.49206,87.56698 -22.79001,25.98297 -63.51504,28.31479 -89.4115,5.58826 -26.51149,-23.26628 -28.8871,-64.83091 -5.68447,-91.25603 23.74254,-27.04001 66.14677,-29.45942 93.10056,-5.78067 27.56854,24.2188 30.03174,67.46264 5.87688,94.94508 -24.69506,28.09706 -68.77852,30.60406 -96.78961,5.97309 -28.6256,-25.17132 -31.17639,-70.09439 -6.0693,-98.63414 25.64758,-29.15413 71.41027,-31.74871 100.47867,-6.1655 29.68266,26.12382 32.32104,72.72615 6.26171,102.32319 -26.60008,30.2112 -74.04203,32.89337 -104.16773,6.35792 -30.73973,-27.07632 -33.4657,-75.35792 -6.45412,-106.01226 27.55257,-31.26827 76.67381,-34.03803 107.85678,-6.55032 31.79682,28.02881 34.61037,77.98969 6.64654,109.70131 -28.50505,32.32536 -79.30558,35.1827 -111.54584,6.74273 -32.8539,-28.98128 -35.75505,-80.62146 -6.83894,-113.39036 29.45752,-33.38245 81.93736,-36.32739 115.23489,-6.93515 33.911,29.93376 36.89973,83.25325 7.03135,117.07942 -30.40998,34.43955 -84.56914,37.47208 -118.92394,7.12756 -34.9681,-30.88622 -38.04442,-85.88504 -7.22377,-120.76847 31.36245,-35.49665 87.20094,-38.61677 122.613,-7.31998 36.0252,31.83868 39.18912,88.51684 7.41618,124.45753 -32.31491,36.55376 -89.83274,39.76147 -126.30206,7.51239 -37.0823,-32.79113 -40.33381,-91.14864 -7.60859,-128.14659 33.26736,-37.61086 92.46454,-40.90616 129.99111,-7.7048 38.13943,33.74359 41.47853,93.78045 7.80101,131.83565 -34.2198,38.66798 -95.09635,42.05087 -133.68017,7.89721 -39.19654,-34.69603 -42.62323,-96.41225 -7.99342,-135.5247 35.17225,-39.7251 97.72816,-43.19558 137.36923,-8.08962 40.25365,35.64846 43.76794,99.04406 8.18583,139.21375 -36.12469,40.78222 -100.35997,44.3403 -141.05828,8.28204 -41.31078,-36.60091 -44.91266,-101.67588 -8.37825,-142.90281 37.07712,-41.83934 102.99179,-45.48502 144.74734,-8.47445 42.36791,37.55333 46.05738,104.30769 8.57066,146.59186 -38.02956,42.89647 -105.62361,46.62974 -148.4364,8.66686 -43.42503,-38.50576 -47.2021,-106.93951 -8.76306,-150.28092 38.98198,-43.95359 108.25542,-47.77446 152.12544,-8.85927 25.83689,22.91877 39.38532,57.61893 36.02957,91.98033" /><path
               id="path864"
               style="fill:url(#linearGradient669);fill-opacity:1;stroke-width:210.927;stroke-linejoin:round;stroke-miterlimit:4.3;paint-order:fill markers stroke;filter:url(#filter18301-3-6-3)"
               d="M 281.03406,79.272428 A 154.5945,154.5945 0 0 0 126.43647,233.87001 154.5945,154.5945 0 0 0 281.03406,388.45892 154.5945,154.5945 0 0 0 435.62296,233.87001 154.5945,154.5945 0 0 0 281.03406,79.272428 Z m 0.20773,29.706672 c 28.71413,2.48344 32.81511,23.66071 29.20493,44.43894 -3.42996,12.28164 -7.20243,28.05525 -29.20493,31.67903 -22.00251,-3.62378 -25.77498,-19.39739 -29.20494,-31.67903 -3.61018,-20.77823 0.4908,-41.9555 29.20494,-44.43894 z m -81.60255,46.80058 c 9.1848,0.49554 18.33337,5.63007 26.42806,12.3879 8.92122,9.11123 20.69204,20.26768 12.82905,41.13432 -14.13951,17.24282 -29.6828,12.61698 -42.03398,9.44661 -19.79957,-7.26262 -36.09108,-21.40102 -23.88474,-47.50996 8.25392,-11.81272 17.47686,-15.95441 26.66161,-15.45887 z m 162.98881,0.3632 c 9.18476,-0.49554 18.40774,3.65483 26.66161,15.46755 12.20634,26.10889 -4.07649,40.24733 -23.87605,47.50991 -12.35123,3.17041 -27.90311,7.78757 -42.04266,-9.45524 -7.86296,-20.86664 3.91646,-32.0231 12.83772,-41.13433 8.09469,-6.75783 17.23462,-11.89236 26.41938,-12.38789 z m -150.97292,89.52661 c 8.81284,-0.61198 18.19642,1.61976 27.03362,12.39654 7.86295,20.86664 -3.90783,32.02305 -12.82909,41.13432 -16.18938,13.51561 -36.58183,20.55443 -53.08962,-3.07102 -12.20635,-26.10889 4.08512,-40.24733 23.88473,-47.50991 4.63169,-1.18888 9.71267,-2.58275 15.00036,-2.94993 z m 138.54179,0.3632 c 5.2877,0.36718 10.36872,1.76104 15.00041,2.94992 19.79956,7.26263 36.09108,21.40103 23.88473,47.50992 -16.50779,23.62544 -36.90029,16.58663 -53.08966,3.07102 -8.92122,-9.11124 -20.69205,-20.25905 -12.82905,-41.12569 8.8372,-10.77674 18.22074,-13.01715 27.03357,-12.40517 z m -69.37901,36.60136 c 22.00251,3.62378 25.77498,19.39739 29.20494,31.67903 3.61018,20.77824 -0.4908,41.95545 -29.20494,44.4389 -28.71414,-2.48345 -32.81512,-23.66066 -29.20493,-44.4389 3.42996,-12.28164 7.20243,-28.05525 29.20493,-31.67903 z" /><circle
               style="fill:url(#linearGradient671);fill-opacity:1;stroke:#000000;stroke-width:5;stroke-linejoin:round;stroke-miterlimit:4.3;stroke-dasharray:none;stroke-opacity:0.387422;paint-order:fill markers stroke"
               id="path7134"
               cx="281.02972"
               cy="233.86569"
               r="33.890545" /><path
               sodipodi:type="star"
               style="fill:#000000;fill-opacity:0.478499;stroke-width:47.622;stroke-linejoin:round;stroke-miterlimit:4.3;paint-order:fill markers stroke"
               id="path7180"
               inkscape:flatsided="false"
               sodipodi:sides="6"
               sodipodi:cx="-395.21582"
               sodipodi:cy="323.78027"
               sodipodi:r1="3.4829891"
               sodipodi:r2="1.7889091"
               sodipodi:arg1="0.56774445"
               sodipodi:arg2="1.0913432"
               inkscape:rounded="0"
               inkscape:randomized="0"
               inkscape:transform-center-x="0.76837568"
               inkscape:transform-center-y="-0.81688452"
               transform="matrix(3.5119186,0,0,3.5119186,1669.1962,-903.01091)"
               d="m -392.27926,325.65319 -2.11135,-0.28571 -0.97892,1.89239 -0.80824,-1.97134 -2.12832,0.0984 1.3031,-1.68563 -1.14939,-1.79397 2.11135,0.28571 0.97892,-1.89239 0.80824,1.97134 2.12832,-0.0984 -1.3031,1.68563 z" /></g></g><path
           id="rect1307"
           style="fill:url(#linearGradient2655);fill-opacity:1;stroke-width:8.3;stroke-linecap:round;stroke-linejoin:round;stroke-opacity:0.387422;paint-order:fill markers stroke"
           d="m 327.92184,255.27534 27.14342,-11.89116 v 79.41126 l -27.14342,-12.37792 z"
           sodipodi:nodetypes="ccccc" /><path
           id="rect1430"
           style="fill:url(#linearGradient2663);fill-opacity:1;stroke-width:8.3;stroke-linecap:round;stroke-linejoin:round;stroke-opacity:0.387422;paint-order:fill markers stroke"
           d="m 155.08446,282.6525 11.8407,7.03731 v 15.22825 l -11.8407,6.58317 z"
           sodipodi:nodetypes="ccccc" /><g
           id="g2205"
           transform="matrix(0.80784049,0,0,0.80784049,-126.4595,-177.20201)"><g
             id="g2203"
             transform="matrix(0.37039502,0,0,0.37039502,276.42729,403.1453)"><path
               sodipodi:type="spiral"
               style="fill:none;fill-rule:evenodd;stroke:#000000;stroke-width:4.8;stroke-miterlimit:4;stroke-dasharray:none"
               id="path2195"
               sodipodi:cx="287.16705"
               sodipodi:cy="221.91418"
               sodipodi:expansion="1"
               sodipodi:revolution="20.9"
               sodipodi:radius="109.18587"
               sodipodi:argument="-18.116268"
               sodipodi:t0="0"
               transform="translate(-7.6454202,17.967836)"
               d="m 287.16705,221.91418 c 0.58384,0.52595 -0.42092,1.04648 -0.87416,0.97037 -1.22824,-0.20625 -1.50454,-1.75128 -1.06657,-2.71869 0.78342,-1.73045 3.03573,-2.04586 4.56322,-1.16278 2.24165,1.29597 2.60213,4.3372 1.25898,6.40775 -1.79021,2.75971 -5.64466,3.16471 -8.25227,1.35519 -3.28142,-2.2771 -3.73053,-6.95496 -1.4514,-10.0968 2.76034,-3.80519 8.26687,-4.29823 11.94133,-1.5476 4.33023,3.24152 4.86711,9.57976 1.64381,13.78585 -3.72143,4.8561 -10.89333,5.43677 -15.63038,1.74002 -5.38254,-4.20049 -6.00699,-12.20737 -1.83623,-17.47491 4.67897,-5.9094 13.52174,-6.5776 19.31944,-1.93243 6.43655,5.15702 7.14851,14.83637 2.02864,21.16396 -5.63476,6.96394 -16.1512,7.71966 -23.0085,2.12485 -7.4915,-6.11225 -8.29097,-17.46619 -2.22105,-24.85303 6.58956,-8.0192 18.7813,-8.86244 26.69756,-2.31725 8.54702,7.06671 9.43402,20.0965 2.41346,28.54208 -7.54374,9.07494 -21.41181,10.0057 -30.38661,2.50966 -9.60294,-8.02066 -10.57746,-22.72716 -2.60587,-32.23113 8.49751,-10.13099 24.04259,-11.14928 34.07566,-2.70208 10.65911,8.97429 11.72116,25.35807 2.79828,35.92019 -9.451,11.18727 -26.67359,12.2931 -37.76471,2.89449 -11.71547,-9.92767 -12.86507,-27.98915 -2.9907,-39.60924 10.40429,-12.24371 29.30474,-13.43708 41.45377,-3.08691 12.77197,10.88087 14.00912,30.62036 3.18311,43.29831 -11.35742,13.30025 -31.936,14.58118 -45.14283,3.27931 -13.82857,-11.83394 -15.15328,-33.25167 -3.37552,-46.98736 12.31043,-14.35691 34.56736,-15.7254 48.83189,-3.47173 14.88526,12.78691 16.29753,35.88307 3.56793,50.67642 -13.26335,15.41364 -37.19878,16.86969 -52.52094,3.66414 -15.94203,-13.73979 -17.44186,-38.51452 -3.76035,-54.36547 14.2162,-16.47043 39.83027,-18.01404 56.21,-3.85655 16.99884,14.69259 18.58624,41.14602 3.95276,58.05452 -15.16899,17.52726 -42.4618,19.15845 -59.89906,4.04897 -18.05569,-15.64536 -19.73066,-43.77758 -4.14517,-61.74358 16.12172,-18.58414 45.09337,-20.3029 63.58811,-4.24138 19.11259,16.59807 20.87514,46.40916 4.33759,65.43264 -17.07442,19.64104 -47.72497,21.44737 -67.27717,4.43379 -20.16951,-17.55075 -22.01963,-49.04078 -4.52999,-69.1217 18.02707,-20.69798 50.35659,-22.59189 70.96622,-4.6262 21.22646,18.50339 23.16416,51.67242 4.7224,72.81075 -18.9797,21.75494 -52.98824,23.73643 -74.65527,4.81861 -22.28343,-19.45601 -24.30872,-54.30408 -4.91482,-76.4998 19.93231,-22.81193 55.61992,-24.881 78.34433,-5.01103 23.34042,20.40861 25.45329,56.93577 5.10723,80.18886 -20.88489,23.86893 -58.25161,26.02558 -82.03339,5.20344 -24.39743,-21.36118 -26.59787,-59.56746 -5.29964,-83.87791 21.83746,-24.92595 60.88332,-27.17018 85.72244,-5.39586 25.45446,22.31374 27.74249,62.19918 5.49206,87.56698 -22.79001,25.98297 -63.51504,28.31479 -89.4115,5.58826 -26.51149,-23.26628 -28.8871,-64.83091 -5.68447,-91.25603 23.74254,-27.04001 66.14677,-29.45942 93.10056,-5.78067 27.56854,24.2188 30.03174,67.46264 5.87688,94.94508 -24.69506,28.09706 -68.77852,30.60406 -96.78961,5.97309 -28.6256,-25.17132 -31.17639,-70.09439 -6.0693,-98.63414 25.64758,-29.15413 71.41027,-31.74871 100.47867,-6.1655 29.68266,26.12382 32.32104,72.72615 6.26171,102.32319 -26.60008,30.2112 -74.04203,32.89337 -104.16773,6.35792 -30.73973,-27.07632 -33.4657,-75.35792 -6.45412,-106.01226 27.55257,-31.26827 76.67381,-34.03803 107.85678,-6.55032 31.79682,28.02881 34.61037,77.98969 6.64654,109.70131 -28.50505,32.32536 -79.30558,35.1827 -111.54584,6.74273 -32.8539,-28.98128 -35.75505,-80.62146 -6.83894,-113.39036 29.45752,-33.38245 81.93736,-36.32739 115.23489,-6.93515 33.911,29.93376 36.89973,83.25325 7.03135,117.07942 -30.40998,34.43955 -84.56914,37.47208 -118.92394,7.12756 -34.9681,-30.88622 -38.04442,-85.88504 -7.22377,-120.76847 31.36245,-35.49665 87.20094,-38.61677 122.613,-7.31998 36.0252,31.83868 39.18912,88.51684 7.41618,124.45753 -32.31491,36.55376 -89.83274,39.76147 -126.30206,7.51239 -37.0823,-32.79113 -40.33381,-91.14864 -7.60859,-128.14659 33.26736,-37.61086 92.46454,-40.90616 129.99111,-7.7048 38.13943,33.74359 41.47853,93.78045 7.80101,131.83565 -34.2198,38.66798 -95.09635,42.05087 -133.68017,7.89721 -39.19654,-34.69603 -42.62323,-96.41225 -7.99342,-135.5247 35.17225,-39.7251 97.72816,-43.19558 137.36923,-8.08962 40.25365,35.64846 43.76794,99.04406 8.18583,139.21375 -36.12469,40.78222 -100.35997,44.3403 -141.05828,8.28204 -41.31078,-36.60091 -44.91266,-101.67588 -8.37825,-142.90281 37.07712,-41.83934 102.99179,-45.48502 144.74734,-8.47445 42.36791,37.55333 46.05738,104.30769 8.57066,146.59186 -38.02956,42.89647 -105.62361,46.62974 -148.4364,8.66686 -43.42503,-38.50576 -47.2021,-106.93951 -8.76306,-150.28092 38.98198,-43.95359 108.25542,-47.77446 152.12544,-8.85927 25.83689,22.91877 39.38532,57.61893 36.02957,91.98033" /><path
               id="path2197"
               style="fill:url(#linearGradient7582);fill-opacity:1;stroke-width:210.927;stroke-linejoin:round;stroke-miterlimit:4.3;paint-order:fill markers stroke;filter:url(#filter18301-3-6-3)"
               d="M 281.03406,79.272428 A 154.5945,154.5945 0 0 0 126.43647,233.87001 154.5945,154.5945 0 0 0 281.03406,388.45892 154.5945,154.5945 0 0 0 435.62296,233.87001 154.5945,154.5945 0 0 0 281.03406,79.272428 Z m 0.20773,29.706672 c 28.71413,2.48344 32.81511,23.66071 29.20493,44.43894 -3.42996,12.28164 -7.20243,28.05525 -29.20493,31.67903 -22.00251,-3.62378 -25.77498,-19.39739 -29.20494,-31.67903 -3.61018,-20.77823 0.4908,-41.9555 29.20494,-44.43894 z m -81.60255,46.80058 c 9.1848,0.49554 18.33337,5.63007 26.42806,12.3879 8.92122,9.11123 20.69204,20.26768 12.82905,41.13432 -14.13951,17.24282 -29.6828,12.61698 -42.03398,9.44661 -19.79957,-7.26262 -36.09108,-21.40102 -23.88474,-47.50996 8.25392,-11.81272 17.47686,-15.95441 26.66161,-15.45887 z m 162.98881,0.3632 c 9.18476,-0.49554 18.40774,3.65483 26.66161,15.46755 12.20634,26.10889 -4.07649,40.24733 -23.87605,47.50991 -12.35123,3.17041 -27.90311,7.78757 -42.04266,-9.45524 -7.86296,-20.86664 3.91646,-32.0231 12.83772,-41.13433 8.09469,-6.75783 17.23462,-11.89236 26.41938,-12.38789 z m -150.97292,89.52661 c 8.81284,-0.61198 18.19642,1.61976 27.03362,12.39654 7.86295,20.86664 -3.90783,32.02305 -12.82909,41.13432 -16.18938,13.51561 -36.58183,20.55443 -53.08962,-3.07102 -12.20635,-26.10889 4.08512,-40.24733 23.88473,-47.50991 4.63169,-1.18888 9.71267,-2.58275 15.00036,-2.94993 z m 138.54179,0.3632 c 5.2877,0.36718 10.36872,1.76104 15.00041,2.94992 19.79956,7.26263 36.09108,21.40103 23.88473,47.50992 -16.50779,23.62544 -36.90029,16.58663 -53.08966,3.07102 -8.92122,-9.11124 -20.69205,-20.25905 -12.82905,-41.12569 8.8372,-10.77674 18.22074,-13.01715 27.03357,-12.40517 z m -69.37901,36.60136 c 22.00251,3.62378 25.77498,19.39739 29.20494,31.67903 3.61018,20.77824 -0.4908,41.95545 -29.20494,44.4389 -28.71414,-2.48345 -32.81512,-23.66066 -29.20493,-44.4389 3.42996,-12.28164 7.20243,-28.05525 29.20493,-31.67903 z" /><circle
               style="fill:url(#linearGradient15527);fill-opacity:1;stroke:#000000;stroke-width:5;stroke-linejoin:round;stroke-miterlimit:4.3;stroke-dasharray:none;stroke-opacity:0.387422;paint-order:fill markers stroke"
               id="circle2199"
               cx="281.02972"
               cy="233.86569"
               r="33.890545" /><path
               sodipodi:type="star"
               style="fill:#000000;fill-opacity:0.478499;stroke-width:47.622;stroke-linejoin:round;stroke-miterlimit:4.3;paint-order:fill markers stroke"
               id="path2201"
               inkscape:flatsided="false"
               sodipodi:sides="6"
               sodipodi:cx="-395.21582"
               sodipodi:cy="323.78027"
               sodipodi:r1="3.4829891"
               sodipodi:r2="1.7889091"
               sodipodi:arg1="0.56774445"
               sodipodi:arg2="1.0913432"
               inkscape:rounded="0"
               inkscape:randomized="0"
               inkscape:transform-center-x="0.76837568"
               inkscape:transform-center-y="-0.81688452"
               transform="matrix(3.5119186,0,0,3.5119186,1669.1962,-903.01091)"
               d="m -392.27926,325.65319 -2.11135,-0.28571 -0.97892,1.89239 -0.80824,-1.97134 -2.12832,0.0984 1.3031,-1.68563 -1.14939,-1.79397 2.11135,0.28571 0.97892,-1.89239 0.80824,1.97134 2.12832,-0.0984 -1.3031,1.68563 z" /></g></g></g></g></g></svg>
