<?xml version="1.0" encoding="UTF-8" standalone="no"?>
<!-- Created with Inkscape (http://www.inkscape.org/) -->

<svg
   width="720.0px"
   height="576.0px"
   viewBox="0 0 720.0 576.0"
   version="1.1"
   id="SVGRoot"
   sodipodi:docname="music.svg"
   inkscape:version="1.2.1 (9c6d41e410, 2022-07-14, custom)"
   xml:space="preserve"
   xmlns:inkscape="http://www.inkscape.org/namespaces/inkscape"
   xmlns:sodipodi="http://sodipodi.sourceforge.net/DTD/sodipodi-0.dtd"
   xmlns="http://www.w3.org/2000/svg"
   xmlns:svg="http://www.w3.org/2000/svg"><sodipodi:namedview
     id="namedview310"
     pagecolor="#ffffff"
     bordercolor="#111111"
     borderopacity="1"
     inkscape:showpageshadow="0"
     inkscape:pageopacity="0"
     inkscape:pagecheckerboard="1"
     inkscape:deskcolor="#d1d1d1"
     inkscape:document-units="px"
     showgrid="false"
     inkscape:zoom="0.74280449"
     inkscape:cx="321.75357"
     inkscape:cy="308.96421"
     inkscape:window-width="931"
     inkscape:window-height="552"
     inkscape:window-x="0"
     inkscape:window-y="0"
     inkscape:window-maximized="0"
     inkscape:current-layer="layer1" /><defs
     id="defs305" /><g
     inkscape:label="Layer 1"
     inkscape:groupmode="layer"
     id="layer1"><path
       d="m 358.24404,250.89688 0.88029,-228.335417 10.86802,2.178904 c -1.74576,18.897862 2.36836,32.967742 22.62465,54.399618 41.06446,43.448225 58.01831,50.874345 62.62825,72.331865 4.61105,21.45751 1.89657,36.74767 -4.33566,50.75525 -6.23221,14.00757 -15.98219,26.7344 -25.44267,43.06711 l -5.03851,-5.22046 c 0,0 22.94716,-36.1302 22.80606,-60.09972 -0.11338,-19.35045 -2.19304,-28.40728 -16.92692,-49.33343 -14.02626,-19.92026 -56.66427,-27.63771 -56.66427,-27.63771 l -1.46579,172.8731 c 0,0 -4.49561,24.95162 -37.95697,36.28228 -24.314,8.2323 -55.99914,4.20135 -63.4839,-7.4318 -14.97244,-23.26594 11.99138,-45.27865 37.93497,-55.85808 25.94288,-10.57889 53.57143,2.02042 53.57143,2.02042 z"
       fill="#ffffff"
       id="path22"
       style="display:inline;opacity:1;fill:#7f95fe;fill-opacity:1;stroke-width:1.83256;stroke-dasharray:none" /><g
       id="g7960"
       transform="translate(-3.448067)"><path
         style="fill:none;stroke:#c0c9ff;stroke-width:22.5337;stroke-linecap:round;stroke-linejoin:miter;stroke-miterlimit:4;stroke-dasharray:none;stroke-opacity:1"
         d="M 84.178067,518.47056 H 642.79655"
         id="path8871" /><path
         style="fill:none;stroke:#7f95fe;stroke-width:19.6846;stroke-linecap:round;stroke-linejoin:miter;stroke-miterlimit:4;stroke-dasharray:none;stroke-opacity:1"
         d="M 82.675034,518.47056 H 441.52886"
         id="path11117" /></g><g
       id="g27712"
       transform="matrix(1.227413,0,0,1.227413,14.212522,16.329518)"><path
         sodipodi:type="star"
         style="fill:#7f95fe;fill-opacity:1;stroke:#7f95fe;stroke-width:14.9;stroke-linecap:round;stroke-linejoin:round;stroke-miterlimit:4;stroke-dasharray:none;stroke-opacity:1;paint-order:fill markers stroke"
         id="path861"
         inkscape:flatsided="true"
         sodipodi:sides="3"
         sodipodi:cx="259.12085"
         sodipodi:cy="278.8024"
         sodipodi:r1="51.518063"
         sodipodi:r2="25.759031"
         sodipodi:arg1="2.0943951"
         sodipodi:arg2="3.1415927"
         inkscape:rounded="0"
         inkscape:randomized="0"
         d="m 233.36182,323.41835 0,-89.2319 77.27709,44.61595 z"
         inkscape:transform-center-x="-9.6633764"
         inkscape:transform-center-y="-1.5311186e-05"
         transform="matrix(0.75028956,0,0,0.75816787,77.641826,109.77592)" /><path
         id="path23812"
         style="fill:#7f95fe;fill-opacity:1;stroke:#7f95fe;stroke-width:7.64528;stroke-linecap:round;stroke-linejoin:round;stroke-opacity:1;paint-order:fill markers stroke"
         inkscape:transform-center-x="-6.5741147"
         inkscape:transform-center-y="-1.1903148e-05"
         d="m 441.27013,296.6803 v 24.47464 24.47464 -24.47464 z m -42.90619,1.46161 v 46.02606 l 42.90619,-23.01303 z"
         sodipodi:nodetypes="ccccccccc" /><path
         id="path27707"
         style="fill:#7f95fe;fill-opacity:1;stroke:#7f95fe;stroke-width:7.64528;stroke-linecap:round;stroke-linejoin:round;stroke-opacity:1;paint-order:fill markers stroke"
         inkscape:transform-center-x="6.5741147"
         inkscape:transform-center-y="-1.1903148e-05"
         d="m 122.17099,296.6803 v 24.47464 24.47464 -24.47464 z m 42.90619,1.46161 v 46.02606 l -42.90619,-23.01303 z"
         sodipodi:nodetypes="ccccccccc" /></g></g></svg>
