<?xml version="1.0" encoding="UTF-8" standalone="no"?>
<!-- Created with Inkscape (http://www.inkscape.org/) -->

<svg
   width="720.0px"
   height="576.0px"
   viewBox="0 0 720.0 576.0"
   version="1.1"
   id="SVGRoot"
   sodipodi:docname="wallpaper.svg"
   inkscape:version="1.2.1 (9c6d41e410, 2022-07-14, custom)"
   xml:space="preserve"
   xmlns:inkscape="http://www.inkscape.org/namespaces/inkscape"
   xmlns:sodipodi="http://sodipodi.sourceforge.net/DTD/sodipodi-0.dtd"
   xmlns="http://www.w3.org/2000/svg"
   xmlns:svg="http://www.w3.org/2000/svg"><sodipodi:namedview
     id="namedview310"
     pagecolor="#ffffff"
     bordercolor="#111111"
     borderopacity="1"
     inkscape:showpageshadow="0"
     inkscape:pageopacity="0"
     inkscape:pagecheckerboard="1"
     inkscape:deskcolor="#d1d1d1"
     inkscape:document-units="px"
     showgrid="false"
     inkscape:zoom="0.74280449"
     inkscape:cx="218.76551"
     inkscape:cy="329.83107"
     inkscape:window-width="1366"
     inkscape:window-height="695"
     inkscape:window-x="0"
     inkscape:window-y="0"
     inkscape:window-maximized="1"
     inkscape:current-layer="layer1" /><defs
     id="defs305" /><g
     inkscape:label="Layer 1"
     inkscape:groupmode="layer"
     id="layer1"><g
       inkscape:label="Layer 1"
       id="layer1-2"
       transform="matrix(1.183793,0,0,1.183793,38.00831,88.161819)" /><g
       inkscape:label="Layer 1"
       id="layer1-1"
       transform="matrix(2.1006931,0,0,2.1006931,-211.38852,-48.218485)"><g
         id="g2692"
         transform="matrix(0.73526097,0,0,0.73526097,78.028362,31.99101)"><rect
           style="fill:#aaffee;stroke:none;stroke-width:30.2;stroke-linejoin:round;stroke-miterlimit:4;stroke-dasharray:none;stroke-opacity:1"
           id="rect2414"
           width="313.80338"
           height="219.13347"
           x="106.97301"
           y="63.168083" /><path
           style="fill:#784421;stroke:none;stroke-width:1px;stroke-linecap:butt;stroke-linejoin:miter;stroke-opacity:1"
           d="m 103.86468,293.89612 c 0,0 60.90651,-128.44057 87.09246,-127.84329 26.18594,0.59728 81.30833,133.99246 81.30833,133.99246 z"
           id="path991" /><path
           style="fill:#c87137;stroke:none;stroke-width:1px;stroke-linecap:butt;stroke-linejoin:miter;stroke-opacity:1"
           d="m 433.48834,283.89612 c 0,0 -53.57585,-161.34412 -95.54139,-156.92102 -41.96554,4.4231 -94.61943,146.03398 -94.61943,146.03398 z"
           id="path993"
           sodipodi:nodetypes="cscc" /><path
           style="color:#000000;fill:#ff9955;fill-rule:evenodd;stroke-linejoin:round;-inkscape-stroke:none"
           d="M 109.2379,45.893367 A 15.10151,15.10151 0 0 0 94.1383,60.992977 V 287.34649 a 15.10151,15.10151 0 0 0 15.0996,15.09961 h 307.62305 a 15.10151,15.10151 0 0 0 15.09961,-15.09961 V 60.992977 a 15.10151,15.10151 0 0 0 -15.09961,-15.09961 z m 15.09961,30.199219 H 401.76134 V 272.24688 H 124.33751 Z"
           id="path2683" /><circle
           style="fill:#ffdd55;stroke:none;stroke-width:30.2;stroke-linejoin:round;stroke-miterlimit:4;stroke-dasharray:none;stroke-opacity:1"
           id="path2558"
           cx="207.66765"
           cy="128.48962"
           r="29.816231" /></g></g></g></svg>
