<svg width="180" height="180" version="1.1" viewBox="0 0 180 180" xml:space="preserve" xmlns="http://www.w3.org/2000/svg" xmlns:xlink="http://www.w3.org/1999/xlink"><defs><linearGradient id="e" x1="-.00174" x2="180.56" y1="95.725" y2="96.665" gradientTransform="matrix(.72613 0 0 .72613 22.582 24.737)" gradientUnits="userSpaceOnUse"><stop stop-color="#ca74ff" offset="0"/><stop stop-color="#ffb688" offset="1"/></linearGradient><linearGradient id="d" x1="4.218" x2="180.53" y1="178.36" y2="2.2171" gradientTransform="matrix(.35137 0 0 .35137 97.63 101.79)" gradientUnits="userSpaceOnUse"><stop stop-color="#ca74ff" offset="0"/><stop stop-color="#ffb688" offset="1"/></linearGradient><linearGradient id="c" x1=".84863" x2="180.84" y1="180.07" y2=".21472" gradientTransform="matrix(.74351 0 0 .74351 24.49 23.598)" gradientUnits="userSpaceOnUse"><stop stop-color="#ca74ff" offset="0"/><stop stop-color="#ffb688" offset="1"/></linearGradient><linearGradient id="b" x1=".086203" x2="182.25" y1="180.16" y2="-.67255" gradientTransform="matrix(.74351 0 0 .74351 24.49 23.598)" gradientUnits="userSpaceOnUse"><stop stop-color="#ca74ff" offset="0"/><stop stop-color="#ffb688" offset="1"/></linearGradient><linearGradient id="a" x1="2.3602" x2="180.72" y1="179.11" y2="-.28694" gradientTransform="matrix(.74351 0 0 .74351 24.49 23.598)" gradientUnits="userSpaceOnUse"><stop stop-color="#ca74ff" offset="0"/><stop stop-color="#ffb688" offset="1"/></linearGradient></defs><g transform="matrix(1.0733 0 0 1.0733 .27434 -12.811)" fill="none" stroke="url(#e)" stroke-linejoin="round" stroke-width="5.8091"><path d="m99.61 98.86-40.39 46.595c-2.8792 3.2758-8.2643 3.2172-12.074-0.13145l-8.0936-7.1136c-3.81-3.3486-4.5593-8.6817-1.6801-11.957l40.797-44.429"/><path d="m120.55 96.005c-7.8941 1.7093-20.817 7.6933-33.781-3.7014-12.964-11.395-8.4038-25.134-7.8251-32.881"/><path d="m93.951 42.385c8.9811-3.8516 21.47-8.3418 34.086 2.9708 12.851 11.523 8.9675 23.903 7.5362 33.331"/><path d="m94.014 42.175 41.544 36.513c3.8291 3.3654 4.0087 9.3776 0.40277 13.48l-2.064 2.3483c-3.6059 4.1027-9.5915 4.6962-13.421 1.3308l-41.544-36.513c-3.8291-3.3654-4.0087-9.3776-0.40277-13.48l2.064-2.3483c3.6059-4.1027 9.5915-4.6962 13.421-1.3308z"/></g><path d="m133.2 158.97c-4.6185 0.0826-8.9622-3.4867-9.8161-8.0208-0.30157-1.1705-0.12713-2.4292-0.11874-3.624 0.49865-2.771 2.1104-5.29 4.4636-6.848 1.6846-1.0137 3.6166-1.7687 5.6159-1.5643 2.0885-0.16857 4.1184 0.72848 5.8245 1.8154 0.17533-1.1508 0.0248-2.6275 0.075-3.9034 0.0268-8.5865-0.0532-17.188 0.0398-25.765 0.16914-1.234 1.4805-2.0598 2.6807-1.7492 4.222 0.15721 8.3208 2.3143 11.047 5.3688 2.4753 2.7733 5.2352 7.1285 3.7077 10.517-0.45169 1.0022-1.9668 1.3834-3.0564 1.2384-4.3088-0.57341-4.3507-8.156-10.385-7.8873l-0.0676 32.317c-0.68693 2.48-2.0363 4.8314-4.1831 6.3172-1.377 0.89588-2.9188 1.5235-4.5584 1.7342-0.43582 0.11888-0.89017 0.0432-1.2691 0.0538z" fill="url(#d)" style="mix-blend-mode:normal"/><g transform="matrix(.83698 0 0 .8301 -13.957 -16.421)" stroke-width=".26645"><path d="m73.092 55.02h-29.563c-2.2513-1.0052-3.9159-3.7122-2.5086-6.0313 0.57139-1.6777 2.6281-2.6644 4.3596-2.3618h57.355c2.0048 0.82164 3.6727 2.7653 2.965 5.0241-0.11945 2.6594-3.1585 3.8053-5.4929 3.3689z" fill="url(#c)"/><path d="m73.092 72.072h-29.563c-2.2513-1.0052-3.9159-3.7122-2.5086-6.0313 0.57138-1.6777 2.6281-2.6644 4.3596-2.3618h57.355c2.0048 0.82164 3.6727 2.7653 2.965 5.0241-0.11945 2.6594-3.1585 3.8053-5.4929 3.3689z" fill="url(#b)"/><path d="m59.037 89.125h-15.508c-2.2513-1.0052-3.9159-3.7122-2.5086-6.0313 0.57138-1.6777 2.6281-2.6644 4.3596-2.3618h29.135c1.8654 0.98131 3.3367 2.8424 2.8767 5.0277-0.44002 2.2058-2.7064 3.8824-4.9872 3.3654z" fill="url(#a)"/></g></svg>
