<?xml version="1.0" encoding="UTF-8"?>
<!-- Created with Inkscape (http://www.inkscape.org/) -->
<svg width="180" height="180" version="1.1" viewBox="0 0 180 180" xml:space="preserve" xmlns="http://www.w3.org/2000/svg"><g fill="#afe9dd"><path d="m38.31 163.4c1.006-17.83 25.34 6.448 24.39-76.54-0.9466-82.99 31.54-83.13 32.56-71.6 1.022 11.53-22.96-4.89-21.28 72.03 1.674 76.92-36.68 93.94-35.67 76.12z" stroke-width=".3161"/><path d="m70.6 126.5s0.689 2.574 21.66 22.26c22.05 20.69 52.85 14.15 48.57 0.6178-4.278-13.53-21.75 12.43-43.63-13.02-21.88-25.45-19.33-17.53-19.33-17.53"/><path d="m63.22 120.5c0.05015 0.056 6.08-2.366 32.26-14.3 26.18-11.94 21.15-35.66 30.62-30.86 9.471 4.793-6.531 31.88-23.24 41.35-10.28 5.826-36.12 11.56-36.12 11.56"/></g></svg>
