<?xml version="1.0" encoding="UTF-8" standalone="no"?>
<!-- Created with Inkscape (http://www.inkscape.org/) -->

<svg
   width="180"
   height="180"
   viewBox="0 0 180 180"
   version="1.1"
   id="svg5"
   xml:space="preserve"
   sodipodi:docname="Kappa.svg"
   inkscape:version="1.2.2 (b0a8486541, 2022-12-01)"
   xmlns:inkscape="http://www.inkscape.org/namespaces/inkscape"
   xmlns:sodipodi="http://sodipodi.sourceforge.net/DTD/sodipodi-0.dtd"
   xmlns="http://www.w3.org/2000/svg"
   xmlns:svg="http://www.w3.org/2000/svg"><sodipodi:namedview
     id="namedview7"
     pagecolor="#ffffff"
     bordercolor="#000000"
     borderopacity="0.25"
     inkscape:showpageshadow="2"
     inkscape:pageopacity="0.0"
     inkscape:pagecheckerboard="0"
     inkscape:deskcolor="#d1d1d1"
     inkscape:document-units="px"
     showgrid="false"
     inkscape:zoom="4.2470695"
     inkscape:cx="52.153609"
     inkscape:cy="93.711677"
     inkscape:window-width="1920"
     inkscape:window-height="1011"
     inkscape:window-x="0"
     inkscape:window-y="0"
     inkscape:window-maximized="1"
     inkscape:current-layer="layer1" /><defs
     id="defs2" /><g
     inkscape:label="Layer 1"
     inkscape:groupmode="layer"
     id="layer1"><rect
       style="opacity:1;fill:#00222b"
       id="rect2842"
       width="180.01935"
       height="179.58798"
       x="-0.11404911"
       y="0.36514148" /><g
       id="g3628"
       style="fill:#afe9dd"><path
         style="opacity:1;fill:#afe9dd;stroke-width:0.31614"
         d="M 38.30545,163.44183 C 39.311406,145.61566 63.642111,169.88955 62.695515,86.897305 61.748919,3.9050499 94.238115,3.7721673 95.259657,15.297701 96.281197,26.823234 72.304026,10.407994 73.978342,87.325237 75.652656,164.24247 37.299493,181.26799 38.30545,163.44183 Z"
         id="path2474"
         sodipodi:nodetypes="zzzzz" /><path
         style="opacity:1;fill:#afe9dd"
         d="m 70.601903,126.5095 c 0,0 0.689027,2.57352 21.661228,22.25558 22.050379,20.69393 52.850669,14.15055 48.572869,0.61775 -4.27779,-13.5328 -21.75201,12.43467 -43.627909,-13.01929 C 75.332195,110.90959 77.878979,118.8351 77.878979,118.8351"
         id="path2788"
         sodipodi:nodetypes="cszzc" /><path
         style="opacity:1;fill:#afe9dd"
         d="m 63.221121,120.50047 c 0.05015,0.056 6.079992,-2.36552 32.259486,-14.30306 26.179453,-11.937536 21.145533,-35.657796 30.616673,-30.8644 9.47111,4.793407 -6.53071,31.87978 -23.24313,41.35054 -10.28057,5.8259 -36.118589,11.55571 -36.118589,11.55571"
         id="path2653"
         sodipodi:nodetypes="czzsc" /></g></g></svg>
