<?xml version="1.0" encoding="UTF-8" standalone="no"?>
<!-- Created with Inkscape (http://www.inkscape.org/) -->

<svg
   width="180.0px"
   height="180.0px"
   viewBox="0 0 180.0 180.0"
   version="1.1"
   id="SVGRoot"
   sodipodi:docname="ClipFrames.svg"
   xml:space="preserve"
   inkscape:version="1.2.2 (732a01da63, 2022-12-09)"
   xmlns:inkscape="http://www.inkscape.org/namespaces/inkscape"
   xmlns:sodipodi="http://sodipodi.sourceforge.net/DTD/sodipodi-0.dtd"
   xmlns:xlink="http://www.w3.org/1999/xlink"
   xmlns="http://www.w3.org/2000/svg"
   xmlns:svg="http://www.w3.org/2000/svg"><sodipodi:namedview
     id="namedview187"
     pagecolor="#ffffff"
     bordercolor="#000000"
     borderopacity="0.25"
     inkscape:showpageshadow="2"
     inkscape:pageopacity="0.0"
     inkscape:pagecheckerboard="0"
     inkscape:deskcolor="#d1d1d1"
     inkscape:document-units="px"
     showgrid="true"
     inkscape:zoom="2.0812827"
     inkscape:cx="101.13955"
     inkscape:cy="144.38212"
     inkscape:window-width="1920"
     inkscape:window-height="1013"
     inkscape:window-x="-9"
     inkscape:window-y="-9"
     inkscape:window-maximized="1"
     inkscape:current-layer="layer1"><inkscape:grid
       type="xygrid"
       id="grid310" /></sodipodi:namedview><defs
     id="defs182"><linearGradient
       inkscape:collect="always"
       xlink:href="#b"
       id="linearGradient1437"
       x1="28.347902"
       y1="129.72769"
       x2="149.90755"
       y2="50.93013"
       gradientUnits="userSpaceOnUse" /><linearGradient
       inkscape:collect="always"
       xlink:href="#a"
       id="linearGradient1824"
       x1="20.324257"
       y1="159.9968"
       x2="159.98044"
       y2="18.737755"
       gradientUnits="userSpaceOnUse" /><linearGradient
       id="b"
       x1=".086203"
       x2="182.25"
       y1="180.16"
       y2="-.67255"
       gradientTransform="matrix(.74351 0 0 .74351 24.49 23.598)"
       gradientUnits="userSpaceOnUse"><stop
         stop-color="#fc5aa9"
         offset="0"
         id="stop3933" /><stop
         stop-color="#f75d5f"
         offset="1"
         id="stop3935" /></linearGradient><linearGradient
       id="a"
       x1="2.3602"
       x2="180.72"
       y1="179.11"
       y2="-.28694"
       gradientTransform="matrix(.74351 0 0 .74351 24.49 23.598)"
       gradientUnits="userSpaceOnUse"><stop
         stop-color="#fc5aa9"
         offset="0"
         id="stop3938" /><stop
         stop-color="#f75d5f"
         offset="1"
         id="stop3940" /></linearGradient></defs><g
     inkscape:label="Layer 1"
     inkscape:groupmode="layer"
     id="layer1"><path
       style="fill:url(#linearGradient1437);stroke-width:0.641784;fill-opacity:1.0"
       d="M 46.416779,78.594354 C 43.964673,58.428537 71.497758,51.70586 78.625359,70.730065 l 1.748794,4.667689 1.67622,0.01883 c 2.518893,0.02828 2.345341,0.186789 12.099989,-11.050843 l 9.101298,-10.48494 4.10433,-1.826754 c 5.63494,-2.507125 11.7964,-1.853971 16.29764,1.727657 2.60354,2.071628 2.16755,3.103459 -5.70095,13.491928 -9.05392,11.95352 -9.71048,10.468546 5.22421,11.815788 12.97932,1.170863 14.03595,1.542749 13.81621,4.862649 -0.3799,5.739761 -4.04318,10.736813 -9.68973,13.217683 l -4.11285,1.80751 -13.88029,-0.32391 C 94.4335,98.306202 94.667538,98.284492 92.993341,100.16669 l -1.114098,1.25255 2.263105,4.41012 c 8.451252,16.46897 -10.79346,32.48087 -25.077396,20.86478 -8.49055,-6.90477 -7.996227,-17.3917 1.307909,-27.747438 2.521931,-2.80694 4.502612,-5.29048 4.401573,-5.519 C 74.673399,93.199182 71.50346,92.992934 67.730061,92.969384 55.232367,92.891363 47.522956,87.691626 46.416735,78.594255 Z m 10.058549,7.310158 c 3.79326,2.804785 19.488947,3.529209 19.199771,0.886156 -0.07651,-0.699481 0.960907,-2.449948 2.31903,-3.912945 2.294275,-2.471417 2.358077,-2.666246 0.960649,-2.933324 -2.924754,-0.558981 -3.664522,-0.960381 -3.76836,-2.044741 C 74.487961,70.606665 72.548463,67.162496 68.065642,65.254605 54.446138,59.458127 44.551137,77.087582 56.475328,85.904512 Z m -0.605685,-9.809316 c -0.118969,-3.681318 3.777164,-7.291779 7.633626,-7.073909 5.296736,0.299216 8.462393,6.812129 5.395238,11.099921 -3.982536,5.567467 -12.806927,2.840666 -13.028864,-4.026012 z m 6.925126,2.242293 c 0.855275,0.24264 1.390595,0.02173 2.077054,-0.857126 1.782269,-2.281786 -1.21875,-5.017505 -3.394979,-3.094799 -1.214955,1.073434 -0.419397,3.459061 1.317922,3.951918 z m 11.174446,45.949391 c 12.006828,6.60458 24.036784,-9.5776 14.113581,-18.98499 -2.900669,-2.74989 -2.905627,-2.74115 14.811084,-26.048855 9.27154,-12.197423 16.77368,-22.366377 16.67141,-22.597677 -0.65465,-1.480654 -6.08346,-1.701837 -9.55409,-0.38927 l -3.68526,1.393739 -12.809629,14.673163 -12.809635,14.673155 0.91718,2.564432 0.917183,2.564441 -7.085391,8.337782 c -9.757217,11.48186 -10.226852,19.00622 -1.486433,23.81408 z m -1.340712,-11.13054 c 0.692849,-7.19492 10.524315,-8.77046 13.411439,-2.14925 1.730592,3.9683 0.265116,7.49639 -3.873453,9.32621 -4.474791,1.97848 -10.017946,-2.19254 -9.537986,-7.17696 z m 7.282349,2.92209 c 2.723752,-0.29798 2.93371,-4.32919 0.238707,-4.58301 -1.791239,-0.16871 -2.988116,1.61491 -2.23169,3.32575 0.399115,0.90269 1.113634,1.35344 1.992983,1.25726 z M 87.23392,85.765037 c 0.785319,-1.578022 2.884764,-1.27787 3.682277,0.525893 0.797658,1.804093 -0.393318,3.558659 -2.089032,3.077609 C 88.12823,89.170255 87.351403,88.54443 87.100886,87.977825 86.850363,87.411209 86.91023,86.415461 87.23392,85.765037 Z m 23.58648,8.135985 12.05533,0.17414 3.31384,-1.761184 c 3.1024,-1.648838 6.54545,-5.872159 5.92721,-7.270452 -0.10222,-0.231191 -5.90362,-0.920633 -12.89203,-1.532123 l -12.70618,-1.111771 -4.02995,5.31712 c -5.006342,6.60536 -5.849646,5.97941 8.33178,6.18427 z"
       id="path453"
       inkscape:transform-center-x="-1.8800223"
       inkscape:transform-center-y="3.4863265" /><path
       id="rect867"
       style="fill:url(#linearGradient1824);fill-opacity:1.0;stroke:none;stroke-width:5.21854;stroke-linecap:round;stroke-linejoin:round;stroke-opacity:1;paint-order:fill markers stroke"
       d="M 25.333986,16 C 20.16339,16 16,20.912555 16,27.016406 V 152.6791 c 0,6.10385 4.16339,11.01642 9.333986,11.0164 H 154.49023 c 5.1706,0 9.33399,-4.91255 9.33399,-11.0164 V 27.016406 C 163.82422,20.912555 159.66083,16 154.49023,16 Z m -1.011722,7.795414 h 9.080079 c 1.283647,0 2.318357,1.221469 2.318357,2.736807 v 3.331667 c 0,1.515329 -1.03471,2.736808 -2.318357,2.736808 h -9.080079 c -1.283647,0 -2.318357,-1.221479 -2.318357,-2.736808 v -3.331667 c 0,-1.515338 1.03471,-2.736807 2.318357,-2.736807 z m 20.349607,0 h 9.082036 c 1.28364,0 2.316407,1.221469 2.316407,2.736807 v 3.331667 c 0,1.515329 -1.032767,2.736808 -2.316407,2.736808 h -9.082036 c -1.283633,0 -2.3164,-1.221479 -2.3164,-2.736808 v -3.331667 c 0,-1.515338 1.032767,-2.736807 2.3164,-2.736807 z m 20.349613,0 h 9.08203 c 1.283647,0 2.316406,1.221469 2.316406,2.736807 v 3.331667 c 0,1.515329 -1.032759,2.736808 -2.316406,2.736808 h -9.08203 c -1.283647,0 -2.316406,-1.221479 -2.316406,-2.736808 v -3.331667 c 0,-1.515338 1.032759,-2.736807 2.316406,-2.736807 z m 20.349607,0 h 9.082036 c 1.283633,0 2.316407,1.221469 2.316407,2.736807 v 3.331667 c 0,1.515329 -1.032774,2.736808 -2.316407,2.736808 h -9.082036 c -1.283647,0 -2.316407,-1.221479 -2.316407,-2.736808 v -3.331667 c 0,-1.515338 1.03276,-2.736807 2.316407,-2.736807 z m 20.349619,0 h 9.08202 c 1.28365,0 2.31641,1.221469 2.31641,2.736807 v 3.331667 c 0,1.515329 -1.03276,2.736808 -2.31641,2.736808 h -9.08202 c -1.28365,0 -2.31641,-1.221479 -2.31641,-2.736808 v -3.331667 c 0,-1.515338 1.03276,-2.736807 2.31641,-2.736807 z m 20.3496,0 h 9.08203 c 1.28365,0 2.31641,1.221469 2.31641,2.736807 v 3.331667 c 0,1.515329 -1.03276,2.736808 -2.31641,2.736808 h -9.08203 c -1.28364,0 -2.3164,-1.221479 -2.3164,-2.736808 v -3.331667 c 0,-1.515338 1.03276,-2.736807 2.3164,-2.736807 z m 20.35157,0 h 9.08007 c 1.28365,0 2.31836,1.221469 2.31836,2.736807 v 3.331667 c 0,1.515329 -1.03471,2.736808 -2.31836,2.736808 h -9.08007 c -1.28365,0 -2.31836,-1.221479 -2.31836,-2.736808 v -3.331667 c 0,-1.515338 1.03471,-2.736807 2.31836,-2.736807 z M 33.78906,43.054532 h 112.2461 c 5.98561,0 10.80468,5.688884 10.80468,12.754867 v 68.076711 c 0,7.06598 -4.81907,12.75486 -10.80468,12.75486 H 33.78906 c -5.985615,0 -10.804685,-5.68888 -10.804685,-12.75486 V 55.809399 c 0,-7.065983 4.81907,-12.754867 10.804685,-12.754867 z M 24.322264,147.0948 h 9.080079 c 1.283647,-1e-5 2.318357,1.22148 2.318357,2.73681 v 3.33168 c 0,1.51533 -1.03471,2.73681 -2.318357,2.7368 h -9.080079 c -1.283647,1e-5 -2.318357,-1.22147 -2.318357,-2.7368 v -3.33168 c 0,-1.51533 1.03471,-2.73681 2.318357,-2.73681 z m 20.349607,0 h 9.082036 c 1.28364,-1e-5 2.316407,1.22148 2.316407,2.73681 v 3.33168 c 0,1.51533 -1.032767,2.73681 -2.316407,2.7368 h -9.082036 c -1.283633,1e-5 -2.3164,-1.22147 -2.3164,-2.7368 v -3.33168 c 0,-1.51533 1.032767,-2.73681 2.3164,-2.73681 z m 20.349613,0 h 9.08203 c 1.283647,-1e-5 2.316406,1.22148 2.316406,2.73681 v 3.33168 c 0,1.51533 -1.032759,2.73681 -2.316406,2.7368 h -9.08203 c -1.283647,1e-5 -2.316406,-1.22147 -2.316406,-2.7368 v -3.33168 c 0,-1.51533 1.032759,-2.73681 2.316406,-2.73681 z m 20.349607,0 h 9.082036 c 1.283633,-1e-5 2.316407,1.22148 2.316407,2.73681 v 3.33168 c 0,1.51533 -1.032774,2.73681 -2.316407,2.7368 h -9.082036 c -1.283647,1e-5 -2.316407,-1.22147 -2.316407,-2.7368 v -3.33168 c 0,-1.51533 1.03276,-2.73681 2.316407,-2.73681 z m 20.349619,0 h 9.08202 c 1.28365,-1e-5 2.31641,1.22148 2.31641,2.73681 v 3.33168 c 0,1.51533 -1.03276,2.73681 -2.31641,2.7368 h -9.08202 c -1.28365,1e-5 -2.31641,-1.22147 -2.31641,-2.7368 v -3.33168 c 0,-1.51533 1.03276,-2.73681 2.31641,-2.73681 z m 20.3496,0 h 9.08203 c 1.28365,-1e-5 2.31641,1.22148 2.31641,2.73681 v 3.33168 c 0,1.51533 -1.03276,2.73681 -2.31641,2.7368 h -9.08203 c -1.28364,1e-5 -2.3164,-1.22147 -2.3164,-2.7368 v -3.33168 c 0,-1.51533 1.03276,-2.73681 2.3164,-2.73681 z m 20.35157,0 h 9.08007 c 1.28365,-1e-5 2.31836,1.22148 2.31836,2.73681 v 3.33168 c 0,1.51533 -1.03471,2.73681 -2.31836,2.7368 h -9.08007 c -1.28365,1e-5 -2.31836,-1.22147 -2.31836,-2.7368 v -3.33168 c 0,-1.51533 1.03471,-2.73681 2.31836,-2.73681 z" /></g></svg>
