<?xml version="1.0" encoding="UTF-8"?>
<!-- Created with Inkscape (http://www.inkscape.org/) -->
<svg id="SVGRoot" width="180px" height="180px" version="1.1" viewBox="0 0 180 180" xml:space="preserve" xmlns="http://www.w3.org/2000/svg" xmlns:xlink="http://www.w3.org/1999/xlink"><defs><linearGradient id="linearGradient1437" x1="28.3" x2="150" y1="130" y2="50.9" gradientTransform="matrix(.744 0 0 .744 24.5 23.6)" gradientUnits="userSpaceOnUse"><stop stop-color="#fc5aa9" offset="0"/><stop stop-color="#f75d5f" offset="1"/></linearGradient><linearGradient id="linearGradient1824" x1="20.3" x2="160" y1="160" y2="18.7" gradientTransform="matrix(.744 0 0 .744 24.5 23.6)" gradientUnits="userSpaceOnUse"><stop stop-color="#fc5aa9" offset="0"/><stop stop-color="#f75d5f" offset="1"/></linearGradient></defs><g><path d="m46.4 78.6c-2.45-20.2 25.1-26.9 32.2-7.86l1.75 4.67 1.68 0.0188c2.52 0.0283 2.35 0.187 12.1-11.1l9.1-10.5 4.1-1.83c5.63-2.51 11.8-1.85 16.3 1.73 2.6 2.07 2.17 3.1-5.7 13.5-9.05 12-9.71 10.5 5.22 11.8 13 1.17 14 1.54 13.8 4.86-0.38 5.74-4.04 10.7-9.69 13.2l-4.11 1.81-13.9-0.324c-14.9-0.347-14.6-0.369-16.3 1.51l-1.11 1.25 2.26 4.41c8.45 16.5-10.8 32.5-25.1 20.9-8.49-6.9-8-17.4 1.31-27.7 2.52-2.81 4.5-5.29 4.4-5.52-0.101-0.229-3.27-0.435-7.04-0.458-12.5-0.078-20.2-5.28-21.3-14.4zm10.1 7.31c3.79 2.8 19.5 3.53 19.2 0.886-0.0765-0.699 0.961-2.45 2.32-3.91 2.29-2.47 2.36-2.67 0.961-2.93-2.92-0.559-3.66-0.96-3.77-2.04-0.698-7.29-2.64-10.7-7.12-12.6-13.6-5.8-23.5 11.8-11.6 20.6zm-0.606-9.81c-0.119-3.68 3.78-7.29 7.63-7.07 5.3 0.299 8.46 6.81 5.4 11.1-3.98 5.57-12.8 2.84-13-4.03zm6.93 2.24c0.855 0.243 1.39 0.0217 2.08-0.857 1.78-2.28-1.22-5.02-3.39-3.09-1.21 1.07-0.419 3.46 1.32 3.95zm11.2 45.9c12 6.6 24-9.58 14.1-19-2.9-2.75-2.91-2.74 14.8-26 9.27-12.2 16.8-22.4 16.7-22.6-0.655-1.48-6.08-1.7-9.55-0.389l-3.69 1.39-25.6 29.3 1.83 5.13-7.09 8.34c-9.76 11.5-10.2 19-1.49 23.8zm-1.34-11.1c0.693-7.19 10.5-8.77 13.4-2.15 1.73 3.97 0.265 7.5-3.87 9.33-4.47 1.98-10-2.19-9.54-7.18zm7.28 2.92c2.72-0.298 2.93-4.33 0.239-4.58-1.79-0.169-2.99 1.61-2.23 3.33 0.399 0.903 1.11 1.35 1.99 1.26zm7.32-30.3c0.785-1.58 2.88-1.28 3.68 0.526 0.798 1.8-0.393 3.56-2.09 3.08-0.699-0.198-1.48-0.824-1.73-1.39-0.251-0.567-0.191-1.56 0.133-2.21zm23.6 8.14 12.1 0.174 3.31-1.76c3.1-1.65 6.55-5.87 5.93-7.27-0.102-0.231-5.9-0.921-12.9-1.53l-12.7-1.11-4.03 5.32c-5.01 6.61-5.85 5.98 8.33 6.18z" fill="url(#linearGradient1437)" stroke-width=".642"/><path d="m25.3 16c-5.17 0-9.33 4.91-9.33 11v126c0 6.1 4.16 11 9.33 11h129c5.17 0 9.33-4.91 9.33-11v-126c0-6.1-4.16-11-9.33-11zm-1.01 7.8h9.08c1.28 0 2.32 1.22 2.32 2.74v3.33c0 1.52-1.03 2.74-2.32 2.74h-9.08c-1.28 0-2.32-1.22-2.32-2.74v-3.33c0-1.52 1.03-2.74 2.32-2.74zm20.3 0h9.08c1.28 0 2.32 1.22 2.32 2.74v3.33c0 1.52-1.03 2.74-2.32 2.74h-9.08c-1.28 0-2.32-1.22-2.32-2.74v-3.33c0-1.52 1.03-2.74 2.32-2.74zm20.3 0h9.08c1.28 0 2.32 1.22 2.32 2.74v3.33c0 1.52-1.03 2.74-2.32 2.74h-9.08c-1.28 0-2.32-1.22-2.32-2.74v-3.33c0-1.52 1.03-2.74 2.32-2.74zm20.3 0h9.08c1.28 0 2.32 1.22 2.32 2.74v3.33c0 1.52-1.03 2.74-2.32 2.74h-9.08c-1.28 0-2.32-1.22-2.32-2.74v-3.33c0-1.52 1.03-2.74 2.32-2.74zm20.3 0h9.08c1.28 0 2.32 1.22 2.32 2.74v3.33c0 1.52-1.03 2.74-2.32 2.74h-9.08c-1.28 0-2.32-1.22-2.32-2.74v-3.33c0-1.52 1.03-2.74 2.32-2.74zm20.3 0h9.08c1.28 0 2.32 1.22 2.32 2.74v3.33c0 1.52-1.03 2.74-2.32 2.74h-9.08c-1.28 0-2.32-1.22-2.32-2.74v-3.33c0-1.52 1.03-2.74 2.32-2.74zm20.4 0h9.08c1.28 0 2.32 1.22 2.32 2.74v3.33c0 1.52-1.03 2.74-2.32 2.74h-9.08c-1.28 0-2.32-1.22-2.32-2.74v-3.33c0-1.52 1.03-2.74 2.32-2.74zm-113 19.3h112c5.99 0 10.8 5.69 10.8 12.8v68.1c0 7.07-4.82 12.8-10.8 12.8h-112c-5.99 0-10.8-5.69-10.8-12.8v-68.1c0-7.07 4.82-12.8 10.8-12.8zm-9.47 104h9.08c1.28-1e-5 2.32 1.22 2.32 2.74v3.33c0 1.52-1.03 2.74-2.32 2.74h-9.08c-1.28 1e-5 -2.32-1.22-2.32-2.74v-3.33c0-1.52 1.03-2.74 2.32-2.74zm20.3 0h9.08c1.28-1e-5 2.32 1.22 2.32 2.74v3.33c0 1.52-1.03 2.74-2.32 2.74h-9.08c-1.28 1e-5 -2.32-1.22-2.32-2.74v-3.33c0-1.52 1.03-2.74 2.32-2.74zm20.3 0h9.08c1.28-1e-5 2.32 1.22 2.32 2.74v3.33c0 1.52-1.03 2.74-2.32 2.74h-9.08c-1.28 1e-5 -2.32-1.22-2.32-2.74v-3.33c0-1.52 1.03-2.74 2.32-2.74zm20.3 0h9.08c1.28-1e-5 2.32 1.22 2.32 2.74v3.33c0 1.52-1.03 2.74-2.32 2.74h-9.08c-1.28 1e-5 -2.32-1.22-2.32-2.74v-3.33c0-1.52 1.03-2.74 2.32-2.74zm20.3 0h9.08c1.28-1e-5 2.32 1.22 2.32 2.74v3.33c0 1.52-1.03 2.74-2.32 2.74h-9.08c-1.28 1e-5 -2.32-1.22-2.32-2.74v-3.33c0-1.52 1.03-2.74 2.32-2.74zm20.3 0h9.08c1.28-1e-5 2.32 1.22 2.32 2.74v3.33c0 1.52-1.03 2.74-2.32 2.74h-9.08c-1.28 1e-5 -2.32-1.22-2.32-2.74v-3.33c0-1.52 1.03-2.74 2.32-2.74zm20.4 0h9.08c1.28-1e-5 2.32 1.22 2.32 2.74v3.33c0 1.52-1.03 2.74-2.32 2.74h-9.08c-1.28 1e-5 -2.32-1.22-2.32-2.74v-3.33c0-1.52 1.03-2.74 2.32-2.74z" fill="url(#linearGradient1824)" style="paint-order:fill markers stroke"/></g></svg>
