<?xml version="1.0" encoding="UTF-8"?>
<!-- Created with Inkscape (http://www.inkscape.org/) -->
<svg width="180" height="180" version="1.1" viewBox="0 0 180 180" xml:space="preserve" xmlns="http://www.w3.org/2000/svg"><g fill="none" stroke="#f95" stroke-linecap="round" stroke-linejoin="round"><g transform="translate(1.54)" stroke-width="10.61"><path d="m54.04 28.45c-15.15-10.97-46.82 7.186-19.08 33.52 27.74 26.34 4.364 43.5-14.39 29.05"/><path d="m63.86 72.15c0.8591 36.26 19.42 27.98 18.86 0.1511-0.5605-27.83-19.72-36.41-18.86-0.1511z"/><path d="m118.7 24.39c-21.42-7.787-18.63-1.771-21.17 71.89"/><path d="m118.7 52.22-37.66 1.628"/><path d="m139.3 24c-11.36 47.36-21.47 95.03 17.02 57.12"/><path d="m116.2 35.73c8.404 15.67 20.79 15.21 35.75 4.337"/></g><g transform="translate(-.3034)" stroke-width="4.699"><path d="m43.64 126.2c-3.294 6.947-4.841 15.68-4.427 26.41 19.28 8.749 33.11-11.18 11.06-16.93 40.35-6.316-10.69-30.47-17.52-6.608"/><path d="m94.97 135.8c-21.04 17.39 1.625 26.45 4.062 1.555 0.5096 8.549-4.657 21.75 8.672 10.78"/><path d="m66.95 144c-2.321 12.33 10.28 11.85 12.82 0.6824 2.536-11.17-10.5-13.01-12.82-0.6824z"/><path d="m110.1 135.5-2.23 17.98c2.162-6.862 5.577-14.14 10.89-16.77"/><path d="m136.3 135.1c-26.76 14.91 2.69 26.59 2.217 8.161 17.86-35.56 0.6202-36.77-1.334-10.03 0.9404 10.25-1.157 25.94 10.71 16.63"/></g></g></svg>
