<?xml version="1.0" encoding="UTF-8" standalone="no"?>
<!-- Created with Inkscape (http://www.inkscape.org/) -->

<svg
   width="180"
   height="180"
   viewBox="0 0 180 180"
   version="1.1"
   id="svg5"
   xml:space="preserve"
   inkscape:version="1.2.2 (b0a8486541, 2022-12-01)"
   sodipodi:docname="SoftBoard.svg"
   xmlns:inkscape="http://www.inkscape.org/namespaces/inkscape"
   xmlns:sodipodi="http://sodipodi.sourceforge.net/DTD/sodipodi-0.dtd"
   xmlns="http://www.w3.org/2000/svg"
   xmlns:svg="http://www.w3.org/2000/svg"><sodipodi:namedview
     id="namedview7"
     pagecolor="#ffffff"
     bordercolor="#000000"
     borderopacity="0.25"
     inkscape:showpageshadow="2"
     inkscape:pageopacity="0.0"
     inkscape:pagecheckerboard="0"
     inkscape:deskcolor="#d1d1d1"
     inkscape:document-units="px"
     showgrid="false"
     inkscape:zoom="2.4546614"
     inkscape:cx="107.14309"
     inkscape:cy="59.071284"
     inkscape:window-width="1920"
     inkscape:window-height="1011"
     inkscape:window-x="0"
     inkscape:window-y="0"
     inkscape:window-maximized="1"
     inkscape:current-layer="layer1" /><defs
     id="defs2" /><g
     inkscape:label="Layer 1"
     inkscape:groupmode="layer"
     id="layer1"><rect
       style="fill:#2b1100;stroke:none;stroke-width:11.09;stroke-linecap:round;stroke-linejoin:round;stroke-dasharray:none"
       id="rect1299"
       width="179.41286"
       height="179.09277"
       x="0.3956202"
       y="1.1194253" /><g
       id="g2276"
       transform="translate(1.5402235)"><path
         style="fill:none;stroke:#ff9955;stroke-width:10.6061;stroke-linecap:round;stroke-linejoin:round;stroke-dasharray:none"
         d="M 54.041862,28.451059 C 38.894951,17.481715 7.2191546,35.637557 34.958681,61.974093 62.698208,88.31062 39.323084,105.47025 20.572333,91.02269"
         id="path2106"
         sodipodi:nodetypes="czc" /><path
         style="fill:none;stroke:#ff9955;stroke-width:10.6061;stroke-linecap:round;stroke-linejoin:round;stroke-dasharray:none"
         d="m 63.859364,72.14934 c 0.859057,36.2614 19.424438,27.98489 18.863913,0.15107 C 82.162763,44.46659 63.000306,35.887938 63.859364,72.14934 Z"
         id="path2171"
         sodipodi:nodetypes="zzz" /><path
         style="fill:none;stroke:#ff9955;stroke-width:10.6061;stroke-linecap:round;stroke-linejoin:round;stroke-dasharray:none"
         d="M 118.7264,24.39208 C 97.304838,16.604943 100.09191,22.621105 97.552349,96.27869"
         id="path2173"
         sodipodi:nodetypes="cc" /><path
         style="fill:none;stroke:#ff9955;stroke-width:10.6061;stroke-linecap:round;stroke-linejoin:round;stroke-dasharray:none"
         d="M 118.74213,52.219528 81.086681,53.847735"
         id="path2175" /><path
         style="fill:none;stroke:#ff9955;stroke-width:10.6061;stroke-linecap:round;stroke-linejoin:round;stroke-dasharray:none"
         d="M 139.32867,23.999713 C 127.9688,71.36007 117.85598,119.03188 156.34722,81.11917"
         id="path2177"
         sodipodi:nodetypes="cc" /><path
         style="fill:none;stroke:#ff9955;stroke-width:10.6061;stroke-linecap:round;stroke-linejoin:round;stroke-dasharray:none"
         d="m 116.24002,35.734983 c 8.40429,15.672052 20.79193,15.213702 35.75237,4.33699"
         id="path2179"
         sodipodi:nodetypes="cc" /></g><g
       id="g2283"
       transform="translate(-0.3033805)"
       style="stroke:#ff9955"><path
         style="fill:none;stroke:#ff9955;stroke-width:4.69928;stroke-linecap:round;stroke-linejoin:round;stroke-dasharray:none"
         d="m 43.639152,126.19095 c -3.294107,6.9468 -4.841258,15.67811 -4.426696,26.41328 19.276761,8.74867 33.111025,-11.18 11.057315,-16.9262 40.347657,-6.31608 -10.690996,-30.47445 -17.52285,-6.60787"
         id="path2193"
         sodipodi:nodetypes="cccc" /><path
         style="fill:none;stroke:#ff9955;stroke-width:4.69928;stroke-linecap:round;stroke-linejoin:round;stroke-dasharray:none"
         d="m 94.970221,135.76707 c -21.040354,17.38912 1.624998,26.45196 4.062078,1.55529 0.5096,8.5492 -4.656617,21.74622 8.672061,10.78434"
         id="path2199"
         sodipodi:nodetypes="ccc" /><path
         style="fill:none;stroke:#ff9955;stroke-width:4.69928;stroke-linecap:round;stroke-linejoin:round;stroke-dasharray:none"
         d="m 66.949657,143.95688 c -2.320763,12.32673 10.284182,11.8475 12.819933,0.68242 2.53575,-11.16507 -10.499171,-13.00916 -12.819933,-0.68242 z"
         id="path2201"
         sodipodi:nodetypes="zzz" /><path
         style="fill:none;stroke:#ff9955;stroke-width:4.69928;stroke-linecap:round;stroke-linejoin:round;stroke-dasharray:none"
         d="m 110.11431,135.51619 -2.22991,17.9817 c 2.16158,-6.86211 5.57652,-14.14117 10.88508,-16.77282"
         id="path2203"
         sodipodi:nodetypes="ccc" /><path
         style="fill:none;stroke:#ff9955;stroke-width:4.69928;stroke-linecap:round;stroke-linejoin:round;stroke-dasharray:none"
         d="m 136.26633,135.12494 c -26.76365,14.91214 2.68954,26.58555 2.21692,8.16056 17.85847,-35.55685 0.62016,-36.76985 -1.3343,-10.02912 0.94037,10.25222 -1.15663,25.9434 10.71089,16.62855"
         id="path2268"
         sodipodi:nodetypes="cccc" /></g></g></svg>
