<?xml version="1.0" encoding="UTF-8"?>
<!-- Created with Inkscape (http://www.inkscape.org/) -->
<svg width="180" height="180" version="1.1" viewBox="0 0 180 180" xml:space="preserve" xmlns="http://www.w3.org/2000/svg"><path d="m-11.88-9.625v199.2h203.8v-199.2zm116.2 35.53c0.3554 0.01654 0.7179 0.05721 1.084 0.125 4.994 0.9249 7.931 2.869 9.133 5.572 1.201 2.703 0.6867 5.38 0.5215 7.693-0.2 2.8-1.067 4.639-1.287 5.74s-0.2954 1.58 1.201 3.525c0.5383 0.6998 0.8094 0.7775 1.607 0.8926 0.798 0.1151 2.066 0.04283 3.65 0.1914 3.17 0.2971 7.355 1.95 11.39 8.004 1.096 1.645 2.105 3.416 3.043 5.271 3.26-0.3636 6.252-0.6581 7.42-0.7109 0.3119-0.01411 0.4947-0.0112 0.5176 0.01172 0.0842 0.08418 0.3618 1.729 0.6172 3.654l0.4648 3.5h-3.67l0.2871 1.967 0.2891 1.965-1.551 0.3887-0.0742 0.01953c2.924 9.471 4.273 19.96 4.055 29.33-0.1826 7.85-2.781 11.07-3.869 14.23s-1.363 7.189 2.717 18.85c2.259 6.454 7.701 14.71 7.701 14.71 0.9327 1.399-0.0703 3.273-1.752 3.273h-115.3c-1.087-4.1e-4 -1.995-0.828-2.096-1.91 0 0-0.7276-7.775-0.3438-16.77 0.37-8.672 1.504-18.48 6.25-24.22 0.756-16.6 3.614-24.73 5.811-30.53l-1.197 0.3223c-0.828 0.2219-2.334 0.4071-3.346 0.4121l-1.84 0.0098v-3.174l6.691-0.8867v-3.873l2.084-0.2324c0.01765-0.09605 0.04251-0.1906 0.05859-0.2871 0.2734-1.64 0.1919-4.798-0.0957-8.451-0.2876-3.654-0.7433-7.869-1.049-12.02-0.3056-4.147-0.4691-8.217-0.1348-11.71 0.3344-3.494 1.029-6.605 3.445-8.484 2.054-1.597 4.595-2.045 7.014-1.809 2.419 0.2362 4.803 1.104 7.021 2.248 4.437 2.289 8.183 5.471 9.818 8.508 0.3076 0.5712 0.3511 0.6853 0.5156 1.014 0.7132 0.3129 1.239 0.7277 2.129 1.512 0.2723 0.24 1.843 0.8814 3.924 1.152 2.081 0.271 4.668 0.3333 7.215 0.2363 2.547-0.09697 5.066-0.3499 7.037-0.6758 0.9854-0.1629 1.835-0.3477 2.453-0.5215 0.4782-0.1346 0.6215-0.2163 0.6934-0.2402 0.03439-0.06164 0.06484-0.09577 0.1035-0.2383 0.1217-0.4486 0.2456-1.188 0.3535-2.066 0.2158-1.756 0.3904-4.071 0.8066-6.373 0.4162-2.302 1.028-4.635 2.498-6.521 1.103-1.415 2.865-2.419 4.912-2.604 0.3412-0.0307 0.6895-0.03802 1.045-0.02148zm-60.93 51.41-0.9219 0.2324v2.311c0.3359-0.8829 0.6377-1.74 0.9219-2.543z" stroke-width="0"/><path d="m47.66 40.59c-0.02635 0.2065-0.06902 0.3762-0.08984 0.5938-0.1924 2.011-0.1594 4.457-0.05469 7.016zm3.217 26.85-1.85 1.85c0.01885 1.255-0.0069 2.429-0.123 3.482 0.3406-0.03792 0.4001-0.04483 0.7344-0.08203 0.6857-2.075 1.165-3.927 1.238-5.25zm68.48 0.5918 0.4394 2.008 0.4414 2.008h-3.451v-3.346h-4.016v0.9473c0 0.5219 0.1829 1.426 0.4062 2.008l0.4062 1.059h3.203v1.562c0 2.032 0.3575 2.326 2.357 1.943l1.656-0.3164v-3.857h2.678v3.346h4.014v-4.016h-4.014v-3.346h-2.061zm-38.95 1.338c-0.4727 0-5.828 0.5707-14.34 1.504-0.0028 0.0033-0.0051 0.0064-0.0078 0.0098 8.144-0.8933 13.91-1.514 14.35-1.514zm-4.094 3.68-0.3477 2-0.3457 2-2.332 0.4492v-1.684c0-2.015-0.6173-2.493-2.561-1.984l-1.453 0.3789v3.77l1.84 0.2129 1.84 0.2109 0.2129 1.506 0.2148 1.506h3.252v3.346h4.016v-4.016h2.582l0.2148 1.506 0.2129 1.506h3.346l0.4336-4.523-1.756 0.334-1.756 0.3359-0.793-3.961-3.084 0.5898-0.2031-1.74-0.2012-1.742h-1.666zm-28.08 3.453c-0.02148 3e-3 -0.05087 0.0068-0.07227 0.0098-0.1064 0.382-0.2443 0.7544-0.3633 1.131 0.1574-0.3879 0.2844-0.7556 0.4355-1.141zm28.4 0.8965h3.439l-0.2148 1.5-0.2129 1.498-1.037 0.1973c-0.57 0.1085-1.248-0.01342-1.506-0.2715s-0.4688-1.023-0.4688-1.697zm54.18 1.17-3.826 0.4277c-1.419 0.1587-2.54 0.3021-3.848 0.457 2.01 3.626 4.352 6.623 4.352 6.623s0.2325 0.7842 0.5215 2.029h0.8144v3.346c0 0.396-0.0132 0.6594-0.0195 1.004 0.3751 2.821 0.5254 6.138-0.125 9.033h0.1445v2.676h-1.066c-3.169 6.453-12.05 9.181-18.21 9.523-5.727 0.3182-6.476-2.027-7.639-6.178h-1.184v-2.676h0.707c0.3544-2.737 5.133-1.484 8.115-3.572 2.72-1.904 4.998-5.738 4.496-9.811h-0.6035v-2.359c-0.1279-0.3156-0.274-0.6315-0.4414-0.9453-2.761-5.177-6.213-6.211-11.04-3.795-0.9669 0.4834-2.629 0.682-4.693 0.7148l0.2266 1.031-1.559 0.03906c-0.8573 0.02112-6.004 0.5687-11.44 1.219-5.432 0.65-10.02 1.036-10.2 0.8555-0.1805-0.1805-0.3281-1.067-0.3281-1.969v-1.639l-1.639 0.3125-1.637 0.3145-0.2031-1.742-0.0039-0.0332c-0.617 0.04333-1.186 0.1058-1.658 0.2051-6.557 1.381-8.972 5.177-7.592 12.08 1.381 6.903 12.42 14.5 21.05 20.02 8.628 5.522 13.46 13.46 26.57 12.43 13.11-1.035 21.4-17.95 24.85-18.64s2.07 2.416 2.07 2.416-12.77 14.84-13.46 19.67c-0.6902 4.832 3.451 13.46-17.6 13.8-21.05 0.3451-28.65-0.6908-28.65-6.213 0-4.123-4.23-5.933-6.375-6.588-3.336 1.2-7.164 1.261-10.5 1.334-0.0087 0.0275-0.02808 0.0498-0.03516 0.0781-0.6903 2.761 0.0016 7.246 4.488 10.7 1.337 1.029 2.113 2.014 2.6 2.908 2.094 0.7609 3.611 1.234 3.611 1.234l-0.375 1h74.61c-1.84-2.978-4.416-7.406-6.158-12.38-4.208-12.02-4.14-17.49-2.725-21.61 1.415-4.116 3.478-5.97 3.641-12.96 0.1464-6.297-0.5164-13.21-1.889-19.9-1.064 0.6574-2.525 0.8482-4.289-0.7559-0.8834-0.8031-1.442-2.14-1.855-3.711zm-33.44 22.92h2.678v2.676h-2.678v-1.338z" opacity=".9" stroke-linejoin="round" stroke-width="6.293"/><g stroke-width="0"><path d="m112.3 51.78c-7e-3 0.01326-0.0165 0.01829-0.0234 0.03125-0.0979 0.1838-0.2024 0.3426-0.3223 0.4453-2.416 2.071-6.903 10.01-11.04 8.973-0.5177-0.1294-1.029-0.3128-1.545-0.5332-0.5157-0.2204-1.035-0.4781-1.566-0.7559-1.062-0.5555-2.175-1.191-3.404-1.773-0.6148-0.2912-1.259-0.569-1.941-0.8164-0.6829-0.2474-1.403-0.4649-2.172-0.6348-1.537-0.3398-3.264-0.4909-5.248-0.3184-2.977 0.2588-5.128 1.294-6.873 2.633-0.5817 0.4463-1.118 0.9257-1.625 1.422-1.521 1.488-2.776 3.123-4.182 4.43-0.4685 0.4355-0.953 0.8346-1.471 1.18-0.3247 0.2164-0.6749 0.4889-1.047 0.8105-7.69e-4 6.65e-4 -0.0012 0.0013-2e-3 2e-3 -0.372 0.3218-0.765 0.692-1.174 1.104-0.0266 0.0268-0.0553 0.06075-0.08203 0.08789-0.794 0.8061-1.644 1.757-2.516 2.811 8.511-0.9332 13.87-1.504 14.34-1.504h0.9102v-3.346h12.04v0.6699c0 0.109 0.04095 0.2043 0.1289 0.2852 0.6157 0.566 3.503 0.4405 10.28-0.3926l6.318-0.7773v-3.131h11.9l0.6914 1.801 3.908-0.5605c1.048-0.1499 2.319-0.3128 3.617-0.4746-0.6535-1.212-1.332-2.381-2.055-3.465-3.557-5.335-5.927-5.926-8.279-6.146-1.176-0.1103-2.412-0.0083-3.857-0.2168-1.211-0.1746-2.591-0.7569-3.711-1.838zm-3.58 21.61-2.16 0.0098c-0.5945 0.0028-1.236 0.06955-1.793 0.1758-0.5565 0.1062-1.028 0.2519-1.277 0.4102l-0.9082 0.5742 0.4434 1.4 0.4453 1.398-3.422 0.8594v3.869h-3.453l0.4414 2.008 0.2148 0.9766c2.064-0.03289 3.726-0.2314 4.693-0.7148 4.832-2.416 8.284-1.382 11.04 3.795 0.1674 0.3138 0.3135 0.6297 0.4414 0.9453v-3.664h4.684c2.576 0 4.647 0.2259 4.604 0.502-0.0436 0.276-0.0436 0.8798 0 1.34l0.0801 0.8359h5.207c-0.289-1.245-0.5215-2.029-0.5215-2.029s-2.342-2.997-4.352-6.623c-1.86 0.2204-3.534 0.427-4.93 0.6055-1.44 0.1899-2.873 0.38-3.174 0.4512l-1.412 0.334-0.4102-2.057-0.4121-2.057h-3.234l-0.4199-1.674zm-46.11 2.043c-1.405 2.035-2.752 4.202-3.896 6.324-0.572 1.061-1.093 2.111-1.545 3.127-0.4517 1.016-0.8342 1.998-1.129 2.924-0.906 2.847-0.7923 5.452-0.2969 7.596 0.1652 0.7145 0.3731 1.377 0.5996 1.98 0.906 2.416 2.113 3.883 2.113 3.883l15.19 15.88s0.3018 0.7327 0.6309 1.887c0.1645 0.577 0.3368 1.26 0.4805 2.008s0.2585 1.563 0.3125 2.404c0.1349 2.103-0.1175 4.374-1.295 6.203-0.2355 0.3659-0.5085 0.7154-0.8223 1.041-0.3138 0.3256-0.6677 0.6268-1.068 0.9023s-0.8476 0.5245-1.344 0.7402c-0.2769 0.1204-0.568 0.2118-0.8535 0.3145 2.145 0.6547 6.375 2.465 6.375 6.588 0 5.522 7.594 6.558 28.65 6.213 21.05-0.3451 16.91-8.973 17.6-13.8 0.6903-4.832 13.46-19.67 13.46-19.67s1.381-3.106-2.07-2.416c-3.451 0.6903-11.73 17.6-24.85 18.64-13.11 1.035-17.95-6.904-26.57-12.43-8.628-5.522-19.67-13.11-21.05-20.02-1.381-6.903 1.034-10.7 7.592-12.08 0.4717-0.09932 1.041-0.1618 1.658-0.2051l-0.1973-1.707-1.674-0.0098-1.672-0.0078-0.2188-1.9-0.2188-1.898-1.621 0.3105-1.623 0.3086-0.0098-1.078c-0.0027-0.2965-0.06443-0.6593-0.1621-1.006s-0.2313-0.6769-0.377-0.9062zm73.17 2.584-3.836 0.4297-1.145 0.127c0.4132 1.571 0.9721 2.908 1.855 3.711 1.764 1.604 3.225 1.413 4.289 0.7559-0.3468-1.692-0.7261-3.373-1.164-5.023zm-21.75 13.44c0.5019 4.073-1.776 7.907-4.496 9.811-2.983 2.088-7.761 0.835-8.115 3.572h20.71v2.676h-20.23c1.163 4.151 1.911 6.496 7.639 6.178 6.166-0.3426 15.05-3.07 18.21-9.523h-4.955v-1.367l-2.199 0.125-3.977 0.2246 2e-3 -5.719v-5.721l2.828 0.3301v-0.5859h-3.012zm14.77 1.004c-0.0214 1.161-0.0659 2.084-0.1309 2.16v4.764l-1.84 0.2109-1.84 0.2129-0.207 1.447-0.0332 0.2383h3.926c0.6504-2.895 0.5001-6.212 0.125-9.033zm-1.135 2.328c-0.184 0-0.334 0.15-0.334 0.334s0.15 0.3359 0.334 0.3359c0.184 0 0.334-0.1519 0.334-0.3359s-0.15-0.334-0.334-0.334zm-68.49 39.19c-0.7991 0.0174-1.516 0.0562-2.24 0.0937-0.5123 0.0262-1.023 0.0535-1.484 0.1035-0.2372 0.0258-0.4792 0.0496-0.7012 0.084-0.1003 0.0155-0.196 0.0333-0.293 0.0508-0.3084 0.0557-0.5974 0.1243-0.8691 0.2031-0.09954 0.0289-0.1968 0.0594-0.291 0.0918-0.2458 0.0845-0.4666 0.1856-0.6738 0.2969-0.1052 0.0567-0.2161 0.1094-0.3105 0.1738-0.06345 0.0431-0.1271 0.086-0.1855 0.1328-0.174 0.1399-0.3244 0.297-0.4512 0.4727-0.03408 0.0469-0.06519 0.0968-0.0957 0.1465-0.1204 0.1973-0.2197 0.4124-0.2812 0.6562-0.01 0.0391-0.01312 0.0827-0.02148 0.123-0.05601 0.2729-0.0861 0.5656-0.06641 0.9004 0.01372 0.2333 0.065 0.4656 0.1328 0.6973 0.01975 0.0672 0.04429 0.1341 0.06836 0.2012 0.04248 0.1187 0.1007 0.2374 0.1562 0.3555 0.1268 0.269 0.2832 0.5354 0.4727 0.8008 0.04019 0.0564 0.07242 0.1137 0.1152 0.1699 0.2501 0.3278 0.5416 0.6526 0.873 0.9726 0.04255 0.0411 0.091 0.0821 0.1348 0.123 0.305 0.2854 0.6379 0.5662 0.9961 0.8438 0.07228 0.056 0.1445 0.1104 0.2188 0.166 0.4114 0.3086 0.8443 0.6156 1.307 0.9121 0.4269 0.2738 0.8809 0.5388 1.34 0.8008 0.2554 0.1454 0.5284 0.2786 0.791 0.4199 0.754 0.4066 1.527 0.7952 2.311 1.164 0.3707 0.1738 0.7394 0.3494 1.109 0.5137 0.6624 0.2949 1.308 0.5647 1.947 0.8262 1.029 0.4196 2.016 0.8067 2.893 1.127 0.05134 0.0188 0.1096 0.0422 0.1602 0.0605-0.4866-0.8944-1.262-1.88-2.6-2.908-4.487-3.451-5.179-7.936-4.488-10.7 0.0071-0.0283 0.02644-0.0506 0.03516-0.0781-0.0028 6e-5 -5e-3 -6e-5 -0.0078 0z" opacity=".69"/><path d="m103.6 30.05c-0.9068 0.0069-1.325 0.3752-1.859 1.061-0.712 0.9137-1.315 2.676-1.678 4.686-0.3632 2.009-0.5345 4.224-0.7695 6.137-0.1175 0.9565-0.2458 1.834-0.4688 2.656s-0.4393 1.702-1.48 2.463c-0.7437 0.5436-1.403 0.7312-2.24 0.9668-0.8373 0.2356-1.814 0.4382-2.908 0.6191-2.189 0.362-4.846 0.627-7.564 0.7305-2.718 0.1035-5.484 0.0491-7.916-0.2676-2.432-0.3167-4.534-0.7334-6.164-2.17-0.7239-0.6379-0.9276-0.7126-0.8711-0.7109-0.1048 0.03435-0.375 0.1211-0.375 0.1211-7.4e-5 -2.1e-5 -0.9491-0.5702-0.9492-0.5703-1e-4 -1.05e-4 -0.2245-0.2791-0.2246-0.2793-2.59e-4 -3.84e-4 -0.1063-0.1746-0.127-0.2148-0.0414-0.08053-0.05007-0.1017-0.05859-0.1211-0.01704-0.03876-0.01896-0.04601-0.02344-0.05664-9e-3 -0.02125-0.01938-0.04196-0.03906-0.08594-0.07872-0.1759-0.3127-0.6761-0.9004-1.768-0.7806-1.45-4.281-4.825-8.041-6.764-1.88-0.9696-3.833-1.636-5.502-1.799-1.669-0.1629-2.965 0.1229-4.018 0.9414-0.6408 0.4984-1.408 2.285-1.75 4.967l-0.1445 7.609c0.05371 1.313 0.09805 2.613 0.1992 3.986 0.2984 4.05 0.7501 8.247 1.045 11.99 0.1456 1.85 0.2441 3.548 0.2676 5.111l1.85-1.85c0.2588-4.659-1.034-13.01-0.9688-19.22 0.01085-1.035 0.0584-2.013 0.1582-2.902 0.0998-0.8898 0.2511-1.693 0.4668-2.383 1.51-4.832 2.226-5.965 4-5.941 0.2535 0.0034 0.53 0.03107 0.832 0.07422 2.416 0.3451 4.141 3.795 4.141 3.795s3.17 5.285 6.506 7.994c0.4766 0.387 0.9571 0.7216 1.432 0.9805 3.796 2.071 16.57 3.105 16.57 3.105s-9.664-0.3449-14.15 4.832c-0.6222 0.7179-1.456 1.578-2.387 2.516-0.9386 0.9475-1.999 2.005-3.121 3.137-0.1828 0.184-0.3729 0.382-0.5586 0.5703-0.9487 0.9643-1.93 1.999-2.908 3.061-0.4279 0.4639-0.8523 0.9288-1.275 1.408-0.982 1.114-1.949 2.257-2.85 3.438 4.022-0.4457 6.277-0.6892 9.307-1.021 1.807-2.184 3.528-3.957 4.828-4.824 4.142-2.761 6.212-8.974 14.15-9.664 7.938-0.6903 11.74 3.797 15.88 4.832 4.142 1.035 8.629-6.902 11.04-8.973 0.1282-0.1099 0.2418-0.2767 0.3457-0.4766-0.217-0.2095-0.442-0.4057-0.6348-0.6562-1.955-2.541-2.376-5-1.992-6.918s1.07-3.183 1.215-5.215c0.1799-2.519 0.3564-4.502-0.168-5.682-0.5243-1.18-1.728-2.342-6.053-3.143-0.4327-0.08013-0.7895-0.1175-1.092-0.1152zm-35.79 13.9c-1.34e-4 3.48e-4 -0.0059 0.01367-0.0059 0.01367 1e-6 -2e-5 -0.0027 0.03847-0.0039 0.05273 9.7e-4 -0.01929 0.0082-0.04582 0.0098-0.06641zm-0.03125 0.4355c8.03e-4 0.03014 8.82e-4 0.05068 2e-3 0.06641 6e-3 0.08931 0.0082 0.08642 0.01172 0.1074-0.0055-0.03804-0.0086-0.1113-0.01367-0.1738zm3.457 1.32c-0.3031 0.09939-0.7521 0.2451-1.279 0.418 0.3355 0.02656 0.7605-0.0056 1.244-0.373 0.01924-0.01462 0.01686-0.03013 0.03516-0.04492zm-9.043 29.02-8.012 0.9922c-0.4119 0.6932-0.7842 1.392-1.125 2.092-0.04228 0.08735-0.08593 0.1743-0.127 0.2617-0.2853 0.6043-0.5296 1.21-0.75 1.816-0.0682 0.1896-0.1458 0.3788-0.207 0.5684-0.06404 0.196-0.1234 0.3919-0.1797 0.5879-0.1477 0.5212-0.2746 1.043-0.3633 1.562-0.04519 0.2608-0.08037 0.5212-0.1094 0.7812-0.0089 0.08065-0.02203 0.1616-0.0293 0.2422-0.03262 0.3558-0.05273 0.7107-0.05273 1.064 0 3.883 1.845 9.901 4.277 16.05 0.8109 2.051 1.687 4.117 2.582 6.123 2.686 6.019 5.541 11.5 7.311 14.45 0.5898 0.9829 1.059 1.684 1.361 2.029 2.416 2.761-6.557 9.662-10.35 7.246-1.898-1.208-5.349-4.659-8.326-7.809-1.489-1.575-2.86-3.074-3.857-4.18-0.9978-1.105-1.623-1.816-1.623-1.816s-2.415 10.01-2.07 17.95c0.01398 0.3215 0.05801 0.6447 0.1152 0.9688 0.01588 0.0897 0.03371 0.1797 0.05273 0.2695 0.03526 0.1669 0.08517 0.3347 0.1309 0.502 0.09677 0.3534 0.2155 0.7068 0.3555 1.061 0.04113 0.1041 0.07649 0.2084 0.1211 0.3125 0.1981 0.4613 0.4237 0.9212 0.6836 1.379 0.01479 0.0261 0.0319 0.0521 0.04687 0.0781 0.2466 0.4288 0.5211 0.8552 0.8125 1.277 0.07299 0.1057 0.1472 0.2112 0.2227 0.3164 0.1781 0.2483 0.3719 0.4915 0.5625 0.7363 0.391 0.5021 0.8025 0.9972 1.234 1.48 0.1029 0.1152 0.2 0.2337 0.3047 0.3477 0.5552 0.6039 1.132 1.188 1.719 1.75 0.09537 0.0915 0.1914 0.1793 0.2871 0.2695 0.4162 0.3916 0.8322 0.7601 1.248 1.125 0.5255 0.4616 1.04 0.8967 1.545 1.309 0.2727 0.2221 0.5567 0.4642 0.8184 0.6699 0.5371 0.4227 1.023 0.7872 1.49 1.133 0.0684 0.0505 0.1522 0.1172 0.2188 0.166h16.99l0.375-1s-18.29-5.521-18.64-11.39 11.39-1.726 19.33-5.178c7.938-3.451 3.105-15.19 3.105-15.19l-15.19-15.88s-4.832-5.866-2.416-13.46c1.179-3.705 3.761-8.306 6.57-12.38z" opacity=".57"/><path d="m54.53 37c-1.774-0.02359-2.49 1.11-4 5.941-1.726 5.522 0.6889 18.29 0.3438 24.5-0.07347 1.323-0.5526 3.175-1.238 5.25 3.241-0.3607 4.455-0.4897 7.121-0.7852 4.481-5.875 10.46-11.08 13.1-14.13 4.487-5.177 14.15-4.832 14.15-4.832s-12.77-1.035-16.57-3.105c-3.796-2.071-7.938-8.975-7.938-8.975s-1.725-3.45-4.141-3.795c-0.302-0.04314-0.5786-0.07085-0.832-0.07422zm-0.3672 38.72-0.3125 0.03906c-2.034 0.2518-3.948 0.5093-5.617 0.7441-0.1512 0.385-0.2781 0.7527-0.4355 1.141-2.202 6.967-6.381 13.4-7.244 34.41-0.02103 0.4994-0.219 0.975-0.5586 1.342-3.509 3.788-5.275 13.54-5.645 22.21-0.297 6.96 0.04297 12.11 0.209 14.29h17.93c-4.078-2.99-11.72-9.332-11.97-15.15-0.3451-7.938 2.07-17.95 2.07-17.95 0 0 10.01 11.39 13.81 13.8 3.796 2.416 12.77-4.485 10.35-7.246-2.416-2.761-15.53-28.3-15.53-38.66 0-2.965 1.182-6.012 2.943-8.977z" opacity=".3"/></g><path d="m116.6 91.71v5.721l-2e-3 5.719 6.176-0.3496v-1.309h1.951l0.0332-0.2383 0.207-1.447 1.84-0.2129 1.84-0.2109v-4.764c-5e-3 0.0063-0.0101 0.05509-0.0156 0.05078-0.092-0.07208-2.201-0.2365-4.686-0.3652l-4.516-0.2344v-2.029l-0.4863-0.05664zm11.04 3.076c0.184 0 0.334 0.15 0.334 0.334 0 0.184-0.15 0.3359-0.334 0.3359-0.184 0-0.334-0.1519-0.334-0.3359 0-0.184 0.15-0.334 0.334-0.334z" opacity=".42"/></svg>
