<?xml version="1.0" encoding="UTF-8" standalone="no"?>
<!-- Created with Inkscape (http://www.inkscape.org/) -->

<svg
   width="180"
   height="180"
   viewBox="0 0 180 180"
   version="1.1"
   id="svg1"
   xml:space="preserve"
   inkscape:version="1.3 (0e150ed6c4, 2023-07-21)"
   sodipodi:docname="Memerize monochrome.svg"
   xmlns:inkscape="http://www.inkscape.org/namespaces/inkscape"
   xmlns:sodipodi="http://sodipodi.sourceforge.net/DTD/sodipodi-0.dtd"
   xmlns="http://www.w3.org/2000/svg"
   xmlns:svg="http://www.w3.org/2000/svg"><sodipodi:namedview
     id="namedview1"
     pagecolor="#ffffff"
     bordercolor="#000000"
     borderopacity="0.25"
     inkscape:showpageshadow="2"
     inkscape:pageopacity="0.0"
     inkscape:pagecheckerboard="0"
     inkscape:deskcolor="#d1d1d1"
     inkscape:document-units="px"
     inkscape:zoom="2.8166209"
     inkscape:cx="83.25579"
     inkscape:cy="91.066568"
     inkscape:window-width="1920"
     inkscape:window-height="1011"
     inkscape:window-x="0"
     inkscape:window-y="0"
     inkscape:window-maximized="1"
     inkscape:current-layer="layer1"
     showguides="false" /><defs
     id="defs1" /><g
     inkscape:label="Layer 1"
     inkscape:groupmode="layer"
     id="layer1"><path
       d="m -11.875,-9.625 v 199.25 h 203.75 V -9.625 Z m 116.23828,35.527344 c 0.3554,0.01654 0.71794,0.05721 1.08399,0.125 4.9942,0.924853 7.93149,2.869288 9.13281,5.572265 1.20133,2.702978 0.68669,5.380497 0.52148,7.69336 -0.19998,2.799664 -1.06679,4.638648 -1.28711,5.740234 -0.22032,1.101586 -0.29542,1.579817 1.20118,3.525391 0.53833,0.699831 0.80936,0.777473 1.60742,0.892578 0.79805,0.115105 2.06559,0.04283 3.65039,0.191406 3.16958,0.297148 7.35463,1.949932 11.39062,8.003906 1.09647,1.644701 2.10514,3.415774 3.04297,5.271485 3.25984,-0.36359 6.25248,-0.658145 7.41992,-0.710938 0.31191,-0.01411 0.4947,-0.0112 0.51758,0.01172 0.0842,0.08418 0.36177,1.728896 0.61719,3.654297 l 0.46484,3.5 h -1.83594 -1.83398 l 0.28711,1.966797 0.28906,1.964843 -1.55078,0.388672 -0.0742,0.01953 c 2.92352,9.470737 4.27267,19.955009 4.05469,29.328129 -0.18255,7.84966 -2.781,11.06742 -3.86914,14.23242 -1.08814,3.165 -1.36312,7.18877 2.7168,18.8457 2.25893,6.45412 7.70117,14.71289 7.70117,14.71289 0.93271,1.39925 -0.0703,3.27339 -1.75196,3.27344 H 32.585937 c -1.086859,-4.1e-4 -1.99483,-0.82799 -2.095703,-1.91016 0,0 -0.727619,-7.7747 -0.34375,-16.77148 0.370029,-8.6724 1.503928,-18.48252 6.25,-24.2207 0.755951,-16.6036 3.613728,-24.728616 5.810547,-30.529302 l -1.197265,0.322266 c -0.828032,0.221904 -2.333664,0.407091 -3.345704,0.412109 l -1.839843,0.0098 v -1.587891 -1.585937 l 3.345703,-0.44336 3.345703,-0.443359 v -1.9375 -1.935547 l 2.083984,-0.232422 c 0.01765,-0.09605 0.04251,-0.190617 0.05859,-0.287109 0.273412,-1.64047 0.191893,-4.797627 -0.0957,-8.451172 -0.287597,-3.653544 -0.743259,-7.868618 -1.048828,-12.015625 -0.305568,-4.147008 -0.469148,-8.21721 -0.134766,-11.710938 0.334384,-3.493727 1.029339,-6.605284 3.445313,-8.484375 2.053773,-1.597378 4.594697,-2.044746 7.013672,-1.808593 2.418974,0.236153 4.80284,1.103693 7.021484,2.248046 4.437289,2.288708 8.183065,5.470837 9.818359,8.507813 0.307593,0.571244 0.351091,0.685288 0.515625,1.013672 0.713246,0.31289 1.239152,0.727659 2.128907,1.511719 0.272325,0.239976 1.843016,0.88138 3.923828,1.152343 2.08081,0.270963 4.668038,0.333301 7.214843,0.236328 2.546805,-0.09697 5.066399,-0.349889 7.03711,-0.675781 0.985356,-0.162946 1.835294,-0.347659 2.453125,-0.521484 0.478226,-0.13455 0.621483,-0.216287 0.693359,-0.240235 0.03439,-0.06164 0.06484,-0.09577 0.103516,-0.238281 0.121692,-0.448559 0.245627,-1.188344 0.353515,-2.066406 0.215771,-1.756123 0.390449,-4.07099 0.806641,-6.373047 0.416185,-2.302056 1.027833,-4.634714 2.498047,-6.521484 1.10266,-1.415078 2.86463,-2.419301 4.91211,-2.603516 0.34124,-0.0307 0.68952,-0.03802 1.04492,-0.02148 z M 43.4375,77.316406 42.515625,77.548828 v 1.521484 0.789063 c 0.335862,-0.882899 0.637684,-1.740431 0.921875,-2.542969 z"
       style="opacity:1;fill:#000000;stroke-width:0;stroke-linecap:round;stroke-linejoin:round"
       id="path36" /><path
       d="m 47.660156,40.59375 c -0.02635,0.206542 -0.06902,0.376222 -0.08984,0.59375 -0.192448,2.010755 -0.159401,4.456848 -0.05469,7.015625 z m 3.216797,26.849609 -1.849609,1.84961 c 0.01885,1.254855 -0.0069,2.428628 -0.123047,3.482422 0.340562,-0.03792 0.400132,-0.04483 0.734375,-0.08203 0.685692,-2.075135 1.164809,-3.927499 1.238281,-5.25 z m 68.482427,0.591797 0.43945,2.007813 0.4414,2.007812 h -1.72656 -1.72461 v -1.673828 -1.671875 h -2.00781 -2.00781 v 0.947266 c 0,0.521922 0.18286,1.42569 0.40625,2.007812 l 0.40625,1.058594 h 1.60156 1.60156 v 1.5625 c 0,2.032283 0.35748,2.325672 2.35742,1.943359 l 1.65625,-0.316406 v -1.929687 -1.927735 h 1.3379 1.33984 v 1.671875 1.673828 h 2.00586 2.00781 v -2.007812 -2.007813 h -2.00781 -2.00586 v -1.673828 -1.671875 h -2.06055 z m -38.945318,1.337891 c -0.472685,0 -5.828356,0.570669 -14.339843,1.503906 -0.0028,0.0033 -0.0051,0.0064 -0.0078,0.0098 8.144107,-0.893346 13.90852,-1.513672 14.347656,-1.513672 z m -4.09375,3.679687 -0.347656,2 -0.345703,2 -1.166016,0.22461 -1.166015,0.224609 v -1.683594 c 0,-2.015212 -0.61727,-2.492552 -2.560547,-1.984375 l -1.453125,0.378907 v 1.884765 1.884766 l 1.839844,0.21289 1.839843,0.210938 0.212891,1.505859 0.214844,1.50586 h 1.626953 1.625 v 1.671875 1.673828 h 2.007812 2.007813 v -2.007813 -2.007812 h 1.291016 1.291015 l 0.214844,1.505859 0.212891,1.50586 h 1.673828 1.671875 l 0.216797,-2.261719 0.216796,-2.261719 -1.755859,0.333984 -1.755859,0.335938 -0.396485,-1.980469 -0.396484,-1.980469 -1.542969,0.294922 -1.541015,0.294922 -0.203125,-1.740234 -0.201172,-1.742188 h -1.666016 z m -28.083984,3.453125 c -0.02148,0.003 -0.05087,0.0068 -0.07227,0.0098 -0.106426,0.381982 -0.24432,0.754426 -0.363281,1.130859 0.157445,-0.387917 0.284393,-0.755617 0.435547,-1.140625 z m 28.404297,0.896485 h 1.71875 1.720703 l -0.214844,1.5 -0.21289,1.498047 -1.03711,0.197265 C 78.045267,80.706142 77.36744,80.584237 77.109375,80.326172 76.85131,80.068107 76.640625,79.3036 76.640625,78.628906 Z M 130.81836,78.572266 126.99219,79 c -1.4192,0.158687 -2.53999,0.302097 -3.84766,0.457031 2.01,3.626278 4.35156,6.623047 4.35156,6.623047 0,0 0.2325,0.784226 0.52149,2.029297 h 0.81445 v 3.345703 c 0,0.395956 -0.0132,0.659435 -0.0195,1.003906 0.37513,2.821289 0.52545,6.1381 -0.125,9.033206 h 0.14453 v 1.33789 1.33789 h -1.0664 c -3.16889,6.45329 -12.04847,9.18086 -18.21485,9.52344 -5.72718,0.31817 -6.47605,-2.02722 -7.63867,-6.17774 h -1.18359 v -1.33789 -1.33789 h 0.70703 c 0.35437,-2.73721 5.1326,-1.48444 8.11523,-3.57226 2.71964,-1.903762 4.99799,-5.737943 4.4961,-9.810552 h -0.60352 v -2.359375 c -0.12787,-0.315603 -0.27403,-0.631479 -0.44141,-0.945312 -2.76104,-5.176945 -6.21311,-6.210829 -11.04492,-3.794922 -0.96689,0.483446 -2.62926,0.681956 -4.693358,0.714843 l 0.226562,1.03125 -1.558593,0.03906 c -0.857274,0.02112 -6.003822,0.568701 -11.435547,1.21875 -5.431732,0.650049 -10.022638,1.035959 -10.203125,0.855469 -0.180488,-0.18049 -0.328125,-1.067148 -0.328125,-1.96875 v -1.638672 l -1.638672,0.3125 -1.636719,0.314453 -0.203125,-1.742188 -0.0039,-0.0332 c -0.616981,0.04333 -1.186458,0.105764 -1.658203,0.205078 -6.557464,1.380517 -8.972315,5.177477 -7.591797,12.080079 1.380519,6.902589 12.424492,14.495509 21.052734,20.017579 8.628244,5.52207 13.45927,13.46116 26.574224,12.42578 13.11492,-1.03539 21.3983,-17.94841 24.8496,-18.63867 3.4513,-0.69026 2.07032,2.41601 2.07032,2.41601 0,0 -12.76873,14.84201 -13.45899,19.67383 -0.69024,4.83181 3.45136,13.45956 -17.60156,13.80469 -21.052912,0.34513 -28.646484,-0.69082 -28.646484,-6.21289 0,-4.1227 -4.22977,-5.93322 -6.375,-6.58789 -3.335764,1.19959 -7.163758,1.26122 -10.501954,1.33398 -0.0087,0.0275 -0.02808,0.0498 -0.03516,0.0781 -0.690259,2.76103 0.0016,7.24596 4.488281,10.69726 1.337312,1.0287 2.112964,2.01381 2.59961,2.90821 2.093684,0.7609 3.611328,1.23437 3.611328,1.23437 l -0.375,1 h 74.609375 c -1.83956,-2.97781 -4.41551,-7.40563 -6.1582,-12.38476 -4.20787,-12.02248 -4.13983,-17.48911 -2.72461,-21.60547 1.41522,-4.11637 3.47805,-5.97002 3.64062,-12.96094 0.14645,-6.297292 -0.51635,-13.208997 -1.88867,-19.904298 -1.06423,0.657394 -2.52458,0.848216 -4.28906,-0.755859 -0.88338,-0.803068 -1.44223,-2.139771 -1.85547,-3.710937 z M 97.382812,101.49219 h 1.339844 1.337894 v 1.33789 1.33789 h -1.337894 -1.339844 v -1.33789 z"
       style="display:inline;opacity:0.9;stroke-width:6.29291;stroke-linejoin:round"
       id="path35" /><path
       d="m 112.3125,51.78125 c -0.007,0.01326 -0.0165,0.01829 -0.0234,0.03125 -0.0979,0.183808 -0.20239,0.342564 -0.32226,0.445312 -2.41592,2.070783 -6.90337,10.008048 -11.04492,8.972657 -0.5177,-0.129424 -1.029228,-0.312773 -1.544927,-0.533203 -0.515699,-0.220431 -1.035185,-0.478128 -1.566406,-0.75586 -1.062442,-0.555463 -2.174653,-1.191005 -3.404297,-1.773437 -0.614822,-0.291217 -1.258505,-0.569006 -1.941406,-0.816407 -0.682901,-0.2474 -1.403377,-0.464887 -2.171875,-0.634765 -1.536997,-0.339757 -3.263545,-0.490925 -5.248047,-0.31836 -2.97675,0.258848 -5.127841,1.294014 -6.873047,2.632813 -0.581735,0.446266 -1.118088,0.925725 -1.625,1.421875 -1.520736,1.48845 -2.776175,3.123282 -4.181641,4.429687 -0.468488,0.435469 -0.953007,0.834558 -1.470703,1.179688 -0.324672,0.216448 -0.674884,0.488892 -1.046875,0.810547 -7.69e-4,6.65e-4 -0.0012,0.0013 -0.002,0.002 -0.371979,0.32175 -0.765036,0.692018 -1.173828,1.103516 -0.0266,0.0268 -0.0553,0.06075 -0.08203,0.08789 -0.794012,0.806093 -1.643552,1.757156 -2.515625,2.810547 8.511495,-0.933237 13.867157,-1.503906 14.339843,-1.503906 h 0.910157 v -1.671875 -1.673828 h 6.023437 6.021485 v 0.669922 c 0,0.109029 0.04095,0.204295 0.128906,0.285156 0.615655,0.566028 3.502607,0.440468 10.281253,-0.392578 l 6.31836,-0.777344 v -1.564453 -1.566406 h 5.94922 5.95117 l 0.3457,0.90039 0.3457,0.900391 3.90821,-0.560547 c 1.04764,-0.149942 2.3187,-0.31285 3.61718,-0.474609 -0.65349,-1.211821 -1.3324,-2.381411 -2.05468,-3.464844 -3.55688,-5.335317 -5.9268,-5.925938 -8.2793,-6.146485 -1.17625,-0.110273 -2.41213,-0.0083 -3.85742,-0.216796 -1.21068,-0.174618 -2.59088,-0.756948 -3.71094,-1.837891 z m -3.58008,21.607422 -2.16015,0.0098 c -0.59452,0.0028 -1.23645,0.06955 -1.79297,0.175782 -0.55653,0.106227 -1.02765,0.251939 -1.27735,0.410156 l -0.9082,0.574219 0.44336,1.40039 0.44531,1.398438 -1.71094,0.429687 -1.71093,0.429688 v 1.935547 1.933593 h -1.726566 -1.726562 l 0.441406,2.007813 0.214844,0.976562 c 2.0641,-0.03289 3.726468,-0.231396 4.693358,-0.714843 4.83181,-2.415909 8.28388,-1.382028 11.04492,3.794922 0.16738,0.313834 0.31354,0.629709 0.44141,0.945312 v -0.652344 -3.011718 h 4.68359 c 2.57611,0 4.6471,0.225942 4.60352,0.501953 -0.0436,0.276011 -0.0436,0.879825 0,1.339843 l 0.0801,0.835938 h 3.01172 2.19531 c -0.28899,-1.245072 -0.52149,-2.029297 -0.52149,-2.029297 0,0 -2.34156,-2.996765 -4.35156,-6.623047 -1.86029,0.220408 -3.53352,0.42699 -4.92969,0.605469 -1.4403,0.189944 -2.87277,0.379996 -3.17382,0.451172 l -1.41211,0.333984 -0.41016,-2.05664 -0.41211,-2.056641 h -1.61719 -1.61718 l -0.41993,-1.673828 z M 62.625,75.431641 c -1.404829,2.034703 -2.752466,4.202251 -3.896484,6.324218 -0.572009,1.060984 -1.093204,2.111057 -1.544922,3.126953 -0.451719,1.015897 -0.834204,1.997622 -1.128907,2.923829 -0.905967,2.847325 -0.792343,5.452315 -0.296875,7.595703 0.165157,0.714462 0.373112,1.37656 0.59961,1.980468 0.905992,2.415635 2.113281,3.882818 2.113281,3.882818 l 15.185547,15.87695 c 0,0 0.301841,0.73271 0.630859,1.88672 0.16451,0.577 0.336848,1.25959 0.480469,2.00781 0.143621,0.74822 0.258529,1.56305 0.3125,2.4043 0.134927,2.1031 -0.117451,4.37385 -1.294922,6.20312 -0.235494,0.36586 -0.50849,0.71544 -0.822265,1.04102 -0.313776,0.32558 -0.667707,0.62681 -1.06836,0.90234 -0.400653,0.27553 -0.847625,0.52453 -1.34375,0.74023 -0.276946,0.12042 -0.568,0.21178 -0.853515,0.31446 2.145232,0.65467 6.375,2.46518 6.375,6.58789 0,5.52207 7.593551,6.55802 28.646484,6.21289 21.05294,-0.34513 16.91132,-8.97287 17.60156,-13.80469 0.69026,-4.83182 13.45899,-19.67383 13.45899,-19.67383 0,0 1.38099,-3.10627 -2.07032,-2.41601 -3.4513,0.69026 -11.73466,17.60328 -24.8496,18.63867 -13.114967,1.03538 -17.945971,-6.90371 -26.574224,-12.42578 -8.628251,-5.52208 -19.672214,-13.11498 -21.052734,-20.017579 -1.38052,-6.902609 1.034327,-10.69956 7.591797,-12.080079 0.471745,-0.09932 1.041222,-0.16175 1.658203,-0.205078 l -0.197266,-1.707031 -1.673828,-0.0098 -1.671875,-0.0078 -0.21875,-1.900391 -0.21875,-1.898437 -1.621094,0.310547 -1.623047,0.308593 -0.0098,-1.078125 c -0.0027,-0.296496 -0.06443,-0.659304 -0.16211,-1.005859 -0.09768,-0.346555 -0.231289,-0.676858 -0.376953,-0.90625 z m 73.17383,2.583984 -3.83594,0.429687 -1.14453,0.126954 c 0.41324,1.571167 0.97209,2.907868 1.85547,3.710937 1.76449,1.604077 3.22483,1.413253 4.28906,0.755859 -0.34678,-1.69188 -0.72609,-3.373139 -1.16406,-5.023437 z m -21.75195,13.439453 c 0.50189,4.072613 -1.77646,7.906788 -4.4961,9.810552 -2.98263,2.08782 -7.76086,0.83505 -8.11523,3.57226 h 10 10.70508 v 1.33789 1.33789 h -10.70508 -9.52344 c 1.16262,4.15052 1.91148,6.49591 7.63867,6.17774 6.16638,-0.34258 15.04596,-3.07014 18.21485,-9.52344 h -1.94336 -3.01172 v -1.33789 -0.0293 l -2.19922,0.125 -3.97656,0.22461 0.002,-5.718749 v -5.720704 l 2.3418,0.273438 0.48632,0.05664 v -0.585938 h -3.01171 z m 14.76562,1.003906 c -0.0214,1.160753 -0.0659,2.083796 -0.13086,2.160157 V 96.75 99.382812 l -1.83984,0.210938 -1.83985,0.212891 -0.20703,1.447269 -0.0332,0.23828 h 1.06055 2.86523 c 0.65045,-2.895109 0.50013,-6.211914 0.125,-9.033206 z m -1.13477,2.328125 c -0.184,0 -0.33398,0.149977 -0.33398,0.333985 0,0.184008 0.14998,0.335937 0.33398,0.335937 0.18401,0 0.33399,-0.151929 0.33399,-0.335937 0,-0.184008 -0.14998,-0.333985 -0.33399,-0.333985 z M 59.1875,133.97656 c -0.799073,0.0174 -1.515652,0.0562 -2.240234,0.0937 -0.512325,0.0262 -1.02263,0.0535 -1.484375,0.10352 -0.237239,0.0258 -0.479231,0.0496 -0.701172,0.084 -0.100347,0.0155 -0.195991,0.0333 -0.292969,0.0508 -0.30835,0.0557 -0.597361,0.12427 -0.869141,0.20313 -0.09954,0.0289 -0.196807,0.0594 -0.291015,0.0918 -0.245828,0.0845 -0.466628,0.18558 -0.673828,0.29687 -0.1052,0.0567 -0.216101,0.10939 -0.310547,0.17383 -0.06345,0.0431 -0.127099,0.086 -0.185547,0.13281 -0.173988,0.13992 -0.324423,0.29702 -0.451172,0.47266 -0.03408,0.0469 -0.06519,0.0968 -0.0957,0.14648 -0.120358,0.19731 -0.219746,0.41245 -0.28125,0.65625 -0.01,0.0391 -0.01312,0.0827 -0.02148,0.12305 -0.05601,0.27287 -0.0861,0.56563 -0.06641,0.90039 0.01372,0.23329 0.065,0.4656 0.132813,0.69726 0.01975,0.0672 0.04429,0.13414 0.06836,0.20118 0.04248,0.11871 0.10074,0.23736 0.15625,0.35547 0.126834,0.269 0.283209,0.53538 0.472656,0.80078 0.04019,0.0564 0.07242,0.11368 0.115235,0.16992 0.250133,0.32776 0.541627,0.65256 0.873047,0.97265 0.04255,0.0411 0.091,0.0821 0.134765,0.12305 0.305024,0.28541 0.6379,0.56619 0.996094,0.84375 0.07228,0.056 0.144546,0.11038 0.21875,0.16602 0.411384,0.30855 0.844349,0.6156 1.306641,0.91211 0.426938,0.27383 0.88086,0.53885 1.339843,0.80078 0.255384,0.14539 0.528363,0.27862 0.791016,0.41992 0.753951,0.40655 1.526625,0.79524 2.310547,1.16406 0.370664,0.17378 0.739423,0.3494 1.109375,0.51367 0.662407,0.29493 1.308149,0.56468 1.947265,0.82618 1.02863,0.41957 2.016251,0.80672 2.892579,1.12695 0.05134,0.0188 0.109552,0.0422 0.160156,0.0605 -0.486646,-0.89441 -1.262297,-1.87951 -2.59961,-2.90821 -4.486689,-3.4513 -5.178541,-7.93623 -4.488281,-10.69726 0.0071,-0.0283 0.02644,-0.0506 0.03516,-0.0781 -0.0028,6e-5 -0.005,-6e-5 -0.0078,0 z"
       style="display:inline;opacity:0.69;stroke-width:0;stroke-linejoin:round"
       id="path34" /><path
       d="m 103.58789,30.052734 c -0.90684,0.0069 -1.32537,0.37524 -1.85937,1.060547 -0.71201,0.913742 -1.31451,2.676411 -1.67774,4.685547 -0.363224,2.009135 -0.534475,4.223631 -0.76953,6.136719 -0.117524,0.956543 -0.245759,1.834323 -0.46875,2.65625 -0.222991,0.821927 -0.439311,1.701846 -1.480469,2.46289 -0.743741,0.543648 -1.402917,0.731219 -2.240234,0.966797 -0.837311,0.235579 -1.813728,0.438151 -2.908203,0.619141 -2.188946,0.361981 -4.846208,0.626969 -7.564453,0.730469 -2.718246,0.103499 -5.484178,0.0491 -7.916016,-0.267578 -2.431838,-0.316674 -4.533936,-0.733442 -6.164063,-2.169922 -0.723873,-0.637884 -0.92758,-0.712611 -0.871093,-0.710938 -0.104776,0.03435 -0.374988,0.121098 -0.375,0.121094 -7.4e-5,-2.1e-5 -0.949119,-0.570207 -0.949219,-0.570313 -1e-4,-1.05e-4 -0.22448,-0.279105 -0.224609,-0.279296 -2.59e-4,-3.84e-4 -0.106258,-0.174576 -0.126954,-0.214844 -0.0414,-0.08053 -0.05007,-0.101716 -0.05859,-0.121094 -0.01704,-0.03876 -0.01896,-0.04601 -0.02344,-0.05664 -0.009,-0.02125 -0.01938,-0.04196 -0.03906,-0.08594 -0.07872,-0.175933 -0.312678,-0.67611 -0.900391,-1.767578 -0.780615,-1.449715 -4.281462,-4.824533 -8.041016,-6.763672 -1.879776,-0.969569 -3.833292,-1.635925 -5.501953,-1.798828 -1.66866,-0.162904 -2.96518,0.122875 -4.017578,0.941406 -0.640844,0.498435 -1.407816,2.284807 -1.75,4.966797 l -0.144531,7.609375 c 0.05371,1.312523 0.09805,2.613276 0.199219,3.986328 0.298409,4.049835 0.750111,8.247003 1.044922,11.992188 0.145624,1.849948 0.244092,3.547932 0.267578,5.111328 l 1.849609,-1.84961 c 0.258848,-4.659269 -1.033851,-13.00651 -0.96875,-19.21875 0.01085,-1.035373 0.0584,-2.012564 0.158203,-2.902343 0.0998,-0.88978 0.25109,-1.692551 0.466797,-2.382813 1.509948,-4.831835 2.22581,-5.964999 4,-5.941406 0.253456,0.0034 0.530042,0.03107 0.832031,0.07422 2.415917,0.34513 4.140625,3.794921 4.140625,3.794921 0,0 3.169917,5.285443 6.50586,7.994141 0.476563,0.386957 0.957085,0.721621 1.43164,0.980469 3.796442,2.070787 16.566407,3.105469 16.566407,3.105469 0,0 -9.663687,-0.344935 -14.150391,4.832031 -0.622167,0.717885 -1.456416,1.57816 -2.386719,2.515625 -0.93865,0.947453 -1.998835,2.004743 -3.121094,3.136719 -0.182808,0.184022 -0.372924,0.382022 -0.558593,0.570312 -0.948674,0.964341 -1.930293,1.998709 -2.908203,3.060547 -0.427912,0.463934 -0.852271,0.928765 -1.275391,1.408203 -0.982,1.11439 -1.949266,2.257061 -2.849609,3.4375 4.021803,-0.445683 6.277489,-0.68921 9.30664,-1.021484 1.807115,-2.183775 3.527706,-3.957273 4.828125,-4.824219 4.14157,-2.761045 6.212384,-8.973801 14.150391,-9.664063 7.938015,-0.690261 11.735383,3.796639 15.876958,4.832032 4.14156,1.035392 8.629,-6.901872 11.04492,-8.972657 0.12823,-0.109912 0.24178,-0.276731 0.3457,-0.476562 -0.21705,-0.209466 -0.44203,-0.405699 -0.63477,-0.65625 -1.95471,-2.54112 -2.37584,-4.999664 -1.99218,-6.917969 0.38366,-1.918305 1.06968,-3.182686 1.21484,-5.214844 0.17993,-2.51896 0.35636,-4.501905 -0.16797,-5.68164 -0.52432,-1.179735 -1.72843,-2.341781 -6.05273,-3.142578 -0.43272,-0.08013 -0.78952,-0.117528 -1.0918,-0.115235 z M 67.794922,43.957031 c -1.34e-4,3.48e-4 -0.0059,0.01367 -0.0059,0.01367 10e-7,-2e-5 -0.0027,0.03847 -0.0039,0.05273 9.7e-4,-0.01929 0.0082,-0.04582 0.0098,-0.06641 z m -0.03125,0.435547 c 8.03e-4,0.03014 8.82e-4,0.05068 0.002,0.06641 0.006,0.08931 0.0082,0.08642 0.01172,0.107422 -0.0055,-0.03804 -0.0086,-0.111325 -0.01367,-0.173828 z m 3.457031,1.320313 c -0.303098,0.09939 -0.752107,0.245139 -1.279297,0.417968 0.335457,0.02656 0.760485,-0.0056 1.244141,-0.373047 0.01924,-0.01462 0.01686,-0.03013 0.03516,-0.04492 z m -9.042969,29.017578 -8.011718,0.992187 c -0.411921,0.693224 -0.78419,1.391697 -1.125,2.091797 -0.04228,0.08735 -0.08593,0.174296 -0.126954,0.261719 -0.285325,0.604257 -0.529647,1.21032 -0.75,1.816406 -0.0682,0.189587 -0.145819,0.378766 -0.207031,0.568359 -0.06404,0.19603 -0.123447,0.391944 -0.179687,0.587891 -0.147652,0.521203 -0.274639,1.043125 -0.363282,1.5625 -0.04519,0.260788 -0.08037,0.521228 -0.109375,0.78125 -0.0089,0.08065 -0.02203,0.161631 -0.0293,0.242188 -0.03262,0.355819 -0.05273,0.710678 -0.05273,1.064453 0,3.882723 1.844515,9.900774 4.277344,16.052731 0.810943,2.05066 1.686827,4.11688 2.582031,6.12305 2.685614,6.01851 5.541049,11.5026 7.310547,14.45117 0.589833,0.98286 1.059339,1.68417 1.361328,2.0293 2.415918,2.76104 -6.557074,9.66201 -10.353515,7.24609 -1.898221,-1.20796 -5.349071,-4.65941 -8.326172,-7.80859 -1.488551,-1.57459 -2.859648,-3.07424 -3.857422,-4.17969 -0.997774,-1.10544 -1.623047,-1.8164 -1.623047,-1.8164 0,0 -2.415443,10.00924 -2.070313,17.94726 0.01398,0.32149 0.05801,0.64471 0.115235,0.96875 0.01588,0.0897 0.03371,0.1797 0.05273,0.26953 0.03526,0.16691 0.08517,0.33473 0.13086,0.50195 0.09677,0.35336 0.215524,0.70685 0.355468,1.06055 0.04113,0.10413 0.07649,0.20845 0.121094,0.3125 0.198054,0.4613 0.423731,0.92121 0.683594,1.37891 0.01479,0.0261 0.0319,0.0521 0.04687,0.0781 0.24661,0.42877 0.521097,0.85516 0.8125,1.27735 0.07299,0.10574 0.147194,0.21121 0.222656,0.3164 0.178087,0.2483 0.371945,0.49147 0.5625,0.73633 0.390987,0.50212 0.802463,0.99717 1.234375,1.48047 0.10289,0.11523 0.200021,0.23367 0.304688,0.34766 0.55517,0.60389 1.132297,1.1882 1.71875,1.75 0.09537,0.0915 0.191395,0.17932 0.287109,0.26953 0.41619,0.39161 0.832176,0.76009 1.248047,1.125 0.525485,0.46163 1.039975,0.89669 1.544922,1.30859 0.272707,0.22207 0.556728,0.46418 0.818359,0.66992 0.537104,0.42272 1.022705,0.7872 1.490234,1.13282 0.0684,0.0505 0.152199,0.11722 0.21875,0.16601 h 16.992188 l 0.375,-1 c 0,0 -18.291588,-5.52145 -18.636719,-11.38867 -0.345131,-5.86722 11.390118,-1.72642 19.328125,-5.17774 7.938007,-3.4513 3.105469,-15.18554 3.105469,-15.18554 L 58.470703,101.26563 c 0,0 -4.831931,-5.866114 -2.416016,-13.458989 1.17881,-3.704831 3.760652,-8.305589 6.570313,-12.375 z"
       style="display:inline;opacity:0.57;stroke-width:0;stroke-linejoin:round"
       id="path33" /><path
       d="m 54.533203,36.998047 c -1.774192,-0.02359 -2.49005,1.109566 -4,5.941406 -1.725657,5.522103 0.688881,18.291541 0.34375,24.503906 -0.07347,1.322505 -0.552587,3.174859 -1.238281,5.25 3.240593,-0.360675 4.45515,-0.489725 7.121094,-0.785156 4.480771,-5.874735 10.458334,-11.081281 13.099609,-14.128906 4.486708,-5.176972 14.150391,-4.832031 14.150391,-4.832031 0,0 -12.769961,-1.03468 -16.566407,-3.105469 -3.796446,-2.070788 -7.9375,-8.97461 -7.9375,-8.97461 0,0 -1.724705,-3.44979 -4.140625,-3.794921 -0.30199,-0.04314 -0.578575,-0.07085 -0.832031,-0.07422 z m -0.367187,38.724609 -0.3125,0.03906 c -2.034259,0.251835 -3.94777,0.509347 -5.617188,0.74414 -0.151154,0.385009 -0.278101,0.752706 -0.435547,1.140625 -2.201622,6.966704 -6.38076,13.397323 -7.24414,34.406246 -0.02103,0.49939 -0.219038,0.97501 -0.558594,1.3418 -3.508791,3.78821 -5.274723,13.54174 -5.644531,22.20899 -0.296984,6.96044 0.04297,12.10715 0.208984,14.29101 h 17.929687 c -4.078279,-2.98977 -11.715781,-9.33213 -11.96875,-15.15039 -0.345131,-7.93803 2.070313,-17.94727 2.070313,-17.94726 0,0 10.010195,11.38876 13.806641,13.80468 3.796445,2.41592 12.769435,-4.48505 10.353515,-7.24609 -2.41592,-2.76106 -15.53125,-28.302312 -15.53125,-38.656251 0,-2.965145 1.181699,-6.011854 2.94336,-8.976563 z"
       style="display:inline;opacity:0.3;stroke-width:0;stroke-linejoin:round"
       id="path32" /><path
       d="m 116.63672,91.710937 v 5.720704 l -0.002,5.718749 3.97656,-0.22461 2.19922,-0.125 v -1.30859 h 1.95117 l 0.0332,-0.23828 0.20703,-1.447269 1.83985,-0.212891 1.83984,-0.210938 V 96.75 94.619141 c -0.005,0.0063 -0.0101,0.05509 -0.0156,0.05078 -0.092,-0.07208 -2.20144,-0.236489 -4.68555,-0.365235 l -4.51563,-0.234375 v -1.308593 -0.720703 l -0.48632,-0.05664 z m 11.04101,3.076172 c 0.18401,0 0.33399,0.149976 0.33399,0.333985 0,0.184008 -0.14998,0.335937 -0.33399,0.335937 -0.184,0 -0.33398,-0.151929 -0.33398,-0.335937 0,-0.184009 0.14998,-0.333985 0.33398,-0.333985 z"
       style="opacity:0.42"
       id="path30" /></g></svg>
